<svg width="35" height="34" viewBox="0 0 35 34" fill="none" xmlns="http://www.w3.org/2000/svg">
<rect x="0.701172" y="0.0400391" width="33.7335" height="33.7335" rx="2.40954" fill="#688F99" fill-opacity="0.15"/>
<path d="M7.25088 12.6929V12.0906C6.9182 12.0906 6.6485 12.3603 6.6485 12.6929H7.25088ZM27.2348 12.6929H27.8372C27.8372 12.3603 27.5675 12.0906 27.2348 12.0906V12.6929ZM26.6325 14.0749C26.6325 14.4076 26.9022 14.6773 27.2348 14.6773C27.5675 14.6773 27.8372 14.4076 27.8372 14.0749H26.6325ZM14.8893 15.5616C14.8102 15.2384 14.4841 15.0406 14.1609 15.1198C13.8378 15.1989 13.64 15.525 13.7191 15.8482L14.8893 15.5616ZM14.8911 18.1012L14.306 18.2445C14.372 18.514 14.6136 18.7035 14.8911 18.7035V18.1012ZM17.2422 18.7035C17.5749 18.7035 17.8446 18.4338 17.8446 18.1012C17.8446 17.7685 17.5749 17.4988 17.2422 17.4988V18.7035ZM21.9454 16.9805V16.3781C21.6127 16.3781 21.343 16.6478 21.343 16.9805H21.9454ZM28.4109 19.2483H29.0133C29.0133 18.9156 28.7436 18.6459 28.4109 18.6459V19.2483ZM23.9088 27.7526L23.6217 28.2821C23.7975 28.3774 24.0091 28.3793 24.1865 28.2871L23.9088 27.7526ZM23.0168 24.3222L22.6823 24.8232L23.0168 24.3222ZM25.9098 16.9805H26.5121C26.5121 16.6478 26.2424 16.3781 25.9098 16.3781V16.9805ZM10.6641 18.7167V19.3191C10.9967 19.3191 11.2664 19.0495 11.2665 18.7169L10.6641 18.7167ZM22.7475 27.1231L23.0346 26.5935L22.7475 27.1231ZM19.5942 19.3901V18.7877C19.2616 18.7877 18.9919 19.0574 18.9919 19.3901H19.5942ZM24.8637 11.1664L25.1607 11.6905L24.8637 11.1664ZM10.1743 20.9845V22.9334H11.3791V20.9845H10.1743ZM9.5719 23.5358H8.45565V24.7405H9.5719V23.5358ZM26.6325 12.6929V14.0749H27.8372V12.6929H26.6325ZM7.25088 13.2953H24.7337V12.0906H7.25088V13.2953ZM24.7337 13.2953H27.2348V12.0906H24.7337V13.2953ZM25.336 12.6929V11.2401H24.1313V12.6929H25.336ZM25.27 10.9659L23.9124 8.31009L22.8396 8.85846L24.1973 11.5143L25.27 10.9659ZM21.2305 6.6691H12.6924V7.87387H21.2305V6.6691ZM9.9954 8.34012L8.68689 10.972L9.76568 11.5083L11.0742 8.87648L9.9954 8.34012ZM8.6239 11.2401V12.6929H9.82867V11.2401H8.6239ZM9.43917 10.6766L8.87437 10.4632L8.4486 11.5903L9.0134 11.8036L9.43917 10.6766ZM7.85327 22.9334V20.9845H6.6485V22.9334H7.85327ZM7.25088 21.5869H16.1667V20.3821H7.25088V21.5869ZM7.85327 15.7049V12.6929H6.6485V15.7049H7.85327ZM7.2259 16.3067L7.77239 16.3294L7.82236 15.1257L7.27587 15.103L7.2259 16.3067ZM7.85327 20.9845V18.7167H6.6485V20.9845H7.85327ZM7.85327 18.7167V15.7049H6.6485V18.7167H7.85327ZM10.6641 18.1143H7.25088V19.3191H10.6641V18.1143ZM13.7191 15.8482L14.306 18.2445L15.4762 17.9579L14.8893 15.5616L13.7191 15.8482ZM14.8911 18.7035H17.2422V17.4988H14.8911V18.7035ZM22.5478 17.0389V16.9805H21.343V17.0389H22.5478ZM28.1775 19.8507H28.4109V18.6459H28.1775V19.8507ZM27.8086 19.2483V21.7549H29.0133V19.2483H27.8086ZM24.8862 26.566L23.6311 27.218L24.1865 28.2871L25.4416 27.6351L24.8862 26.566ZM24.1959 27.223L23.0346 26.5935L22.4605 27.6527L23.6217 28.2821L24.1959 27.223ZM20.1966 21.8272V19.3901H18.9919V21.8272H20.1966ZM21.343 21.1972V22.3184H22.5478V21.1972H21.343ZM22.6823 24.8232L23.5743 25.4188L24.2433 24.4169L23.3514 23.8212L22.6823 24.8232ZM21.9454 17.5829H25.9098V16.3781H21.9454V17.5829ZM25.0306 11.7642L25.1607 11.6905L24.5667 10.6424L24.4367 10.7161L25.0306 11.7642ZM21.343 22.3184C21.343 23.3246 21.8455 24.2644 22.6823 24.8232L23.3514 23.8212C22.8493 23.486 22.5478 22.9221 22.5478 22.3184H21.343ZM27.8086 21.7549C27.8086 23.7783 26.6818 25.6333 24.8862 26.566L25.4416 27.6351C27.6362 26.4952 29.0133 24.2279 29.0133 21.7549H27.8086ZM25.3074 16.9805C25.3074 18.5657 26.5924 19.8507 28.1775 19.8507V18.6459C27.2578 18.6459 26.5121 17.9003 26.5121 16.9805H25.3074ZM7.77239 16.3294C9.05212 16.3825 10.0621 17.4357 10.0617 18.7165L11.2665 18.7169C11.2671 16.79 9.74762 15.2056 7.82236 15.1257L7.77239 16.3294ZM23.9124 8.31009C23.3975 7.30289 22.3617 6.6691 21.2305 6.6691V7.87387C21.9092 7.87387 22.5307 8.25414 22.8396 8.85846L23.9124 8.31009ZM23.0346 26.5935C21.2859 25.6456 20.1966 23.8163 20.1966 21.8272H18.9919C18.9919 24.2583 20.3231 26.4942 22.4605 27.6527L23.0346 26.5935ZM12.6924 6.6691C11.5491 6.6691 10.5044 7.3164 9.9954 8.34012L11.0742 8.87648C11.3796 8.26225 12.0064 7.87387 12.6924 7.87387V6.6691ZM19.5942 19.9924C21.2254 19.9924 22.5478 18.6701 22.5478 17.0389H21.343C21.343 18.0047 20.56 18.7877 19.5942 18.7877V19.9924ZM10.1743 22.9334C10.1743 23.2661 9.90459 23.5358 9.5719 23.5358V24.7405C10.57 24.7405 11.3791 23.9315 11.3791 22.9334H10.1743ZM25.1607 11.6905C25.6407 11.4185 26.1829 11.2756 26.7346 11.2756V10.0708C25.9747 10.0708 25.2278 10.2677 24.5667 10.6424L25.1607 11.6905ZM8.87437 10.4632C8.18751 10.2038 7.45934 10.0708 6.7251 10.0708V11.2756C7.31389 11.2756 7.89781 11.3822 8.4486 11.5903L8.87437 10.4632ZM8.45565 23.5358C8.12297 23.5358 7.85327 23.2661 7.85327 22.9334H6.6485C6.6485 23.9315 7.45759 24.7405 8.45565 24.7405V23.5358Z" fill="#1C272C"/>
</svg>
