<svg width="33" height="32" viewBox="0 0 33 32" fill="none" xmlns="http://www.w3.org/2000/svg">
<path d="M9.75325 14.6663C11.1677 14.6663 12.5243 14.1044 13.5245 13.1042C14.5247 12.1041 15.0866 10.7475 15.0866 9.33301V7.99967C15.0866 7.29243 15.3675 6.61415 15.8676 6.11406C16.3677 5.61396 17.046 5.33301 17.7533 5.33301C18.4605 5.33301 19.1388 5.61396 19.6389 6.11406C20.139 6.61415 20.4199 7.29243 20.4199 7.99967V14.6663H24.4199C25.1272 14.6663 25.8054 14.9473 26.3055 15.4474C26.8056 15.9475 27.0866 16.6258 27.0866 17.333L25.7533 23.9997C25.5613 24.817 25.1973 25.5197 24.7173 26.001C24.2359 26.481 23.6639 26.7157 23.0866 26.6663H13.7533C12.6924 26.6663 11.675 26.2449 10.9248 25.4948C10.1747 24.7446 9.75325 23.7272 9.75325 22.6663M9.75325 14.6663V25.333C9.75325 25.6866 9.61278 26.0258 9.36273 26.2758C9.11268 26.5259 8.77354 26.6663 8.41992 26.6663H5.75326C5.39963 26.6663 5.06049 26.5259 4.81045 26.2758C4.5604 26.0258 4.41992 25.6866 4.41992 25.333V15.9997C4.41992 15.6461 4.5604 15.3069 4.81045 15.0569C5.06049 14.8068 5.39963 14.6663 5.75326 14.6663H9.75325Z" stroke="white" stroke-width="2.02567" stroke-linecap="round" stroke-linejoin="round"/>
</svg>
