<svg width="33" height="33" viewBox="0 0 33 33" fill="none" xmlns="http://www.w3.org/2000/svg">
<path d="M18.9971 4.25391V9.58724C18.9971 9.94086 19.1375 10.28 19.3876 10.53C19.6376 10.7801 19.9768 10.9206 20.3304 10.9206H25.6637" stroke="white" stroke-width="2.02567" stroke-linecap="round" stroke-linejoin="round"/>
<path d="M16.3304 28.2539H9.66374C8.95649 28.2539 8.27822 27.973 7.77812 27.4729C7.27802 26.9728 6.99707 26.2945 6.99707 25.5872V6.92057C6.99707 6.21333 7.27802 5.53505 7.77812 5.03495C8.27822 4.53486 8.95649 4.25391 9.66374 4.25391H18.9971L25.6637 10.9206V16.9206" stroke="white" stroke-width="2.02567" stroke-linecap="round" stroke-linejoin="round"/>
<path d="M22.3304 26.9206C23.2145 26.9206 24.0623 26.5694 24.6874 25.9443C25.3125 25.3191 25.6637 24.4713 25.6637 23.5872C25.6637 22.7032 25.3125 21.8553 24.6874 21.2302C24.0623 20.6051 23.2145 20.2539 22.3304 20.2539C21.4463 20.2539 20.5985 20.6051 19.9734 21.2302C19.3483 21.8553 18.9971 22.7032 18.9971 23.5872C18.9971 24.4713 19.3483 25.3191 19.9734 25.9443C20.5985 26.5694 21.4463 26.9206 22.3304 26.9206V26.9206Z" stroke="white" stroke-width="2.02567" stroke-linecap="round" stroke-linejoin="round"/>
<path d="M24.9971 26.2539L28.3304 29.5872" stroke="white" stroke-width="2.02567" stroke-linecap="round" stroke-linejoin="round"/>
</svg>
