<svg width="33" height="33" viewBox="0 0 33 33" fill="none" xmlns="http://www.w3.org/2000/svg">
<path d="M16.917 28.2539C18.4929 28.2539 20.0533 27.9435 21.5092 27.3405C22.9651 26.7374 24.288 25.8535 25.4023 24.7392C26.5166 23.6249 27.4005 22.302 28.0035 20.8461C28.6066 19.3902 28.917 17.8298 28.917 16.2539C28.917 14.678 28.6066 13.1176 28.0035 11.6617C27.4005 10.2058 26.5166 8.88293 25.4023 7.76862C24.288 6.65432 22.9651 5.77041 21.5092 5.16735C20.0533 4.5643 18.4929 4.25391 16.917 4.25391C13.7344 4.25391 10.6821 5.51819 8.43171 7.76862C6.18127 10.0191 4.91699 13.0713 4.91699 16.2539C4.91699 19.4365 6.18127 22.4888 8.43171 24.7392C10.6821 26.9896 13.7344 28.2539 16.917 28.2539V28.2539Z" stroke="white" stroke-width="2.02567" stroke-linecap="round" stroke-linejoin="round"/>
<path d="M12.916 16.2536L15.5827 18.9202L20.916 13.5869" stroke="white" stroke-width="2.02567" stroke-linecap="round" stroke-linejoin="round"/>
</svg>
