<svg width="29" height="28" viewBox="0 0 29 28" fill="none" xmlns="http://www.w3.org/2000/svg">
<path d="M4.95703 23.8L6.27044 19.3698C5.13485 17.4819 4.72466 15.2464 5.11464 13.0791C5.50462 10.9117 6.67053 8.95903 8.39211 7.58569C10.1137 6.21121 12.2768 5.51034 14.4782 5.60917C16.6797 5.7114 18.7701 6.60651 20.3593 8.13093C21.9495 9.65649 22.9316 11.7057 23.1225 13.9003C23.3145 16.0938 22.7012 18.2828 21.3989 20.0594C20.0956 21.836 18.1932 23.0787 16.0422 23.558C13.8902 24.0374 11.6393 23.7193 9.70552 22.664L4.95703 23.8Z" stroke="white" stroke-width="1.4063" stroke-linecap="round" stroke-linejoin="round"/>
<path d="M15.1069 14.7253V14.7371" stroke="white" stroke-width="1.4063" stroke-linecap="round" stroke-linejoin="round"/>
<path d="M10.9067 14.7253V14.7371" stroke="white" stroke-width="1.4063" stroke-linecap="round" stroke-linejoin="round"/>
<path d="M19.3071 14.7253V14.7371" stroke="white" stroke-width="1.4063" stroke-linecap="round" stroke-linejoin="round"/>
</svg>
