<svg width="29" height="28" viewBox="0 0 29 28" fill="none" xmlns="http://www.w3.org/2000/svg">
<path d="M13.6177 10.5V14.7L17.1177 16.8" stroke="white" stroke-width="1.4063" stroke-linecap="round" stroke-linejoin="round"/>
<path d="M4.51758 22.75V17.5H10.1176" stroke="white" stroke-width="1.4063" stroke-linecap="round" stroke-linejoin="round"/>
<path d="M6.01032 19.7391L5.42527 20.1291H5.42527L6.01032 19.7391ZM3.81443 14.7C3.81443 15.0883 4.12924 15.4031 4.51758 15.4031C4.90592 15.4031 5.22073 15.0883 5.22073 14.7H3.81443ZM7.72504 7.54391L8.16844 8.08964L7.72504 7.54391ZM6.59538 19.3491L5.10263 17.1099L3.93252 17.89L5.42527 20.1291L6.59538 19.3491ZM5.22073 14.7V14.2827H3.81443V14.7H5.22073ZM13.2003 6.30312H13.6176V4.89683H13.2003V6.30312ZM22.0144 14.7C22.0144 19.3362 18.2437 23.0968 13.6049 23.0968V24.5031C19.0178 24.5031 23.4207 20.1154 23.4207 14.7H22.0144ZM8.16844 8.08964C9.5908 6.93397 11.3676 6.30312 13.2003 6.30312V4.89683C11.0446 4.89683 8.95468 5.63885 7.28164 6.99819L8.16844 8.08964ZM23.4207 14.7C23.4207 9.28585 19.0317 4.89683 13.6176 4.89683V6.30312C18.255 6.30312 22.0144 10.0625 22.0144 14.7H23.4207ZM13.6049 23.0968C10.7903 23.0968 8.15599 21.69 6.59538 19.3491L5.42527 20.1291C7.24734 22.8622 10.3213 24.5031 13.6049 24.5031V23.0968ZM5.22073 14.2827C5.22073 11.8798 6.30353 9.60487 8.16844 8.08964L7.28164 6.99819C5.08807 8.78047 3.81443 11.4563 3.81443 14.2827H5.22073Z" fill="white"/>
</svg>
