<svg width="24" height="24" viewBox="0 0 24 24" fill="none" xmlns="http://www.w3.org/2000/svg">
<path d="M11.9995 17C12.2828 17 12.5205 16.904 12.7125 16.712C12.9038 16.5207 12.9995 16.2833 12.9995 16V11.975C12.9995 11.6917 12.9038 11.4583 12.7125 11.275C12.5205 11.0917 12.2828 11 11.9995 11C11.7162 11 11.4788 11.0957 11.2875 11.287C11.0955 11.479 10.9995 11.7167 10.9995 12V16.025C10.9995 16.3083 11.0955 16.5417 11.2875 16.725C11.4788 16.9083 11.7162 17 11.9995 17ZM11.9995 9C12.2828 9 12.5205 8.904 12.7125 8.712C12.9038 8.52067 12.9995 8.28333 12.9995 8C12.9995 7.71667 12.9038 7.479 12.7125 7.287C12.5205 7.09567 12.2828 7 11.9995 7C11.7162 7 11.4788 7.09567 11.2875 7.287C11.0955 7.479 10.9995 7.71667 10.9995 8C10.9995 8.28333 11.0955 8.52067 11.2875 8.712C11.4788 8.904 11.7162 9 11.9995 9ZM11.9995 22C10.6162 22 9.31618 21.7373 8.09951 21.212C6.88285 20.6873 5.82451 19.975 4.92451 19.075C4.02451 18.175 3.31218 17.1167 2.78751 15.9C2.26218 14.6833 1.99951 13.3833 1.99951 12C1.99951 10.6167 2.26218 9.31667 2.78751 8.1C3.31218 6.88333 4.02451 5.825 4.92451 4.925C5.82451 4.025 6.88285 3.31233 8.09951 2.787C9.31618 2.26233 10.6162 2 11.9995 2C13.3828 2 14.6828 2.26233 15.8995 2.787C17.1162 3.31233 18.1745 4.025 19.0745 4.925C19.9745 5.825 20.6868 6.88333 21.2115 8.1C21.7368 9.31667 21.9995 10.6167 21.9995 12C21.9995 13.3833 21.7368 14.6833 21.2115 15.9C20.6868 17.1167 19.9745 18.175 19.0745 19.075C18.1745 19.975 17.1162 20.6873 15.8995 21.212C14.6828 21.7373 13.3828 22 11.9995 22ZM11.9995 20C14.2162 20 16.1038 19.221 17.6625 17.663C19.2205 16.1043 19.9995 14.2167 19.9995 12C19.9995 9.78333 19.2205 7.89567 17.6625 6.337C16.1038 4.779 14.2162 4 11.9995 4C9.78285 4 7.89551 4.779 6.33751 6.337C4.77884 7.89567 3.99951 9.78333 3.99951 12C3.99951 14.2167 4.77884 16.1043 6.33751 17.663C7.89551 19.221 9.78285 20 11.9995 20Z" fill="white"/>
</svg>
