<svg width="19" height="20" viewBox="0 0 19 20" fill="none" xmlns="http://www.w3.org/2000/svg">
<path d="M15.8333 10.4773V6.51855M15.8333 6.51855H10.4768V1.396M15.8333 6.51855L10.4768 1.396M10.4768 1.396H4.375C3.27043 1.396 2.375 2.29143 2.375 3.396V16.8127C2.375 17.9172 3.27043 18.8127 4.375 18.8127H8.19576M5.02909 12.4793H10.0509M5.02909 9.31266H11.8587" stroke="white" stroke-width="1.2" stroke-linecap="round" stroke-linejoin="round"/>
<path d="M10.3791 17.3708V14.4523L13.1791 13.2078C13.2825 13.1618 13.4006 13.1618 13.504 13.2078L16.3041 14.4523V17.3708C16.3041 17.5289 16.211 17.6721 16.0665 17.7363L13.3416 18.9474L10.6166 17.7363C10.4721 17.6721 10.3791 17.5289 10.3791 17.3708Z" stroke="white" stroke-width="1.2"/>
</svg>
