<svg width="51" height="50" viewBox="0 0 51 50" fill="none" xmlns="http://www.w3.org/2000/svg">
<path d="M42.5 25.4385V14.8125M42.5 14.8125H28.1219V1.0625M42.5 14.8125L28.1219 1.0625M28.1219 1.0625H10.625C8.27779 1.0625 6.375 2.96529 6.375 5.3125V43.5625C6.375 45.9097 8.27779 47.8125 10.625 47.8125H21.9991M13.4991 30.8125H26.9786M13.4991 22.3125H31.8312" stroke="white" stroke-width="2" stroke-linecap="round" stroke-linejoin="round"/>
<path d="M27.249 44.3065V35.7124L35.3546 32.1099C35.6455 31.9806 35.9775 31.9806 36.2684 32.1099L44.374 35.7124V44.3065C44.374 44.7511 44.1122 45.154 43.7059 45.3346L35.8115 48.8432L27.9171 45.3346C27.5108 45.154 27.249 44.7511 27.249 44.3065Z" stroke="white" stroke-width="2"/>
</svg>
