<svg width="40" height="40" viewBox="0 0 40 40" fill="none" xmlns="http://www.w3.org/2000/svg">
<path d="M34.0665 20.671V12.4411M34.0665 12.4411H22.9304V1.7915M34.0665 12.4411L22.9304 1.7915M22.9304 1.7915H9.37884C7.56089 1.7915 6.08716 3.26524 6.08716 5.08319V34.7083C6.08716 36.5263 7.56089 38 9.37884 38H18.1883M11.6049 24.8333H22.0449M11.6049 18.2499H25.8034" stroke="white" stroke-width="2.46876" stroke-linecap="round" stroke-linejoin="round"/>
<path d="M29.9617 26.7803L34.1873 28.6584L29.7217 30.6431L25.2561 28.6584L29.4817 26.7803C29.6345 26.7124 29.8089 26.7124 29.9617 26.7803ZM23.9599 30.0224L28.8353 32.1892V37.636L24.3109 35.6252C24.0974 35.5303 23.9599 35.3187 23.9599 35.0851V30.0224ZM35.1325 35.6252L30.6081 37.636V32.1892L35.4834 30.0224V35.0851C35.4834 35.3187 35.3459 35.5303 35.1325 35.6252Z" stroke="white" stroke-width="1.77285"/>
</svg>
