<svg width="23" height="23" viewBox="0 0 49 35" fill="none" xmlns="http://www.w3.org/2000/svg">
<path d="M48.4632 16.6073C48.3809 16.4316 46.6731 12.3676 42.8459 8.30365C39.0187 4.23969 33.2162 0 24.2861 0C15.356 0 9.26547 4.5033 5.72635 8.30365C2.18723 12.104 0.191337 16.4316 0.109032 16.6073C0.037209 16.7725 0 16.9524 0 17.1345C0 17.3166 0.037209 17.4965 0.109032 17.6617C0.191337 17.8375 1.89917 21.9014 5.72635 25.9654C9.55353 30.0293 15.356 34.269 24.2861 34.269C33.2162 34.269 39.3068 29.7657 42.8459 25.9654C46.385 22.165 48.3809 17.8375 48.4632 17.6617C48.5351 17.4965 48.5723 17.3166 48.5723 17.1345C48.5723 16.9524 48.5351 16.7725 48.4632 16.6073ZM24.2861 31.6329C17.8252 31.6329 12.1873 29.1287 7.53706 24.186C5.5762 22.1118 3.91845 19.7348 2.61934 17.1345C3.91845 14.5343 5.5762 12.1572 7.53706 10.083C12.1873 5.14036 17.8252 2.63608 24.2861 2.63608C30.7471 2.63608 36.385 5.14036 41.0352 10.083C42.9961 12.1572 44.6538 14.5343 45.9529 17.1345C44.636 19.8145 38.0722 31.6329 24.2861 31.6329ZM24.2861 7.02954C22.4141 7.02954 20.5841 7.62219 19.0276 8.73254C17.4711 9.84289 16.2579 11.4211 15.5415 13.2675C14.8252 15.114 14.6377 17.1457 15.0029 19.1059C15.3681 21.0661 16.2696 22.8666 17.5933 24.2798C18.917 25.693 20.6035 26.6554 22.4396 27.0453C24.2756 27.4352 26.1787 27.2351 27.9083 26.4703C29.6378 25.7055 31.116 24.4103 32.1561 22.7485C33.1961 21.0868 33.7512 19.1331 33.7512 17.1345C33.7512 14.4545 32.754 11.8843 30.979 9.98922C29.2039 8.09417 26.7964 7.02954 24.2861 7.02954ZM24.2861 24.6034C22.9025 24.6034 21.5499 24.1654 20.3994 23.3447C19.2489 22.524 18.3522 21.3575 17.8227 19.9927C17.2932 18.628 17.1547 17.1262 17.4246 15.6774C17.6946 14.2286 18.3609 12.8978 19.3393 11.8532C20.3177 10.8087 21.5642 10.0973 22.9213 9.80914C24.2784 9.52095 25.685 9.66886 26.9634 10.2342C28.2417 10.7995 29.3343 11.7568 30.103 12.985C30.8718 14.2133 31.2821 15.6573 31.2821 17.1345C31.2766 19.1136 30.5378 21.01 29.227 22.4094C27.9162 23.8088 26.1399 24.5976 24.2861 24.6034Z" fill="#3293D9"/>
</svg>
