<svg width="24" height="17" viewBox="0 0 24 17" fill="none" xmlns="http://www.w3.org/2000/svg">
<path d="M23.5204 8.24879C23.4811 8.16505 22.6674 6.22859 20.8437 4.29212C19.0201 2.35565 16.2552 0.335449 12 0.335449C7.74485 0.335449 4.84271 2.48126 3.15633 4.29212C1.46995 6.10298 0.518906 8.16505 0.479688 8.24879C0.445464 8.3275 0.427734 8.41323 0.427734 8.50001C0.427734 8.58678 0.445464 8.67251 0.479688 8.75122C0.518906 8.83496 1.33268 10.7714 3.15633 12.7079C4.97997 14.6444 7.74485 16.6646 12 16.6646C16.2552 16.6646 19.1573 14.5188 20.8437 12.7079C22.5301 10.897 23.4811 8.83496 23.5204 8.75122C23.5546 8.67251 23.5723 8.58678 23.5723 8.50001C23.5723 8.41323 23.5546 8.3275 23.5204 8.24879ZM12 15.4085C8.9214 15.4085 6.23495 14.2152 4.01913 11.86C3.08478 10.8717 2.29486 9.73901 1.67584 8.50001C2.29486 7.261 3.08478 6.12834 4.01913 5.13998C6.23495 2.78482 8.9214 1.59153 12 1.59153C15.0786 1.59153 17.7651 2.78482 19.9809 5.13998C20.9153 6.12834 21.7052 7.261 22.3242 8.50001C21.6967 9.77703 18.5691 15.4085 12 15.4085ZM12 3.68501C11.108 3.68501 10.236 3.96741 9.49435 4.49648C8.75267 5.02556 8.1746 5.77756 7.83324 6.65739C7.49189 7.53721 7.40257 8.50535 7.57659 9.43937C7.75062 10.3734 8.18016 11.2313 8.81091 11.9047C9.44165 12.5781 10.2453 13.0367 11.1201 13.2225C11.995 13.4083 12.9018 13.3129 13.726 12.9485C14.5501 12.584 15.2544 11.9669 15.75 11.1751C16.2456 10.3833 16.5101 9.45232 16.5101 8.50001C16.5101 7.22299 16.0349 5.99828 15.1891 5.09529C14.3433 4.1923 13.1962 3.68501 12 3.68501ZM12 12.0589C11.3407 12.0589 10.6962 11.8502 10.148 11.4591C9.5998 11.0681 9.17254 10.5122 8.92023 9.86194C8.66792 9.21164 8.6019 8.49606 8.73053 7.8057C8.85916 7.11534 9.17665 6.4812 9.64285 5.98348C10.1091 5.48575 10.703 5.1468 11.3497 5.00948C11.9963 4.87216 12.6666 4.94264 13.2757 5.212C13.8848 5.48137 14.4055 5.93752 14.7718 6.52278C15.1381 7.10804 15.3336 7.79612 15.3336 8.50001C15.331 9.44304 14.9789 10.3467 14.3543 11.0135C13.7297 11.6803 12.8833 12.0562 12 12.0589Z" fill="#444444"/>
</svg>
