<svg width="147" height="130" viewBox="0 0 147 130" fill="none" xmlns="http://www.w3.org/2000/svg">
<circle cx="73.9952" cy="64.9756" r="64.9756" fill="#688F99" fill-opacity="0.15"/>
<path d="M1 67.38L8.55142 63.856C11.526 62.4679 14.3055 60.6955 16.819 58.5842L20.3673 55.6036C22.1415 54.1133 23.5752 52.2595 24.5714 50.1674L25.75 47.6923C26.6036 45.8996 26.8071 43.8659 26.3256 41.9396L26.283 41.7694C25.76 39.6773 24.4273 37.8786 22.5781 36.7691L22.439 36.6856C21.7874 36.2947 21.0775 36.0105 20.3361 35.8439V35.8439C19.2849 35.6076 18.1969 35.5866 17.1374 35.7821L16.5449 35.8914C15.8117 36.0267 15.1023 36.2692 14.4397 36.6112L14.2943 36.6863C13.882 36.8991 13.4965 37.1604 13.1462 37.4645L12.8586 37.7142C11.6952 38.7241 11.0271 40.1889 11.0271 41.7294V41.7294C11.0271 43.2481 11.6766 44.6944 12.8117 45.7034L13.1319 45.988C14.1106 46.858 15.3371 47.3998 16.6393 47.5373L17.7292 47.6525H18.196C18.8943 47.6525 19.5882 47.5422 20.2521 47.3258V47.3258V47.3258C23.1602 46.5327 25.8667 45.131 28.1925 43.2135L31.4167 40.5553L44.3171 28.0737" stroke="#A6A6A4" stroke-width="1.09341"/>
<rect x="45.9277" y="27.2896" width="56.1518" height="75.4038" rx="5.46703" fill="white"/>
<rect x="53.1436" y="37.7056" width="19.252" height="4.81301" rx="2.40651" fill="#EF8F6C"/>
<rect x="142.187" y="93.0386" width="4.81301" height="4.81301" rx="2.40651" fill="#EF8F6C"/>
<rect x="107.208" y="25.6719" width="4.81301" height="4.81301" rx="2.40651" fill="#FBDB5A"/>
<rect x="118.024" y="25.6719" width="14.439" height="4.81301" rx="2.40651" fill="#D6D6D6"/>
<rect x="53.1436" y="48.9458" width="40.9106" height="4.81301" rx="2.40651" fill="#D9D8D6"/>
<rect x="53.1436" y="60.9521" width="40.9106" height="4.81301" rx="2.40651" fill="#D9D8D6"/>
<rect x="53.1436" y="73" width="40.9106" height="4.81301" rx="2.40651" fill="#D9D8D6"/>
<rect x="53.1436" y="85.0337" width="40.9106" height="4.81301" rx="2.40651" fill="#D9D8D6"/>
<path d="M117.951 114.114L104.438 100.403L109.975 95.3472L123.525 108.498C125.086 110.013 125.131 112.504 123.626 114.074C122.083 115.684 119.516 115.702 117.951 114.114Z" fill="#688F99"/>
<path d="M117.961 114.178L116.475 112.691L122.252 107.395L123.449 108.521C125.044 110.023 125.109 112.537 123.593 114.118C122.065 115.713 119.524 115.74 117.961 114.178Z" fill="#FEDB4B"/>
<circle cx="90.2481" cy="79.692" r="25.6192" stroke="#688F99" stroke-width="4"/>
<path d="M81.6934 70.4951L99.4486 88.2503M99.4486 70.4951L81.6934 88.2503" stroke="#888888" stroke-width="4" stroke-linecap="round"/>
<path d="M30.963 104.295L29.8782 103.904L30.963 103.512C32.34 103.015 33.4242 101.931 33.9211 100.554L34.3126 99.4694L34.704 100.554C35.2009 101.931 36.2851 103.015 37.6622 103.512L38.747 103.904L37.6622 104.295C36.2851 104.792 35.2009 105.876 34.704 107.254L34.3126 108.338L33.9211 107.253C33.4242 105.876 32.34 104.792 30.963 104.295Z" stroke="#ED8864" stroke-width="1.09341"/>
</svg>
