<svg width="120" height="120" viewBox="0 0 120 120" fill="none" xmlns="http://www.w3.org/2000/svg">
<path d="M60 0C93.114 0 120 26.886 120 60C120 93.114 93.114 120 60 120C26.886 120 0 93.114 0 60C0 26.886 26.886 0 60 0Z" fill="#34C759"/>
<path d="M60 0C93.114 0 120 26.886 120 60C120 93.114 93.114 120 60 120C26.886 120 0 93.114 0 60C0 26.886 26.886 0 60 0Z" fill="white"/>
<path d="M60 0C93.114 0 120 26.886 120 60C120 93.114 93.114 120 60 120C26.886 120 0 93.114 0 60C0 26.886 26.886 0 60 0Z" fill="#34C759"/>
<path d="M39.1309 59.9999L52.1743 73.0433L80.8699 44.3477" stroke="white" stroke-width="12" stroke-linecap="round" stroke-linejoin="round"/>
</svg>
