<svg width="36" height="36" viewBox="0 0 36 36" fill="none" xmlns="http://www.w3.org/2000/svg">
<rect width="36" height="36" rx="2" fill="#00C8C8"/>
<path d="M19.3262 8.39844V12.1879C19.3262 12.4392 19.426 12.6801 19.6036 12.8578C19.7813 13.0355 20.0223 13.1353 20.2735 13.1353H24.063" stroke="white" stroke-width="1.68668" stroke-linecap="round" stroke-linejoin="round"/>
<path d="M17.4314 25.4511H12.6945C12.192 25.4511 11.7101 25.2514 11.3548 24.8961C10.9994 24.5408 10.7998 24.0588 10.7998 23.5563V10.2932C10.7998 9.79066 10.9994 9.30873 11.3548 8.95339C11.7101 8.59806 12.192 8.39844 12.6945 8.39844H19.3261L24.063 13.1353V17.3984" stroke="white" stroke-width="1.68668" stroke-linecap="round" stroke-linejoin="round"/>
<path d="M21.6946 24.5044C22.3227 24.5044 22.9252 24.2549 23.3693 23.8107C23.8135 23.3666 24.063 22.7641 24.063 22.136C24.063 21.5079 23.8135 20.9054 23.3693 20.4613C22.9252 20.0171 22.3227 19.7676 21.6946 19.7676C21.0664 19.7676 20.464 20.0171 20.0199 20.4613C19.5757 20.9054 19.3262 21.5079 19.3262 22.136C19.3262 22.7641 19.5757 23.3666 20.0199 23.8107C20.464 24.2549 21.0664 24.5044 21.6946 24.5044V24.5044Z" stroke="white" stroke-width="1.68668" stroke-linecap="round" stroke-linejoin="round"/>
<path d="M23.5898 24.0312L25.9583 26.3997" stroke="white" stroke-width="1.68668" stroke-linecap="round" stroke-linejoin="round"/>
</svg>
