<svg width="36" height="36" viewBox="0 0 36 36" fill="none" xmlns="http://www.w3.org/2000/svg">
<rect width="36" height="36" rx="2" fill="#ADD458"/>
<path d="M12.899 16.273C14.0921 16.273 15.2364 15.799 16.08 14.9554C16.9237 14.1117 17.3977 12.9675 17.3977 11.7744V10.6497C17.3977 10.0532 17.6346 9.48103 18.0565 9.0592C18.4783 8.63737 19.0504 8.40039 19.647 8.40039C20.2435 8.40039 20.8157 8.63737 21.2375 9.0592C21.6593 9.48103 21.8963 10.0532 21.8963 10.6497V16.273H25.2703C25.8668 16.273 26.439 16.51 26.8608 16.9318C27.2826 17.3537 27.5196 17.9258 27.5196 18.5223L26.3949 24.1456C26.233 24.835 25.926 25.4277 25.5211 25.8337C25.1151 26.2386 24.6326 26.4366 24.1456 26.3949H16.273C15.3782 26.3949 14.52 26.0395 13.8872 25.4067C13.2545 24.774 12.899 23.9158 12.899 23.021M12.899 16.273V25.2703C12.899 25.5686 12.7805 25.8546 12.5696 26.0655C12.3587 26.2765 12.0726 26.3949 11.7744 26.3949H9.52505C9.22677 26.3949 8.94071 26.2765 8.7298 26.0655C8.51888 25.8546 8.40039 25.5686 8.40039 25.2703V17.3977C8.40039 17.0994 8.51888 16.8133 8.7298 16.6024C8.94071 16.3915 9.22677 16.273 9.52505 16.273H12.899Z" stroke="white" stroke-width="1.68668" stroke-linecap="round" stroke-linejoin="round"/>
</svg>
