<svg width="36" height="36" viewBox="0 0 36 36" fill="none" xmlns="http://www.w3.org/2000/svg">
<rect width="36" height="36" rx="2" fill="#82B2E7"/>
<path d="M15.75 9.74805C15.75 9.15131 15.9871 8.57901 16.409 8.15706C16.831 7.7351 17.4033 7.49805 18 7.49805C18.5967 7.49805 19.169 7.7351 19.591 8.15706C20.0129 8.57901 20.25 9.15131 20.25 9.74805C21.542 10.359 22.6433 11.3099 23.4361 12.499C24.2288 13.6881 24.683 15.0705 24.75 16.498V19.873C24.8347 20.5725 25.0824 21.2422 25.4732 21.8284C25.864 22.4146 26.3869 22.9009 27 23.248H9C9.61306 22.9009 10.136 22.4146 10.5268 21.8284C10.9176 21.2422 11.1653 20.5725 11.25 19.873V16.498C11.317 15.0705 11.7712 13.6881 12.5639 12.499C13.3567 11.3099 14.458 10.359 15.75 9.74805" stroke="white" stroke-width="1.68668" stroke-linecap="round" stroke-linejoin="round"/>
<path d="M14.625 23.248V24.373C14.625 25.2682 14.9806 26.1266 15.6135 26.7595C16.2464 27.3925 17.1049 27.748 18 27.748C18.8951 27.748 19.7536 27.3925 20.3865 26.7595C21.0194 26.1266 21.375 25.2682 21.375 24.373V23.248" stroke="white" stroke-width="1.68668" stroke-linecap="round" stroke-linejoin="round"/>
</svg>
