<svg width="36" height="36" viewBox="0 0 36 36" fill="none" xmlns="http://www.w3.org/2000/svg">
<rect width="36" height="36" rx="2" fill="#FF9B6B"/>
<path d="M17.4004 26.4004C18.5823 26.4004 19.7526 26.1676 20.8445 25.7153C21.9365 25.263 22.9286 24.6001 23.7644 23.7644C24.6001 22.9286 25.263 21.9365 25.7153 20.8445C26.1676 19.7526 26.4004 18.5823 26.4004 17.4004C26.4004 16.2185 26.1676 15.0482 25.7153 13.9562C25.263 12.8643 24.6001 11.8722 23.7644 11.0364C22.9286 10.2007 21.9365 9.53777 20.8445 9.08547C19.7526 8.63318 18.5823 8.40039 17.4004 8.40039C15.0134 8.40039 12.7243 9.3486 11.0364 11.0364C9.3486 12.7243 8.40039 15.0134 8.40039 17.4004C8.40039 19.7873 9.3486 22.0765 11.0364 23.7644C12.7243 25.4522 15.0134 26.4004 17.4004 26.4004V26.4004Z" stroke="white" stroke-width="1.68668" stroke-linecap="round" stroke-linejoin="round"/>
<path d="M14.4004 17.4004L16.4004 19.4004L20.4004 15.4004" stroke="white" stroke-width="1.68668" stroke-linecap="round" stroke-linejoin="round"/>
</svg>
