<svg width="33" height="32" viewBox="0 0 33 32" fill="none" xmlns="http://www.w3.org/2000/svg">
<g clip-path="url(#clip0_3376_31098)">
<path d="M6.02344 11.25C5.60922 11.25 5.27344 11.5858 5.27344 12C5.27344 12.4142 5.60922 12.75 6.02344 12.75H11.0234C11.4376 12.75 11.7734 12.4142 11.7734 12C11.7734 11.5858 11.4376 11.25 11.0234 11.25H6.02344ZM6.02344 16.25C5.60922 16.25 5.27344 16.5858 5.27344 17C5.27344 17.4142 5.60922 17.75 6.02344 17.75H15.0234C15.4377 17.75 15.7734 17.4142 15.7734 17C15.7734 16.5858 15.4377 16.25 15.0234 16.25H6.02344ZM26.0234 22.25C26.4377 22.25 26.7734 21.9142 26.7734 21.5C26.7734 21.0858 26.4377 20.75 26.0234 20.75H6.02344C5.60922 20.75 5.27344 21.0858 5.27344 21.5C5.27344 21.9142 5.60922 22.25 6.02344 22.25H26.0234ZM19.2734 12V16C19.2734 16.9665 20.0569 17.75 21.0234 17.75H25.0234C25.9899 17.75 26.7734 16.9665 26.7734 16V12C26.7734 11.0335 25.9899 10.25 25.0234 10.25H21.0234C20.0569 10.25 19.2734 11.0335 19.2734 12ZM20.7734 16V12C20.7734 11.8619 20.8854 11.75 21.0234 11.75H25.0234C25.1615 11.75 25.2734 11.8619 25.2734 12V16C25.2734 16.1381 25.1615 16.25 25.0234 16.25H21.0234C20.8854 16.25 20.7734 16.1381 20.7734 16ZM3.02344 5.75H29.0234C29.7138 5.75 30.2734 6.30964 30.2734 7V25C30.2734 25.6904 29.7138 26.25 29.0234 26.25H3.02344C2.33308 26.25 1.77344 25.6904 1.77344 25V7C1.77344 6.30964 2.33308 5.75 3.02344 5.75Z" stroke="white" stroke-width="1.5" stroke-linecap="round"/>
</g>
<defs>
<clipPath id="clip0_3376_31098">
<rect width="32" height="32" fill="white" transform="translate(0.0234375)"/>
</clipPath>
</defs>
</svg>
