<svg width="86" height="18" viewBox="0 0 86 18" fill="none" xmlns="http://www.w3.org/2000/svg">
<path d="M4.80078 14.5H1.65874V4.31818H4.93999C5.92768 4.31818 6.77285 4.52202 7.4755 4.92969C8.17815 5.33404 8.71674 5.91572 9.09126 6.67472C9.46579 7.4304 9.65305 8.33523 9.65305 9.3892C9.65305 10.4498 9.46413 11.3629 9.08629 12.1286C8.70845 12.8909 8.15826 13.4775 7.43572 13.8885C6.71319 14.2962 5.83487 14.5 4.80078 14.5ZM2.89169 13.4062H4.72124C5.56309 13.4062 6.26077 13.2438 6.81428 12.919C7.36778 12.5942 7.78042 12.1319 8.0522 11.532C8.32398 10.9321 8.45987 10.2178 8.45987 9.3892C8.45987 8.56723 8.32564 7.85961 8.05717 7.26633C7.78871 6.66974 7.38767 6.21236 6.85405 5.89418C6.32043 5.57268 5.6559 5.41193 4.86044 5.41193H2.89169V13.4062ZM11.5621 14.5V6.86364H12.7354V14.5H11.5621ZM12.1587 5.59091C11.93 5.59091 11.7328 5.51302 11.5671 5.35724C11.4047 5.20147 11.3235 5.0142 11.3235 4.79545C11.3235 4.5767 11.4047 4.38944 11.5671 4.23366C11.7328 4.07789 11.93 4 12.1587 4C12.3874 4 12.583 4.07789 12.7454 4.23366C12.9111 4.38944 12.994 4.5767 12.994 4.79545C12.994 5.0142 12.9111 5.20147 12.7454 5.35724C12.583 5.51302 12.3874 5.59091 12.1587 5.59091ZM17.9668 17.5227C17.4 17.5227 16.9128 17.4498 16.5051 17.304C16.0975 17.1615 15.7578 16.9725 15.486 16.7372C15.2175 16.5052 15.0037 16.2566 14.8446 15.9915L15.7793 15.3352C15.8854 15.4744 16.0196 15.6335 16.182 15.8125C16.3444 15.9948 16.5665 16.1522 16.8482 16.2848C17.1332 16.4207 17.5061 16.4886 17.9668 16.4886C18.5833 16.4886 19.092 16.3395 19.4931 16.0412C19.8941 15.7429 20.0946 15.2756 20.0946 14.6392V13.0881H19.9952C19.909 13.2273 19.7864 13.3996 19.6273 13.6051C19.4715 13.8073 19.2462 13.9879 18.9512 14.147C18.6595 14.3028 18.2651 14.3807 17.7679 14.3807C17.1515 14.3807 16.598 14.2348 16.1074 13.9432C15.6202 13.6515 15.2341 13.2273 14.949 12.6705C14.6673 12.1136 14.5265 11.4375 14.5265 10.642C14.5265 9.85985 14.664 9.17874 14.9391 8.59872C15.2142 8.01539 15.597 7.56463 16.0875 7.24645C16.5781 6.92495 17.1448 6.7642 17.7878 6.7642C18.285 6.7642 18.6794 6.84706 18.9711 7.01278C19.266 7.17519 19.4914 7.3608 19.6472 7.5696C19.8063 7.77509 19.9289 7.94413 20.0151 8.0767H20.1344V6.86364H21.2679V14.7188C21.2679 15.375 21.1188 15.9086 20.8205 16.3196C20.5255 16.7339 20.1278 17.0372 19.6273 17.2294C19.1301 17.425 18.5766 17.5227 17.9668 17.5227ZM17.927 13.3267C18.3977 13.3267 18.7954 13.219 19.1202 13.0036C19.445 12.7881 19.6919 12.4782 19.861 12.0739C20.03 11.6695 20.1145 11.1856 20.1145 10.6222C20.1145 10.072 20.0317 9.58641 19.8659 9.16548C19.7002 8.74455 19.455 8.41477 19.1301 8.17614C18.8053 7.9375 18.4043 7.81818 17.927 7.81818C17.4299 7.81818 17.0156 7.94413 16.6841 8.19602C16.356 8.44792 16.1091 8.78598 15.9434 9.21023C15.781 9.63447 15.6998 10.1051 15.6998 10.6222C15.6998 11.1525 15.7826 11.6214 15.9483 12.0291C16.1174 12.4335 16.3659 12.7517 16.6941 12.9837C17.0255 13.2124 17.4365 13.3267 17.927 13.3267ZM23.4157 14.5V6.86364H24.589V14.5H23.4157ZM24.0123 5.59091C23.7836 5.59091 23.5864 5.51302 23.4206 5.35724C23.2582 5.20147 23.177 5.0142 23.177 4.79545C23.177 4.5767 23.2582 4.38944 23.4206 4.23366C23.5864 4.07789 23.7836 4 24.0123 4C24.2409 4 24.4365 4.07789 24.5989 4.23366C24.7646 4.38944 24.8475 4.5767 24.8475 4.79545C24.8475 5.0142 24.7646 5.20147 24.5989 5.35724C24.4365 5.51302 24.2409 5.59091 24.0123 5.59091ZM30.0589 6.86364V7.85795H26.1016V6.86364H30.0589ZM27.255 5.03409H28.4283V12.3125C28.4283 12.6439 28.4763 12.8925 28.5724 13.0582C28.6719 13.2206 28.7978 13.33 28.9503 13.3864C29.1061 13.4394 29.2701 13.4659 29.4425 13.4659C29.5717 13.4659 29.6778 13.4593 29.7607 13.446C29.8435 13.4295 29.9098 13.4162 29.9595 13.4062L30.1982 14.4602C30.1186 14.4901 30.0076 14.5199 29.8651 14.5497C29.7225 14.5829 29.5419 14.5994 29.3232 14.5994C28.9917 14.5994 28.6669 14.5282 28.3487 14.3857C28.0339 14.2431 27.772 14.026 27.5632 13.7344C27.3577 13.4427 27.255 13.0748 27.255 12.6307V5.03409ZM34.071 14.679C33.5871 14.679 33.148 14.5878 32.7536 14.4055C32.3591 14.2199 32.0459 13.9531 31.8139 13.6051C31.5819 13.2538 31.4659 12.8295 31.4659 12.3324C31.4659 11.8949 31.5521 11.5402 31.7244 11.2685C31.8968 10.9934 32.1271 10.7779 32.4155 10.6222C32.7038 10.4664 33.022 10.3504 33.37 10.2741C33.7214 10.1946 34.0743 10.1316 34.429 10.0852C34.893 10.0256 35.2692 9.98082 35.5575 9.95099C35.8492 9.91785 36.0613 9.86316 36.1939 9.78693C36.3298 9.7107 36.3977 9.57812 36.3977 9.3892V9.34943C36.3977 8.8589 36.2635 8.47775 35.995 8.20597C35.7299 7.93419 35.3272 7.7983 34.7869 7.7983C34.2268 7.7983 33.7876 7.92093 33.4695 8.16619C33.1513 8.41146 32.9276 8.6733 32.7983 8.9517L31.6847 8.55398C31.8835 8.08996 32.1487 7.72869 32.4801 7.47017C32.8149 7.20833 33.1795 7.02604 33.5739 6.9233C33.9716 6.81723 34.3627 6.7642 34.7472 6.7642C34.9924 6.7642 35.2741 6.79403 35.5923 6.85369C35.9138 6.91004 36.2237 7.0277 36.522 7.20668C36.8236 7.38565 37.0739 7.65578 37.2727 8.01705C37.4716 8.37831 37.571 8.86222 37.571 9.46875V14.5H36.3977V13.4659H36.3381C36.2585 13.6316 36.1259 13.8089 35.9403 13.9979C35.7547 14.1868 35.5078 14.3475 35.1996 14.4801C34.8913 14.6127 34.5152 14.679 34.071 14.679ZM34.25 13.625C34.714 13.625 35.1051 13.5339 35.4233 13.3516C35.7448 13.1693 35.9867 12.9339 36.1491 12.6456C36.3149 12.3572 36.3977 12.054 36.3977 11.7358V10.6619C36.348 10.7216 36.2386 10.7763 36.0696 10.826C35.9039 10.8724 35.7116 10.9138 35.4929 10.9503C35.2775 10.9834 35.067 11.0133 34.8615 11.0398C34.6593 11.063 34.4953 11.0829 34.3693 11.0994C34.0644 11.1392 33.7794 11.2038 33.5142 11.2933C33.2524 11.3795 33.0402 11.5104 32.8778 11.6861C32.7188 11.8584 32.6392 12.0937 32.6392 12.392C32.6392 12.7997 32.79 13.108 33.0916 13.3168C33.3965 13.5223 33.7827 13.625 34.25 13.625ZM40.8858 4.31818V14.5H39.7125V4.31818H40.8858ZM47.1314 14.5V4.31818H50.5717C51.3705 4.31818 52.0234 4.46236 52.5305 4.75071C53.041 5.03575 53.4188 5.42188 53.6641 5.90909C53.9093 6.39631 54.032 6.93987 54.032 7.53977C54.032 8.13968 53.9093 8.6849 53.6641 9.17543C53.4221 9.66596 53.0476 10.0571 52.5405 10.3487C52.0334 10.6371 51.3838 10.7812 50.5916 10.7812H48.1257V9.6875H50.5518C51.0987 9.6875 51.5379 9.59304 51.8693 9.40412C52.2008 9.2152 52.4411 8.95999 52.5902 8.63849C52.7427 8.31368 52.8189 7.94744 52.8189 7.53977C52.8189 7.1321 52.7427 6.76752 52.5902 6.44602C52.4411 6.12453 52.1991 5.87263 51.8643 5.69034C51.5296 5.50473 51.0855 5.41193 50.532 5.41193H48.3643V14.5H47.1314ZM58.1062 14.679C57.6223 14.679 57.1831 14.5878 56.7887 14.4055C56.3943 14.2199 56.0811 13.9531 55.8491 13.6051C55.6171 13.2538 55.5011 12.8295 55.5011 12.3324C55.5011 11.8949 55.5872 11.5402 55.7596 11.2685C55.9319 10.9934 56.1623 10.7779 56.4506 10.6222C56.739 10.4664 57.0572 10.3504 57.4052 10.2741C57.7565 10.1946 58.1095 10.1316 58.4641 10.0852C58.9281 10.0256 59.3043 9.98082 59.5927 9.95099C59.8844 9.91785 60.0965 9.86316 60.229 9.78693C60.3649 9.7107 60.4329 9.57812 60.4329 9.3892V9.34943C60.4329 8.8589 60.2987 8.47775 60.0302 8.20597C59.765 7.93419 59.3623 7.7983 58.8221 7.7983C58.262 7.7983 57.8228 7.92093 57.5046 8.16619C57.1864 8.41146 56.9627 8.6733 56.8335 8.9517L55.7198 8.55398C55.9187 8.08996 56.1838 7.72869 56.5153 7.47017C56.85 7.20833 57.2146 7.02604 57.609 6.9233C58.0067 6.81723 58.3978 6.7642 58.7823 6.7642C59.0276 6.7642 59.3093 6.79403 59.6275 6.85369C59.949 6.91004 60.2589 7.0277 60.5572 7.20668C60.8588 7.38565 61.109 7.65578 61.3079 8.01705C61.5067 8.37831 61.6062 8.86222 61.6062 9.46875V14.5H60.4329V13.4659H60.3732C60.2937 13.6316 60.1611 13.8089 59.9755 13.9979C59.7899 14.1868 59.543 14.3475 59.2347 14.4801C58.9265 14.6127 58.5503 14.679 58.1062 14.679ZM58.2852 13.625C58.7492 13.625 59.1403 13.5339 59.4585 13.3516C59.7799 13.1693 60.0219 12.9339 60.1843 12.6456C60.35 12.3572 60.4329 12.054 60.4329 11.7358V10.6619C60.3832 10.7216 60.2738 10.7763 60.1048 10.826C59.939 10.8724 59.7468 10.9138 59.5281 10.9503C59.3126 10.9834 59.1022 11.0133 58.8967 11.0398C58.6945 11.063 58.5304 11.0829 58.4045 11.0994C58.0996 11.1392 57.8145 11.2038 57.5494 11.2933C57.2875 11.3795 57.0754 11.5104 56.913 11.6861C56.7539 11.8584 56.6744 12.0937 56.6744 12.392C56.6744 12.7997 56.8252 13.108 57.1268 13.3168C57.4317 13.5223 57.8178 13.625 58.2852 13.625ZM63.7477 17.3636V6.86364H64.8812V8.0767H65.0204C65.1066 7.94413 65.2259 7.77509 65.3784 7.5696C65.5342 7.3608 65.7562 7.17519 66.0446 7.01278C66.3362 6.84706 66.7306 6.7642 67.2278 6.7642C67.8708 6.7642 68.4376 6.92495 68.9281 7.24645C69.4186 7.56794 69.8014 8.02367 70.0765 8.61364C70.3516 9.2036 70.4892 9.89962 70.4892 10.7017C70.4892 11.5104 70.3516 12.2114 70.0765 12.8047C69.8014 13.3946 69.4203 13.852 68.9331 14.1768C68.4458 14.4983 67.8841 14.6591 67.2477 14.6591C66.7572 14.6591 66.3644 14.5779 66.0694 14.4155C65.7744 14.2498 65.5474 14.0625 65.3883 13.8537C65.2292 13.6416 65.1066 13.4659 65.0204 13.3267H64.921V17.3636H63.7477ZM64.9011 10.6818C64.9011 11.2585 64.9856 11.7673 65.1547 12.2081C65.3237 12.6456 65.5706 12.9886 65.8954 13.2372C66.2202 13.4825 66.618 13.6051 67.0886 13.6051C67.5791 13.6051 67.9885 13.4759 68.3166 13.2173C68.648 12.9555 68.8966 12.6042 69.0623 12.1634C69.2314 11.7192 69.3159 11.2254 69.3159 10.6818C69.3159 10.1449 69.233 9.66098 69.0673 9.23011C68.9049 8.79593 68.658 8.45289 68.3265 8.20099C67.9984 7.94579 67.5858 7.81818 67.0886 7.81818C66.6113 7.81818 66.2103 7.93916 65.8855 8.18111C65.5607 8.41974 65.3154 8.7545 65.1497 9.18537C64.984 9.61293 64.9011 10.1117 64.9011 10.6818ZM75.4806 14.6591C74.7449 14.6591 74.1101 14.4967 73.5765 14.1719C73.0462 13.8438 72.6369 13.3864 72.3485 12.7997C72.0635 12.2098 71.921 11.5237 71.921 10.7415C71.921 9.95928 72.0635 9.26989 72.3485 8.6733C72.6369 8.07339 73.0379 7.60606 73.5517 7.27131C74.0687 6.93324 74.6719 6.7642 75.3613 6.7642C75.7591 6.7642 76.1518 6.83049 76.5396 6.96307C76.9274 7.09564 77.2804 7.31108 77.5985 7.60938C77.9167 7.90436 78.1703 8.29545 78.3592 8.78267C78.5481 9.26989 78.6426 9.86979 78.6426 10.5824V11.0795H72.7562V10.0653H77.4494C77.4494 9.63447 77.3632 9.25 77.1909 8.91193C77.0218 8.57386 76.7799 8.30705 76.465 8.11151C76.1535 7.91596 75.7856 7.81818 75.3613 7.81818C74.894 7.81818 74.4896 7.93419 74.1483 8.16619C73.8102 8.39489 73.55 8.69318 73.3677 9.06108C73.1854 9.42898 73.0943 9.82339 73.0943 10.2443V10.9205C73.0943 11.4972 73.1937 11.986 73.3926 12.3871C73.5948 12.7848 73.8748 13.0881 74.2328 13.2969C74.5907 13.5024 75.0067 13.6051 75.4806 13.6051C75.7889 13.6051 76.0673 13.562 76.3159 13.4759C76.5678 13.3864 76.7849 13.2538 76.9672 13.0781C77.1494 12.8991 77.2903 12.6771 77.3897 12.4119L78.5233 12.7301C78.4039 13.1146 78.2034 13.4527 77.9217 13.7443C77.64 14.0327 77.292 14.258 76.8777 14.4205C76.4634 14.5795 75.9977 14.6591 75.4806 14.6591ZM80.4274 14.5V6.86364H81.5609V8.01705H81.6404C81.7797 7.6392 82.0315 7.33262 82.3961 7.0973C82.7607 6.86198 83.1717 6.74432 83.6291 6.74432C83.7153 6.74432 83.823 6.74597 83.9522 6.74929C84.0815 6.7526 84.1793 6.75758 84.2456 6.7642V7.95739C84.2058 7.94744 84.1146 7.93253 83.9721 7.91264C83.8329 7.88944 83.6854 7.87784 83.5297 7.87784C83.1584 7.87784 82.827 7.95573 82.5353 8.11151C82.247 8.26397 82.0183 8.47609 81.8493 8.74787C81.6835 9.01634 81.6007 9.32292 81.6007 9.66761V14.5H80.4274Z" fill="white"/>
</svg>
