<svg width="48" height="48" viewBox="0 0 48 48" fill="none" xmlns="http://www.w3.org/2000/svg">
<rect width="47.8049" height="48" rx="23.9024" fill="#3293D9"/>
<path fill-rule="evenodd" clip-rule="evenodd" d="M19.5588 8.53976V21.8177H8.69408L8.69364 24.1475C8.69345 25.1333 8.85377 26.1189 9.16446 27.0545V27.0545C10.5969 31.3682 13.685 34.9706 17.7392 37.0256V37.0256C18.8976 37.6127 20.1678 37.9466 21.4652 38.005L23.5477 38.0987V7.63586L19.5588 8.53976ZM19.5588 32.7268L19.5581 25.6359H13.0393L13.3561 26.8018C14.164 29.7748 16.5519 32.0559 19.5588 32.7268V32.7268Z" fill="white"/>
<path fill-rule="evenodd" clip-rule="evenodd" d="M25.3482 8.08781V38.0987H29.3371L29.3364 25.6359H40.2011L40.2011 25.5646C40.2016 23.0952 39.6744 20.6541 38.6549 18.405V18.405C37.5988 16.0753 36.0401 14.0081 34.0907 12.3519L33.9959 12.2713C32.1509 10.7038 30.007 9.52714 27.6939 8.81252L25.3482 8.08781ZM29.3371 21.8177V14.1813V14.1813C32.4408 15.5664 34.7859 18.2364 35.7589 21.4929L35.8559 21.8177H29.3371Z" fill="white"/>
</svg>
