<svg width="28" height="28" viewBox="0 0 28 28" fill="none" xmlns="http://www.w3.org/2000/svg">
<path fill-rule="evenodd" clip-rule="evenodd" d="M23.3919 14.3893C22.8672 16.8392 21.3449 18.9192 19.2709 20.1834C19.4456 20.6741 19.5452 21.2004 19.556 21.7484C22.4341 20.2021 24.5075 17.352 24.9862 13.9883C24.4917 14.2055 23.9551 14.3444 23.3919 14.3893ZM21.6003 4.67942C19.7424 3.01336 17.2872 2 14.5952 2C11.8799 2 9.40534 3.0311 7.54181 4.72312C8.06398 4.8927 8.54817 5.14652 8.97835 5.46853C10.5176 4.23667 12.4704 3.5 14.5952 3.5C16.6783 3.5 18.596 4.20796 20.1208 5.3964C20.5652 5.08045 21.064 4.83589 21.6003 4.67942ZM9.91938 20.1833C7.84873 18.921 6.32809 16.8457 5.80108 14.4009C5.24434 14.3781 4.71126 14.2635 4.21655 14.0719C4.71747 17.3991 6.78019 20.2147 9.63426 21.7483C9.64504 21.2002 9.74468 20.6739 9.91938 20.1833Z" fill="white" fill-opacity="0.8"/>
<circle cx="22.9923" cy="9.44318" r="3.25763" stroke="white" stroke-opacity="0.8" stroke-width="1.5"/>
<path d="M9.26527 9.5386C9.26527 11.4072 7.79024 12.8917 6.00763 12.8917C4.22503 12.8917 2.75 11.4072 2.75 9.5386C2.75 7.67003 4.22503 6.18555 6.00763 6.18555C7.79024 6.18555 9.26527 7.67003 9.26527 9.5386Z" stroke="white" stroke-opacity="0.8" stroke-width="1.5"/>
<circle cx="14.7864" cy="22.0394" r="3.25763" stroke="white" stroke-opacity="0.8" stroke-width="1.5"/>
</svg>
