<svg width="24" height="24" viewBox="0 0 24 24" fill="none" xmlns="http://www.w3.org/2000/svg">
<path d="M9.5998 15.6C9.5998 15.4409 9.66302 15.2882 9.77554 15.1757C9.88806 15.0632 10.0407 15 10.1998 15H13.7998C13.9589 15 14.1115 15.0632 14.2241 15.1757C14.3366 15.2882 14.3998 15.4409 14.3998 15.6C14.3998 15.7591 14.3366 15.9117 14.2241 16.0243C14.1115 16.1368 13.9589 16.2 13.7998 16.2H10.1998C10.0407 16.2 9.88806 16.1368 9.77554 16.0243C9.66302 15.9117 9.5998 15.7591 9.5998 15.6ZM7.1998 12C7.1998 11.8409 7.26302 11.6882 7.37554 11.5757C7.48806 11.4632 7.64067 11.4 7.7998 11.4H16.1998C16.2786 11.4 16.3566 11.4155 16.4294 11.4457C16.5022 11.4758 16.5684 11.52 16.6241 11.5757C16.6798 11.6314 16.724 11.6976 16.7541 11.7704C16.7843 11.8432 16.7998 11.9212 16.7998 12C16.7998 12.0788 16.7843 12.1568 16.7541 12.2296C16.724 12.3024 16.6798 12.3685 16.6241 12.4243C16.5684 12.48 16.5022 12.5242 16.4294 12.5543C16.3566 12.5845 16.2786 12.6 16.1998 12.6H7.7998C7.64067 12.6 7.48806 12.5368 7.37554 12.4243C7.26302 12.3117 7.1998 12.1591 7.1998 12ZM4.7998 8.39999C4.7998 8.24086 4.86302 8.08825 4.97554 7.97572C5.08806 7.8632 5.24067 7.79999 5.3998 7.79999H18.5998C18.6786 7.79999 18.7566 7.81551 18.8294 7.84566C18.9022 7.87581 18.9684 7.92001 19.0241 7.97572C19.0798 8.03144 19.124 8.09758 19.1541 8.17038C19.1843 8.24317 19.1998 8.32119 19.1998 8.39999C19.1998 8.47878 19.1843 8.5568 19.1541 8.6296C19.124 8.70239 19.0798 8.76854 19.0241 8.82425C18.9684 8.87997 18.9022 8.92416 18.8294 8.95432C18.7566 8.98447 18.6786 8.99999 18.5998 8.99999H5.3998C5.24067 8.99999 5.08806 8.93677 4.97554 8.82425C4.86302 8.71173 4.7998 8.55912 4.7998 8.39999Z" fill="#888888"/>
</svg>
