<svg width="28" height="28" viewBox="0 0 28 28" fill="none" xmlns="http://www.w3.org/2000/svg">
<path d="M10.4997 12.8333C11.7374 12.8333 12.9243 12.3417 13.7995 11.4665C14.6747 10.5913 15.1663 9.40434 15.1663 8.16667C15.1663 6.92899 14.6747 5.742 13.7995 4.86683C12.9243 3.99167 11.7374 3.5 10.4997 3.5C9.262 3.5 8.07501 3.99167 7.19984 4.86683C6.32467 5.742 5.83301 6.92899 5.83301 8.16667C5.83301 9.40434 6.32467 10.5913 7.19984 11.4665C8.07501 12.3417 9.262 12.8333 10.4997 12.8333V12.8333Z" stroke="white" stroke-width="1.5" stroke-linecap="round" stroke-linejoin="round"/>
<path d="M3.5 24.5V22.1667C3.5 20.929 3.99167 19.742 4.86683 18.8668C5.742 17.9917 6.92899 17.5 8.16667 17.5H12.8333C14.071 17.5 15.258 17.9917 16.1332 18.8668C17.0083 19.742 17.5 20.929 17.5 22.1667V24.5" stroke="white" stroke-width="1.5" stroke-linecap="round" stroke-linejoin="round"/>
<path d="M22.167 9.3335V16.3335M18.667 12.8335H25.667H18.667Z" stroke="white" stroke-width="1.5" stroke-linecap="round" stroke-linejoin="round"/>
</svg>
