<svg width="25" height="25" viewBox="0 0 28 28" fill="none" xmlns="http://www.w3.org/2000/svg">
<path d="M10.5714 7H8.28571C7.67951 7 7.09812 7.23705 6.66947 7.65901C6.24082 8.08097 6 8.65326 6 9.25V22.75C6 23.3467 6.24082 23.919 6.66947 24.341C7.09812 24.7629 7.67951 25 8.28571 25H19.7143C20.3205 25 20.9019 24.7629 21.3305 24.341C21.7592 23.919 22 23.3467 22 22.75V9.25C22 8.65326 21.7592 8.08097 21.3305 7.65901C20.9019 7.23705 20.3205 7 19.7143 7H17.4286" stroke="white" stroke-width="1.5" stroke-linecap="round" stroke-linejoin="round"/>
<path d="M15.6667 4H13.3333C12.7145 4 12.121 4.26339 11.6834 4.73223C11.2458 5.20107 11 5.83696 11 6.5C11 7.16304 11.2458 7.79893 11.6834 8.26777C12.121 8.73661 12.7145 9 13.3333 9H15.6667C16.2855 9 16.879 8.73661 17.3166 8.26777C17.7542 7.79893 18 7.16304 18 6.5C18 5.83696 17.7542 5.20107 17.3166 4.73223C16.879 4.26339 16.2855 4 15.6667 4Z" stroke="white" stroke-width="1.5" stroke-linecap="round" stroke-linejoin="round"/>
<path d="M10.5 19.8333V14" stroke="white" stroke-width="1.5" stroke-linecap="round" stroke-linejoin="round"/>
<path d="M14 19.8334V18.6667" stroke="white" stroke-width="1.5" stroke-linecap="round" stroke-linejoin="round"/>
<path d="M17.5 19.8333V16.3333" stroke="white" stroke-width="1.5" stroke-linecap="round" stroke-linejoin="round"/>
</svg>
