<svg width="25" height="25" viewBox="0 0 28 28" fill="none" xmlns="http://www.w3.org/2000/svg">
<path d="M11.6668 3.73496C9.84181 4.15804 8.16323 5.06169 6.80519 6.35218C5.44714 7.64268 4.45909 9.27301 3.94353 11.0741C3.42796 12.8752 3.40366 14.7814 3.87313 16.595C4.34261 18.4086 5.28876 20.0636 6.61346 21.3883C7.93816 22.713 9.59316 23.6592 11.4068 24.1287C13.2204 24.5981 15.1266 24.5738 16.9277 24.0583C18.7288 23.5427 20.3591 22.5546 21.6496 21.1966C22.9401 19.8386 23.8437 18.16 24.2668 16.335C24.2668 16.0255 24.1439 15.7288 23.9251 15.51C23.7063 15.2912 23.4096 15.1683 23.1002 15.1683H15.1668C14.548 15.1683 13.9545 14.9225 13.5169 14.4849C13.0793 14.0473 12.8335 13.4538 12.8335 12.835V4.66829C12.8193 4.52995 12.7777 4.39582 12.7111 4.27372C12.6446 4.15162 12.5544 4.04399 12.4458 3.95712C12.3372 3.87024 12.2124 3.80585 12.0786 3.76771C11.9449 3.72957 11.8049 3.71844 11.6668 3.73496V3.73496Z" stroke="white" stroke-width="1.5" stroke-linecap="round" stroke-linejoin="round"/>
<path d="M17.5 4.08301C18.9813 4.60461 20.3268 5.45186 21.4373 6.56236C22.5478 7.67286 23.3951 9.01833 23.9167 10.4997H18.6667C18.3572 10.4997 18.0605 10.3768 17.8417 10.158C17.6229 9.93917 17.5 9.64243 17.5 9.33301V4.08301Z" stroke="white" stroke-width="1.5" stroke-linecap="round" stroke-linejoin="round"/>
</svg>
