<svg width="28" height="28" viewBox="0 0 28 28" fill="none" xmlns="http://www.w3.org/2000/svg">
<path d="M14 4.90039H5.25C4.78587 4.90039 4.34075 5.08477 4.01256 5.41295C3.68437 5.74114 3.5 6.18626 3.5 6.65039V18.0837C3.5 18.5479 3.68437 18.993 4.01256 19.3212C4.34075 19.6493 4.78587 19.8337 5.25 19.8337H22.75C23.2141 19.8337 23.6592 19.6493 23.9874 19.3212C24.3156 18.993 24.5 18.5479 24.5 18.0837V15.1671M14 19.8337V24.5004M8.16667 24.5004H19.8333" stroke="white" stroke-width="1.5" stroke-linecap="round" stroke-linejoin="round"/>
<path d="M20.336 12.3669V10.0335M20.336 6.53353V4.2002M16.7998 10.3252L18.8205 9.15853M21.8515 7.40853L23.8721 6.24186M16.7998 6.24186L18.8205 7.40853M21.8515 9.15853L23.8721 10.3252" stroke="white" stroke-width="1.5" stroke-linecap="round" stroke-linejoin="round"/>
</svg>
