<svg width="23" height="23" viewBox="0 0 23 23" fill="none" xmlns="http://www.w3.org/2000/svg">
<path d="M11.5 1.7002H2.75C2.28587 1.7002 1.84075 1.88457 1.51256 2.21276C1.18437 2.54095 1 2.98607 1 3.4502V14.8835C1 15.3477 1.18437 15.7928 1.51256 16.121C1.84075 16.4492 2.28587 16.6335 2.75 16.6335H20.25C20.7141 16.6335 21.1592 16.4492 21.4874 16.121C21.8156 15.7928 22 15.3477 22 14.8835V11.9669M11.5 16.6335V21.3002M5.66667 21.3002H17.3333" stroke="#44749D" stroke-width="1.5" stroke-linecap="round" stroke-linejoin="round"/>
<path d="M17.8369 9.16667V6.83333M17.8369 3.33333V1M14.3008 7.125L16.3214 5.95833M19.3524 4.20833L21.3731 3.04167M14.3008 3.04167L16.3214 4.20833M19.3524 5.95833L21.3731 7.125" stroke="#44749D" stroke-width="1.5" stroke-linecap="round" stroke-linejoin="round"/>
</svg>
