<svg width="25" height="25" viewBox="0 0 31 22" fill="none" xmlns="http://www.w3.org/2000/svg">
<path d="M5.33398 6.25C4.91977 6.25 4.58398 6.58579 4.58398 7C4.58398 7.41421 4.91977 7.75 5.33398 7.75H10.334C10.7482 7.75 11.084 7.41421 11.084 7C11.084 6.58579 10.7482 6.25 10.334 6.25H5.33398ZM5.33398 11.25C4.91977 11.25 4.58398 11.5858 4.58398 12C4.58398 12.4142 4.91977 12.75 5.33398 12.75H14.334C14.7482 12.75 15.084 12.4142 15.084 12C15.084 11.5858 14.7482 11.25 14.334 11.25H5.33398ZM25.334 17.25C25.7482 17.25 26.084 16.9142 26.084 16.5C26.084 16.0858 25.7482 15.75 25.334 15.75H5.33398C4.91977 15.75 4.58398 16.0858 4.58398 16.5C4.58398 16.9142 4.91977 17.25 5.33398 17.25H25.334ZM18.584 7V11C18.584 11.9665 19.3675 12.75 20.334 12.75H24.334C25.3005 12.75 26.084 11.9665 26.084 11V7C26.084 6.0335 25.3005 5.25 24.334 5.25H20.334C19.3675 5.25 18.584 6.0335 18.584 7ZM20.084 11V7C20.084 6.86193 20.1959 6.75 20.334 6.75H24.334C24.4721 6.75 24.584 6.86193 24.584 7V11C24.584 11.1381 24.4721 11.25 24.334 11.25H20.334C20.1959 11.25 20.084 11.1381 20.084 11ZM2.33398 0.75H28.334C29.0243 0.75 29.584 1.30964 29.584 2V20C29.584 20.6904 29.0243 21.25 28.334 21.25H2.33398C1.64363 21.25 1.08398 20.6904 1.08398 20V2C1.08398 1.30964 1.64363 0.75 2.33398 0.75Z" stroke="white" stroke-width="1.5" stroke-linecap="round"/>
</svg>
