<svg width="25" height="25" viewBox="0 0 27 24" fill="none" xmlns="http://www.w3.org/2000/svg">
<mask id="path-1-inside-1_2840_17033" fill="white">
<path d="M2.33398 24C1.22941 24 0.333984 23.1046 0.333984 22V2.00022C0.333984 0.895657 1.2294 0.000230973 2.33396 0.000216881L17.3333 2.55168e-05C18.4378 1.14243e-05 19.3333 0.895446 19.3333 2.00003V15.5H24.3333C25.4378 15.5 26.3333 16.3954 26.3333 17.5V20C26.3333 22.2091 24.5424 24 22.3333 24H2.33398Z"/>
</mask>
<path d="M18.5846 15.5V14.75H17.8346V15.5H18.5846ZM18.5846 24H17.8346V24.75H18.5846V24ZM10.5833 4.5C10.5833 4.08579 10.2475 3.75 9.83327 3.75C9.41906 3.75 9.08327 4.08579 9.08327 4.5H10.5833ZM13.8333 7H14.5833C14.5833 6.58579 14.2475 6.25 13.8333 6.25V7ZM13.0833 9C13.0833 9.41421 13.4191 9.75 13.8333 9.75C14.2475 9.75 14.5833 9.41421 14.5833 9H13.0833ZM5.83327 7V6.25C5.41906 6.25 5.08327 6.58579 5.08327 7H5.83327ZM5.83327 12H5.08327C5.08327 12.4142 5.41906 12.75 5.83327 12.75V12ZM13.8333 12H14.5833C14.5833 11.5858 14.2475 11.25 13.8333 11.25V12ZM13.8333 17V17.75C14.2475 17.75 14.5833 17.4142 14.5833 17H13.8333ZM5.83327 17H5.08327C5.08327 17.4142 5.41906 17.75 5.83327 17.75V17ZM6.58327 15C6.58327 14.5858 6.24749 14.25 5.83327 14.25C5.41906 14.25 5.08327 14.5858 5.08327 15H6.58327ZM9.08327 20C9.08327 20.4142 9.41906 20.75 9.83327 20.75C10.2475 20.75 10.5833 20.4142 10.5833 20H9.08327ZM19.3333 14.75H18.5846V16.25H19.3333V14.75ZM9.08327 4.5V7H10.5833V4.5H9.08327ZM9.83327 7.75H13.8333V6.25H9.83327V7.75ZM13.0833 7V9H14.5833V7H13.0833ZM9.83327 6.25H5.83327V7.75H9.83327V6.25ZM5.08327 7V12H6.58327V7H5.08327ZM5.83327 12.75H13.8333V11.25H5.83327V12.75ZM13.0833 12V17H14.5833V12H13.0833ZM6.58327 17V15H5.08327V17H6.58327ZM13.8333 16.25H9.83327V17.75H13.8333V16.25ZM9.83327 16.25H5.83327V17.75H9.83327V16.25ZM9.08327 17V20H10.5833V17H9.08327ZM23.334 23.25L18.5846 23.25V24.75L23.334 24.75V23.25ZM17.8346 15.5V24H19.3346V15.5H17.8346ZM19.3333 15.5H17.8333V17H19.3333V15.5ZM17.3333 2.55168e-05L17.3333 1.50003L17.3333 2.55168e-05ZM2.33396 0.000216881L2.33394 -1.49978L2.33396 0.000216881ZM-1.16602 2.00022V22H1.83398V2.00022H-1.16602ZM2.33398 25.5H22.3333V22.5H2.33398V25.5ZM27.8333 20V17.5H24.8333V20H27.8333ZM24.3333 14H19.3333V17H24.3333V14ZM17.3332 -1.49997L2.33394 -1.49978L2.33398 1.50022L17.3333 1.50003L17.3332 -1.49997ZM20.8333 15.5V2.00003H17.8333V15.5H20.8333ZM27.8333 17.5C27.8333 15.567 26.2663 14 24.3333 14V17C24.6094 17 24.8333 17.2239 24.8333 17.5H27.8333ZM22.3333 25.5C25.3708 25.5 27.8333 23.0376 27.8333 20H24.8333C24.8333 21.3807 23.714 22.5 22.3333 22.5V25.5ZM17.3333 1.50003C17.6094 1.50002 17.8333 1.72388 17.8333 2.00003H20.8333C20.8333 0.0670121 19.2662 -1.5 17.3332 -1.49997L17.3333 1.50003ZM-1.16602 22C-1.16602 23.933 0.400987 25.5 2.33398 25.5V22.5C2.05784 22.5 1.83398 22.2761 1.83398 22H-1.16602ZM1.83398 2.00022C1.83398 1.72408 2.05784 1.50022 2.33398 1.50022L2.33394 -1.49978C0.400967 -1.49976 -1.16602 0.0672344 -1.16602 2.00022H1.83398Z" fill="white" mask="url(#path-1-inside-1_2840_17033)"/>
</svg>
