<svg width="24" height="24" viewBox="0 0 24 24" fill="none" xmlns="http://www.w3.org/2000/svg">
<path d="M5.6 9.458V8.4C5.6 6.70261 6.27428 5.07475 7.47452 3.87452C8.67475 2.67428 10.3026 2 12 2C13.6974 2 15.3253 2.67428 16.5255 3.87452C17.7257 5.07475 18.4 6.70261 18.4 8.4V9.458C18.4 11.758 19.065 14.01 20.315 15.941L21 17H3L3.685 15.94C4.93451 14.0093 5.59951 11.7577 5.6 9.458Z" stroke="white" stroke-width="1.5" stroke-linecap="round" stroke-linejoin="round"/>
<path d="M11 20.8889C11.1261 21.0291 11.2803 21.1413 11.4526 21.218C11.6249 21.2948 11.8114 21.3345 12 21.3345C12.1886 21.3345 12.3751 21.2948 12.5474 21.218C12.7197 21.1413 12.8739 21.0291 13 20.8889" stroke="white" stroke-width="1.5" stroke-linecap="round" stroke-linejoin="round"/>
</svg>
