<svg width="26" height="26" viewBox="0 0 32 32" fill="none" xmlns="http://www.w3.org/2000/svg">
<g clip-path="url(#clip0_13086_10175)">
<path d="M17.9225 23.4698C16.6789 23.9849 15.346 24.25 14 24.25C11.2815 24.25 8.6744 23.1701 6.75216 21.2478C4.82991 19.3256 3.75 16.7185 3.75 14C3.75 11.2815 4.82991 8.6744 6.75216 6.75216C8.6744 4.82991 11.2815 3.75 14 3.75C15.346 3.75 16.6789 4.01512 17.9225 4.53023C19.1661 5.04535 20.296 5.80035 21.2478 6.75216C22.1996 7.70396 22.9547 8.83391 23.4698 10.0775C23.9849 11.3211 24.25 12.654 24.25 14C24.25 15.346 23.9849 16.6789 23.4698 17.9225C22.9547 19.1661 22.1996 20.296 21.2478 21.2478C20.296 22.1996 19.1661 22.9547 17.9225 23.4698Z" stroke="#CCCCCC" stroke-width="1.5" stroke-linecap="round" stroke-linejoin="round"/>
<path d="M26.5 26.5L21.5 21.5" stroke="#CCCCCC" stroke-width="1.5" stroke-linecap="round" stroke-linejoin="round"/>
</g>
<defs>
<clipPath id="clip0_13086_10175">
<rect width="32" height="32" fill="white"/>
</clipPath>
</defs>
</svg>
