<svg width="84" height="14" viewBox="0 0 84 14" fill="none" xmlns="http://www.w3.org/2000/svg">
<path d="M3.80078 10.5H0.658736V0.318182H3.93999C4.92768 0.318182 5.77285 0.522017 6.4755 0.929688C7.17815 1.33404 7.71674 1.91572 8.09126 2.67472C8.46579 3.4304 8.65305 4.33523 8.65305 5.3892C8.65305 6.44981 8.46413 7.36293 8.08629 8.12855C7.70845 8.89086 7.15826 9.47751 6.43572 9.88849C5.71319 10.2962 4.83487 10.5 3.80078 10.5ZM1.89169 9.40625H3.72124C4.56309 9.40625 5.26077 9.24384 5.81428 8.91903C6.36778 8.59422 6.78042 8.13187 7.0522 7.53196C7.32398 6.93205 7.45987 6.2178 7.45987 5.3892C7.45987 4.56723 7.32564 3.85961 7.05717 3.26633C6.78871 2.66974 6.38767 2.21236 5.85405 1.89418C5.32043 1.57268 4.6559 1.41193 3.86044 1.41193H1.89169V9.40625ZM10.5621 10.5V2.86364H11.7354V10.5H10.5621ZM11.1587 1.59091C10.93 1.59091 10.7328 1.51302 10.5671 1.35724C10.4047 1.20147 10.3235 1.0142 10.3235 0.795455C10.3235 0.576705 10.4047 0.389441 10.5671 0.233664C10.7328 0.0778881 10.93 0 11.1587 0C11.3874 0 11.583 0.0778881 11.7454 0.233664C11.9111 0.389441 11.994 0.576705 11.994 0.795455C11.994 1.0142 11.9111 1.20147 11.7454 1.35724C11.583 1.51302 11.3874 1.59091 11.1587 1.59091ZM16.9668 13.5227C16.4 13.5227 15.9128 13.4498 15.5051 13.304C15.0975 13.1615 14.7578 12.9725 14.486 12.7372C14.2175 12.5052 14.0037 12.2566 13.8446 11.9915L14.7793 11.3352C14.8854 11.4744 15.0196 11.6335 15.182 11.8125C15.3444 11.9948 15.5665 12.1522 15.8482 12.2848C16.1332 12.4207 16.5061 12.4886 16.9668 12.4886C17.5833 12.4886 18.092 12.3395 18.4931 12.0412C18.8941 11.7429 19.0946 11.2756 19.0946 10.6392V9.08807H18.9952C18.909 9.22727 18.7864 9.39962 18.6273 9.60511C18.4715 9.80729 18.2462 9.98793 17.9512 10.147C17.6595 10.3028 17.2651 10.3807 16.7679 10.3807C16.1515 10.3807 15.598 10.2348 15.1074 9.94318C14.6202 9.65152 14.2341 9.22727 13.949 8.67045C13.6673 8.11364 13.5265 7.4375 13.5265 6.64205C13.5265 5.85985 13.664 5.17874 13.9391 4.59872C14.2142 4.01539 14.597 3.56463 15.0875 3.24645C15.5781 2.92495 16.1448 2.7642 16.7878 2.7642C17.285 2.7642 17.6794 2.84706 17.9711 3.01278C18.266 3.17519 18.4914 3.3608 18.6472 3.5696C18.8063 3.77509 18.9289 3.94413 19.0151 4.0767H19.1344V2.86364H20.2679V10.7188C20.2679 11.375 20.1188 11.9086 19.8205 12.3196C19.5255 12.7339 19.1278 13.0372 18.6273 13.2294C18.1301 13.425 17.5766 13.5227 16.9668 13.5227ZM16.927 9.3267C17.3977 9.3267 17.7954 9.21899 18.1202 9.00355C18.445 8.78812 18.6919 8.47822 18.861 8.07386C19.03 7.66951 19.1145 7.18561 19.1145 6.62216C19.1145 6.07197 19.0317 5.58641 18.8659 5.16548C18.7002 4.74455 18.455 4.41477 18.1301 4.17614C17.8053 3.9375 17.4043 3.81818 16.927 3.81818C16.4299 3.81818 16.0156 3.94413 15.6841 4.19602C15.356 4.44792 15.1091 4.78598 14.9434 5.21023C14.781 5.63447 14.6998 6.10511 14.6998 6.62216C14.6998 7.15246 14.7826 7.62145 14.9483 8.02912C15.1174 8.43348 15.3659 8.75166 15.6941 8.98366C16.0255 9.21236 16.4365 9.3267 16.927 9.3267ZM22.4157 10.5V2.86364H23.589V10.5H22.4157ZM23.0123 1.59091C22.7836 1.59091 22.5864 1.51302 22.4206 1.35724C22.2582 1.20147 22.177 1.0142 22.177 0.795455C22.177 0.576705 22.2582 0.389441 22.4206 0.233664C22.5864 0.0778881 22.7836 0 23.0123 0C23.2409 0 23.4365 0.0778881 23.5989 0.233664C23.7646 0.389441 23.8475 0.576705 23.8475 0.795455C23.8475 1.0142 23.7646 1.20147 23.5989 1.35724C23.4365 1.51302 23.2409 1.59091 23.0123 1.59091ZM29.0589 2.86364V3.85795H25.1016V2.86364H29.0589ZM26.255 1.03409H27.4283V8.3125C27.4283 8.64394 27.4763 8.89252 27.5724 9.05824C27.6719 9.22064 27.7978 9.33002 27.9503 9.38636C28.1061 9.43939 28.2701 9.46591 28.4425 9.46591C28.5717 9.46591 28.6778 9.45928 28.7607 9.44602C28.8435 9.42945 28.9098 9.41619 28.9595 9.40625L29.1982 10.4602C29.1186 10.4901 29.0076 10.5199 28.8651 10.5497C28.7225 10.5829 28.5419 10.5994 28.3232 10.5994C27.9917 10.5994 27.6669 10.5282 27.3487 10.3857C27.0339 10.2431 26.772 10.026 26.5632 9.73438C26.3577 9.44271 26.255 9.07481 26.255 8.63068V1.03409ZM33.071 10.679C32.5871 10.679 32.148 10.5878 31.7536 10.4055C31.3591 10.2199 31.0459 9.95312 30.8139 9.60511C30.5819 9.25379 30.4659 8.82955 30.4659 8.33239C30.4659 7.89489 30.5521 7.54025 30.7244 7.26847C30.8968 6.99337 31.1271 6.77794 31.4155 6.62216C31.7038 6.46638 32.022 6.35038 32.37 6.27415C32.7214 6.1946 33.0743 6.13163 33.429 6.08523C33.893 6.02557 34.2692 5.98082 34.5575 5.95099C34.8492 5.91785 35.0613 5.86316 35.1939 5.78693C35.3298 5.7107 35.3977 5.57812 35.3977 5.3892V5.34943C35.3977 4.8589 35.2635 4.47775 34.995 4.20597C34.7299 3.93419 34.3272 3.7983 33.7869 3.7983C33.2268 3.7983 32.7876 3.92093 32.4695 4.16619C32.1513 4.41146 31.9276 4.6733 31.7983 4.9517L30.6847 4.55398C30.8835 4.08996 31.1487 3.72869 31.4801 3.47017C31.8149 3.20833 32.1795 3.02604 32.5739 2.9233C32.9716 2.81723 33.3627 2.7642 33.7472 2.7642C33.9924 2.7642 34.2741 2.79403 34.5923 2.85369C34.9138 2.91004 35.2237 3.0277 35.522 3.20668C35.8236 3.38565 36.0739 3.65578 36.2727 4.01705C36.4716 4.37831 36.571 4.86222 36.571 5.46875V10.5H35.3977V9.46591H35.3381C35.2585 9.63163 35.1259 9.80895 34.9403 9.99787C34.7547 10.1868 34.5078 10.3475 34.1996 10.4801C33.8913 10.6127 33.5152 10.679 33.071 10.679ZM33.25 9.625C33.714 9.625 34.1051 9.53385 34.4233 9.35156C34.7448 9.16927 34.9867 8.93395 35.1491 8.6456C35.3149 8.35724 35.3977 8.05398 35.3977 7.7358V6.66193C35.348 6.72159 35.2386 6.77628 35.0696 6.82599C34.9039 6.8724 34.7116 6.91383 34.4929 6.95028C34.2775 6.98343 34.067 7.01326 33.8615 7.03977C33.6593 7.06297 33.4953 7.08286 33.3693 7.09943C33.0644 7.1392 32.7794 7.20384 32.5142 7.29332C32.2524 7.3795 32.0402 7.51042 31.8778 7.68608C31.7188 7.85843 31.6392 8.09375 31.6392 8.39205C31.6392 8.79972 31.79 9.10795 32.0916 9.31676C32.3965 9.52225 32.7827 9.625 33.25 9.625ZM39.8858 0.318182V10.5H38.7125V0.318182H39.8858ZM46.1314 10.5V0.318182H49.5717C50.3705 0.318182 51.0234 0.462358 51.5305 0.75071C52.041 1.03575 52.4188 1.42188 52.6641 1.90909C52.9093 2.39631 53.032 2.93987 53.032 3.53977C53.032 4.13968 52.9093 4.6849 52.6641 5.17543C52.4221 5.66596 52.0476 6.05705 51.5405 6.34872C51.0334 6.63707 50.3838 6.78125 49.5916 6.78125H47.1257V5.6875H49.5518C50.0987 5.6875 50.5379 5.59304 50.8693 5.40412C51.2008 5.2152 51.4411 4.95999 51.5902 4.63849C51.7427 4.31368 51.8189 3.94744 51.8189 3.53977C51.8189 3.1321 51.7427 2.76752 51.5902 2.44602C51.4411 2.12453 51.1991 1.87263 50.8643 1.69034C50.5296 1.50473 50.0855 1.41193 49.532 1.41193H47.3643V10.5H46.1314ZM57.1062 10.679C56.6223 10.679 56.1831 10.5878 55.7887 10.4055C55.3943 10.2199 55.0811 9.95312 54.8491 9.60511C54.6171 9.25379 54.5011 8.82955 54.5011 8.33239C54.5011 7.89489 54.5872 7.54025 54.7596 7.26847C54.9319 6.99337 55.1623 6.77794 55.4506 6.62216C55.739 6.46638 56.0572 6.35038 56.4052 6.27415C56.7565 6.1946 57.1095 6.13163 57.4641 6.08523C57.9281 6.02557 58.3043 5.98082 58.5927 5.95099C58.8844 5.91785 59.0965 5.86316 59.229 5.78693C59.3649 5.7107 59.4329 5.57812 59.4329 5.3892V5.34943C59.4329 4.8589 59.2987 4.47775 59.0302 4.20597C58.765 3.93419 58.3623 3.7983 57.8221 3.7983C57.262 3.7983 56.8228 3.92093 56.5046 4.16619C56.1864 4.41146 55.9627 4.6733 55.8335 4.9517L54.7198 4.55398C54.9187 4.08996 55.1838 3.72869 55.5153 3.47017C55.85 3.20833 56.2146 3.02604 56.609 2.9233C57.0067 2.81723 57.3978 2.7642 57.7823 2.7642C58.0276 2.7642 58.3093 2.79403 58.6275 2.85369C58.949 2.91004 59.2589 3.0277 59.5572 3.20668C59.8588 3.38565 60.109 3.65578 60.3079 4.01705C60.5067 4.37831 60.6062 4.86222 60.6062 5.46875V10.5H59.4329V9.46591H59.3732C59.2937 9.63163 59.1611 9.80895 58.9755 9.99787C58.7899 10.1868 58.543 10.3475 58.2347 10.4801C57.9265 10.6127 57.5503 10.679 57.1062 10.679ZM57.2852 9.625C57.7492 9.625 58.1403 9.53385 58.4585 9.35156C58.7799 9.16927 59.0219 8.93395 59.1843 8.6456C59.35 8.35724 59.4329 8.05398 59.4329 7.7358V6.66193C59.3832 6.72159 59.2738 6.77628 59.1048 6.82599C58.939 6.8724 58.7468 6.91383 58.5281 6.95028C58.3126 6.98343 58.1022 7.01326 57.8967 7.03977C57.6945 7.06297 57.5304 7.08286 57.4045 7.09943C57.0996 7.1392 56.8145 7.20384 56.5494 7.29332C56.2875 7.3795 56.0754 7.51042 55.913 7.68608C55.7539 7.85843 55.6744 8.09375 55.6744 8.39205C55.6744 8.79972 55.8252 9.10795 56.1268 9.31676C56.4317 9.52225 56.8178 9.625 57.2852 9.625ZM62.7477 13.3636V2.86364H63.8812V4.0767H64.0204C64.1066 3.94413 64.2259 3.77509 64.3784 3.5696C64.5342 3.3608 64.7562 3.17519 65.0446 3.01278C65.3362 2.84706 65.7306 2.7642 66.2278 2.7642C66.8708 2.7642 67.4376 2.92495 67.9281 3.24645C68.4186 3.56794 68.8014 4.02367 69.0765 4.61364C69.3516 5.2036 69.4892 5.89962 69.4892 6.7017C69.4892 7.51042 69.3516 8.21141 69.0765 8.80469C68.8014 9.39465 68.4203 9.85204 67.9331 10.1768C67.4458 10.4983 66.8841 10.6591 66.2477 10.6591C65.7572 10.6591 65.3644 10.5779 65.0694 10.4155C64.7744 10.2498 64.5474 10.0625 64.3883 9.85369C64.2292 9.64157 64.1066 9.46591 64.0204 9.3267H63.921V13.3636H62.7477ZM63.9011 6.68182C63.9011 7.25852 63.9856 7.76728 64.1547 8.2081C64.3237 8.6456 64.5706 8.98864 64.8954 9.23722C65.2202 9.48248 65.618 9.60511 66.0886 9.60511C66.5791 9.60511 66.9885 9.47585 67.3166 9.21733C67.648 8.95549 67.8966 8.60417 68.0623 8.16335C68.2314 7.71922 68.3159 7.22538 68.3159 6.68182C68.3159 6.14489 68.233 5.66098 68.0673 5.23011C67.9049 4.79593 67.658 4.45289 67.3265 4.20099C66.9984 3.94579 66.5858 3.81818 66.0886 3.81818C65.6113 3.81818 65.2103 3.93916 64.8855 4.18111C64.5607 4.41974 64.3154 4.7545 64.1497 5.18537C63.984 5.61293 63.9011 6.11174 63.9011 6.68182ZM74.4806 10.6591C73.7449 10.6591 73.1101 10.4967 72.5765 10.1719C72.0462 9.84375 71.6369 9.38636 71.3485 8.79972C71.0635 8.20975 70.921 7.52367 70.921 6.74148C70.921 5.95928 71.0635 5.26989 71.3485 4.6733C71.6369 4.07339 72.0379 3.60606 72.5517 3.27131C73.0687 2.93324 73.6719 2.7642 74.3613 2.7642C74.7591 2.7642 75.1518 2.83049 75.5396 2.96307C75.9274 3.09564 76.2804 3.31108 76.5985 3.60938C76.9167 3.90436 77.1703 4.29545 77.3592 4.78267C77.5481 5.26989 77.6426 5.86979 77.6426 6.58239V7.07955H71.7562V6.06534H76.4494C76.4494 5.63447 76.3632 5.25 76.1909 4.91193C76.0218 4.57386 75.7799 4.30705 75.465 4.11151C75.1535 3.91596 74.7856 3.81818 74.3613 3.81818C73.894 3.81818 73.4896 3.93419 73.1483 4.16619C72.8102 4.39489 72.55 4.69318 72.3677 5.06108C72.1854 5.42898 72.0943 5.82339 72.0943 6.24432V6.92045C72.0943 7.49716 72.1937 7.98603 72.3926 8.38707C72.5948 8.7848 72.8748 9.08807 73.2328 9.29688C73.5907 9.50237 74.0067 9.60511 74.4806 9.60511C74.7889 9.60511 75.0673 9.56203 75.3159 9.47585C75.5678 9.38636 75.7849 9.25379 75.9672 9.07812C76.1494 8.89915 76.2903 8.67708 76.3897 8.41193L77.5233 8.73011C77.4039 9.11458 77.2034 9.45265 76.9217 9.74432C76.64 10.0327 76.292 10.258 75.8777 10.4205C75.4634 10.5795 74.9977 10.6591 74.4806 10.6591ZM79.4274 10.5V2.86364H80.5609V4.01705H80.6404C80.7797 3.6392 81.0315 3.33262 81.3961 3.0973C81.7607 2.86198 82.1717 2.74432 82.6291 2.74432C82.7153 2.74432 82.823 2.74597 82.9522 2.74929C83.0815 2.7526 83.1793 2.75758 83.2456 2.7642V3.95739C83.2058 3.94744 83.1146 3.93253 82.9721 3.91264C82.8329 3.88944 82.6854 3.87784 82.5297 3.87784C82.1584 3.87784 81.827 3.95573 81.5353 4.11151C81.247 4.26397 81.0183 4.47609 80.8493 4.74787C80.6835 5.01634 80.6007 5.32292 80.6007 5.66761V10.5H79.4274Z" fill="white"/>
</svg>
