<svg width="13" height="14" viewBox="0 0 13 14" fill="none" xmlns="http://www.w3.org/2000/svg">
<path d="M0.72168 3.3877H12.2783" stroke="#888888" stroke-linecap="round" stroke-linejoin="round"/>
<path d="M5.05615 6.27832V10.6121" stroke="#888888" stroke-linecap="round" stroke-linejoin="round"/>
<path d="M7.94385 6.27832V10.6121" stroke="#888888" stroke-linecap="round" stroke-linejoin="round"/>
<path d="M1.44336 3.3877L2.16565 12.0552C2.16565 12.4383 2.31784 12.8057 2.58876 13.0766C2.85967 13.3475 3.2271 13.4997 3.61023 13.4997H9.38854C9.77166 13.4997 10.1391 13.3475 10.41 13.0766C10.6809 12.8057 10.8331 12.4383 10.8331 12.0552L11.5554 3.3877" stroke="#888888" stroke-linecap="round" stroke-linejoin="round"/>
<path d="M4.33447 3.38916V1.22229C4.33447 1.03073 4.41057 0.847009 4.54603 0.711554C4.68148 0.576098 4.8652 0.5 5.05676 0.5H7.94592C8.13748 0.5 8.3212 0.576098 8.45665 0.711554C8.59211 0.847009 8.66821 1.03073 8.66821 1.22229V3.38916" stroke="#888888" stroke-linecap="round" stroke-linejoin="round"/>
</svg>
