<svg width="14" height="14" viewBox="0 0 14 14" fill="none" xmlns="http://www.w3.org/2000/svg">
<path d="M5.5 0.5H2.5C1.96957 0.5 1.46086 0.710714 1.08579 1.08579C0.710714 1.46086 0.5 1.96957 0.5 2.5V11.5C0.5 12.0304 0.710714 12.5391 1.08579 12.9142C1.46086 13.2893 1.96957 13.5 2.5 13.5H11.5C12.0304 13.5 12.5391 13.2893 12.9142 12.9142C13.2893 12.5391 13.5 12.0304 13.5 11.5V8.5" stroke="#888888" stroke-linecap="round" stroke-linejoin="round"/>
<path d="M3.5 10.5H5.97498L12.9874 3.48756C13.1499 3.32505 13.2788 3.13213 13.3668 2.9198C13.4547 2.70747 13.5 2.4799 13.5 2.25007C13.5 2.02025 13.4547 1.79268 13.3668 1.58035C13.2788 1.36802 13.1499 1.17509 12.9874 1.01258C12.8249 0.850075 12.632 0.721166 12.4197 0.633216C12.2073 0.545267 11.9797 0.5 11.7499 0.5C11.2858 0.5 10.8406 0.684382 10.5124 1.01258L3.5 8.02502V10.5Z" stroke="#888888" stroke-linecap="round" stroke-linejoin="round"/>
<path d="M9.5 2.5L11.5 4.5" stroke="#888888" stroke-linecap="round" stroke-linejoin="round"/>
</svg>
