<svg width="13" height="12" viewBox="0 0 13 12" fill="none" xmlns="http://www.w3.org/2000/svg">
<rect x="0.125" width="12" height="12" rx="1" fill="#00C8C8"/>
<path d="M5.86816 3.2915V4.43192C5.86816 4.50753 5.8982 4.58005 5.95167 4.63352C6.00514 4.68698 6.07765 4.71702 6.15327 4.71702H7.29368" stroke="white" stroke-width="0.775357" stroke-linecap="round" stroke-linejoin="round"/>
<path d="M5.29846 8.42336H3.87294C3.72171 8.42336 3.57668 8.36329 3.46974 8.25635C3.36281 8.14942 3.30273 8.00438 3.30273 7.85316V3.86171C3.30273 3.71048 3.36281 3.56545 3.46974 3.45851C3.57668 3.35158 3.72171 3.2915 3.87294 3.2915H5.86866L7.29418 4.71702V5.99998" stroke="white" stroke-width="0.775357" stroke-linecap="round" stroke-linejoin="round"/>
<path d="M6.58092 8.13841C6.76996 8.13841 6.95125 8.06331 7.08492 7.92964C7.21859 7.79598 7.29368 7.61468 7.29368 7.42565C7.29368 7.23661 7.21859 7.05532 7.08492 6.92165C6.95125 6.78798 6.76996 6.71289 6.58092 6.71289C6.39189 6.71289 6.21059 6.78798 6.07693 6.92165C5.94326 7.05532 5.86816 7.23661 5.86816 7.42565C5.86816 7.61468 5.94326 7.79598 6.07693 7.92964C6.21059 8.06331 6.39189 8.13841 6.58092 8.13841V8.13841Z" stroke="white" stroke-width="0.775357" stroke-linecap="round" stroke-linejoin="round"/>
<path d="M7.15137 7.99561L7.86413 8.70836" stroke="white" stroke-width="0.775357" stroke-linecap="round" stroke-linejoin="round"/>
</svg>
