<svg width="13" height="12" viewBox="0 0 13 12" fill="none" xmlns="http://www.w3.org/2000/svg">
<rect x="0.625" width="12" height="12" rx="1" fill="#82B2E7"/>
<path d="M5.72046 3.16251C5.72046 2.95727 5.80369 2.76045 5.95184 2.61532C6.09998 2.4702 6.30091 2.38867 6.51042 2.38867C6.71993 2.38867 6.92086 2.4702 7.06901 2.61532C7.21715 2.76045 7.30038 2.95727 7.30038 3.16251C7.75398 3.37262 8.14066 3.69968 8.41898 4.10864C8.6973 4.5176 8.85677 4.99305 8.8803 5.48402V6.64478C8.91002 6.88533 8.99699 7.11568 9.1342 7.31729C9.2714 7.5189 9.45502 7.68614 9.67026 7.80553H3.35059C3.56583 7.68614 3.74944 7.5189 3.88665 7.31729C4.02385 7.11568 4.11082 6.88533 4.14054 6.64478V5.48402C4.16407 4.99305 4.32354 4.5176 4.60186 4.10864C4.88018 3.69968 5.26686 3.37262 5.72046 3.16251" stroke="white" stroke-width="0.775357" stroke-linecap="round" stroke-linejoin="round"/>
<path d="M5.15625 7.80566V8.25707C5.15625 8.61623 5.29893 8.96068 5.55289 9.21464C5.80685 9.46861 6.15131 9.61128 6.51047 9.61128C6.86963 9.61128 7.21408 9.46861 7.46804 9.21464C7.72201 8.96068 7.86468 8.61623 7.86468 8.25707V7.80566" stroke="white" stroke-width="0.775357" stroke-linecap="round" stroke-linejoin="round"/>
</svg>
