<svg width="13" height="12" viewBox="0 0 13 12" fill="none" xmlns="http://www.w3.org/2000/svg">
<rect x="0.625" width="12" height="12" rx="1" fill="#ADD458"/>
<path d="M4.70439 5.66066C5.06344 5.66066 5.40779 5.51803 5.66168 5.26414C5.91557 5.01026 6.0582 4.66591 6.0582 4.30686V3.96841C6.0582 3.78888 6.12951 3.61671 6.25646 3.48976C6.3834 3.36282 6.55557 3.2915 6.7351 3.2915C6.91463 3.2915 7.0868 3.36282 7.21374 3.48976C7.34069 3.61671 7.412 3.78888 7.412 3.96841V5.66066H8.42736C8.60688 5.66066 8.77906 5.73198 8.906 5.85892C9.03294 5.98587 9.10426 6.15804 9.10426 6.33757L8.76581 8.02982C8.71707 8.2373 8.62468 8.41566 8.50283 8.53784C8.38065 8.65968 8.23546 8.71925 8.08891 8.70673H5.71975C5.45046 8.70673 5.1922 8.59975 5.00178 8.40934C4.81137 8.21892 4.70439 7.96066 4.70439 7.69137M4.70439 5.66066V8.36828C4.70439 8.45804 4.66873 8.54413 4.60526 8.6076C4.54179 8.67107 4.4557 8.70673 4.36594 8.70673H3.68904C3.59927 8.70673 3.51319 8.67107 3.44972 8.6076C3.38624 8.54413 3.35059 8.45804 3.35059 8.36828V5.99912C3.35059 5.90935 3.38624 5.82327 3.44972 5.75979C3.51319 5.69632 3.59927 5.66066 3.68904 5.66066H4.70439Z" stroke="white" stroke-width="0.775357" stroke-linecap="round" stroke-linejoin="round"/>
</svg>
