<svg width="13" height="12" viewBox="0 0 13 12" fill="none" xmlns="http://www.w3.org/2000/svg">
<rect x="0.125" width="12" height="12" rx="1" fill="#FF9B6B"/>
<path d="M6.15886 9.31967C6.57382 9.31967 6.98471 9.23794 7.36808 9.07914C7.75145 8.92035 8.09978 8.6876 8.3932 8.39418C8.68662 8.10076 8.91937 7.75242 9.07817 7.36905C9.23696 6.98568 9.3187 6.57479 9.3187 6.15984C9.3187 5.74488 9.23696 5.33399 9.07817 4.95062C8.91937 4.56725 8.68662 4.21891 8.3932 3.92549C8.09978 3.63208 7.75145 3.39932 7.36808 3.24053C6.98471 3.08173 6.57382 3 6.15886 3C5.32082 3 4.5171 3.33291 3.92452 3.92549C3.33193 4.51808 2.99902 5.3218 2.99902 6.15984C2.99902 6.99788 3.33193 7.80159 3.92452 8.39418C4.5171 8.98676 5.32082 9.31967 6.15886 9.31967V9.31967Z" stroke="white" stroke-width="0.775357" stroke-linecap="round" stroke-linejoin="round"/>
<path d="M5.10547 6.15971L5.80765 6.86189L7.21203 5.45752" stroke="white" stroke-width="0.775357" stroke-linecap="round" stroke-linejoin="round"/>
</svg>
