<svg width="22" height="22" viewBox="0 0 22 22" fill="none" xmlns="http://www.w3.org/2000/svg">
<path d="M6.5 2C5.88125 2 5.375 2.50625 5.375 3.125V18.875C5.375 19.4938 5.88125 20 6.5 20H17.75C18.3688 20 18.875 19.4938 18.875 18.875V6.5L14.375 2H6.5Z" fill="#E2E5E7"/>
<path d="M15.5 6.5H18.875L14.375 2V5.375C14.375 5.99375 14.8812 6.5 15.5 6.5Z" fill="#B0B7BD"/>
<path d="M18.875 9.875L15.5 6.5H18.875V9.875Z" fill="#CAD1D8"/>
<path d="M16.625 16.625C16.625 16.9344 16.3719 17.1875 16.0625 17.1875H3.6875C3.37812 17.1875 3.125 16.9344 3.125 16.625V11C3.125 10.6906 3.37812 10.4375 3.6875 10.4375H16.0625C16.3719 10.4375 16.625 10.6906 16.625 11V16.625Z" fill="#50BEE8"/>
<path d="M5.25386 15.5C5.10536 15.5 4.94336 15.4184 4.94336 15.221V12.6667C4.94336 12.5047 5.10536 12.3877 5.25386 12.3877H6.2838C8.33917 12.3877 8.29361 15.5 6.32373 15.5H5.25386ZM5.53736 12.9361V14.951H6.2838C7.49823 14.951 7.55167 12.9361 6.2838 12.9361H5.53736Z" fill="white"/>
<path d="M10.0143 15.545C9.18236 15.581 8.31836 15.0275 8.31836 13.9255C8.31836 12.8191 9.1818 12.2751 10.0143 12.2751C10.8012 12.3151 11.6242 12.8596 11.6242 13.9255C11.6242 14.992 10.8012 15.545 10.0143 15.545ZM9.9648 12.8601C9.4608 12.8601 8.91236 13.2156 8.91236 13.9261C8.91236 14.6326 9.46136 14.9926 9.9648 14.9926C10.4823 14.9926 11.0352 14.6326 11.0352 13.9261C11.0352 13.2151 10.4823 12.8601 9.9648 12.8601Z" fill="white"/>
<path d="M12.1543 13.921C12.1543 13.0531 12.6988 12.3066 13.7332 12.3066C14.1247 12.3066 14.4352 12.4236 14.7632 12.7071C14.8847 12.8191 14.8982 13.0171 14.7767 13.1431C14.6552 13.2505 14.4707 13.2376 14.3627 13.1296C14.1787 12.9361 13.9897 12.8826 13.7332 12.8826C13.0408 12.8826 12.7084 13.3731 12.7084 13.9216C12.7084 14.4796 13.0363 14.992 13.7332 14.992C13.9897 14.992 14.2282 14.888 14.4352 14.704C14.5742 14.596 14.7677 14.6495 14.8487 14.758C14.9207 14.857 14.9561 15.0235 14.7992 15.1805C14.4842 15.4735 14.1067 15.532 13.7327 15.532C12.6448 15.532 12.1543 14.789 12.1543 13.921Z" fill="white"/>
<path d="M16.0625 17.1875H5.375V17.75H16.0625C16.3719 17.75 16.625 17.4969 16.625 17.1875V16.625C16.625 16.9344 16.3719 17.1875 16.0625 17.1875Z" fill="#CAD1D8"/>
</svg>
