<svg width="22" height="22" viewBox="0 0 22 22" fill="none" xmlns="http://www.w3.org/2000/svg">
<path d="M17.8496 18.29C17.8496 18.515 17.7596 18.731 17.5976 18.893C17.4356 19.055 17.2196 19.145 16.9946 19.145H4.99758C4.77258 19.145 4.54758 19.055 4.39458 18.893C4.23258 18.731 4.14258 18.515 4.14258 18.29V2.855C4.14258 2.63 4.23258 2.405 4.39458 2.252C4.54758 2.09 4.77258 2 4.99758 2H12.3596C12.5846 2 12.8096 2.09 12.9716 2.252L17.6066 6.887C17.7686 7.049 17.8586 7.265 17.8586 7.499V18.29H17.8496Z" fill="#EBECF0"/>
<path d="M17.8496 18.29V19.145C17.8496 19.37 17.7596 19.595 17.5976 19.748C17.4356 19.91 17.2196 20 16.9946 20H4.99758C4.52058 20 4.14258 19.613 4.14258 19.145V18.29C4.14258 18.515 4.23258 18.731 4.39458 18.893C4.55658 19.055 4.77258 19.145 4.99758 19.145H16.9946C17.4716 19.145 17.8496 18.758 17.8496 18.29Z" fill="#C1C7D0"/>
<path d="M2.42383 11.4319H19.5688V15.7159C19.5688 16.1929 19.1818 16.5709 18.7138 16.5709H3.28783C3.06283 16.5709 2.83783 16.4809 2.68483 16.3189C2.52283 16.1569 2.43283 15.9409 2.43283 15.7069V11.4319H2.42383Z" fill="#003771"/>
<path d="M4.14283 11.4319V9.71289L2.42383 11.4319H4.14283ZM17.8498 11.4319L17.8678 9.71289L19.5778 11.4319H17.8498Z" fill="#00213F"/>
<path d="M17.8494 7.499V7.616H13.2144C12.7374 7.616 12.3594 7.229 12.3594 6.761V2C12.5844 2 12.8094 2.09 12.9714 2.252L17.6154 6.887C17.7684 7.049 17.8584 7.265 17.8494 7.499Z" fill="#C1C7D0"/>
<path d="M5.41928 15.5269H3.98828V12.2059H5.45528C6.59828 12.2149 7.17428 12.7459 7.19228 13.7989C7.18328 14.9419 6.59828 15.5269 5.41928 15.5269ZM5.07728 12.9799V14.7529H5.31128C5.83328 14.7529 6.08528 14.4559 6.08528 13.8529C6.12128 13.2229 5.86028 12.9349 5.29328 12.9889H5.07728V12.9799ZM9.19028 12.1069C10.2883 12.1519 10.8733 12.7369 10.9453 13.8439C10.9003 14.9509 10.3153 15.5269 9.19028 15.5809C8.07428 15.5449 7.48928 14.9599 7.45328 13.8259C7.51628 12.7459 8.09228 12.1699 9.19028 12.1069ZM9.19028 12.9259C8.77628 12.9349 8.56028 13.2409 8.54228 13.8439C8.56928 14.4739 8.78528 14.7889 9.19028 14.7979C9.62228 14.7889 9.84728 14.4649 9.85628 13.8439C9.83828 13.2319 9.61328 12.9259 9.19028 12.9259ZM14.5543 13.4659H13.5283C13.4833 13.1149 13.2853 12.9349 12.9343 12.9259C12.5383 12.9349 12.3313 13.2589 12.3223 13.8979C12.3223 14.5009 12.5383 14.7979 12.9703 14.7979C13.2943 14.7979 13.4833 14.6089 13.5283 14.2399H14.5723C14.4553 15.0949 13.9243 15.5449 12.9793 15.5809C11.8453 15.5449 11.2603 14.9689 11.2243 13.8619C11.2873 12.7639 11.8363 12.1789 12.8893 12.1069C13.8973 12.1249 14.4463 12.5749 14.5543 13.4659ZM16.5253 14.5819L15.9853 15.5179H14.7613L15.9313 13.7809L14.8693 12.1969H16.1023L16.5703 13.0429L17.0563 12.1969H18.2893L17.1373 13.7899L18.2713 15.5269H17.0383L16.5253 14.5819Z" fill="white"/>
</svg>
