<svg width="27" height="27" viewBox="0 0 36 36" fill="none" xmlns="http://www.w3.org/2000/svg">
<path fill-rule="evenodd" clip-rule="evenodd" d="M32.3786 4.95564H20.9824V2.27026L2.25 5.16151V30.5044L20.9824 33.7309V29.7506H32.3786C32.7238 29.7681 33.0618 29.6482 33.3188 29.4172C33.5758 29.1861 33.7308 28.8627 33.75 28.5176V6.18752C33.7305 5.84266 33.5754 5.51953 33.3184 5.28871C33.0615 5.05789 32.7236 4.93815 32.3786 4.95564ZM32.5586 28.7224H20.9441L20.925 26.5973H23.7229V24.1223H20.9036L20.8901 22.6598H23.7229V20.1848H20.8687L20.8552 18.7223H23.7229V16.2473H20.8463V14.7848H23.7229V12.3098H20.8463V10.8473H23.7229V8.37227H20.8463V6.12226H32.5586V28.7224Z" fill="#20744A"/>
<path d="M25.2976 8.3689H30.161V10.8439H25.2976V8.3689ZM25.2976 12.3075H30.161V14.7825H25.2976V12.3075ZM25.2976 16.2461H30.161V18.7211H25.2976V16.2461ZM25.2976 20.1848H30.161V22.6598H25.2976V20.1848ZM25.2976 24.1234H30.161V26.5984H25.2976V24.1234Z" fill="#20744A"/>
<path fill-rule="evenodd" clip-rule="evenodd" d="M7.14047 12.0072L9.55472 11.8688L11.0723 16.0415L12.8656 11.6967L15.2798 11.5583L12.3481 17.4826L15.2798 23.4215L12.7272 23.2494L11.0037 18.7224L9.2791 23.0772L6.93347 22.8702L9.65822 17.6244L7.14047 12.0072Z" fill="white"/>
</svg>
