<svg width="22" height="22" viewBox="0 0 22 22" fill="none" xmlns="http://www.w3.org/2000/svg">
<path d="M17.4158 5.52304L14.2648 2.37206C14.0953 2.20234 13.8695 2.10889 13.6296 2.10889H5.2189C4.72337 2.10889 4.32031 2.51195 4.32031 3.00747V18.9923C4.32031 19.4879 4.72337 19.8909 5.2189 19.8909H16.7804C17.2759 19.8909 17.6792 19.4879 17.6792 18.9923V6.15845C17.6792 5.91839 17.5855 5.69256 17.4158 5.52304ZM14.1753 3.12068L16.667 5.61254H14.4276C14.2885 5.61254 14.1755 5.49933 14.1755 5.36023L14.1753 3.12068ZM16.7804 19.2982H5.2189C5.05017 19.2982 4.91305 19.1611 4.91305 18.9923V3.00747C4.91305 2.83874 5.05017 2.70162 5.2189 2.70162H13.5828V5.36023C13.5828 5.82612 13.9617 6.20527 14.4276 6.20527H17.0864V18.9923C17.0864 19.1611 16.9491 19.2982 16.7804 19.2982Z" fill="black"/>
<path d="M15.5817 8.6921H10.3686C10.2048 8.6921 10.0723 8.55952 10.0723 8.39573C10.0723 8.23194 10.2048 8.09937 10.3686 8.09937H15.5817C15.7453 8.09937 15.8781 8.23194 15.8781 8.39573C15.8781 8.55952 15.7453 8.6921 15.5817 8.6921Z" fill="black"/>
<path d="M8.91663 8.6921H6.41746C6.25367 8.6921 6.12109 8.55952 6.12109 8.39573C6.12109 8.23194 6.25367 8.09937 6.41746 8.09937H8.91663C9.08042 8.09937 9.21299 8.23194 9.21299 8.39573C9.21299 8.55952 9.08042 8.6921 8.91663 8.6921Z" fill="black"/>
<path d="M10.466 6.20528H6.41746C6.25367 6.20528 6.12109 6.07271 6.12109 5.90892C6.12109 5.74512 6.25367 5.61255 6.41746 5.61255H10.4662C10.63 5.61255 10.7626 5.74512 10.7626 5.90892C10.7626 6.07271 10.6298 6.20528 10.466 6.20528Z" fill="black"/>
<path d="M15.5823 10.8654H6.41746C6.25367 10.8654 6.12109 10.7329 6.12109 10.5691C6.12109 10.4053 6.25367 10.2727 6.41746 10.2727H15.5825C15.7461 10.2727 15.8789 10.4053 15.8789 10.5691C15.8789 10.7329 15.7459 10.8654 15.5823 10.8654Z" fill="black"/>
<path d="M11.6304 13.0388H6.41746C6.25367 13.0388 6.12109 12.906 6.12109 12.7424C6.12109 12.5788 6.25367 12.446 6.41746 12.446H11.6306C11.7942 12.446 11.9269 12.5788 11.9269 12.7424C11.9269 12.906 11.7942 13.0388 11.6304 13.0388Z" fill="black"/>
<path d="M15.5826 13.0388H13.0835C12.9199 13.0388 12.7871 12.906 12.7871 12.7424C12.7871 12.5788 12.9199 12.446 13.0835 12.446H15.5826C15.7462 12.446 15.879 12.5788 15.879 12.7424C15.879 12.906 15.7462 13.0388 15.5826 13.0388Z" fill="black"/>
<path d="M15.5823 15.2121H6.41746C6.25367 15.2121 6.12109 15.0793 6.12109 14.9158C6.12109 14.7522 6.25367 14.6194 6.41746 14.6194H15.5825C15.7461 14.6194 15.8789 14.7522 15.8789 14.9158C15.8789 15.0793 15.7459 15.2121 15.5823 15.2121Z" fill="black"/>
<path d="M15.5826 17.3855H13.0835C12.9199 17.3855 12.7871 17.2527 12.7871 17.0891C12.7871 16.9255 12.9199 16.7927 13.0835 16.7927H15.5826C15.7462 16.7927 15.879 16.9255 15.879 17.0891C15.879 17.2527 15.7462 17.3855 15.5826 17.3855Z" fill="black"/>
</svg>
