<svg width="22" height="22" viewBox="0 0 22 22" fill="none" xmlns="http://www.w3.org/2000/svg">
<path fill-rule="evenodd" clip-rule="evenodd" d="M18 20H4V3H14.602L18 6.65788V20ZM8.07099 9.29614C8.66212 9.29614 9.1413 9.78036 9.1413 10.3794C9.1413 10.9771 8.66212 11.4626 8.07099 11.4626C7.48123 11.4626 7.00205 10.9771 7.00205 10.3794C7.00205 9.78036 7.48123 9.29614 8.07099 9.29614ZM12.5611 13.4133L14.4751 10.0598L14.7577 9.56592L14.9652 10.0972L16.2553 16.3006H5.97543V15.0389L6.36724 15.0251L7.08532 14.9877L7.91263 12.9388L8.4273 12.9665L8.81502 14.3472H9.75973L10.8519 11.4986L11.0471 10.9881L11.3365 11.4488L12.5611 13.4133ZM17.1235 19.0454V7.47689H14.0273V3.81763H4.88874V19.0454H17.1235Z" fill="black"/>
</svg>
