<svg width="22" height="22" viewBox="0 0 22 22" fill="none" xmlns="http://www.w3.org/2000/svg">
<path d="M11.0166 2.78955C10.9536 2.73389 10.8672 2.6958 10.7793 2.6958C10.7603 2.6958 10.7412 2.6958 10.7236 2.70166H2.78711C2.57471 2.70166 2.37549 2.78809 2.2334 2.93164C2.08984 3.0752 2.00195 3.26855 2.00195 3.48682V18.5205C2.00195 18.7388 2.08984 18.9321 2.23193 19.0742C2.37549 19.2178 2.56885 19.3042 2.78564 19.3042C6.78467 19.3042 10.4556 19.3042 14.4341 19.3042C14.6523 19.3042 14.8457 19.2163 14.9878 19.0742C15.1313 18.9307 15.2178 18.7373 15.2178 18.5205V16.6895H18.978C19.5376 16.6895 19.999 16.228 19.999 15.6685V11.4219C19.999 10.8623 19.5391 10.4009 18.978 10.4009H15.2207V7.27344C15.2266 7.24268 15.2339 7.21777 15.2339 7.18555C15.2339 7.08008 15.1841 6.98633 15.1152 6.91748L11.0605 2.81445C11.0474 2.80127 11.0415 2.79541 11.0298 2.78955H11.0166ZM14.2012 16.6895V18.1982C14.2012 18.2173 14.1748 18.2422 14.1558 18.2539C14.1426 18.2671 14.144 18.2788 14.1191 18.2788C10.9536 18.2788 6.18115 18.2788 3.10205 18.2788C3.08301 18.2788 3.05811 18.2729 3.04639 18.2539C3.0332 18.2407 3.02148 18.2158 3.02148 18.1982V3.80908C3.02148 3.78418 3.02734 3.76514 3.04639 3.75342C3.05957 3.74023 3.07715 3.72852 3.10205 3.72852H10.2021V6.55713C10.2021 6.8501 10.3208 7.19873 10.5142 7.39209C10.7075 7.58545 11.1162 7.74365 11.4092 7.74365H14.2012V10.4009H4.97998C4.41748 10.4009 3.95898 10.8608 3.95898 11.4219V15.6685C3.95898 16.2295 4.42041 16.6895 4.97998 16.6895H14.2012ZM7.12598 11.8643H8.16895V13.6909C8.16895 14.0747 8.13525 14.3662 8.06787 14.5669C7.99902 14.7661 7.86279 14.936 7.65625 15.0752C7.44971 15.2144 7.18604 15.2832 6.86523 15.2832C6.52539 15.2832 6.26172 15.2363 6.07568 15.1455C5.88818 15.0532 5.74463 14.9199 5.64209 14.7427C5.54102 14.5669 5.47949 14.3486 5.46191 14.0879L6.45361 13.9531C6.45508 14.0996 6.46826 14.2095 6.49316 14.2812C6.51807 14.353 6.55908 14.4102 6.61768 14.4556C6.65723 14.4849 6.71436 14.498 6.7876 14.498C6.90478 14.498 6.98975 14.4556 7.04395 14.3691C7.09814 14.2827 7.12598 14.1377 7.12598 13.9326V11.8643ZM8.70654 11.8643H10.4351C10.8115 11.8643 11.0928 11.9536 11.2817 12.1323C11.4692 12.311 11.563 12.5674 11.563 12.8984C11.563 13.2383 11.4604 13.5049 11.2568 13.6953C11.0532 13.8872 10.7397 13.9824 10.3208 13.9824H9.75098V15.2275H8.70801V11.8643H8.70654ZM9.74951 13.3013H10.0059C10.208 13.3013 10.3501 13.2661 10.4307 13.1958C10.5127 13.1255 10.5522 13.0376 10.5522 12.9277C10.5522 12.8223 10.5171 12.7329 10.4453 12.6597C10.375 12.5864 10.2417 12.5498 10.0454 12.5498H9.74805V13.3013H9.74951ZM11.9556 11.8643H14.7358V12.5835H12.9985V13.1196H14.6099V13.8052H12.9985V14.4673H14.7886V15.2275H11.9556V11.8643ZM16.8906 14.0103V13.3101H18.4976V14.7397C18.1899 14.9492 17.9175 15.0928 17.6831 15.1689C17.4473 15.2451 17.166 15.2817 16.8423 15.2817C16.4424 15.2817 16.1172 15.2144 15.8667 15.0781C15.6147 14.9434 15.4199 14.7397 15.2822 14.4702C15.1431 14.2021 15.0742 13.8931 15.0742 13.5444C15.0742 13.1768 15.1504 12.8589 15.3013 12.5864C15.4521 12.3154 15.6733 12.1104 15.9663 11.9683C16.1948 11.8599 16.501 11.8057 16.8862 11.8057C17.2568 11.8057 17.5352 11.8394 17.7197 11.9067C17.9043 11.9741 18.0566 12.0781 18.1782 12.2202C18.2998 12.3623 18.3906 12.541 18.4521 12.7578L17.4517 12.938C17.4106 12.8105 17.3403 12.7124 17.2422 12.645C17.144 12.5776 17.0181 12.5439 16.8643 12.5439C16.6372 12.5439 16.4556 12.623 16.3208 12.7812C16.186 12.9395 16.1187 13.1899 16.1187 13.5313C16.1187 13.8945 16.1875 14.1538 16.3237 14.3105C16.46 14.4658 16.6504 14.5449 16.895 14.5449C17.0107 14.5449 17.1206 14.5288 17.2275 14.4951C17.333 14.4614 17.4531 14.4043 17.5894 14.3237V14.0088H16.8906V14.0103ZM11.1279 6.47656V3.9043L14.0239 6.83838H11.4897C11.3901 6.83838 11.3022 6.79443 11.2349 6.73291C11.1719 6.66992 11.1279 6.57617 11.1279 6.47656Z" fill="black"/>
</svg>
