<svg width="22" height="22" viewBox="0 0 22 22" fill="none" xmlns="http://www.w3.org/2000/svg">
<path d="M6.5 2C5.88125 2 5.375 2.50625 5.375 3.125V18.875C5.375 19.4938 5.88125 20 6.5 20H17.75C18.3688 20 18.875 19.4938 18.875 18.875V6.5L14.375 2H6.5Z" fill="#E2E5E7"/>
<path d="M15.5 6.5H18.875L14.375 2V5.375C14.375 5.99375 14.8812 6.5 15.5 6.5Z" fill="#B0B7BD"/>
<path d="M18.875 9.875L15.5 6.5H18.875V9.875Z" fill="#CAD1D8"/>
<path d="M16.625 16.625C16.625 16.9344 16.3719 17.1875 16.0625 17.1875H3.6875C3.37812 17.1875 3.125 16.9344 3.125 16.625V11C3.125 10.6906 3.37812 10.4375 3.6875 10.4375H16.0625C16.3719 10.4375 16.625 10.6906 16.625 11V16.625Z" fill="#50BEE8"/>
<path d="M6.9909 12.6578C6.9909 12.2798 7.5849 12.2798 7.5849 12.6578V14.4341C7.5849 15.1406 7.2474 15.5681 6.46946 15.5681C6.08696 15.5681 5.76802 15.4641 5.48902 15.1046C5.25952 14.8301 5.69152 14.4347 5.92552 14.7221C6.11452 14.9561 6.31702 15.0101 6.51446 15.0011C6.7659 14.9921 6.98696 14.8791 6.99146 14.4341V12.6578H6.9909Z" fill="white"/>
<path d="M8.375 12.6577C8.375 12.5092 8.492 12.3472 8.681 12.3472H9.71994C10.3049 12.3472 10.8314 12.7387 10.8314 13.489C10.8314 14.2 10.3049 14.596 9.71994 14.596H8.969V15.19C8.969 15.388 8.843 15.5 8.681 15.5C8.5325 15.5 8.375 15.388 8.375 15.19V12.6577ZM8.969 12.9136V14.0341H9.71994C10.0214 14.0341 10.2599 13.768 10.2599 13.489C10.2599 13.1746 10.0214 12.9136 9.71994 12.9136H8.969Z" fill="white"/>
<path d="M14.0436 15.1541C13.7241 15.4196 13.3326 15.5321 12.9372 15.5321C11.9922 15.5321 11.3223 14.9927 11.3223 13.9217C11.3223 13.0138 12.0288 12.3079 12.9771 12.3079C13.3326 12.3079 13.7236 12.4288 14.0026 12.7033C14.2765 12.9727 13.8811 13.3732 13.6116 13.1353C13.4451 12.9733 13.2111 12.8518 12.9771 12.8518C12.4332 12.8518 11.9073 13.2877 11.9073 13.9217C11.9073 14.5877 12.3477 14.9927 12.9372 14.9927C13.2111 14.9927 13.4451 14.9111 13.6116 14.7902V14.2372H12.9372C12.5367 14.2372 12.5772 13.6882 12.9372 13.6882H13.8366C14.0031 13.6882 14.1556 13.8142 14.1556 13.9537V14.9117C14.1556 14.9927 14.1201 15.068 14.0436 15.1541Z" fill="white"/>
<path d="M16.0625 17.1875H5.375V17.75H16.0625C16.3719 17.75 16.625 17.4969 16.625 17.1875V16.625C16.625 16.9344 16.3719 17.1875 16.0625 17.1875Z" fill="#CAD1D8"/>
</svg>
