<svg width="22" height="22" viewBox="0 0 22 22" fill="none" xmlns="http://www.w3.org/2000/svg">
<path d="M6.5 2C5.88125 2 5.375 2.50625 5.375 3.125V18.875C5.375 19.4938 5.88125 20 6.5 20H17.75C18.3688 20 18.875 19.4938 18.875 18.875V6.5L14.375 2H6.5Z" fill="#E2E5E7"/>
<path d="M15.5 6.5H18.875L14.375 2V5.375C14.375 5.99375 14.8812 6.5 15.5 6.5Z" fill="#B0B7BD"/>
<path d="M18.875 9.875L15.5 6.5H18.875V9.875Z" fill="#CAD1D8"/>
<path d="M16.625 16.625C16.625 16.9344 16.3719 17.1875 16.0625 17.1875H3.6875C3.37812 17.1875 3.125 16.9344 3.125 16.625V11C3.125 10.6906 3.37812 10.4375 3.6875 10.4375H16.0625C16.3719 10.4375 16.625 10.6906 16.625 11V16.625Z" fill="#A066AA"/>
<path d="M5.26367 12.6575C5.26367 12.509 5.38011 12.3464 5.56911 12.3464H6.60861C7.19305 12.3464 7.71955 12.7379 7.71955 13.4889C7.71955 14.1999 7.19305 14.5953 6.60861 14.5953H5.85655V15.1893C5.85655 15.3879 5.73167 15.4998 5.56911 15.4998C5.42061 15.4998 5.26367 15.3879 5.26367 15.1893V12.6575ZM5.85655 12.9134V14.0334H6.60805C6.90898 14.0334 7.14748 13.7679 7.14748 13.4889C7.14748 13.1739 6.90898 12.9134 6.60805 12.9134H5.85655Z" fill="white"/>
<path d="M8.29353 12.7025C8.29353 12.5399 8.32953 12.383 8.56353 12.383C8.72497 12.383 8.76153 12.4235 8.88247 12.5399L10.3708 14.4024V12.6575C10.3708 12.509 10.5008 12.3464 10.6543 12.3464C10.8163 12.3464 10.9733 12.509 10.9733 12.6575V15.1893C10.9733 15.3879 10.8518 15.4632 10.7348 15.4998C10.5778 15.4998 10.5008 15.4638 10.3708 15.3429L8.88247 13.4534V15.1899C8.88247 15.3884 8.76097 15.5004 8.59897 15.5004C8.43697 15.5004 8.29297 15.3884 8.29297 15.1899V12.7025H8.29353Z" fill="white"/>
<path d="M14.3561 15.1539C14.0366 15.4189 13.6451 15.5319 13.2497 15.5319C12.3047 15.5319 11.6348 14.9919 11.6348 13.9215C11.6348 13.0131 12.3413 12.3071 13.2896 12.3071C13.6451 12.3071 14.0361 12.4286 14.3151 12.7031C14.5896 12.9726 14.1936 13.3731 13.9241 13.1351C13.7576 12.9726 13.5236 12.8516 13.2896 12.8516C12.7457 12.8516 12.2198 13.2876 12.2198 13.9215C12.2198 14.5875 12.6602 14.9919 13.2497 14.9919C13.5236 14.9919 13.7576 14.9109 13.9241 14.7894V14.2371H13.2497C12.8492 14.2371 12.8897 13.6875 13.2497 13.6875H14.1491C14.3156 13.6875 14.4681 13.8141 14.4681 13.9536V14.9115C14.4681 14.9919 14.4326 15.0679 14.3561 15.1539Z" fill="white"/>
<path d="M16.0625 17.1875H5.375V17.75H16.0625C16.3719 17.75 16.625 17.4969 16.625 17.1875V16.625C16.625 16.9344 16.3719 17.1875 16.0625 17.1875Z" fill="#CAD1D8"/>
</svg>
