<svg width="22" height="22" viewBox="0 0 22 22" fill="none" xmlns="http://www.w3.org/2000/svg">
<path d="M17.8496 18.29C17.8496 18.515 17.7596 18.731 17.5976 18.893C17.4356 19.055 17.2196 19.145 16.9946 19.145H4.99758C4.77258 19.145 4.54758 19.055 4.39458 18.893C4.23258 18.731 4.14258 18.515 4.14258 18.29V2.855C4.14258 2.63 4.23258 2.405 4.39458 2.252C4.54758 2.09 4.77258 2 4.99758 2H12.3596C12.5846 2 12.8096 2.09 12.9716 2.252L17.6066 6.887C17.7686 7.049 17.8586 7.265 17.8586 7.499V18.29H17.8496Z" fill="#EBECF0"/>
<path d="M17.8496 18.29V19.145C17.8496 19.37 17.7596 19.595 17.5976 19.748C17.4356 19.91 17.2196 20 16.9946 20H4.99758C4.52058 20 4.14258 19.613 4.14258 19.145V18.29C4.14258 18.515 4.23258 18.731 4.39458 18.893C4.55658 19.055 4.77258 19.145 4.99758 19.145H16.9946C17.4716 19.145 17.8496 18.758 17.8496 18.29Z" fill="#C1C7D0"/>
<path d="M2.42383 11.4319H19.5688V15.7159C19.5688 16.1929 19.1818 16.5709 18.7138 16.5709H3.28783C3.06283 16.5709 2.83783 16.4809 2.68483 16.3189C2.52283 16.1569 2.43283 15.9409 2.43283 15.7069V11.4319H2.42383Z" fill="#FF527B"/>
<path d="M4.14283 11.4319V9.71289L2.42383 11.4319H4.14283ZM17.8498 11.4319L17.8678 9.71289L19.5778 11.4319H17.8498Z" fill="#DD1D54"/>
<path d="M17.8494 7.499V7.616H13.2144C12.7374 7.616 12.3594 7.229 12.3594 6.761V2C12.5844 2 12.8094 2.09 12.9714 2.252L17.6154 6.887C17.7684 7.049 17.8584 7.265 17.8494 7.499Z" fill="#C1C7D0"/>
<path d="M8.70472 13.1599H7.67872C7.66972 13.0519 7.61572 12.9799 7.51672 12.9439C7.45372 12.8989 7.36372 12.8719 7.24672 12.8719C7.00372 12.8719 6.88672 12.9349 6.88672 13.0699C6.88672 13.1869 7.10272 13.3039 7.53472 13.4119C8.38072 13.6189 8.80372 13.9699 8.80372 14.4559C8.77672 15.1939 8.26372 15.5629 7.24672 15.5719C6.36472 15.5359 5.86972 15.1759 5.76172 14.4919H6.80572C6.84172 14.6089 6.90472 14.6989 6.98572 14.7619C7.06672 14.8069 7.17472 14.8339 7.29172 14.8339C7.60672 14.8339 7.75972 14.7529 7.75972 14.5999C7.75972 14.4649 7.55272 14.3569 7.12972 14.2579C6.27472 14.0509 5.84272 13.6909 5.84272 13.1779C5.86972 12.4939 6.34672 12.1339 7.27372 12.1159C8.11972 12.1249 8.59672 12.4669 8.70472 13.1599ZM10.1897 15.5269L9.05572 12.2059H10.1537L10.7297 14.4109L11.3237 12.2059H12.4217L11.2697 15.5269H10.1897ZM16.0757 13.6999V15.5269H15.3737L15.3377 15.2029C15.1217 15.4549 14.7797 15.5809 14.3297 15.5809C13.2947 15.5359 12.7547 14.9689 12.7187 13.8979C12.7817 12.7549 13.3577 12.1609 14.4557 12.1069C15.3467 12.1339 15.8777 12.5389 16.0487 13.3309H15.0047C14.9327 13.0519 14.7437 12.9169 14.4467 12.9169C14.0327 12.9259 13.8257 13.2499 13.8167 13.8889C13.8257 14.4919 14.0597 14.7889 14.5187 14.7889C14.8067 14.7529 14.9957 14.6269 15.0767 14.4109H14.5907V13.6909H16.0757V13.6999Z" fill="white"/>
</svg>
