<svg width="22" height="22" viewBox="0 0 22 22" fill="none" xmlns="http://www.w3.org/2000/svg">
<path d="M5.95703 13.3682H6.93459V15.6665H7.57646V13.3682H8.58756V12.8979H5.95703V13.3682Z" fill="black"/>
<path d="M11.7625 12.8979H11.0038L10.5527 13.5165C10.4735 13.6247 10.4077 13.7208 10.3546 13.8043L10.2928 13.8999C10.2794 13.9213 10.2586 13.9538 10.2304 13.9972H10.221L10.1592 13.8999L10.0968 13.8021C10.0343 13.7077 9.9672 13.6115 9.89604 13.5143L9.44486 12.8979H8.67881L9.71007 14.2383L8.59961 15.6665H9.37307L9.86115 15.0013C9.97057 14.8541 10.068 14.714 10.1539 14.5811L10.2257 14.4717H10.2358L10.3076 14.5794L10.3768 14.6887C10.4452 14.7942 10.5164 14.8986 10.5903 15.0013L11.0763 15.6665H11.8296L10.746 14.2383L11.7625 12.8979Z" fill="black"/>
<path d="M11.8398 13.3682H12.8167V15.6665H13.4586V13.3682H14.471V12.8979H11.8398V13.3682Z" fill="black"/>
<path d="M3.49285 2V11.7388H1.89453V16.8675L3.49249 18.1749L3.49285 20H20.1061V5.76244L15.5075 2H3.49285ZM17.7706 16.305H2.58201V12.3013H17.7706V16.305ZM15.8503 3.35779L18.4461 5.4812H15.8503V3.35779Z" fill="black"/>
</svg>
