<svg width="49" height="35" viewBox="0 0 49 35" fill="none" xmlns="http://www.w3.org/2000/svg">
<path d="M18.4965 32.7915H13.6772C10.6948 32.7915 7.83459 31.6511 5.72573 29.6213C3.61687 27.5915 2.43213 24.8386 2.43213 21.968C2.43213 19.0974 3.61687 16.3444 5.72573 14.3147C7.83459 12.2849 10.6948 11.1445 13.6772 11.1445C14.618 11.1442 15.5554 11.2545 16.4684 11.4731" stroke="#688F99" stroke-width="3" stroke-linecap="round" stroke-linejoin="round"/>
<path d="M15.2812 17.3452C15.2813 14.8951 15.8861 12.4802 17.0461 10.2993C18.206 8.11839 19.8877 6.23402 21.9527 4.80146C24.0178 3.36889 26.4069 2.42915 28.9232 2.05966C31.4396 1.69017 34.0112 1.90152 36.426 2.67629C38.8409 3.45106 41.0299 4.76707 42.8127 6.51588C44.5954 8.26468 45.9209 10.3962 46.6799 12.7348C47.4389 15.0734 47.6096 17.5521 47.1781 19.9667C46.7465 22.3813 45.725 24.6626 44.1977 26.6226" stroke="#688F99" stroke-width="3" stroke-linecap="round" stroke-linejoin="round"/>
<path d="M22.9336 23.8958L29.7409 17.3438L36.5482 23.8958" stroke="#688F99" stroke-width="3.61396" stroke-linecap="round" stroke-linejoin="round"/>
<path d="M29.7417 32.8058V17.3438" stroke="#688F99" stroke-width="3" stroke-linecap="round" stroke-linejoin="round"/>
</svg>
