<svg width="22" height="22" viewBox="0 0 22 22" fill="none" xmlns="http://www.w3.org/2000/svg">
<path d="M6.5 2C5.88125 2 5.375 2.50625 5.375 3.125V18.875C5.375 19.4938 5.88125 20 6.5 20H17.75C18.3688 20 18.875 19.4938 18.875 18.875V6.5L14.375 2H6.5Z" fill="#E2E5E7"/>
<path d="M15.5 6.5H18.875L14.375 2V5.375C14.375 5.99375 14.8812 6.5 15.5 6.5Z" fill="#B0B7BD"/>
<path d="M18.875 9.875L15.5 6.5H18.875V9.875Z" fill="#CAD1D8"/>
<path d="M16.625 16.625C16.625 16.9344 16.3719 17.1875 16.0625 17.1875H3.6875C3.37812 17.1875 3.125 16.9344 3.125 16.625V11C3.125 10.6906 3.37812 10.4375 3.6875 10.4375H16.0625C16.3719 10.4375 16.625 10.6906 16.625 11V16.625Z" fill="#84BD5A"/>
<path d="M7.07419 13.4679L7.85663 12.4874C8.09063 12.1814 8.54513 12.5724 8.28863 12.8649C8.01919 13.1844 7.73569 13.5309 7.46569 13.8858L8.38313 15.0283C8.63063 15.3658 8.13619 15.6892 7.89319 15.3562L7.06519 14.2948L6.25125 15.3793C6.02175 15.7072 5.51325 15.3388 5.76975 15.0328L6.67369 13.8858C6.39019 13.5303 6.11569 13.1844 5.84175 12.8649C5.55881 12.5274 6.08475 12.1814 6.29175 12.497L7.07419 13.4679Z" fill="white"/>
<path d="M8.9375 12.6578C8.9375 12.5093 9.0635 12.3833 9.221 12.3833C9.365 12.3833 9.4865 12.5099 9.4865 12.6578V14.9112H10.7099C11.1504 14.9112 11.1599 15.5001 10.7099 15.5001H9.22156C9.06406 15.5001 8.93806 15.3882 8.93806 15.2262V12.6578H8.9375Z" fill="white"/>
<path d="M11.5639 13.0628C11.6674 12.1898 12.9848 12.0328 13.6058 12.5098C13.9118 12.7568 13.5878 13.1483 13.3178 12.9503C12.9848 12.7393 12.2294 12.6403 12.1349 13.1072C12.0134 13.8452 13.9698 13.4228 13.9383 14.6192C13.9068 15.7617 12.2519 15.7881 11.6309 15.2757C11.4818 15.1542 11.4869 14.9567 11.5679 14.8346C11.6849 14.7182 11.8148 14.6777 11.9684 14.8037C12.3368 15.0551 13.2863 15.2442 13.3533 14.6052C13.2953 13.9403 11.4244 14.3402 11.5639 13.0628Z" fill="white"/>
<path d="M16.0625 17.1875H5.375V17.75H16.0625C16.3719 17.75 16.625 17.4969 16.625 17.1875V16.625C16.625 16.9344 16.3719 17.1875 16.0625 17.1875Z" fill="#CAD1D8"/>
</svg>
