<svg width="22" height="22" viewBox="0 0 22 22" fill="none" xmlns="http://www.w3.org/2000/svg">
<path d="M13.3019 10.5812L6.18555 9.32544V18.6046C6.18555 19.0282 6.52902 19.372 6.95301 19.372H19.2324C19.656 19.372 19.9998 19.0286 19.9998 18.6046V15.186L13.3019 10.5812Z" fill="#185C37"/>
<path d="M13.3019 2.62793H6.95301C6.52937 2.62793 6.18555 2.97141 6.18555 3.39539V6.81398L13.3019 11L17.0692 12.2558L19.9995 11V6.81398L13.3019 2.62793Z" fill="#21A366"/>
<path d="M6.18555 6.81396H13.3019V11H6.18555V6.81396Z" fill="#107C41"/>
<path opacity="0.1" d="M11.2786 5.97681H6.18555V16.4418H11.2786C11.7019 16.4404 12.0447 16.0976 12.0461 15.6743V6.74392C12.0447 6.32063 11.7019 5.97821 11.2786 5.97681Z" fill="black"/>
<path opacity="0.2" d="M10.8603 6.39526H6.18555V16.8606H10.8603C11.2836 16.8592 11.6263 16.5164 11.6277 16.0931V7.16272C11.626 6.73944 11.2832 6.39667 10.8603 6.39526Z" fill="black"/>
<path opacity="0.2" d="M10.8603 6.39526H6.18555V16.0232H10.8603C11.2836 16.0217 11.6263 15.679 11.6277 15.2557V7.16272C11.626 6.73944 11.2832 6.39667 10.8603 6.39526Z" fill="black"/>
<path opacity="0.2" d="M10.4416 6.39526H6.18555V16.0232H10.4416C10.8648 16.0217 11.2076 15.679 11.209 15.2557V7.16272C11.2073 6.73944 10.8648 6.39667 10.4416 6.39526Z" fill="black"/>
<path d="M2.76746 6.39526H10.4421C10.8657 6.39526 11.2095 6.73874 11.2095 7.16272V14.8373C11.2095 15.261 10.8661 15.6048 10.4421 15.6048H2.76746C2.34348 15.6048 2 15.2613 2 14.8373V7.16272C2 6.73874 2.34348 6.39526 2.76746 6.39526Z" fill="url(#paint0_linear_1454_37278)"/>
<path d="M4.37695 13.4939L5.99098 10.9929L4.51195 8.50562H5.70164L6.50883 10.0964C6.58336 10.2476 6.63434 10.3598 6.66211 10.4339H6.67266C6.72574 10.3133 6.78164 10.1963 6.84 10.0827L7.70273 8.50667H8.79504L7.2784 10.9792L8.83336 13.4943H7.67109L6.73875 11.7484C6.6948 11.6742 6.65754 11.5962 6.6273 11.5153H6.61359C6.58617 11.5944 6.54996 11.6704 6.50566 11.7414L5.5459 13.4946L4.37695 13.4939Z" fill="white"/>
<path d="M19.2329 2.62793H13.3027V6.81398H20.0004V3.39539C20.0004 2.97141 19.6569 2.62793 19.2329 2.62793Z" fill="#33C481"/>
<path d="M13.3027 11H20.0004V15.1861H13.3027V11Z" fill="#107C41"/>
<defs>
<linearGradient id="paint0_linear_1454_37278" x1="3.59984" y1="5.79582" x2="9.60945" y2="16.2042" gradientUnits="userSpaceOnUse">
<stop stop-color="#18884F"/>
<stop offset="0.5" stop-color="#117E43"/>
<stop offset="1" stop-color="#0B6631"/>
</linearGradient>
</defs>
</svg>
