<svg width="20" height="20" viewBox="0 0 20 20" fill="none" xmlns="http://www.w3.org/2000/svg">
<path d="M3.81667 8.08106V8.0809V6.97C3.81667 5.39435 4.46224 3.87832 5.61937 2.75679C6.7773 1.63449 8.35265 1 10 1C11.6474 1 13.2227 1.63449 14.3806 2.75679C15.5378 3.87832 16.1833 5.39435 16.1833 6.97V8.0809C16.1833 10.6239 16.9356 13.1125 18.348 15.25H1.65134C3.06358 13.1126 3.81611 10.6242 3.81667 8.08106Z" stroke="#688F99" stroke-width="1.5" stroke-linecap="round" stroke-linejoin="round"/>
<mask id="path-2-inside-1_3580_36887" fill="white">
<path d="M7 17.875C7.37839 18.3471 7.84102 19.0996 8.35786 19.358C8.87469 19.6165 9.43418 19.75 10 19.75C10.5658 19.75 11.1253 19.6165 11.6421 19.358C12.159 19.0996 12.6216 18.3471 13 17.875"/>
</mask>
<path d="M8.17045 16.9369C7.65235 16.2905 6.70832 16.1864 6.06189 16.7045C5.41547 17.2227 5.31145 18.1667 5.82955 18.8131L8.17045 16.9369ZM14.1705 18.8131C14.6886 18.1667 14.5845 17.2227 13.9381 16.7045C13.2917 16.1864 12.3477 16.2905 11.8295 16.9369L14.1705 18.8131ZM5.82955 18.8131C5.90244 18.9041 5.98228 19.0122 6.09473 19.1637C6.19901 19.3041 6.3265 19.4751 6.46388 19.6438C6.70803 19.9436 7.1225 20.4174 7.68703 20.6997L9.02868 18.0164C9.07174 18.0379 9.06435 18.0433 9.00641 17.989C8.95164 17.9377 8.88062 17.8606 8.79013 17.7495C8.69996 17.6387 8.60854 17.5169 8.5035 17.3754C8.40663 17.2449 8.28675 17.082 8.17045 16.9369L5.82955 18.8131ZM7.68703 20.6997C8.40757 21.0599 9.19624 21.25 10 21.25V18.25C9.67213 18.25 9.34182 18.173 9.02868 18.0164L7.68703 20.6997ZM10 21.25C10.8038 21.25 11.5924 21.0599 12.313 20.6997L10.9713 18.0164C10.6582 18.173 10.3279 18.25 10 18.25V21.25ZM12.313 20.6997C12.8775 20.4174 13.292 19.9436 13.5361 19.6438C13.6735 19.4751 13.801 19.3041 13.9053 19.1637C14.0177 19.0122 14.0976 18.9041 14.1705 18.8131L11.8295 16.9369C11.7132 17.082 11.5934 17.2449 11.4965 17.3754C11.3915 17.5169 11.3 17.6387 11.2099 17.7495C11.1194 17.8606 11.0484 17.9377 10.9936 17.989C10.9356 18.0433 10.9283 18.0379 10.9713 18.0164L12.313 20.6997Z" fill="#688F99" mask="url(#path-2-inside-1_3580_36887)"/>
</svg>
