<svg width="24" height="24" viewBox="0 0 24 24" fill="none" xmlns="http://www.w3.org/2000/svg">
<g clip-path="url(#clip0_3741_45919)">
<g clip-path="url(#clip1_3741_45919)">
<path d="M3.81667 11.0811V11.0809V9.97C3.81667 8.39435 4.46224 6.87832 5.61937 5.75679C6.7773 4.63449 8.35265 4 10 4C11.6474 4 13.2227 4.63449 14.3806 5.75679C15.5378 6.87832 16.1833 8.39435 16.1833 9.97V11.0809C16.1833 13.6239 16.9356 16.1125 18.348 18.25H1.65134C3.06358 16.1126 3.81611 13.6242 3.81667 11.0811Z" stroke="#688F99" stroke-width="1.5" stroke-linecap="round" stroke-linejoin="round"/>
<mask id="path-2-inside-1_3741_45919" fill="white">
<path d="M7 20.875C7.37839 21.3471 7.84102 22.0996 8.35786 22.358C8.87469 22.6165 9.43418 22.75 10 22.75C10.5658 22.75 11.1253 22.6165 11.6421 22.358C12.159 22.0996 12.6216 21.3471 13 20.875"/>
</mask>
<path d="M8.17045 19.9369C7.65235 19.2905 6.70832 19.1864 6.06189 19.7045C5.41547 20.2227 5.31145 21.1667 5.82955 21.8131L8.17045 19.9369ZM14.1705 21.8131C14.6886 21.1667 14.5845 20.2227 13.9381 19.7045C13.2917 19.1864 12.3477 19.2905 11.8295 19.9369L14.1705 21.8131ZM5.82955 21.8131C5.90244 21.9041 5.98228 22.0122 6.09473 22.1637C6.19901 22.3041 6.3265 22.4751 6.46388 22.6438C6.70803 22.9436 7.1225 23.4174 7.68703 23.6997L9.02868 21.0164C9.07174 21.0379 9.06435 21.0433 9.00641 20.989C8.95164 20.9377 8.88062 20.8606 8.79013 20.7495C8.69996 20.6387 8.60854 20.5169 8.5035 20.3754C8.40663 20.2449 8.28675 20.082 8.17045 19.9369L5.82955 21.8131ZM7.68703 23.6997C8.40757 24.0599 9.19624 24.25 10 24.25V21.25C9.67213 21.25 9.34182 21.173 9.02868 21.0164L7.68703 23.6997ZM10 24.25C10.8038 24.25 11.5924 24.0599 12.313 23.6997L10.9713 21.0164C10.6582 21.173 10.3279 21.25 10 21.25V24.25ZM12.313 23.6997C12.8775 23.4174 13.292 22.9436 13.5361 22.6438C13.6735 22.4751 13.801 22.3041 13.9053 22.1637C14.0177 22.0122 14.0976 21.9041 14.1705 21.8131L11.8295 19.9369C11.7132 20.082 11.5934 20.2449 11.4965 20.3754C11.3915 20.5169 11.3 20.6387 11.2099 20.7495C11.1194 20.8606 11.0484 20.9377 10.9936 20.989C10.9356 21.0433 10.9283 21.0379 10.9713 21.0164L12.313 23.6997Z" fill="#688F99" mask="url(#path-2-inside-1_3741_45919)"/>
</g>
<g clip-path="url(#clip2_3741_45919)">
<path d="M3.81667 11.0811V11.0809V9.97C3.81667 8.39435 4.46224 6.87832 5.61937 5.75679C6.7773 4.63449 8.35265 4 10 4C11.6474 4 13.2227 4.63449 14.3806 5.75679C15.5378 6.87832 16.1833 8.39435 16.1833 9.97V11.0809C16.1833 13.6239 16.9356 16.1125 18.348 18.25H1.65134C3.06358 16.1126 3.81611 13.6242 3.81667 11.0811Z" stroke="#688F99" stroke-width="1.5" stroke-linecap="round" stroke-linejoin="round"/>
<mask id="path-5-inside-2_3741_45919" fill="white">
<path d="M7 20.875C7.37839 21.3471 7.84102 22.0996 8.35786 22.358C8.87469 22.6165 9.43418 22.75 10 22.75C10.5658 22.75 11.1253 22.6165 11.6421 22.358C12.159 22.0996 12.6216 21.3471 13 20.875"/>
</mask>
<path d="M8.17045 19.9369C7.65235 19.2905 6.70832 19.1864 6.06189 19.7045C5.41547 20.2227 5.31145 21.1667 5.82955 21.8131L8.17045 19.9369ZM14.1705 21.8131C14.6886 21.1667 14.5845 20.2227 13.9381 19.7045C13.2917 19.1864 12.3477 19.2905 11.8295 19.9369L14.1705 21.8131ZM5.82955 21.8131C5.90244 21.9041 5.98228 22.0122 6.09473 22.1637C6.19901 22.3041 6.3265 22.4751 6.46388 22.6438C6.70803 22.9436 7.1225 23.4174 7.68703 23.6997L9.02868 21.0164C9.07174 21.0379 9.06435 21.0433 9.00641 20.989C8.95164 20.9377 8.88062 20.8606 8.79013 20.7495C8.69996 20.6387 8.60854 20.5169 8.5035 20.3754C8.40663 20.2449 8.28675 20.082 8.17045 19.9369L5.82955 21.8131ZM7.68703 23.6997C8.40757 24.0599 9.19624 24.25 10 24.25V21.25C9.67213 21.25 9.34182 21.173 9.02868 21.0164L7.68703 23.6997ZM10 24.25C10.8038 24.25 11.5924 24.0599 12.313 23.6997L10.9713 21.0164C10.6582 21.173 10.3279 21.25 10 21.25V24.25ZM12.313 23.6997C12.8775 23.4174 13.292 22.9436 13.5361 22.6438C13.6735 22.4751 13.801 22.3041 13.9053 22.1637C14.0177 22.0122 14.0976 21.9041 14.1705 21.8131L11.8295 19.9369C11.7132 20.082 11.5934 20.2449 11.4965 20.3754C11.3915 20.5169 11.3 20.6387 11.2099 20.7495C11.1194 20.8606 11.0484 20.9377 10.9936 20.989C10.9356 21.0433 10.9283 21.0379 10.9713 21.0164L12.313 23.6997Z" fill="#688F99" mask="url(#path-5-inside-2_3741_45919)"/>
<circle cx="15.5" cy="5.5" r="4.86538" fill="#FF5278" stroke="white" stroke-width="1.26923"/>
</g>
</g>
<defs>
<clipPath id="clip0_3741_45919">
<rect width="24" height="24" fill="white"/>
</clipPath>
<clipPath id="clip1_3741_45919">
<rect width="24" height="24" fill="white" transform="translate(-2 1)"/>
</clipPath>
<clipPath id="clip2_3741_45919">
<rect width="24" height="29" fill="white" transform="translate(-2 -4)"/>
</clipPath>
</defs>
</svg>
