<svg width="20" height="18" viewBox="0 0 20 18" fill="none" xmlns="http://www.w3.org/2000/svg">
<g clip-path="url(#clip0_5569_59023)">
<mask id="mask0_5569_59023" style="mask-type:luminance" maskUnits="userSpaceOnUse" x="0" y="0" width="20" height="18">
<path d="M20 0H0V18H20V0Z" fill="white"/>
</mask>
<g mask="url(#mask0_5569_59023)">
<mask id="mask1_5569_59023" style="mask-type:luminance" maskUnits="userSpaceOnUse" x="0" y="0" width="20" height="18">
<path d="M20 0H0V18H20V0Z" fill="white"/>
</mask>
<g mask="url(#mask1_5569_59023)">
<mask id="mask2_5569_59023" style="mask-type:luminance" maskUnits="userSpaceOnUse" x="0" y="0" width="20" height="18">
<path d="M20 0H0V18H20V0Z" fill="white"/>
</mask>
<g mask="url(#mask2_5569_59023)">
<path d="M2.84549 9.51385H3.64549V8.71385C3.64549 6.60992 4.46437 4.59539 5.9169 3.1126C7.36888 1.63038 9.33463 0.800781 11.3808 0.800781C13.4269 0.800781 15.3927 1.63038 16.8447 3.1126C18.2972 4.59539 19.1161 6.60992 19.1161 8.71385C19.1161 10.8178 18.2972 12.8323 16.8447 14.3151C15.3927 15.7973 13.4269 16.627 11.3808 16.6269L11.3775 16.627C10.3649 16.6311 9.36123 16.4291 8.42502 16.0324C7.72656 15.7364 7.07582 15.3363 6.49364 14.846L6.725 14.6098C7.99434 15.6577 9.61581 16.2907 11.3808 16.2907C13.359 16.2907 15.2528 15.4883 16.6464 14.0656C18.0396 12.6435 18.8193 10.7181 18.8193 8.71385C18.8193 6.70961 18.0396 4.78422 16.6464 3.36208C15.2528 1.93938 13.359 1.13702 11.3808 1.13702C9.40256 1.13702 7.50879 1.93938 6.11512 3.36208C4.722 4.78422 3.94222 6.70961 3.94222 8.71385V9.51385H4.74222H5.68044L3.76165 11.4678L1.88086 9.51385H2.84549Z" stroke="white" stroke-width="1.6"/>
</g>
<mask id="mask3_5569_59023" style="mask-type:luminance" maskUnits="userSpaceOnUse" x="10" y="4" width="6" height="9">
<path d="M10.4316 4.83984H11.8542V8.95435L15.1735 10.968L14.4906 12.1395L10.4316 9.68044V4.83984Z" fill="white"/>
</mask>
<g mask="url(#mask3_5569_59023)">
<path d="M11.8546 4.84023H13.4546V3.24023H11.8546V4.84023ZM10.432 4.84023V3.24023H8.83203V4.84023H10.432ZM10.432 9.68083H8.83203V10.5822L9.60299 11.0493L10.432 9.68083ZM14.491 12.1399L13.662 13.5083L15.0538 14.3515L15.8734 12.9456L14.491 12.1399ZM15.1739 10.9684L16.5562 11.7742L17.3479 10.4159L16.0038 9.60048L15.1739 10.9684ZM11.8546 8.95474H10.2546V9.85549L11.0247 10.3227L11.8546 8.95474ZM11.8546 3.24023H10.432V6.44023H11.8546V3.24023ZM8.83203 4.84023V9.68083H12.032V4.84023H8.83203ZM9.60299 11.0493L13.662 13.5083L15.3201 10.7714L11.2611 8.31237L9.60299 11.0493ZM15.8734 12.9456L16.5562 11.7742L13.7916 10.1627L13.1087 11.3341L15.8734 12.9456ZM16.0038 9.60048L12.6845 7.58679L11.0247 10.3227L14.344 12.3364L16.0038 9.60048ZM13.4546 8.95474V4.84023H10.2546V8.95474H13.4546Z" fill="white"/>
</g>
</g>
</g>
</g>
<defs>
<clipPath id="clip0_5569_59023">
<rect width="20" height="18" fill="white"/>
</clipPath>
</defs>
</svg>
