<svg width="25" height="26" viewBox="0 0 25 26" fill="none" xmlns="http://www.w3.org/2000/svg">
<path d="M4.49219 7.5957H20.8731" stroke="#949494" stroke-width="1.36508" stroke-linecap="round" stroke-linejoin="round"/>
<path d="M10.6353 11.7266V17.9221" stroke="#949494" stroke-width="1.36508" stroke-linecap="round" stroke-linejoin="round"/>
<path d="M14.7305 11.7266V17.9221" stroke="#949494" stroke-width="1.36508" stroke-linecap="round" stroke-linejoin="round"/>
<path d="M5.51611 8.11133L6.53992 19.986C6.53992 20.5338 6.75565 21.059 7.13966 21.4463C7.52366 21.8336 8.04448 22.0512 8.58754 22.0512H16.778C17.3211 22.0512 17.8419 21.8336 18.2259 21.4463C18.6099 21.059 18.8256 20.5338 18.8256 19.986L19.8494 8.11133" stroke="#949494" stroke-width="1.36508" stroke-linecap="round" stroke-linejoin="round"/>
<path d="M9.61133 7.29307V4.49743C9.61133 4.22357 9.71919 3.96093 9.9112 3.76728C10.1032 3.57363 10.3636 3.46484 10.6351 3.46484H14.7304C15.0019 3.46484 15.2623 3.57363 15.4543 3.76728C15.6463 3.96093 15.7542 4.22357 15.7542 4.49743V7.29307" stroke="#949494" stroke-width="1.36508" stroke-linecap="round" stroke-linejoin="round"/>
</svg>
