<svg width="25" height="26" viewBox="0 0 25 26" fill="none" xmlns="http://www.w3.org/2000/svg">
<path d="M4.09473 8.08008H20.4757" stroke="#688F99" stroke-width="1.36508" stroke-linecap="round" stroke-linejoin="round"/>
<path d="M10.2378 12.2109V18.4064" stroke="#688F99" stroke-width="1.36508" stroke-linecap="round" stroke-linejoin="round"/>
<path d="M14.333 12.2109V18.4064" stroke="#688F99" stroke-width="1.36508" stroke-linecap="round" stroke-linejoin="round"/>
<path d="M5.11865 8.5957L6.14246 20.4704C6.14246 21.0181 6.35819 21.5434 6.7422 21.9307C7.1262 22.318 7.64702 22.5356 8.19008 22.5356H16.3806C16.9236 22.5356 17.4444 22.318 17.8284 21.9307C18.2124 21.5434 18.4282 21.0181 18.4282 20.4704L19.452 8.5957" stroke="#688F99" stroke-width="1.36508" stroke-linecap="round" stroke-linejoin="round"/>
<path d="M9.21387 7.77745V4.9818C9.21387 4.70794 9.32173 4.4453 9.51373 4.25166C9.70574 4.05801 9.96615 3.94922 10.2377 3.94922H14.3329C14.6044 3.94922 14.8649 4.05801 15.0569 4.25166C15.2489 4.4453 15.3567 4.70794 15.3567 4.9818V7.77745" stroke="#688F99" stroke-width="1.36508" stroke-linecap="round" stroke-linejoin="round"/>
</svg>
