<svg width="25" height="26" viewBox="0 0 25 26" fill="none" xmlns="http://www.w3.org/2000/svg">
<path d="M5.85693 7.26492C5.47998 7.26492 5.17439 7.5705 5.17439 7.94746C5.17439 8.32441 5.47998 8.63 5.85693 8.63V7.26492ZM19.5077 8.63C19.8847 8.63 20.1903 8.32441 20.1903 7.94746C20.1903 7.5705 19.8847 7.26492 19.5077 7.26492V8.63ZM11.6321 10.9764C11.6321 10.5994 11.3265 10.2938 10.9495 10.2938C10.5726 10.2938 10.267 10.5994 10.267 10.9764H11.6321ZM10.267 17.64C10.267 18.0169 10.5726 18.3225 10.9495 18.3225C11.3265 18.3225 11.6321 18.0169 11.6321 17.64H10.267ZM13.7322 17.64C13.7322 18.0169 14.0378 18.3225 14.4147 18.3225C14.7917 18.3225 15.0973 18.0169 15.0973 17.64H13.7322ZM15.0973 10.9764C15.0973 10.5994 14.7917 10.2938 14.4147 10.2938C14.0378 10.2938 13.7322 10.5994 13.7322 10.9764H15.0973ZM17.8799 8.63H19.5077V7.26492H17.8799V8.63ZM17.1974 7.94746V19.3038H18.5625V7.94746H17.1974ZM16.5149 19.9864H8.84942V21.3514H16.5149V19.9864ZM5.85693 8.63H7.48434V7.26492H5.85693V8.63ZM8.16688 19.3038V7.94746H6.8018V19.3038H8.16688ZM7.48434 8.63H9.26963V7.26492H7.48434V8.63ZM9.95217 7.94746V6.20102H8.58709V7.94746H9.95217ZM10.6347 5.51848H14.7823V4.1534H10.6347V5.51848ZM9.26963 8.63H16.1473V7.26492H9.26963V8.63ZM16.1473 8.63H17.8799V7.26492H16.1473V8.63ZM15.4648 6.20102V7.94746H16.8299V6.20102H15.4648ZM10.267 10.9764V17.64H11.6321V10.9764H10.267ZM15.0973 17.64V10.9764H13.7322V17.64H15.0973ZM9.95217 6.20102C9.95217 5.82406 10.2578 5.51848 10.6347 5.51848V4.1534C9.50384 4.1534 8.58709 5.07015 8.58709 6.20102H9.95217ZM8.84942 19.9864C8.47246 19.9864 8.16688 19.6808 8.16688 19.3038H6.8018C6.8018 20.4347 7.71855 21.3514 8.84942 21.3514V19.9864ZM14.7823 5.51848C15.1592 5.51848 15.4648 5.82406 15.4648 6.20102H16.8299C16.8299 5.07015 15.9131 4.1534 14.7823 4.1534V5.51848ZM17.1974 19.3038C17.1974 19.6808 16.8918 19.9864 16.5149 19.9864V21.3514C17.6457 21.3514 18.5625 20.4347 18.5625 19.3038H17.1974Z" fill="#888888"/>
</svg>
