<svg width="28" height="28" viewBox="0 0 28 28" fill="none" xmlns="http://www.w3.org/2000/svg">
<path d="M6.63843 15.9893C6.7689 15.9893 6.89403 16.0411 6.98629 16.1333C7.07855 16.2256 7.13038 16.3507 7.13038 16.4812V18.9409C7.13038 19.2019 7.23404 19.4521 7.41855 19.6367C7.60307 19.8212 7.85333 19.9248 8.11427 19.9248H19.921C20.182 19.9248 20.4322 19.8212 20.6167 19.6367C20.8012 19.4521 20.9049 19.2019 20.9049 18.9409V16.4812C20.9049 16.3507 20.9567 16.2256 21.049 16.1333C21.1412 16.0411 21.2664 15.9893 21.3969 15.9893C21.5273 15.9893 21.6525 16.0411 21.7447 16.1333C21.837 16.2256 21.8888 16.3507 21.8888 16.4812V18.9409C21.8888 19.4628 21.6815 19.9633 21.3124 20.3324C20.9434 20.7014 20.4429 20.9087 19.921 20.9087H8.11427C7.59238 20.9087 7.09187 20.7014 6.72284 20.3324C6.3538 19.9633 6.14648 19.4628 6.14648 18.9409V16.4812C6.14648 16.3507 6.19831 16.2256 6.29057 16.1333C6.38283 16.0411 6.50796 15.9893 6.63843 15.9893Z" fill="#688F99"/>
<path d="M13.672 7.37614C13.7177 7.33028 13.772 7.29389 13.8318 7.26906C13.8916 7.24423 13.9558 7.23145 14.0205 7.23145C14.0852 7.23145 14.1494 7.24423 14.2092 7.26906C14.269 7.29389 14.3233 7.33028 14.369 7.37614L17.3206 10.3278C17.4131 10.4202 17.465 10.5456 17.465 10.6763C17.465 10.807 17.4131 10.9323 17.3206 11.0247C17.2282 11.1172 17.1029 11.1691 16.9722 11.1691C16.8415 11.1691 16.7161 11.1172 16.6237 11.0247L14.5116 8.91183V17.5635C14.5116 17.694 14.4598 17.8191 14.3675 17.9114C14.2753 18.0037 14.1502 18.0555 14.0197 18.0555C13.8892 18.0555 13.7641 18.0037 13.6718 17.9114C13.5796 17.8191 13.5277 17.694 13.5277 17.5635V8.91183L11.4165 11.0247C11.3707 11.0705 11.3164 11.1068 11.2566 11.1316C11.1968 11.1563 11.1327 11.1691 11.068 11.1691C11.0033 11.1691 10.9392 11.1563 10.8794 11.1316C10.8196 11.1068 10.7653 11.0705 10.7195 11.0247C10.6738 10.979 10.6375 10.9247 10.6127 10.8649C10.5879 10.8051 10.5752 10.741 10.5752 10.6763C10.5752 10.6116 10.5879 10.5475 10.6127 10.4877C10.6375 10.4279 10.6738 10.3736 10.7195 10.3278L13.6712 7.37614H13.672Z" fill="#688F99"/>
</svg>
