<svg width="20" height="20" viewBox="0 0 20 20" fill="none" xmlns="http://www.w3.org/2000/svg">
<path d="M10.65 0.667969C10.65 0.308984 10.359 0.0179688 10 0.0179688C9.64102 0.0179688 9.35 0.308984 9.35 0.667969H10.65ZM9.35 18.8223C9.35 19.1812 9.64102 19.4723 10 19.4723C10.359 19.4723 10.65 19.1812 10.65 18.8223H9.35ZM19 10.3951C19.359 10.3951 19.65 10.1041 19.65 9.74511C19.65 9.38613 19.359 9.09511 19 9.09511V10.3951ZM1 9.09511C0.641015 9.09511 0.35 9.38613 0.35 9.74511C0.35 10.1041 0.641015 10.3951 1 10.3951V9.09511ZM9.35 0.667969V9.74511H10.65V0.667969H9.35ZM9.35 9.74511V18.8223H10.65V9.74511H9.35ZM10 10.3951H19V9.09511H10V10.3951ZM19 9.09511H1V10.3951H19V9.09511Z" fill="#688F99"/>
</svg>
