<svg width="25" height="26" viewBox="0 0 25 26" fill="none" xmlns="http://www.w3.org/2000/svg">
<path d="M19.9684 13.2393C19.9684 17.3858 16.607 20.7472 12.4605 20.7472C8.31398 20.7472 4.95256 17.3858 4.95256 13.2393C4.95256 9.09278 8.31398 5.73137 12.4605 5.73137C16.607 5.73137 19.9684 9.09278 19.9684 13.2393Z" stroke="#888888" stroke-width="1.36508"/>
<path d="M13.143 9.14258C13.143 8.76562 12.8374 8.46004 12.4605 8.46004C12.0835 8.46004 11.7779 8.76562 11.7779 9.14258H13.143ZM11.7779 17.333C11.7779 17.71 12.0835 18.0156 12.4605 18.0156C12.8374 18.0156 13.143 17.71 13.143 17.333H11.7779ZM16.5557 13.9204C16.9327 13.9204 17.2382 13.6148 17.2382 13.2378C17.2382 12.8609 16.9327 12.5553 16.5557 12.5553V13.9204ZM8.36523 12.5553C7.98828 12.5553 7.6827 12.8609 7.6827 13.2378C7.6827 13.6148 7.98828 13.9204 8.36523 13.9204V12.5553ZM11.7779 9.14258V13.2378H13.143V9.14258H11.7779ZM11.7779 13.2378V17.333H13.143V13.2378H11.7779ZM12.4605 13.9204H16.5557V12.5553H12.4605V13.9204ZM16.5557 12.5553H8.36523V13.9204H16.5557V12.5553Z" fill="#888888"/>
</svg>
