<svg width="25" height="26" viewBox="0 0 25 26" fill="none" xmlns="http://www.w3.org/2000/svg">
<path d="M12.285 8.8457C11.1831 8.8457 10.1264 9.28717 9.34723 10.073C8.56809 10.8588 8.13037 11.9246 8.13037 13.0359C8.13037 14.1472 8.56809 15.213 9.34723 15.9989C10.1264 16.7847 11.1831 17.2262 12.285 17.2262C13.3869 17.2262 14.4436 16.7847 15.2227 15.9989C16.0019 15.213 16.4396 14.1472 16.4396 13.0359C16.4396 11.9246 16.0019 10.8588 15.2227 10.073C14.4436 9.28717 13.3869 8.8457 12.285 8.8457ZM9.41013 13.0359C9.41013 12.2671 9.71296 11.5297 10.252 10.986C10.7911 10.4424 11.5222 10.1369 12.2845 10.1369C13.0468 10.1369 13.7779 10.4424 14.3169 10.986C14.856 11.5297 15.1588 12.2671 15.1588 13.0359C15.1588 13.8048 14.856 14.5422 14.3169 15.0858C13.7779 15.6295 13.0468 15.9349 12.2845 15.9349C11.5222 15.9349 10.7911 15.6295 10.252 15.0858C9.71296 14.5422 9.41013 13.8048 9.41013 13.0359Z" fill="#688F99"/>
<path d="M14.5845 4.44218C13.9109 2.13125 10.6633 2.13125 9.98763 4.44218L9.86785 4.85315C9.8208 5.01449 9.73853 5.16316 9.62707 5.28825C9.51562 5.41335 9.37781 5.51168 9.22376 5.57605C9.06971 5.64042 8.90332 5.66918 8.73681 5.66023C8.5703 5.65128 8.40789 5.60484 8.26149 5.52432L7.8878 5.31781C5.78899 4.16648 3.49463 6.48153 4.63823 8.59729L4.84197 8.97419C4.9218 9.12184 4.96784 9.28564 4.97672 9.45358C4.98559 9.62152 4.95707 9.78933 4.89325 9.94471C4.82943 10.1001 4.73193 10.2391 4.6079 10.3515C4.48387 10.4639 4.33646 10.5469 4.17649 10.5943L3.76799 10.7151C1.47773 11.3966 1.47773 14.672 3.76799 15.3514L4.17649 15.4733C4.33635 15.5209 4.48363 15.604 4.60755 15.7164C4.73147 15.8288 4.82889 15.9678 4.89269 16.1231C4.95649 16.2784 4.98504 16.4462 4.97627 16.614C4.96749 16.7819 4.9216 16.9457 4.84197 17.0934L4.6372 17.4703C3.49566 19.5871 5.79001 21.9021 7.88882 20.7487L8.26251 20.5422C8.40887 20.4615 8.57131 20.4149 8.73788 20.4059C8.90445 20.3968 9.07091 20.4255 9.22502 20.4899C9.37913 20.5543 9.51696 20.6527 9.62838 20.7779C9.73981 20.9031 9.82199 21.052 9.86887 21.2134L9.98866 21.6264C10.6644 23.9363 13.9119 23.9363 14.5856 21.6264L14.7064 21.2134C14.7536 21.0522 14.8359 20.9036 14.9474 20.7787C15.0589 20.6537 15.1967 20.5554 15.3507 20.4911C15.5047 20.4267 15.671 20.3979 15.8375 20.4068C16.0039 20.4156 16.1663 20.4619 16.3127 20.5422L16.6864 20.7487C18.7852 21.9021 21.0806 19.585 19.937 17.4703L19.7323 17.0934C19.652 16.9457 19.6057 16.7818 19.5966 16.6137C19.5875 16.4456 19.616 16.2776 19.6798 16.122C19.7437 15.9664 19.8413 15.8273 19.9656 15.7148C20.0898 15.6024 20.2375 15.5195 20.3977 15.4722L20.8073 15.3514C23.0975 14.672 23.0975 11.3966 20.8073 10.7151L20.3977 10.5943C20.2378 10.5469 20.0903 10.4639 19.9663 10.3515C19.8423 10.2391 19.7448 10.1001 19.681 9.94471C19.6171 9.78933 19.5886 9.62152 19.5975 9.45358C19.6064 9.28564 19.6524 9.12184 19.7323 8.97419L19.937 8.59729C21.0806 6.4805 18.7832 4.16648 16.6864 5.31884L16.3127 5.52432C16.1663 5.60504 16.0038 5.65163 15.8372 5.66068C15.6705 5.66973 15.504 5.64101 15.3498 5.57663C15.1956 5.51225 15.0577 5.41385 14.9462 5.28865C14.8347 5.16345 14.7524 5.01463 14.7053 4.85315L14.5856 4.44114L14.5845 4.44218ZM11.2162 4.80668C11.5305 3.72866 13.0427 3.72866 13.358 4.80668L13.4778 5.21868C13.5791 5.56452 13.7559 5.88312 13.9951 6.15115C14.2343 6.41918 14.53 6.62986 14.8603 6.76776C15.1907 6.90566 15.5475 6.96729 15.9046 6.94814C16.2616 6.92899 16.6099 6.82954 16.9239 6.65707L17.2966 6.45055C18.2743 5.91567 19.3442 6.99266 18.8118 7.98084L18.6081 8.35774C18.4369 8.67447 18.3383 9.02584 18.3193 9.38606C18.3003 9.74628 18.3616 10.1062 18.4986 10.4394C18.6355 10.7727 18.8447 11.0707 19.1108 11.3118C19.3769 11.5528 19.6932 11.7307 20.0363 11.8324L20.4438 11.9532C21.5127 12.2712 21.5127 13.7964 20.4438 14.1144L20.0353 14.2352C19.6921 14.337 19.3758 14.515 19.1097 14.7561C18.8437 14.9973 18.6345 15.2955 18.4976 15.6288C18.3607 15.9622 18.2996 16.3222 18.3187 16.6825C18.3379 17.0428 18.4367 17.3942 18.6081 17.7109L18.8129 18.0867C19.3453 19.0729 18.2754 20.1519 17.2976 19.615L16.9239 19.4095C16.6099 19.2366 16.2614 19.137 15.9041 19.1177C15.5468 19.0985 15.1898 19.1603 14.8593 19.2984C14.5288 19.4366 14.2331 19.6476 13.994 19.9161C13.755 20.1846 13.5786 20.5037 13.4778 20.8499L13.358 21.2609C13.0427 22.3389 11.5305 22.3389 11.2152 21.2609L11.0954 20.8489C10.9945 20.5029 10.818 20.1841 10.579 19.9158C10.3399 19.6475 10.0444 19.4367 9.71399 19.2986C9.3836 19.1606 9.02677 19.0989 8.66967 19.1181C8.31257 19.1373 7.96425 19.2368 7.65028 19.4095L7.27658 19.616C6.29885 20.1529 5.22897 19.0739 5.76135 18.0878L5.96406 17.7109C6.13545 17.3942 6.23437 17.0428 6.25355 16.6825C6.27274 16.3222 6.21171 15.9621 6.07495 15.6287C5.93818 15.2953 5.72915 14.997 5.46318 14.7557C5.19721 14.5144 4.88105 14.3362 4.53789 14.2342L4.12837 14.1123C3.06054 13.7953 3.06054 12.2692 4.12837 11.9522L4.53789 11.8303C4.88048 11.7282 5.19608 11.5501 5.46163 11.309C5.72717 11.068 5.93593 10.7702 6.07264 10.4373C6.20935 10.1044 6.27055 9.74492 6.25177 9.38511C6.23298 9.02531 6.13468 8.67429 5.96406 8.35774L5.7593 7.98084C5.22897 6.99472 6.2968 5.91567 7.27658 6.45262L7.65028 6.65707C7.96422 6.82954 8.31244 6.92899 8.66943 6.94814C9.02642 6.96729 9.38314 6.90565 9.71345 6.76774C10.0438 6.62983 10.3393 6.41914 10.5784 6.15111C10.8175 5.88308 10.9942 5.56449 11.0954 5.21868L11.2152 4.80565L11.2162 4.80668Z" fill="#688F99"/>
</svg>
