<svg width="28" height="28" viewBox="0 0 28 28" fill="none" xmlns="http://www.w3.org/2000/svg">
<path d="M3 6.29722C2.61186 6.29722 2.29722 6.61186 2.29722 7C2.29722 7.38814 2.61186 7.70278 3 7.70278V6.29722ZM11.4334 7.70278C11.8215 7.70278 12.1362 7.38814 12.1362 7C12.1362 6.61186 11.8215 6.29722 11.4334 6.29722V7.70278ZM6.51391 16.1362C6.51391 16.5243 6.82856 16.8389 7.21669 16.8389C7.60483 16.8389 7.91947 16.5243 7.91947 16.1362H6.51391ZM3 21.0556H2.29722C2.29722 21.4438 2.61186 21.7584 3 21.7584V21.0556ZM24.7862 21.0556V21.7584C25.1743 21.7584 25.489 21.4438 25.489 21.0556H24.7862ZM24.7862 7H25.489C25.489 6.61186 25.1743 6.29722 24.7862 6.29722V7ZM15.6501 6.29722C15.2619 6.29722 14.9473 6.61186 14.9473 7C14.9473 7.38814 15.2619 7.70278 15.6501 7.70278V6.29722ZM3.70278 18.2445C3.70278 17.8564 3.38814 17.5417 3 17.5417C2.61186 17.5417 2.29722 17.8564 2.29722 18.2445H3.70278ZM3 7.70278H7.21669V6.29722H3V7.70278ZM7.21669 7.70278H11.4334V6.29722H7.21669V7.70278ZM6.51391 7V16.1362H7.91947V7H6.51391ZM3 21.7584H24.7862V20.3529H3V21.7584ZM25.489 21.0556V7H24.0834V21.0556H25.489ZM24.7862 6.29722H15.6501V7.70278H24.7862V6.29722ZM3.70278 21.0556V18.2445H2.29722V21.0556H3.70278Z" fill="#688F99"/>
</svg>
