<svg width="20" height="20" viewBox="0 0 20 20" fill="none" xmlns="http://www.w3.org/2000/svg">
<path d="M9.9998 11.4008L5.0998 16.3008C4.91647 16.4841 4.68314 16.5758 4.3998 16.5758C4.11647 16.5758 3.88314 16.4841 3.6998 16.3008C3.51647 16.1174 3.4248 15.8841 3.4248 15.6008C3.4248 15.3174 3.51647 15.0841 3.6998 14.9008L8.5998 10.0008L3.6998 5.10078C3.51647 4.91745 3.4248 4.68411 3.4248 4.40078C3.4248 4.11745 3.51647 3.88411 3.6998 3.70078C3.88314 3.51745 4.11647 3.42578 4.3998 3.42578C4.68314 3.42578 4.91647 3.51745 5.0998 3.70078L9.9998 8.60078L14.8998 3.70078C15.0831 3.51745 15.3165 3.42578 15.5998 3.42578C15.8831 3.42578 16.1165 3.51745 16.2998 3.70078C16.4831 3.88411 16.5748 4.11745 16.5748 4.40078C16.5748 4.68411 16.4831 4.91745 16.2998 5.10078L11.3998 10.0008L16.2998 14.9008C16.4831 15.0841 16.5748 15.3174 16.5748 15.6008C16.5748 15.8841 16.4831 16.1174 16.2998 16.3008C16.1165 16.4841 15.8831 16.5758 15.5998 16.5758C15.3165 16.5758 15.0831 16.4841 14.8998 16.3008L9.9998 11.4008Z" fill="#D9D9D9"/>
</svg>
