<svg width="20" height="20" viewBox="0 0 20 20" fill="none" xmlns="http://www.w3.org/2000/svg">
<path d="M7.25866 6.42605L9.16699 4.50939V12.5011C9.16699 12.7221 9.25479 12.934 9.41107 13.0903C9.56735 13.2466 9.77931 13.3344 10.0003 13.3344C10.2213 13.3344 10.4333 13.2466 10.5896 13.0903C10.7459 12.934 10.8337 12.7221 10.8337 12.5011V4.50939L12.742 6.42605C12.8195 6.50416 12.9116 6.56616 13.0132 6.60846C13.1147 6.65077 13.2236 6.67255 13.3337 6.67255C13.4437 6.67255 13.5526 6.65077 13.6541 6.60846C13.7557 6.56616 13.8479 6.50416 13.9253 6.42605C14.0034 6.34858 14.0654 6.25642 14.1077 6.15487C14.15 6.05332 14.1718 5.9444 14.1718 5.83439C14.1718 5.72438 14.15 5.61546 14.1077 5.51391C14.0654 5.41236 14.0034 5.32019 13.9253 5.24272L10.592 1.90939C10.5127 1.83352 10.4193 1.77405 10.317 1.73439C10.1141 1.65104 9.88654 1.65104 9.68366 1.73439C9.58137 1.77405 9.48791 1.83352 9.40866 1.90939L6.07533 5.24272C5.99763 5.32042 5.93599 5.41266 5.89394 5.51418C5.85189 5.6157 5.83025 5.7245 5.83025 5.83439C5.83025 5.94427 5.85189 6.05308 5.89394 6.15459C5.93599 6.25611 5.99763 6.34835 6.07533 6.42605C6.15302 6.50375 6.24527 6.56539 6.34678 6.60744C6.4483 6.64949 6.55711 6.67113 6.66699 6.67113C6.77687 6.67113 6.88568 6.64949 6.9872 6.60744C7.08872 6.56539 7.18096 6.50375 7.25866 6.42605ZM17.5003 11.6677C17.2793 11.6677 17.0673 11.7555 16.9111 11.9118C16.7548 12.0681 16.667 12.28 16.667 12.5011V15.8344C16.667 16.0554 16.5792 16.2674 16.4229 16.4236C16.2666 16.5799 16.0547 16.6677 15.8337 16.6677H4.16699C3.94598 16.6677 3.73402 16.5799 3.57774 16.4236C3.42146 16.2674 3.33366 16.0554 3.33366 15.8344V12.5011C3.33366 12.28 3.24586 12.0681 3.08958 11.9118C2.9333 11.7555 2.72134 11.6677 2.50033 11.6677C2.27931 11.6677 2.06735 11.7555 1.91107 11.9118C1.75479 12.0681 1.66699 12.28 1.66699 12.5011V15.8344C1.66699 16.4974 1.93038 17.1333 2.39923 17.6022C2.86807 18.071 3.50395 18.3344 4.16699 18.3344H15.8337C16.4967 18.3344 17.1326 18.071 17.6014 17.6022C18.0703 17.1333 18.3337 16.4974 18.3337 15.8344V12.5011C18.3337 12.28 18.2459 12.0681 18.0896 11.9118C17.9333 11.7555 17.7213 11.6677 17.5003 11.6677Z" fill="#D9D9D9"/>
</svg>
