<svg width="24" height="25" viewBox="0 0 24 25" fill="none" xmlns="http://www.w3.org/2000/svg">
<path d="M12.0004 4.58C11.669 4.58 11.4004 4.84863 11.4004 5.18V12.38C11.4004 12.7114 11.669 12.98 12.0004 12.98C12.3318 12.98 12.6004 12.7114 12.6004 12.38V5.18C12.6004 4.84863 12.3318 4.58 12.0004 4.58Z" fill="#888888"/>
<path d="M5.99942 13.954C5.99919 12.8823 6.28604 11.8302 6.83016 10.9069C7.27236 10.1565 7.87135 9.5136 8.58352 9.02052C8.85606 8.83182 8.96296 8.46886 8.80214 8.17899C8.64154 7.88952 8.27511 7.78286 7.99983 7.96672C6.85087 8.7341 5.94316 9.81869 5.39106 11.0944C4.75938 12.5541 4.62878 14.1818 5.01965 15.7235C5.41052 17.2652 6.30087 18.6341 7.55169 19.6165C8.80252 20.5988 10.3434 21.1394 11.9338 21.1537C13.5242 21.1681 15.0746 20.6555 16.343 19.6958C17.6114 18.7362 18.5263 17.3836 18.9449 15.8492C19.3636 14.3149 19.2624 12.685 18.6572 11.2142C18.1282 9.92873 17.2402 8.82793 16.1053 8.03993C15.8334 7.85114 15.4652 7.95126 15.2995 8.23784C15.1338 8.52455 15.234 8.88897 15.5028 9.08242C16.4055 9.73212 17.1133 10.6226 17.5417 11.6574C18.0469 12.8776 18.1355 14.2304 17.7937 15.5061C17.4519 16.7817 16.6989 17.909 15.6513 18.7132C14.6037 19.5174 13.3201 19.9535 11.9994 19.954C10.4081 19.954 8.882 19.3219 7.75678 18.1966C6.63156 17.0714 5.99942 15.5453 5.99942 13.954Z" fill="#888888"/>
</svg>
