<svg width="20" height="20" viewBox="0 0 24 25" fill="none" xmlns="http://www.w3.org/2000/svg">
<path d="M12.0008 12.5C12.9556 12.5 13.8712 12.1207 14.5464 11.4456C15.2215 10.7704 15.6008 9.85477 15.6008 8.89999C15.6008 7.94521 15.2215 7.02953 14.5464 6.3544C13.8712 5.67927 12.9556 5.29999 12.0008 5.29999C11.046 5.29999 10.1303 5.67927 9.4552 6.3544C8.78007 7.02953 8.40078 7.94521 8.40078 8.89999C8.40078 9.85477 8.78007 10.7704 9.4552 11.4456C10.1303 12.1207 11.046 12.5 12.0008 12.5ZM14.4008 8.89999C14.4008 9.21523 14.3387 9.52738 14.2181 9.81862C14.0974 10.1099 13.9206 10.3745 13.6977 10.5974C13.4748 10.8203 13.2102 10.9971 12.9189 11.1178C12.6277 11.2384 12.3155 11.3005 12.0003 11.3005C11.685 11.3005 11.3729 11.2384 11.0816 11.1178C10.7904 10.9971 10.5258 10.8203 10.3029 10.5974C10.08 10.3745 9.90314 10.1099 9.78251 9.81862C9.66187 9.52738 9.59978 9.21523 9.59978 8.89999C9.59978 8.26347 9.85264 7.65302 10.3027 7.20293C10.7528 6.75284 11.3633 6.49999 11.9998 6.49999C12.6363 6.49999 13.2468 6.75284 13.6968 7.20293C14.1469 7.65302 14.4008 8.26347 14.4008 8.89999ZM19.2008 18.5C19.2008 19.7 18.0008 19.7 18.0008 19.7H6.00078C6.00078 19.7 4.80078 19.7 4.80078 18.5C4.80078 17.3 6.00078 13.7 12.0008 13.7C18.0008 13.7 19.2008 17.3 19.2008 18.5ZM18.0008 18.495C17.9998 18.2 17.8158 17.312 17.0018 16.498C16.2208 15.716 14.7478 14.9 12.0008 14.9C9.25278 14.9 7.78078 15.716 6.99878 16.498C6.18578 17.312 6.00278 18.2 6.00078 18.495H18.0008Z" fill="#888888"/>
</svg>
