<svg width="32" height="32" viewBox="0 0 32 32" fill="none" xmlns="http://www.w3.org/2000/svg">
<g clip-path="url(#clip0_5115_25244)">
<path d="M22.2937 13.75H10.75V13.25H10.25V5C10.25 4.30964 10.8096 3.75 11.5 3.75H21.5437C22.234 3.75 22.7937 4.30964 22.7937 5V13.25H22.2937V13.75ZM23.7937 14.75H27C27.6904 14.75 28.25 15.3096 28.25 16V23C28.25 23.6904 27.6904 24.25 27 24.25H23.75V22.5C23.75 20.9812 22.5188 19.75 21 19.75H12C10.4812 19.75 9.25 20.9812 9.25 22.5V24H6C5.30964 24 4.75 23.4404 4.75 22.75V16C4.75 15.3096 5.30964 14.75 6 14.75H9.25V15.25H10H23.0437H23.7937V14.75ZM22.75 25.75V27C22.75 27.6904 22.1904 28.25 21.5 28.25H11.5C10.8096 28.25 10.25 27.6904 10.25 27V25.5H10.75V24.75V22.5C10.75 21.8096 11.3096 21.25 12 21.25H21C21.6904 21.25 22.25 21.8096 22.25 22.5V25V25.75H22.75Z" stroke="white" stroke-width="1.5"/>
</g>
<defs>
<clipPath id="clip0_5115_25244">
<rect width="32" height="32" fill="white"/>
</clipPath>
</defs>
</svg>
