<svg width="28" height="28" viewBox="0 0 28 28" fill="none" xmlns="http://www.w3.org/2000/svg">
<rect width="28" height="28" rx="14" fill="#00C8C8"/>
<path d="M15.0312 6.53333V9.48069C15.0312 9.67612 15.1089 9.86353 15.2471 10.0017C15.3853 10.1399 15.5727 10.2175 15.7681 10.2175H18.7155" stroke="white" stroke-width="1.4" stroke-linecap="round" stroke-linejoin="round"/>
<path d="M13.5578 19.7965H9.87359C9.48274 19.7965 9.1079 19.6412 8.83153 19.3648C8.55517 19.0885 8.3999 18.7136 8.3999 18.3228V8.00701C8.3999 7.61616 8.55517 7.24133 8.83153 6.96496C9.1079 6.68859 9.48274 6.53333 9.87359 6.53333H15.0315L18.7157 10.2175V13.5333" stroke="white" stroke-width="1.4" stroke-linecap="round" stroke-linejoin="round"/>
<path d="M16.8734 19.0597C17.3619 19.0597 17.8305 18.8656 18.1759 18.5202C18.5214 18.1747 18.7155 17.7062 18.7155 17.2176C18.7155 16.729 18.5214 16.2605 18.1759 15.915C17.8305 15.5696 17.3619 15.3755 16.8734 15.3755C16.3848 15.3755 15.9163 15.5696 15.5708 15.915C15.2253 16.2605 15.0312 16.729 15.0312 17.2176C15.0312 17.7062 15.2253 18.1747 15.5708 18.5202C15.9163 18.8656 16.3848 19.0597 16.8734 19.0597V19.0597Z" stroke="white" stroke-width="1.4" stroke-linecap="round" stroke-linejoin="round"/>
<path d="M18.3477 18.6913L20.1898 20.5334" stroke="white" stroke-width="1.4" stroke-linecap="round" stroke-linejoin="round"/>
</svg>
