<svg width="36" height="36" viewBox="0 0 36 36" fill="none" xmlns="http://www.w3.org/2000/svg">
<path d="M17.9609 12.3359V18.1137L20.8573 21.0026" stroke="#688F99" stroke-width="2" stroke-linecap="round" stroke-linejoin="round"/>
<path d="M5 16.6826C5.32452 13.5049 6.81059 10.5576 9.17469 8.403C11.5388 6.2484 14.6154 5.03733 17.8176 5.00085C21.0197 4.96437 24.1233 6.10503 26.5361 8.20521C28.9489 10.3054 30.5021 13.2181 30.8993 16.3875C31.2965 19.557 30.51 22.7614 28.6897 25.3894C26.8694 28.0173 24.1428 29.8849 21.0302 30.6357C17.9176 31.3865 14.6367 30.9681 11.8136 29.4602C8.99055 27.9524 6.82284 25.4606 5.72409 22.4604" stroke="#688F99" stroke-width="2" stroke-linecap="round" stroke-linejoin="round"/>
<path d="M5 29.6773V22.4551H12.2408" stroke="#688F99" stroke-width="2" stroke-linecap="round" stroke-linejoin="round"/>
</svg>
