<svg width="19" height="15" viewBox="0 0 19 15" fill="none" xmlns="http://www.w3.org/2000/svg">
<path d="M3.5625 4.625C3.28636 4.625 3.0625 4.84886 3.0625 5.125C3.0625 5.40114 3.28636 5.625 3.5625 5.625H6.53125C6.80739 5.625 7.03125 5.40114 7.03125 5.125C7.03125 4.84886 6.80739 4.625 6.53125 4.625H3.5625ZM3.5625 7.59375C3.28636 7.59375 3.0625 7.81761 3.0625 8.09375C3.0625 8.36989 3.28636 8.59375 3.5625 8.59375H8.90625C9.18239 8.59375 9.40625 8.36989 9.40625 8.09375C9.40625 7.81761 9.18239 7.59375 8.90625 7.59375H3.5625ZM15.4375 11.2656C15.7136 11.2656 15.9375 11.0418 15.9375 10.7656C15.9375 10.4895 15.7136 10.2656 15.4375 10.2656H3.5625C3.28636 10.2656 3.0625 10.4895 3.0625 10.7656C3.0625 11.0418 3.28636 11.2656 3.5625 11.2656H15.4375ZM11.375 5.53125V7.09375C11.375 7.92218 12.0466 8.59375 12.875 8.59375H14.4375C15.2659 8.59375 15.9375 7.92218 15.9375 7.09375V5.53125C15.9375 4.70282 15.2659 4.03125 14.4375 4.03125H12.875C12.0466 4.03125 11.375 4.70282 11.375 5.53125ZM12.375 7.09375V5.53125C12.375 5.25511 12.5989 5.03125 12.875 5.03125H14.4375C14.7136 5.03125 14.9375 5.25511 14.9375 5.53125V7.09375C14.9375 7.36989 14.7136 7.59375 14.4375 7.59375H12.875C12.5989 7.59375 12.375 7.36989 12.375 7.09375ZM2.59375 1.46875H16.4062C17.2347 1.46875 17.9062 2.14032 17.9062 2.96875V12.0312C17.9062 12.8597 17.2347 13.5312 16.4062 13.5312H2.59375C1.76532 13.5312 1.09375 12.8597 1.09375 12.0312V2.96875C1.09375 2.14032 1.76532 1.46875 2.59375 1.46875Z" stroke="#444444" stroke-linecap="round"/>
</svg>
