<svg width="17" height="16" viewBox="0 0 17 16" fill="none" xmlns="http://www.w3.org/2000/svg">
<mask id="path-1-inside-1_3149_39562" fill="white">
<path d="M2.78125 15.0312C1.67668 15.0312 0.78125 14.1358 0.78125 13.0312V2.78137C0.78125 1.67681 1.67667 0.781382 2.78123 0.781368L10.0621 0.781276C11.1666 0.781261 12.0621 1.6767 12.0621 2.78128V9.98437H14.536C15.4651 9.98437 16.2183 10.7376 16.2183 11.6667C16.2183 13.5249 14.712 15.0312 12.8537 15.0312H2.78125Z"/>
</mask>
<path d="M11.6175 9.98437V9.48437H11.1175V9.98437H11.6175ZM11.6175 15.0312H11.1175V15.5312H11.6175V15.0312ZM6.92145 3.45312C6.92145 3.17698 6.6976 2.95312 6.42145 2.95312C6.14531 2.95312 5.92145 3.17698 5.92145 3.45312H6.92145ZM8.79645 4.9375H9.29645C9.29645 4.66136 9.0726 4.4375 8.79645 4.4375V4.9375ZM8.29645 6.125C8.29645 6.40114 8.52031 6.625 8.79645 6.625C9.0726 6.625 9.29645 6.40114 9.29645 6.125H8.29645ZM4.04645 4.9375V4.4375C3.77031 4.4375 3.54645 4.66136 3.54645 4.9375H4.04645ZM4.04645 7.90625H3.54645C3.54645 8.18239 3.77031 8.40625 4.04645 8.40625V7.90625ZM8.79645 7.90625H9.29645C9.29645 7.63011 9.0726 7.40625 8.79645 7.40625V7.90625ZM8.79645 10.875V11.375C9.0726 11.375 9.29645 11.1511 9.29645 10.875H8.79645ZM4.04645 10.875H3.54645C3.54645 11.1511 3.77031 11.375 4.04645 11.375V10.875ZM4.54645 9.6875C4.54645 9.41136 4.3226 9.1875 4.04645 9.1875C3.77031 9.1875 3.54645 9.41136 3.54645 9.6875H4.54645ZM5.92145 12.6562C5.92145 12.9324 6.14531 13.1562 6.42145 13.1562C6.6976 13.1562 6.92145 12.9324 6.92145 12.6562H5.92145ZM12.0621 9.48437H11.6175V10.4844H12.0621V9.48437ZM5.92145 3.45312V4.9375H6.92145V3.45312H5.92145ZM6.42145 5.4375H8.79645V4.4375H6.42145V5.4375ZM8.29645 4.9375V6.125H9.29645V4.9375H8.29645ZM6.42145 4.4375H4.04645V5.4375H6.42145V4.4375ZM3.54645 4.9375V7.90625H4.54645V4.9375H3.54645ZM4.04645 8.40625H8.79645V7.40625H4.04645V8.40625ZM8.29645 7.90625V10.875H9.29645V7.90625H8.29645ZM4.54645 10.875V9.6875H3.54645V10.875H4.54645ZM8.79645 10.375H6.42145V11.375H8.79645V10.375ZM6.42145 10.375H4.04645V11.375H6.42145V10.375ZM5.92145 10.875V12.6562H6.92145V10.875H5.92145ZM14.4375 14.5312L11.6175 14.5312V15.5312L14.4375 15.5312V14.5312ZM11.1175 9.98437V15.0312H12.1175V9.98437H11.1175ZM12.0621 9.98437H11.0621V10.9844H12.0621V9.98437ZM-0.21875 2.78137V13.0312H1.78125V2.78137H-0.21875ZM2.78125 16.0312H12.8537V14.0312H2.78125V16.0312ZM14.536 8.98437H12.0621V10.9844H14.536V8.98437ZM10.062 -0.218724L2.78121 -0.218632L2.78124 1.78137L10.0621 1.78128L10.062 -0.218724ZM13.0621 9.98437V2.78128H11.0621V9.98437H13.0621ZM17.2183 11.6667C17.2183 10.1853 16.0174 8.98437 14.536 8.98437V10.9844C14.9129 10.9844 15.2183 11.2898 15.2183 11.6667H17.2183ZM12.8537 16.0312C15.2642 16.0312 17.2183 14.0772 17.2183 11.6667H15.2183C15.2183 12.9726 14.1597 14.0312 12.8537 14.0312V16.0312ZM10.0621 1.78128C10.6144 1.78127 11.0621 2.22899 11.0621 2.78128H13.0621C13.0621 1.12441 11.7189 -0.218746 10.062 -0.218724L10.0621 1.78128ZM-0.21875 13.0312C-0.21875 14.6881 1.1244 16.0312 2.78125 16.0312V14.0312C2.22897 14.0312 1.78125 13.5835 1.78125 13.0312H-0.21875ZM1.78125 2.78137C1.78125 2.22909 2.22896 1.78138 2.78124 1.78137L2.78121 -0.218632C1.12437 -0.21861 -0.21875 1.12453 -0.21875 2.78137H1.78125Z" fill="#444444" mask="url(#path-1-inside-1_3149_39562)"/>
</svg>
