<svg width="31" height="30" viewBox="0 0 31 30" fill="none" xmlns="http://www.w3.org/2000/svg">
<rect x="0.595215" width="30" height="30" rx="2.81259" fill="#688F99"/>
<path d="M9.16699 23.5698H15.5956M22.0241 23.5698H15.5956M15.5956 23.5698V19.284M15.5956 19.284V19.284C19.146 19.284 22.0241 16.4059 22.0241 12.8555V11.7305M15.5956 19.284V19.284C12.0452 19.284 9.16699 16.4059 9.16699 12.8555V11.7305M15.6491 16.0698V16.0698C17.0989 16.0698 18.2741 14.8945 18.2741 13.4448V7.98047C18.2741 6.53072 17.0989 5.35547 15.6491 5.35547V5.35547C14.1994 5.35547 13.0241 6.53072 13.0241 7.98047V13.4448C13.0241 14.8945 14.1994 16.0698 15.6491 16.0698Z" stroke="white" stroke-width="1.4063" stroke-linecap="round"/>
</svg>
