<svg width="40" height="40" viewBox="0 0 40 40" fill="none" xmlns="http://www.w3.org/2000/svg">
<rect width="40" height="40" rx="4" fill="#5B84B0"/>
<path d="M21.0947 30.9385H8.43803C7.66136 30.9385 7.03174 30.3089 7.03174 29.5322V28.8291C7.03174 28.0524 7.66136 27.4228 8.43803 27.4228H10.5475M21.0947 27.4228H10.5475M10.5475 27.4228V8.43779C10.5475 7.66111 11.1771 7.03149 11.9538 7.03149H23.2041M23.2041 7.03149V11.9535H28.1262M23.2041 7.03149L28.1262 11.9535M28.1262 11.9535V23.907M13.3601 11.2504H16.8758M14.0632 17.5787V15.4693H25.3136V17.5787M14.0632 17.5787V23.907H25.3136V17.5787M14.0632 17.5787H25.3136M24.6104 30.9385H26.7199C27.4966 30.9385 28.1262 30.3089 28.1262 29.5322V27.4228C28.1262 26.6461 27.4966 26.0165 26.7199 26.0165H24.6104C23.8338 26.0165 23.2041 26.6461 23.2041 27.4228V29.5322C23.2041 30.3089 23.8338 30.9385 24.6104 30.9385Z" stroke="white" stroke-width="1.4063"/>
</svg>
