<svg width="40" height="40" viewBox="0 0 40 40" fill="none" xmlns="http://www.w3.org/2000/svg">
<rect width="40" height="40" rx="4" fill="#5B84B0"/>
<path d="M28.6887 19.6881H24.1886C23.8902 19.6881 23.604 19.8066 23.393 20.0176C23.1821 20.2286 23.0635 20.5147 23.0635 20.8131V29.8134C23.0635 30.1118 23.1821 30.3979 23.393 30.6089C23.604 30.8199 23.8902 30.9384 24.1886 30.9384H30.9388C31.2372 30.9384 31.5233 30.8199 31.7343 30.6089C31.9453 30.3979 32.0638 30.1118 32.0638 29.8134V23.0632M28.6887 19.6881L32.0638 23.0632M28.6887 19.6881V23.0632H32.0638M13.1668 25.8509V28.1257C13.1668 28.9024 12.5372 29.532 11.7605 29.532H10.4575C9.68086 29.532 9.05124 28.9024 9.05124 28.1257V25.8509M13.1668 25.8509H9.05124M13.1668 25.8509H21.0942M32.378 20.3912V16.1723H29.4584M11.3571 16.1723H9.05124V19.6881M11.3571 16.1723H29.4584M11.3571 16.1723V14.4765M29.4584 16.1723V14.4765M29.4584 14.4765L27.8737 11.3764C27.3929 10.4358 26.4256 9.84399 25.3693 9.84399H15.403C14.3353 9.84399 13.3598 10.4485 12.8845 11.4044L11.3571 14.4765M29.4584 14.4765L29.6102 14.3905C30.2762 14.0131 31.0286 13.8147 31.7941 13.8147M11.3571 14.4765L10.6978 14.2274C9.97546 13.9545 9.20967 13.8147 8.4375 13.8147M9.05124 25.8509V23.2037M9.05124 19.6881L9.68914 19.7145C10.1562 19.7339 10.5986 19.8444 10.9996 20.0285C12.9996 20.9464 11.2518 23.2037 9.05124 23.2037V23.2037M9.05124 19.6881V23.2037M17.2844 19.6881L17.9695 22.4852H20.7139M29.8132 25.8763H25.313M26.4381 23.6261H25.313M29.8132 28.1258H25.313" stroke="white" stroke-width="1.4063" stroke-linecap="round" stroke-linejoin="round"/>
</svg>
