<svg width="40" height="40" viewBox="0 0 40 40" fill="none" xmlns="http://www.w3.org/2000/svg">
<rect width="40" height="40" rx="4" fill="#5B84B0"/>
<path d="M33.0481 16.1724H33.7513C33.7513 15.7841 33.4365 15.4693 33.0481 15.4693V16.1724ZM33.0481 24.6102V25.3133C33.4365 25.3133 33.7513 24.9985 33.7513 24.6102H33.0481ZM20.3915 16.1724V15.4693C20.0031 15.4693 19.6883 15.7841 19.6883 16.1724H20.3915ZM20.3915 24.6102H19.6883C19.6883 24.9985 20.0031 25.3133 20.3915 25.3133V24.6102ZM23.204 24.6102H23.9072V23.907H23.204V24.6102ZM23.204 27.4228H22.5009C22.5009 27.6931 22.6558 27.9394 22.8995 28.0565C23.1431 28.1736 23.4322 28.1407 23.6433 27.9718L23.204 27.4228ZM26.7198 24.6102V23.907H26.4731L26.2805 24.0611L26.7198 24.6102ZM23.9072 18.2819C23.5189 18.2819 23.204 18.5967 23.204 18.985C23.204 19.3733 23.5189 19.6882 23.9072 19.6882V18.2819ZM29.5324 19.6882C29.9207 19.6882 30.2355 19.3733 30.2355 18.985C30.2355 18.5967 29.9207 18.2819 29.5324 18.2819V19.6882ZM23.9072 21.0945C23.5189 21.0945 23.204 21.4093 23.204 21.7976C23.204 22.1859 23.5189 22.5007 23.9072 22.5007V21.0945ZM29.5324 22.5007C29.9207 22.5007 30.2355 22.1859 30.2355 21.7976C30.2355 21.4093 29.9207 21.0945 29.5324 21.0945V22.5007ZM13.36 23.907C12.9716 23.907 12.6568 24.2219 12.6568 24.6102C12.6568 24.9985 12.9716 25.3133 13.36 25.3133V23.907ZM16.8757 25.3133C17.2641 25.3133 17.5789 24.9985 17.5789 24.6102C17.5789 24.2219 17.2641 23.907 16.8757 23.907V25.3133ZM13.36 27.4228C12.9716 27.4228 12.6568 27.7376 12.6568 28.1259C12.6568 28.5143 12.9716 28.8291 13.36 28.8291V27.4228ZM18.9852 28.8291C19.3735 28.8291 19.6883 28.5143 19.6883 28.1259C19.6883 27.7376 19.3735 27.4228 18.9852 27.4228V28.8291ZM13.36 20.3913C12.9716 20.3913 12.6568 20.7061 12.6568 21.0945C12.6568 21.4828 12.9716 21.7976 13.36 21.7976V20.3913ZM15.4694 21.7976C15.8578 21.7976 16.1726 21.4828 16.1726 21.0945C16.1726 20.7061 15.8578 20.3913 15.4694 20.3913V21.7976ZM28.1261 8.43779V16.1724H29.5324V8.43779H28.1261ZM28.8292 16.8756H33.0481V15.4693H28.8292V16.8756ZM32.345 16.1724V24.6102H33.7513V16.1724H32.345ZM33.0481 23.907H28.8292V25.3133H33.0481V23.907ZM28.1261 24.6102V30.2354H29.5324V24.6102H28.1261ZM27.4229 30.9385H11.2505V32.3448H27.4229V30.9385ZM10.5474 30.2354V8.43779H9.14109V30.2354H10.5474ZM11.2505 7.73464H27.4229V6.32835H11.2505V7.73464ZM28.8292 15.4693H20.3915V16.8756H28.8292V15.4693ZM19.6883 16.1724V24.6102H21.0946V16.1724H19.6883ZM20.3915 25.3133H23.204V23.907H20.3915V25.3133ZM22.5009 24.6102V27.4228H23.9072V24.6102H22.5009ZM23.6433 27.9718L27.159 25.1593L26.2805 24.0611L22.7648 26.8737L23.6433 27.9718ZM26.7198 25.3133H28.8292V23.907H26.7198V25.3133ZM23.9072 19.6882H29.5324V18.2819H23.9072V19.6882ZM23.9072 22.5007H29.5324V21.0945H23.9072V22.5007ZM13.36 28.8291H18.9852V27.4228H13.36V28.8291ZM13.36 25.3133H16.8757V23.907H13.36V25.3133ZM13.36 21.7976H15.4694V20.3913H13.36V21.7976ZM10.5474 8.43779C10.5474 8.04945 10.8622 7.73464 11.2505 7.73464V6.32835C10.0855 6.32835 9.14109 7.27278 9.14109 8.43779H10.5474ZM11.2505 30.9385C10.8622 30.9385 10.5474 30.6237 10.5474 30.2354H9.14109C9.14109 31.4004 10.0855 32.3448 11.2505 32.3448V30.9385ZM28.1261 30.2354C28.1261 30.6237 27.8113 30.9385 27.4229 30.9385V32.3448C28.5879 32.3448 29.5324 31.4004 29.5324 30.2354H28.1261ZM29.5324 8.43779C29.5324 7.27278 28.5879 6.32835 27.4229 6.32835V7.73464C27.8113 7.73464 28.1261 8.04945 28.1261 8.43779H29.5324Z" fill="white"/>
</svg>
