<svg width="19" height="20" viewBox="0 0 19 20" fill="none" xmlns="http://www.w3.org/2000/svg">
<path d="M15.8333 10.4777V6.51903M15.8333 6.51903H10.4768V1.39648M15.8333 6.51903L10.4768 1.39648M10.4768 1.39648H4.375C3.27043 1.39648 2.375 2.29191 2.375 3.39648V16.8132C2.375 17.9177 3.27043 18.8132 4.375 18.8132H8.19576M5.02909 12.4798H10.0509M5.02909 9.31315H11.8587" stroke="white" stroke-width="1.2" stroke-linecap="round" stroke-linejoin="round"/>
<path d="M10.3793 17.3703V14.4518L13.1793 13.2073C13.2828 13.1613 13.4008 13.1613 13.5043 13.2073L16.3043 14.4518V17.3703C16.3043 17.5284 16.2112 17.6716 16.0668 17.7358L13.3418 18.9469L10.6168 17.7358C10.4724 17.6716 10.3793 17.5284 10.3793 17.3703Z" stroke="white" stroke-width="1.2"/>
</svg>
