<svg width="32" height="32" viewBox="0 0 32 32" fill="none" xmlns="http://www.w3.org/2000/svg">
<rect width="32" height="32" rx="3" fill="#E7EDEE"/>
<path d="M12.4286 7H8C7.44772 7 7 7.44771 7 8V12.6667C7 13.219 7.44771 13.6667 8 13.6667H12.4286C12.9809 13.6667 13.4286 13.219 13.4286 12.6667V8C13.4286 7.44772 12.9809 7 12.4286 7Z" stroke="#688F99" stroke-width="1.5"/>
<path d="M24 7H19.5714C19.0191 7 18.5714 7.44771 18.5714 8V12.6667C18.5714 13.219 19.0191 13.6667 19.5714 13.6667H24C24.5523 13.6667 25 13.219 25 12.6667V8C25 7.44772 24.5523 7 24 7Z" stroke="#688F99" stroke-width="1.5"/>
<path d="M12.4286 18.3333H8C7.44772 18.3333 7 18.781 7 19.3333V24C7 24.5523 7.44771 25 8 25H12.4286C12.9809 25 13.4286 24.5523 13.4286 24V19.3333C13.4286 18.781 12.9809 18.3333 12.4286 18.3333Z" stroke="#688F99" stroke-width="1.5"/>
<path d="M24 18.3333H19.5714C19.0191 18.3333 18.5714 18.781 18.5714 19.3333V24C18.5714 24.5523 19.0191 25 19.5714 25H24C24.5523 25 25 24.5523 25 24V19.3333C25 18.781 24.5523 18.3333 24 18.3333Z" stroke="#688F99" stroke-width="1.5"/>
</svg>
