<svg width="40" height="41" viewBox="0 0 40 41" fill="none" xmlns="http://www.w3.org/2000/svg">
<path d="M31.6667 19.954V12.0366M31.6667 12.0366H20.9536V1.7915M31.6667 12.0366L20.9536 1.7915M20.9536 1.7915H7.91667C6.16777 1.7915 4.75 3.20927 4.75 4.95817V33.4582C4.75 35.2071 6.16777 36.6248 7.91667 36.6248H16.3915M10.0582 23.9582H20.1017M10.0582 17.6248H23.7174" stroke="white" stroke-width="2.375" stroke-linecap="round" stroke-linejoin="round"/>
<path d="M21.95 35.0544V28.784L27.8678 26.1539C28.0315 26.0811 28.2185 26.0811 28.3822 26.1539L34.3 28.784V35.0544C34.3 35.3047 34.1526 35.5315 33.9239 35.6331L28.125 38.2104L22.3261 35.6331C22.0974 35.5315 21.95 35.3047 21.95 35.0544Z" stroke="white" stroke-width="1.9"/>
</svg>
