<svg width="25" height="16" viewBox="0 0 25 16" fill="none" xmlns="http://www.w3.org/2000/svg">
<path d="M24.9439 7.76923C24.9015 7.69231 24.0225 5.91346 22.0527 4.13462C20.0828 2.35577 17.0963 0.5 12.5 0.5C7.90371 0.5 4.76891 2.47115 2.94734 4.13462C1.12576 5.79808 0.0984808 7.69231 0.0561186 7.76923C0.0191514 7.84153 0 7.92029 0 8C0 8.07971 0.0191514 8.15847 0.0561186 8.23077C0.0984808 8.30769 0.977495 10.0865 2.94734 11.8654C4.91718 13.6442 7.90371 15.5 12.5 15.5C17.0963 15.5 20.2311 13.5288 22.0527 11.8654C23.8742 10.2019 24.9015 8.30769 24.9439 8.23077C24.9808 8.15847 25 8.07971 25 8C25 7.92029 24.9808 7.84153 24.9439 7.76923ZM12.5 14.3462C9.17457 14.3462 6.27276 13.25 3.8793 11.0865C2.87005 10.1786 2.01681 9.13816 1.34816 8C2.01681 6.86184 2.87005 5.82138 3.8793 4.91346C6.27276 2.75 9.17457 1.65385 12.5 1.65385C15.8254 1.65385 18.7272 2.75 21.1207 4.91346C22.1299 5.82138 22.9832 6.86184 23.6518 8C22.974 9.17308 19.5957 14.3462 12.5 14.3462ZM12.5 3.57692C11.5365 3.57692 10.5946 3.83633 9.79346 4.32235C8.99232 4.80836 8.36791 5.49915 7.99918 6.30736C7.63046 7.11557 7.53399 8.00491 7.72196 8.8629C7.90993 9.72089 8.37391 10.509 9.05523 11.1276C9.73654 11.7462 10.6046 12.1674 11.5496 12.3381C12.4946 12.5088 13.4741 12.4212 14.3643 12.0864C15.2545 11.7516 16.0153 11.1847 16.5506 10.4573C17.0859 9.72996 17.3716 8.8748 17.3716 8C17.3716 6.82693 16.8584 5.7019 15.9448 4.87241C15.0312 4.04292 13.792 3.57692 12.5 3.57692ZM12.5 11.2692C11.7878 11.2692 11.0917 11.0775 10.4995 10.7183C9.90737 10.359 9.44585 9.84845 9.17331 9.25108C8.90078 8.65371 8.82947 7.99637 8.9684 7.3622C9.10734 6.72804 9.45028 6.14551 9.95386 5.6883C10.4574 5.23109 11.099 4.91973 11.7975 4.79359C12.496 4.66744 13.22 4.73218 13.878 4.97962C14.5359 5.22707 15.0983 5.64609 15.4939 6.18371C15.8896 6.72133 16.1008 7.35341 16.1008 8C16.098 8.86627 15.7177 9.69634 15.0431 10.3089C14.3684 10.9214 13.4541 11.2667 12.5 11.2692Z" fill="#444444"/>
</svg>
