<svg width="21" height="15" viewBox="0 0 21 15" fill="none" xmlns="http://www.w3.org/2000/svg">
<path d="M4.12134 5.11714H7.24072M4.12134 8.23652H9.73623M16.5989 11.044H4.12134M2.24971 0.75H18.4705C19.1596 0.75 19.7183 1.30864 19.7183 1.99775V13.2275C19.7183 13.9167 19.1596 14.4753 18.4705 14.4753H2.24971C1.56059 14.4753 1.00195 13.9167 1.00195 13.2275V1.99775C1.00195 1.30864 1.56059 0.75 2.24971 0.75ZM12.8556 5.11714V7.61265C12.8556 7.9572 13.1349 8.23652 13.4795 8.23652H15.975C16.3196 8.23652 16.5989 7.9572 16.5989 7.61265V5.11714C16.5989 4.77258 16.3196 4.49326 15.975 4.49326H13.4795C13.1349 4.49326 12.8556 4.77258 12.8556 5.11714Z" stroke="#688F99" stroke-width="0.935816"/>
</svg>
