<svg width="22" height="22" viewBox="0 0 22 22" fill="none" xmlns="http://www.w3.org/2000/svg">
<mask id="path-1-inside-1_10549_55654" fill="white">
<path fill-rule="evenodd" clip-rule="evenodd" d="M17.4872 12.0194C17.1094 13.9112 15.9881 15.5038 14.4694 16.4684C14.5736 16.8045 14.6329 17.1616 14.6401 17.5319C16.7112 16.3752 18.2036 14.2437 18.5495 11.7278C18.2186 11.8788 17.8614 11.9791 17.4872 12.0194ZM16.1156 4.75869C14.7775 3.50978 13.0085 2.75 11.0687 2.75C9.11228 2.75 7.3295 3.52287 5.98744 4.79095C6.32931 4.90594 6.64863 5.07304 6.93672 5.28325C8.06939 4.32231 9.51118 3.74993 11.0687 3.74993C12.5979 3.74993 14.0155 4.30167 15.1386 5.23119C15.4359 5.02547 15.7646 4.86484 16.1156 4.75869ZM7.66749 16.4681C6.15229 15.5055 5.03275 13.9177 4.65264 12.0314C4.28246 12.0065 3.92764 11.923 3.59668 11.7897C3.95829 14.2784 5.44289 16.3843 7.49666 17.5316C7.50389 17.1612 7.56328 16.8042 7.66749 16.4681Z"/>
</mask>
<path fill-rule="evenodd" clip-rule="evenodd" d="M17.4872 12.0194C17.1094 13.9112 15.9881 15.5038 14.4694 16.4684C14.5736 16.8045 14.6329 17.1616 14.6401 17.5319C16.7112 16.3752 18.2036 14.2437 18.5495 11.7278C18.2186 11.8788 17.8614 11.9791 17.4872 12.0194ZM16.1156 4.75869C14.7775 3.50978 13.0085 2.75 11.0687 2.75C9.11228 2.75 7.3295 3.52287 5.98744 4.79095C6.32931 4.90594 6.64863 5.07304 6.93672 5.28325C8.06939 4.32231 9.51118 3.74993 11.0687 3.74993C12.5979 3.74993 14.0155 4.30167 15.1386 5.23119C15.4359 5.02547 15.7646 4.86484 16.1156 4.75869ZM7.66749 16.4681C6.15229 15.5055 5.03275 13.9177 4.65264 12.0314C4.28246 12.0065 3.92764 11.923 3.59668 11.7897C3.95829 14.2784 5.44289 16.3843 7.49666 17.5316C7.50389 17.1612 7.56328 16.8042 7.66749 16.4681Z" fill="white"/>
<path d="M17.4872 12.0194L17.3669 10.9008L16.5457 10.9891L16.384 11.799L17.4872 12.0194ZM14.4694 16.4684L13.8662 15.5187L13.1402 15.9799L13.3948 16.8014L14.4694 16.4684ZM14.6401 17.5319L13.5153 17.5538L13.5518 19.4284L15.1887 18.5141L14.6401 17.5319ZM18.5495 11.7278L19.664 11.881L19.9424 9.85583L18.0825 10.7043L18.5495 11.7278ZM16.1156 4.75869L16.4412 5.83553L18.3119 5.26981L16.8832 3.93627L16.1156 4.75869ZM5.98744 4.79095L5.2148 3.97324L3.853 5.25998L5.6288 5.85725L5.98744 4.79095ZM6.93672 5.28325L6.27361 6.19204L6.98911 6.71412L7.66452 6.14111L6.93672 5.28325ZM15.1386 5.23119L14.4212 6.09784L15.0778 6.64124L15.7786 6.15635L15.1386 5.23119ZM4.65264 12.0314L5.75547 11.8092L5.58569 10.9666L4.72813 10.9089L4.65264 12.0314ZM7.66749 16.4681L8.74203 16.8012L8.99674 15.9797L8.27074 15.5185L7.66749 16.4681ZM3.59668 11.7897L4.01695 10.7461L2.20204 10.0152L2.48337 11.9515L3.59668 11.7897ZM7.49666 17.5316L6.948 18.5137L8.58482 19.4281L8.62144 17.5536L7.49666 17.5316ZM16.384 11.799C16.0662 13.3903 15.1251 14.7192 13.8662 15.5187L15.0725 17.418C16.851 16.2885 18.1526 14.432 18.5904 12.2397L16.384 11.799ZM13.3948 16.8014C13.468 17.0376 13.5102 17.2899 13.5153 17.5538L15.7649 17.5101C15.7556 17.0333 15.6791 16.5715 15.544 16.1353L13.3948 16.8014ZM15.1887 18.5141C17.5701 17.1841 19.2704 14.7445 19.664 11.881L17.4349 11.5746C17.1369 13.743 15.8523 15.5663 14.0915 16.5498L15.1887 18.5141ZM18.0825 10.7043C17.8589 10.8063 17.6186 10.8737 17.3669 10.9008L17.6075 13.1379C18.1043 13.0845 18.5783 12.9512 19.0164 12.7513L18.0825 10.7043ZM16.8832 3.93627C15.3492 2.50444 13.3099 1.625 11.0687 1.625V3.875C12.7071 3.875 14.2059 4.51511 15.348 5.58111L16.8832 3.93627ZM11.0687 1.625C8.8082 1.625 6.75322 2.51963 5.2148 3.97324L6.76008 5.60866C7.90578 4.52612 9.41636 3.875 11.0687 3.875V1.625ZM5.6288 5.85725C5.85894 5.93466 6.07596 6.04783 6.27361 6.19204L7.59983 4.37446C7.2213 4.09825 6.79968 3.87721 6.34609 3.72465L5.6288 5.85725ZM7.66452 6.14111C8.60554 5.34276 9.79265 4.87493 11.0687 4.87493V2.62493C9.22971 2.62493 7.53323 3.30185 6.20892 4.42539L7.66452 6.14111ZM11.0687 4.87493C12.3217 4.87493 13.4886 5.32593 14.4212 6.09784L15.8559 4.36453C14.5424 3.27741 12.8741 2.62493 11.0687 2.62493V4.87493ZM15.7786 6.15635C15.9822 6.01548 16.2052 5.9069 16.4412 5.83553L15.79 3.68185C15.324 3.82277 14.8896 4.03546 14.4985 4.30602L15.7786 6.15635ZM3.54981 12.2536C3.99032 14.4397 5.28986 16.2904 7.06425 17.4177L8.27074 15.5185C7.01471 14.7206 6.07518 13.3957 5.75547 11.8092L3.54981 12.2536ZM3.17641 12.8333C3.61523 13.01 4.08628 13.1208 4.57716 13.1539L4.72813 10.9089C4.47865 10.8921 4.24005 10.836 4.01695 10.7461L3.17641 12.8333ZM8.04532 16.5495C6.29928 15.574 5.02162 13.7726 4.70999 11.6279L2.48337 11.9515C2.89496 14.7841 4.5865 17.1945 6.948 18.5137L8.04532 16.5495ZM6.59295 16.1349C6.45773 16.5711 6.38119 17.0328 6.37187 17.5096L8.62144 17.5536C8.6266 17.2897 8.66883 17.0373 8.74203 16.8012L6.59295 16.1349Z" fill="#688F99" mask="url(#path-1-inside-1_10549_55654)"/>
<path d="M19.4389 8.322C19.4389 9.68884 18.3785 10.7592 17.1159 10.7592C15.8534 10.7592 14.793 9.68884 14.793 8.322C14.793 6.95516 15.8534 5.88477 17.1159 5.88477C18.3785 5.88477 19.4389 6.95516 19.4389 8.322Z" stroke="#688F99" stroke-width="1.125"/>
<path d="M7.21038 8.39342C7.21038 9.81248 6.13782 10.9021 4.88742 10.9021C3.63701 10.9021 2.56445 9.81248 2.56445 8.39342C2.56445 6.97436 3.63701 5.88477 4.88742 5.88477C6.13782 5.88477 7.21038 6.97436 7.21038 8.39342Z" stroke="#688F99" stroke-width="1.125"/>
<path d="M13.5307 17.7497C13.5307 19.1166 12.4703 20.187 11.2077 20.187C9.94518 20.187 8.88477 19.1166 8.88477 17.7497C8.88477 16.3829 9.94518 15.3125 11.2077 15.3125C12.4703 15.3125 13.5307 16.3829 13.5307 17.7497Z" stroke="#688F99" stroke-width="1.125"/>
</svg>
