<svg width="20" height="16" viewBox="0 0 20 16" fill="none" xmlns="http://www.w3.org/2000/svg">
<path d="M3.77954 5.36714H6.89892M3.77954 8.48652H9.39443M16.2571 11.294H3.77954M1.90791 1H18.1287C18.8178 1 19.3765 1.55864 19.3765 2.24775V13.4775C19.3765 14.1667 18.8178 14.7253 18.1287 14.7253H1.90791C1.21879 14.7253 0.660156 14.1667 0.660156 13.4775V2.24775C0.660156 1.55864 1.21879 1 1.90791 1ZM12.5138 5.36714V7.86265C12.5138 8.2072 12.7931 8.48652 13.1377 8.48652H15.6332C15.9778 8.48652 16.2571 8.2072 16.2571 7.86265V5.36714C16.2571 5.02258 15.9778 4.74326 15.6332 4.74326H13.1377C12.7931 4.74326 12.5138 5.02258 12.5138 5.36714Z" stroke="#688F99" stroke-width="0.935816"/>
</svg>
