<svg width="20" height="19" viewBox="0 0 20 19" fill="none" xmlns="http://www.w3.org/2000/svg">
<mask id="path-1-inside-1_10549_55622" fill="white">
<path d="M1.875 18.5001C1.04657 18.5001 0.375 17.8285 0.375 17.0001V2.00028C0.375 1.17187 1.04656 0.500295 1.87498 0.500285L13.1245 0.500141C13.9529 0.500131 14.6245 1.17171 14.6245 2.00014V12.1251H18.3745C19.2029 12.1251 19.8745 12.7967 19.8745 13.6251V15.5001C19.8745 17.157 18.5313 18.5001 16.8745 18.5001H1.875Z"/>
</mask>
<path d="M14.0629 12.1251V11.5626H13.5004V12.1251H14.0629ZM14.0629 18.5001H13.5004V19.0626H14.0629L14.0629 18.5001ZM8.06197 3.87512C8.06197 3.56446 7.81013 3.31262 7.49947 3.31262C7.18881 3.31262 6.93697 3.56446 6.93697 3.87512H8.06197ZM10.4995 5.75012H11.062C11.062 5.43946 10.8101 5.18762 10.4995 5.18762V5.75012ZM9.93697 7.25012C9.93697 7.56078 10.1888 7.81262 10.4995 7.81262C10.8101 7.81262 11.062 7.56078 11.062 7.25012H9.93697ZM4.49947 5.75012V5.18762C4.18881 5.18762 3.93697 5.43946 3.93697 5.75012H4.49947ZM4.49947 9.50012H3.93697C3.93697 9.81078 4.18881 10.0626 4.49947 10.0626V9.50012ZM10.4995 9.50012H11.062C11.062 9.18946 10.8101 8.93762 10.4995 8.93762V9.50012ZM10.4995 13.2501V13.8126C10.8101 13.8126 11.062 13.5608 11.062 13.2501H10.4995ZM4.49947 13.2501H3.93697C3.93697 13.5608 4.18881 13.8126 4.49947 13.8126V13.2501ZM5.06197 11.7501C5.06197 11.4395 4.81013 11.1876 4.49947 11.1876C4.18881 11.1876 3.93697 11.4395 3.93697 11.7501H5.06197ZM6.93697 15.5001C6.93697 15.8108 7.18881 16.0626 7.49947 16.0626C7.81013 16.0626 8.06197 15.8108 8.06197 15.5001H6.93697ZM14.6245 11.5626H14.0629V12.6876H14.6245V11.5626ZM6.93697 3.87512V5.75012H8.06197V3.87512H6.93697ZM7.49947 6.31262H10.4995V5.18762H7.49947V6.31262ZM9.93697 5.75012V7.25012H11.062V5.75012H9.93697ZM7.49947 5.18762H4.49947V6.31262H7.49947V5.18762ZM3.93697 5.75012V9.50012H5.06197V5.75012H3.93697ZM4.49947 10.0626H10.4995V8.93762H4.49947V10.0626ZM9.93697 9.50012V13.2501H11.062V9.50012H9.93697ZM5.06197 13.2501V11.7501H3.93697V13.2501H5.06197ZM10.4995 12.6876H7.49947V13.8126H10.4995V12.6876ZM7.49947 12.6876H4.49947V13.8126H7.49947V12.6876ZM6.93697 13.2501V15.5001H8.06197V13.2501H6.93697ZM17.625 17.9376L14.0629 17.9376L14.0629 19.0626L17.625 19.0626V17.9376ZM13.5004 12.1251V18.5001H14.6254V12.1251H13.5004ZM14.6245 12.1251H13.4995V13.2501H14.6245V12.1251ZM13.1245 0.500141L13.1245 1.62514L13.1245 0.500141ZM1.87498 0.500285L1.87499 1.62528L1.87498 0.500285ZM-0.75 2.00028V17.0001H1.5V2.00028H-0.75ZM1.875 19.6251H16.8745V17.3751H1.875V19.6251ZM20.9995 15.5001V13.6251H18.7495V15.5001H20.9995ZM18.3745 11.0001H14.6245V13.2501H18.3745V11.0001ZM13.1244 -0.624859L1.87497 -0.624715L1.87499 1.62528L13.1245 1.62514L13.1244 -0.624859ZM15.7495 12.1251V2.00014H13.4995V12.1251H15.7495ZM20.9995 13.6251C20.9995 12.1754 19.8242 11.0001 18.3745 11.0001V13.2501C18.5816 13.2501 18.7495 13.418 18.7495 13.6251H20.9995ZM16.8745 19.6251C19.1526 19.6251 20.9995 17.7783 20.9995 15.5001H18.7495C18.7495 16.5357 17.91 17.3751 16.8745 17.3751V19.6251ZM13.1245 1.62514C13.3316 1.62514 13.4995 1.79303 13.4995 2.00014H15.7495C15.7495 0.550381 14.5742 -0.624877 13.1244 -0.624859L13.1245 1.62514ZM-0.75 17.0001C-0.75 18.4499 0.425252 19.6251 1.875 19.6251V17.3751C1.66789 17.3751 1.5 17.2072 1.5 17.0001H-0.75ZM1.5 2.00028C1.5 1.79318 1.66789 1.62529 1.87499 1.62528L1.87497 -0.624715C0.42523 -0.624697 -0.75 0.550551 -0.75 2.00028H1.5Z" fill="#688F99" mask="url(#path-1-inside-1_10549_55622)"/>
</svg>
