<svg width="22" height="21" viewBox="0 0 22 21" fill="none" xmlns="http://www.w3.org/2000/svg">
<path d="M7.50266 15.375C7.50266 15.6511 7.72652 15.875 8.00266 15.875C8.2788 15.875 8.50266 15.6511 8.50266 15.375V8.625C8.50266 8.34886 8.2788 8.125 8.00266 8.125C7.72652 8.125 7.50266 8.34886 7.50266 8.625V15.375ZM10.5027 15.375C10.5027 15.6511 10.7265 15.875 11.0027 15.875C11.2788 15.875 11.5027 15.6511 11.5027 15.375V12.375C11.5027 12.0989 11.2788 11.875 11.0027 11.875C10.7265 11.875 10.5027 12.0989 10.5027 12.375V15.375ZM13.5027 15.375C13.5027 15.6511 13.7265 15.875 14.0027 15.875C14.2788 15.875 14.5027 15.6511 14.5027 15.375V10.5C14.5027 10.2239 14.2788 10 14.0027 10C13.7265 10 13.5027 10.2239 13.5027 10.5V15.375ZM8.50266 3V2.5H8.01263C8.22777 1.77713 8.89741 1.25 9.69016 1.25H12.502C13.2947 1.25 13.9643 1.77713 14.1795 2.5H13.6895V3V3.75C13.6895 4.30229 13.2417 4.75 12.6895 4.75H9.50266C8.95038 4.75 8.50266 4.30228 8.50266 3.75V3ZM7.50266 3.5V3.75C7.50266 4.85457 8.39809 5.75 9.50266 5.75H12.6895C13.794 5.75 14.6895 4.85457 14.6895 3.75V3.5H14.752H17.002C17.5542 3.5 18.002 3.94772 18.002 4.5V18.7502C18.002 19.3024 17.5542 19.7502 17.0019 19.7502L5.00194 19.75C4.44966 19.75 4.00195 19.3023 4.00195 18.75V4.5C4.00195 3.94772 4.44967 3.5 5.00195 3.5H7.44016H7.50266Z" stroke="#688F99" stroke-linecap="round"/>
</svg>
