<svg width="22" height="22" viewBox="0 0 22 22" fill="none" xmlns="http://www.w3.org/2000/svg">
<path d="M13.521 9.39407C12.8529 10.0622 11.9468 10.4375 11.002 10.4375C10.0571 10.4375 9.15098 10.0622 8.48289 9.39407C7.81479 8.72597 7.43945 7.81983 7.43945 6.875C7.43945 5.93017 7.81479 5.02403 8.48289 4.35593C9.15098 3.68783 10.0571 3.3125 11.002 3.3125C11.9468 3.3125 12.8529 3.68783 13.521 4.35593C14.1891 5.02403 14.5645 5.93017 14.5645 6.875C14.5645 7.81983 14.1891 8.72597 13.521 9.39407Z" stroke="#688F99" stroke-width="1.125" stroke-linecap="round" stroke-linejoin="round"/>
<path d="M17.752 10.25V13.25M16.252 11.75H19.252" stroke="#688F99" stroke-width="1.125" stroke-linecap="round" stroke-linejoin="round"/>
<path d="M3.50195 19.25V19.25C3.50195 15.9363 6.18824 13.25 9.50195 13.25H12.502C15.8157 13.25 18.502 15.9363 18.502 19.25V19.25" stroke="#688F99" stroke-width="1.125" stroke-linecap="round"/>
</svg>
