<svg width="18" height="16" viewBox="0 0 18 16" fill="none" xmlns="http://www.w3.org/2000/svg">
<path d="M6.91602 1.25C6.0955 1.25 5.30859 1.57595 4.7284 2.15614C4.14821 2.73633 3.82227 3.52324 3.82227 4.34375C3.82227 5.16426 4.14821 5.95117 4.7284 6.53136C5.30859 7.11155 6.0955 7.4375 6.91602 7.4375C7.73653 7.4375 8.52344 7.11155 9.10363 6.53136C9.68382 5.95117 10.0098 5.16426 10.0098 4.34375C10.0098 3.52324 9.68382 2.73633 9.10363 2.15614C8.52344 1.57595 7.73653 1.25 6.91602 1.25Z" stroke="#688F99" stroke-width="1.05417" stroke-linecap="round" stroke-linejoin="round"/>
<path d="M1.50195 15.1719V12.0781C1.50195 11.6679 1.66493 11.2744 1.95502 10.9843C2.24512 10.6942 2.63857 10.5312 3.04883 10.5312H10.7832C11.1935 10.5312 11.5869 10.6942 11.877 10.9843C12.1671 11.2744 12.3301 11.6679 12.3301 12.0781V15.1719" stroke="#688F99" stroke-width="1.05417" stroke-linecap="round" stroke-linejoin="round"/>
<path d="M12.3301 1.25C12.9956 1.42039 13.5854 1.80742 14.0066 2.35007C14.4278 2.89272 14.6565 3.56013 14.6565 4.24707C14.6565 4.93401 14.4278 5.60142 14.0066 6.14407C13.5854 6.68672 12.9956 7.07375 12.3301 7.24414" stroke="#688F99" stroke-width="1.05417" stroke-linecap="round" stroke-linejoin="round"/>
<path d="M14.6504 10.5312H15.4238C15.8341 10.5312 16.2275 10.6942 16.5176 10.9843C16.8077 11.2744 16.9707 11.6679 16.9707 12.0781V15.1719" stroke="#688F99" stroke-width="1.05417" stroke-linecap="round" stroke-linejoin="round"/>
</svg>
