<svg width="20" height="20" viewBox="0 0 20 20" fill="none" xmlns="http://www.w3.org/2000/svg">
<path d="M10.0001 14.168C10.2362 14.168 10.4342 14.088 10.5942 13.928C10.7537 13.7685 10.8334 13.5707 10.8334 13.3346V9.98047C10.8334 9.74436 10.7537 9.54991 10.5942 9.39713C10.4342 9.24436 10.2362 9.16797 10.0001 9.16797C9.76397 9.16797 9.56619 9.24769 9.40675 9.40713C9.24675 9.56713 9.16675 9.76519 9.16675 10.0013V13.3555C9.16675 13.5916 9.24675 13.786 9.40675 13.9388C9.56619 14.0916 9.76397 14.168 10.0001 14.168ZM10.0001 7.5013C10.2362 7.5013 10.4342 7.4213 10.5942 7.2613C10.7537 7.10186 10.8334 6.90408 10.8334 6.66797C10.8334 6.43186 10.7537 6.2338 10.5942 6.0738C10.4342 5.91436 10.2362 5.83464 10.0001 5.83464C9.76397 5.83464 9.56619 5.91436 9.40675 6.0738C9.24675 6.2338 9.16675 6.43186 9.16675 6.66797C9.16675 6.90408 9.24675 7.10186 9.40675 7.2613C9.56619 7.4213 9.76397 7.5013 10.0001 7.5013ZM10.0001 18.3346C8.8473 18.3346 7.76397 18.1157 6.75008 17.678C5.73619 17.2407 4.85425 16.6471 4.10425 15.8971C3.35425 15.1471 2.76064 14.2652 2.32341 13.2513C1.88564 12.2374 1.66675 11.1541 1.66675 10.0013C1.66675 8.84852 1.88564 7.76519 2.32341 6.7513C2.76064 5.73741 3.35425 4.85547 4.10425 4.10547C4.85425 3.35547 5.73619 2.76158 6.75008 2.3238C7.76397 1.88658 8.8473 1.66797 10.0001 1.66797C11.1529 1.66797 12.2362 1.88658 13.2501 2.3238C14.264 2.76158 15.1459 3.35547 15.8959 4.10547C16.6459 4.85547 17.2395 5.73741 17.6767 6.7513C18.1145 7.76519 18.3334 8.84852 18.3334 10.0013C18.3334 11.1541 18.1145 12.2374 17.6767 13.2513C17.2395 14.2652 16.6459 15.1471 15.8959 15.8971C15.1459 16.6471 14.264 17.2407 13.2501 17.678C12.2362 18.1157 11.1529 18.3346 10.0001 18.3346ZM10.0001 16.668C11.8473 16.668 13.4204 16.0188 14.7192 14.7205C16.0176 13.4216 16.6667 11.8485 16.6667 10.0013C16.6667 8.15408 16.0176 6.58102 14.7192 5.28214C13.4204 3.9838 11.8473 3.33464 10.0001 3.33464C8.15286 3.33464 6.58008 3.9838 5.28175 5.28214C3.98286 6.58102 3.33341 8.15408 3.33341 10.0013C3.33341 11.8485 3.98286 13.4216 5.28175 14.7205C6.58008 16.0188 8.15286 16.668 10.0001 16.668Z" fill="white"/>
</svg>
