<svg width="22" height="22" viewBox="0 0 22 22" fill="none" xmlns="http://www.w3.org/2000/svg">
<circle cx="11" cy="11" r="10.25" stroke="#EAA800" stroke-width="1.5"/>
<path d="M7 5V4.25C6.58579 4.25 6.25 4.58579 6.25 5H7ZM15 5H15.75C15.75 4.58579 15.4142 4.25 15 4.25V5ZM15 17V17.75H15.75V17H15ZM7 17H6.25C6.25 17.4142 6.58579 17.75 7 17.75V17ZM12.18 10.2625L11.7825 9.62651L12.18 10.2625ZM12.18 11.7375L11.7825 12.3735L12.18 11.7375ZM7.75 5.17451V5H6.25V5.17451H7.75ZM7 5.75H15V4.25H7V5.75ZM15 16.25H7V17.75H15V16.25ZM7.75 17V16.8255H6.25V17H7.75ZM9.42251 10.8985L11.7825 12.3735L12.5775 11.1015L10.2175 9.6265L9.42251 10.8985ZM14.25 16.8255V17H15.75V16.8255H14.25ZM10.2175 12.3735L12.5775 10.8985L11.7825 9.62651L9.42251 11.1015L10.2175 12.3735ZM15.75 5.17451V5H14.25V5.17451H15.75ZM12.5775 10.8985C14.5511 9.66502 15.75 7.50185 15.75 5.17451H14.25C14.25 6.98466 13.3175 8.66713 11.7825 9.62651L12.5775 10.8985ZM11.7825 12.3735C13.3175 13.3329 14.25 15.0153 14.25 16.8255H15.75C15.75 14.4982 14.5511 12.335 12.5775 11.1015L11.7825 12.3735ZM7.75 16.8255C7.75 15.0153 8.6825 13.3329 10.2175 12.3735L9.42251 11.1015C7.44893 12.335 6.25 14.4982 6.25 16.8255H7.75ZM6.25 5.17451C6.25 7.50185 7.44893 9.66502 9.42251 10.8985L10.2175 9.6265C8.6825 8.66713 7.75 6.98466 7.75 5.17451H6.25Z" fill="#EAA800"/>
</svg>
