<svg width="40" height="40" viewBox="0 0 40 40" fill="none" xmlns="http://www.w3.org/2000/svg">
<rect width="40" height="40" rx="4" fill="#688F99"/>
<path d="M32.3439 18.0804V8.4375H7.03125V17.4777H8.83929H10.6473H13.0581M26.3171 15.2462H29.9331V10.9301H26.3591M26.3171 15.2462L26.3591 10.9301M26.3171 15.2462L26.3175 30.1015L20.8929 30.134H15.4688V27.7233M12.4554 10.9134H9.44198V15.2462H12.4554M12.4554 10.9134L26.3591 10.9301M12.4554 10.9134V15.0996V15.2462M23.9063 10.9301V27.7233H15.4688M15.4688 27.7233H12.4554V19.2858V15.2462" stroke="white" stroke-width="1.4063" stroke-linejoin="round"/>
<path d="M32.345 17.4766H26.9209" stroke="white" stroke-width="1.4063"/>
<path d="M19.8244 20.0982C19.8244 21.0413 19.0598 21.8058 18.1168 21.8058C17.1737 21.8058 16.4092 21.0413 16.4092 20.0982C16.4092 19.1552 17.1737 18.3906 18.1168 18.3906C19.0598 18.3906 19.8244 19.1552 19.8244 20.0982Z" stroke="white" stroke-width="1.4063"/>
</svg>
