<svg width="40" height="40" viewBox="0 0 40 40" fill="none" xmlns="http://www.w3.org/2000/svg">
<rect width="40" height="40" rx="4" fill="#688F99"/>
<path d="M21.0942 30.9383H8.43755C7.66087 30.9383 7.03125 30.3087 7.03125 29.532V28.8288C7.03125 28.0522 7.66087 27.4225 8.43755 27.4225H10.547M21.0942 27.4225H10.547M10.547 27.4225V8.43755C10.547 7.66087 11.1766 7.03125 11.9533 7.03125H23.2037M23.2037 7.03125V11.9533H28.1257M23.2037 7.03125L28.1257 11.9533M28.1257 11.9533V23.9068M13.3596 11.2501H16.8753M14.0627 17.5785V15.469H25.3131V17.5785M14.0627 17.5785V23.9068H25.3131V17.5785M14.0627 17.5785H25.3131M24.6099 30.9383H26.7194C27.4961 30.9383 28.1257 30.3087 28.1257 29.532V27.4225C28.1257 26.6459 27.4961 26.0162 26.7194 26.0162H24.6099C23.8333 26.0162 23.2037 26.6459 23.2037 27.4225V29.532C23.2037 30.3087 23.8333 30.9383 24.6099 30.9383Z" stroke="white" stroke-width="1.4063"/>
</svg>
