<svg width="40" height="40" viewBox="0 0 40 40" fill="none" xmlns="http://www.w3.org/2000/svg">
<rect width="40" height="39.9998" rx="4" fill="#688F99"/>
<path d="M6.89178 11.6186C6.52241 11.7571 6.33526 12.1688 6.47377 12.5382C6.61229 12.9075 7.02401 13.0947 7.39338 12.9562L6.89178 11.6186ZM32.5755 12.9439C32.9381 13.0993 33.358 12.9313 33.5134 12.5687C33.6688 12.2061 33.5008 11.7862 33.1382 11.6308L32.5755 12.9439ZM12.2854 24.4301C11.8909 24.4301 11.5712 24.7499 11.5712 25.1444C11.5712 25.5389 11.8909 25.8587 12.2854 25.8587V24.4301ZM16.5711 25.8587C16.9656 25.8587 17.2854 25.5389 17.2854 25.1444C17.2854 24.7499 16.9656 24.4301 16.5711 24.4301V25.8587ZM29.4283 25.8587C29.8228 25.8587 30.1426 25.5389 30.1426 25.1444C30.1426 24.7499 29.8228 24.4301 29.4283 24.4301V25.8587ZM25.1426 24.4301C24.7481 24.4301 24.4283 24.7499 24.4283 25.1444C24.4283 25.5389 24.7481 25.8587 25.1426 25.8587V24.4301ZM27.4706 32.8151L27.4917 33.5291L27.4706 32.8151ZM28.1467 32.795L28.1679 33.509L28.1467 32.795ZM21.3841 7.37049L21.1027 8.02702L21.3841 7.37049ZM9.85687 29.4301V31.4301H11.2854V29.4301H9.85687ZM11.9997 33.5729H12.8569V32.1444H11.9997V33.5729ZM14.9997 31.4301V29.4301H13.5712V31.4301H14.9997ZM14.2854 28.7158H9.42829V30.1444H14.2854V28.7158ZM8.714 28.0015V22.2873H7.28544V28.0015H8.714ZM32.1426 22.2873V28.0015H33.5711V22.2873H32.1426ZM31.4283 28.7158H29.533V30.1444H31.4283V28.7158ZM28.8187 29.4301V31.3671H30.2473V29.4301H28.8187ZM28.1256 32.0811L27.4494 32.1011L27.4917 33.5291L28.1679 33.509L28.1256 32.0811ZM26.714 31.3871V29.4301H25.2854V31.3871H26.714ZM25.9997 30.1444H29.533V28.7158H25.9997V30.1444ZM14.2854 30.1444H25.9997V28.7158H14.2854V30.1444ZM9.42829 21.573H10.5711V20.1444H9.42829V21.573ZM11.21 21.1782L13.8489 15.9004L12.5712 15.2616L9.93228 20.5393L11.21 21.1782ZM15.7655 14.7159H25.734V13.2873H15.7655V14.7159ZM10.5711 21.573H30.2854V20.1444H10.5711V21.573ZM30.2854 21.573H31.4283V20.1444H30.2854V21.573ZM27.7404 16.1064L29.6166 21.1095L30.9542 20.6079L29.078 15.6048L27.7404 16.1064ZM7.39338 12.9562L20.5706 8.01475L20.069 6.67714L6.89178 11.6186L7.39338 12.9562ZM21.1027 8.02702L32.5755 12.9439L33.1382 11.6308L21.6655 6.71396L21.1027 8.02702ZM12.2854 25.8587H16.5711V24.4301H12.2854V25.8587ZM25.1426 25.8587H29.4283V24.4301H25.1426V25.8587ZM25.734 14.7159C26.6273 14.7159 27.4268 15.27 27.7404 16.1064L29.078 15.6048C28.5553 14.2108 27.2227 13.2873 25.734 13.2873V14.7159ZM27.4494 32.1011C27.0468 32.113 26.714 31.7899 26.714 31.3871H25.2854C25.2854 32.5955 26.284 33.5648 27.4917 33.5291L27.4494 32.1011ZM28.8187 31.3671C28.8187 31.7534 28.5116 32.0696 28.1256 32.0811L28.1679 33.509C29.3261 33.4747 30.2473 32.5259 30.2473 31.3671H28.8187ZM32.1426 28.0015C32.1426 28.396 31.8228 28.7158 31.4283 28.7158V30.1444C32.6118 30.1444 33.5711 29.185 33.5711 28.0015H32.1426ZM8.714 22.2873C8.714 21.8928 9.0338 21.573 9.42829 21.573V20.1444C8.24482 20.1444 7.28544 21.1038 7.28544 22.2873H8.714ZM9.42829 28.7158C9.0338 28.7158 8.714 28.396 8.714 28.0015H7.28544C7.28544 29.185 8.24482 30.1444 9.42829 30.1444V28.7158ZM13.8489 15.9004C14.2119 15.1745 14.9539 14.7159 15.7655 14.7159V13.2873C14.4128 13.2873 13.1761 14.0516 12.5712 15.2616L13.8489 15.9004ZM12.8569 33.5729C14.0403 33.5729 14.9997 32.6136 14.9997 31.4301H13.5712C13.5712 31.8246 13.2514 32.1444 12.8569 32.1444V33.5729ZM20.5706 8.01475C20.7429 7.95012 20.9336 7.95451 21.1027 8.02702L21.6655 6.71396C21.1579 6.49644 20.586 6.48325 20.069 6.67714L20.5706 8.01475ZM33.5711 22.2873C33.5711 21.1038 32.6118 20.1444 31.4283 20.1444V21.573C31.8228 21.573 32.1426 21.8928 32.1426 22.2873H33.5711ZM9.85687 31.4301C9.85687 32.6136 10.8163 33.5729 11.9997 33.5729V32.1444C11.6052 32.1444 11.2854 31.8246 11.2854 31.4301H9.85687Z" fill="white"/>
</svg>
