<svg width="40" height="40" viewBox="0 0 40 40" fill="none" xmlns="http://www.w3.org/2000/svg">
<rect width="40" height="40" rx="4" fill="#688F99"/>
<path d="M28.6887 19.6878H24.1886C23.8902 19.6878 23.604 19.8064 23.393 20.0173C23.1821 20.2283 23.0635 20.5145 23.0635 20.8129V29.8131C23.0635 30.1115 23.1821 30.3977 23.393 30.6087C23.604 30.8197 23.8902 30.9382 24.1886 30.9382H30.9388C31.2372 30.9382 31.5233 30.8197 31.7343 30.6087C31.9453 30.3977 32.0638 30.1115 32.0638 29.8131V23.0629M28.6887 19.6878L32.0638 23.0629M28.6887 19.6878V23.0629H32.0638M13.1668 25.8506V28.1255C13.1668 28.9022 12.5372 29.5318 11.7605 29.5318H10.4575C9.68086 29.5318 9.05124 28.9022 9.05124 28.1255V25.8506M13.1668 25.8506H9.05124M13.1668 25.8506H21.0942M32.378 20.391V16.1721H29.4584M11.3571 16.1721H9.05124V19.6878M11.3571 16.1721H29.4584M11.3571 16.1721V14.4763M29.4584 16.1721V14.4763M29.4584 14.4763L27.8737 11.3761C27.3929 10.4356 26.4256 9.84375 25.3693 9.84375H15.403C14.3353 9.84375 13.3598 10.4482 12.8845 11.4042L11.3571 14.4763M29.4584 14.4763L29.6102 14.3902C30.2762 14.0128 31.0286 13.8145 31.7941 13.8145M11.3571 14.4763L10.6978 14.2272C9.97546 13.9543 9.20967 13.8145 8.4375 13.8145M9.05124 25.8506V23.2035M9.05124 19.6878L9.68914 19.7143C10.1562 19.7337 10.5986 19.8442 10.9996 20.0282C12.9996 20.9461 11.2518 23.2035 9.05124 23.2035V23.2035M9.05124 19.6878V23.2035M17.2844 19.6878L17.9695 22.485H20.7139M29.8132 25.8761H25.313M26.4381 23.6259H25.313M29.8132 28.1256H25.313" stroke="white" stroke-width="1.4063" stroke-linecap="round" stroke-linejoin="round"/>
</svg>
