<svg width="40" height="40" viewBox="0 0 40 40" fill="none" xmlns="http://www.w3.org/2000/svg">
<rect width="40" height="39.9998" rx="4" fill="#688F99"/>
<path d="M7.76604 14.9988V14.2846C7.37155 14.2846 7.05175 14.6044 7.05175 14.9988H7.76604ZM31.4623 14.9988H32.1766C32.1766 14.6044 31.8568 14.2846 31.4623 14.2846V14.9988ZM30.748 16.6375C30.748 17.032 31.0678 17.3518 31.4623 17.3518C31.8568 17.3518 32.1766 17.032 32.1766 16.6375H30.748ZM16.8234 18.4003C16.7296 18.0172 16.3429 17.7826 15.9597 17.8765C15.5766 17.9703 15.342 18.357 15.4359 18.7402L16.8234 18.4003ZM16.8256 21.4117L16.1318 21.5816C16.2101 21.9012 16.4965 22.126 16.8256 22.126V21.4117ZM19.6134 22.126C20.0079 22.126 20.3277 21.8062 20.3277 21.4117C20.3277 21.0172 20.0079 20.6974 19.6134 20.6974V22.126ZM25.1902 20.0829V19.3686C24.7957 19.3686 24.4759 19.6884 24.4759 20.0829H25.1902ZM32.8569 22.7719H33.5711C33.5711 22.3774 33.2514 22.0576 32.8569 22.0576V22.7719ZM27.5184 32.8559L27.178 33.4838C27.3864 33.5968 27.6373 33.599 27.8477 33.4897L27.5184 32.8559ZM26.4607 28.7883L26.8574 28.1943L26.4607 28.7883ZM29.891 20.0829H30.6053C30.6053 19.6884 30.2855 19.3686 29.891 19.3686V20.0829ZM8.41407 18.5972L8.38444 19.3108L8.41407 18.5972ZM11.8133 22.1416V22.8558C12.2077 22.8558 12.5275 22.5362 12.5276 22.1418L11.8133 22.1416ZM26.8866 10.127L26.2506 10.4521L26.8866 10.127ZM26.1414 32.1095L26.4818 31.4815L26.1414 32.1095ZM11.66 10.1555L11.0204 9.83745L11.66 10.1555ZM22.4024 22.94V22.2257C22.0079 22.2257 21.6881 22.5455 21.6881 22.94H22.4024ZM28.6507 13.1888L29.0028 13.8102L28.6507 13.1888ZM9.43868 13.0232L9.18625 13.6913L9.43868 13.0232ZM11.2325 24.8306V27.1415H12.6611V24.8306H11.2325ZM10.5182 27.8558H9.1946V29.2844H10.5182V27.8558ZM30.748 14.9988V16.6375H32.1766V14.9988H30.748ZM7.76604 15.7131H28.4965V14.2846H7.76604V15.7131ZM28.4965 15.7131H31.4623V14.2846H28.4965V15.7131ZM29.2108 14.9988V13.2762H27.7822V14.9988H29.2108ZM29.1325 12.951L27.5226 9.80184L26.2506 10.4521L27.8605 13.6013L29.1325 12.951ZM24.3426 7.85603H14.2184V9.2846H24.3426V7.85603ZM11.0204 9.83745L9.4688 12.9582L10.748 13.5942L12.2996 10.4735L11.0204 9.83745ZM9.39411 13.2762V14.9988H10.8227V13.2762H9.39411ZM10.3608 12.608L9.69111 12.355L9.18625 13.6913L9.85596 13.9444L10.3608 12.608ZM8.48032 27.1415V24.8306H7.05175V27.1415H8.48032ZM7.76604 25.5449H18.3381V24.1163H7.76604V25.5449ZM8.48032 18.5703V14.9988H7.05175V18.5703H8.48032ZM7.73641 19.2839L8.38444 19.3108L8.44369 17.8835L7.79567 17.8566L7.73641 19.2839ZM8.48032 24.8306V22.1416H7.05175V24.8306H8.48032ZM8.48032 22.1416V18.5703H7.05175V22.1416H8.48032ZM11.8133 21.4273H7.76604V22.8558H11.8133V21.4273ZM15.4359 18.7402L16.1318 21.5816L17.5193 21.2418L16.8234 18.4003L15.4359 18.7402ZM16.8256 22.126H19.6134V20.6974H16.8256V22.126ZM25.9045 20.1521V20.0829H24.4759V20.1521H25.9045ZM32.5801 23.4862H32.8569V22.0576H32.5801V23.4862ZM32.1426 22.7719V25.7441H33.5711V22.7719H32.1426ZM28.6774 31.4489L27.1891 32.222L27.8477 33.4897L29.3359 32.7167L28.6774 31.4489ZM27.8588 32.2279L26.4818 31.4815L25.801 32.7375L27.178 33.4838L27.8588 32.2279ZM23.1166 25.8298V22.94H21.6881V25.8298H23.1166ZM24.4759 25.0828V26.4122H25.9045V25.0828H24.4759ZM26.0641 29.3824L27.1217 30.0886L27.915 28.9005L26.8574 28.1943L26.0641 29.3824ZM25.1902 20.7971H29.891V19.3686H25.1902V20.7971ZM28.8486 13.8976L29.0028 13.8102L28.2985 12.5673L28.1443 12.6547L28.8486 13.8976ZM24.4759 26.4122C24.4759 27.6054 25.0718 28.7198 26.0641 29.3824L26.8574 28.1943C26.262 27.7967 25.9045 27.1281 25.9045 26.4122H24.4759ZM32.1426 25.7441C32.1426 28.1434 30.8065 30.343 28.6774 31.4489L29.3359 32.7167C31.9382 31.3649 33.5711 28.6765 33.5711 25.7441H32.1426ZM29.1768 20.0829C29.1768 21.9625 30.7005 23.4862 32.5801 23.4862V22.0576C31.4895 22.0576 30.6053 21.1735 30.6053 20.0829H29.1768ZM8.38444 19.3108C9.90189 19.3738 11.0995 20.6226 11.099 22.1413L12.5276 22.1418C12.5283 19.8569 10.7266 17.9783 8.44369 17.8835L8.38444 19.3108ZM27.5226 9.80184C26.9121 8.60755 25.6839 7.85603 24.3426 7.85603V9.2846C25.1474 9.2846 25.8843 9.73551 26.2506 10.4521L27.5226 9.80184ZM26.4818 31.4815C24.4082 30.3576 23.1166 28.1884 23.1166 25.8298H21.6881C21.6881 28.7125 23.2667 31.3637 25.801 32.7375L26.4818 31.4815ZM14.2184 7.85603C12.8627 7.85603 11.6239 8.62356 11.0204 9.83745L12.2996 10.4735C12.6617 9.74512 13.405 9.2846 14.2184 9.2846V7.85603ZM22.4024 23.6543C24.3365 23.6543 25.9045 22.0863 25.9045 20.1521H24.4759C24.4759 21.2973 23.5476 22.2257 22.4024 22.2257V23.6543ZM11.2325 27.1415C11.2325 27.536 10.9127 27.8558 10.5182 27.8558V29.2844C11.7017 29.2844 12.6611 28.325 12.6611 27.1415H11.2325ZM29.0028 13.8102C29.572 13.4877 30.215 13.3182 30.8691 13.3182V11.8896C29.9681 11.8896 29.0824 12.1231 28.2985 12.5673L29.0028 13.8102ZM9.69111 12.355C8.87666 12.0473 8.01322 11.8896 7.14258 11.8896V13.3182C7.84074 13.3182 8.53313 13.4446 9.18625 13.6913L9.69111 12.355ZM9.1946 27.8558C8.80012 27.8558 8.48032 27.536 8.48032 27.1415H7.05175C7.05175 28.325 8.01114 29.2844 9.1946 29.2844V27.8558Z" fill="white"/>
</svg>
