<svg width="40" height="40" viewBox="0 0 40 40" fill="none" xmlns="http://www.w3.org/2000/svg">
<rect width="40" height="40.0002" rx="4" fill="#688F99"/>
<path d="M25.0007 30.716L25.0007 31.4303L25.715 31.4303V30.716H25.0007ZM14.82 18.4314L15.435 18.068L15.428 18.0561L15.4204 18.0444L14.82 18.4314ZM12.7686 20.3913L12.2713 20.9041L12.7649 21.3827L13.262 20.9078L12.7686 20.3913ZM11.1614 18.8329L11.6587 18.3201L11.1614 17.8379L10.6642 18.3201L11.1614 18.8329ZM19.5806 11.2422C19.2615 11.4742 19.191 11.921 19.423 12.24C19.6551 12.559 20.1018 12.6296 20.4208 12.3975L19.5806 11.2422ZM26.8494 7.7222C27.1684 7.49017 27.239 7.04344 27.0069 6.72441C26.7749 6.40537 26.3282 6.33483 26.0091 6.56686L26.8494 7.7222ZM21.17 15.9308C20.8583 16.1726 20.8017 16.6213 21.0435 16.933C21.2853 17.2447 21.734 17.3014 22.0457 17.0596L21.17 15.9308ZM30.0814 10.8258C30.3931 10.584 30.4497 10.1353 30.2079 9.8236C29.9661 9.51191 29.5174 9.45524 29.2057 9.69705L30.0814 10.8258ZM26.0091 17.476C25.6901 17.708 25.6196 18.1547 25.8516 18.4738C26.0836 18.7928 26.5304 18.8633 26.8494 18.6313L26.0091 17.476ZM33.278 13.956C33.597 13.724 33.6675 13.2772 33.4355 12.9582C33.2035 12.6392 32.7568 12.5686 32.4377 12.8006L33.278 13.956ZM19.2864 30.7161L19.2864 30.0018L18.5721 30.0018V30.7161H19.2864ZM13.9939 17.1496L13.3935 17.5365L13.9939 17.1496ZM23.9826 25.4106L23.7774 26.0948L23.9826 25.4106ZM7.14355 31.4303H15.0007V30.0017H7.14355V31.4303ZM24.1879 24.7265L18.0631 22.889L17.6526 24.2573L23.7774 26.0948L24.1879 24.7265ZM17.8622 22.8589L7.14788 22.7939L7.13923 24.2225L17.8535 24.2874L17.8622 22.8589ZM7.14355 17.2095H12.7933V15.7809H7.14355V17.2095ZM13.3935 17.5365C13.6477 17.931 13.9697 18.4305 14.2197 18.8183L15.4204 18.0444C15.1704 17.6565 14.8485 17.1571 14.5943 16.7626L13.3935 17.5365ZM14.2051 18.7947L17.2429 23.9365L18.4728 23.2098L15.435 18.068L14.2051 18.7947ZM14.3266 17.9149L12.2751 19.8748L13.262 20.9078L15.3135 18.9478L14.3266 17.9149ZM13.2658 19.8785L11.6587 18.3201L10.6642 19.3457L12.2713 20.9041L13.2658 19.8785ZM11.1614 18.8329C10.6642 18.3201 10.6642 18.3201 10.6642 18.3201C10.6641 18.3201 10.6641 18.3201 10.6641 18.3201C10.6641 18.3201 10.6641 18.3202 10.6641 18.3202C10.664 18.3202 10.664 18.3202 10.664 18.3203C10.6639 18.3203 10.6636 18.3206 10.6634 18.3208C10.6629 18.3213 10.6623 18.3219 10.6613 18.3228C10.6595 18.3246 10.6567 18.3274 10.653 18.3309C10.6457 18.338 10.6349 18.3485 10.6208 18.3621C10.5928 18.3892 10.5521 18.4287 10.5013 18.478C10.3997 18.5766 10.2576 18.7143 10.096 18.8711C9.77262 19.1846 9.37083 19.5742 9.05702 19.8785L10.0515 20.9041C10.3653 20.5998 10.7671 20.2102 11.0905 19.8967C11.2521 19.7399 11.3942 19.6021 11.4958 19.5036C11.5466 19.4543 11.5873 19.4148 11.6153 19.3877C11.6293 19.3741 11.6402 19.3636 11.6475 19.3565C11.6512 19.3529 11.654 19.3502 11.6558 19.3484C11.6567 19.3475 11.6575 19.3468 11.6579 19.3463C11.6581 19.3462 11.6584 19.3459 11.6585 19.3458C11.6585 19.3458 11.6585 19.3458 11.6586 19.3458C11.6586 19.3457 11.6586 19.3457 11.6586 19.3457C11.6586 19.3457 11.6586 19.3457 11.6586 19.3457C11.6587 19.3457 11.6587 19.3457 11.1614 18.8329ZM20.4208 12.3975L26.8494 7.7222L26.0091 6.56686L19.5806 11.2422L20.4208 12.3975ZM22.0457 17.0596C23.6147 15.8424 25.6237 14.2839 27.2403 13.0298C28.0487 12.4027 28.7589 11.8517 29.2671 11.4575C29.5212 11.2604 29.7248 11.1024 29.8648 10.9938C29.9348 10.9395 29.989 10.8975 30.0256 10.8691C30.0439 10.8548 30.0579 10.844 30.0672 10.8368C30.0719 10.8331 30.0754 10.8304 30.0778 10.8286C30.079 10.8276 30.0799 10.827 30.0805 10.8265C30.0808 10.8263 30.081 10.8261 30.0812 10.826C30.0812 10.8259 30.0813 10.8259 30.0813 10.8258C30.0814 10.8258 30.0814 10.8258 29.6436 10.2614C29.2057 9.69705 29.2057 9.69706 29.2057 9.69709C29.2056 9.69712 29.2056 9.69716 29.2055 9.69722C29.2054 9.69727 29.2051 9.69757 29.2048 9.69774C29.2042 9.6982 29.2034 9.69889 29.2022 9.69981C29.1998 9.70165 29.1963 9.70438 29.1916 9.70802C29.1822 9.71529 29.1683 9.72609 29.15 9.74031C29.1133 9.76873 29.0592 9.81073 28.9892 9.86505C28.8491 9.9737 28.6455 10.1316 28.3915 10.3287C27.8833 10.723 27.173 11.274 26.3647 11.901C24.748 13.1552 22.7391 14.7136 21.17 15.9308L22.0457 17.0596ZM26.8494 18.6313C28.1046 17.7184 29.7118 16.5496 31.0051 15.609C31.6518 15.1387 32.22 14.7254 32.6265 14.4297C32.8299 14.2819 32.9926 14.1635 33.1047 14.082C33.1606 14.0413 33.2042 14.0097 33.2333 13.9884C33.248 13.9777 33.2591 13.9697 33.2666 13.9642C33.2703 13.9616 33.2733 13.9594 33.2751 13.9581C33.2756 13.9577 33.2772 13.9565 33.2772 13.9565C33.2774 13.9564 33.2775 13.9563 33.2776 13.9563C33.2777 13.9562 33.2777 13.9562 33.2778 13.9561C33.2778 13.9561 33.2779 13.956 33.2779 13.956C33.2779 13.956 33.278 13.956 32.8578 13.3783C32.4377 12.8006 32.4377 12.8007 32.4377 12.8007C32.4376 12.8007 32.4376 12.8007 32.4375 12.8008C32.4368 12.8013 32.4379 12.8005 32.437 12.8012C32.4365 12.8015 32.4358 12.802 32.4349 12.8027C32.433 12.8041 32.4301 12.8062 32.4264 12.8089C32.4186 12.8145 32.408 12.8222 32.3931 12.8331C32.3637 12.8545 32.3206 12.8858 32.2645 12.9266C32.1524 13.0081 31.9896 13.1266 31.7863 13.2744C31.3797 13.5701 30.8115 13.9833 30.1649 14.4536C28.8715 15.3942 27.2644 16.5631 26.0091 17.476L26.8494 18.6313ZM25.715 30.716V26.779H24.2864V30.716H25.715ZM19.2864 31.4304L25.0007 31.4303L25.0007 30.0017L19.2864 30.0018L19.2864 31.4304ZM17.1436 33.5733C18.7215 33.5733 20.0007 32.2941 20.0007 30.7161H18.5721C18.5721 31.5051 17.9325 32.1447 17.1436 32.1447V33.5733ZM12.7933 17.2095C13.0362 17.2095 13.2621 17.3326 13.3935 17.5365L14.5943 16.7626C14.1996 16.1503 13.5213 15.7809 12.7933 15.7809V17.2095ZM14.2864 30.716C14.2864 32.2939 15.5656 33.5733 17.1436 33.5733V32.1447C16.3546 32.1447 15.715 31.505 15.715 30.716H14.2864ZM23.7774 26.0948C24.0795 26.1854 24.2864 26.4635 24.2864 26.779H25.715C25.715 25.8327 25.0943 24.9984 24.1879 24.7265L23.7774 26.0948ZM17.1435 29.2875C17.9325 29.2875 18.5721 29.9271 18.5721 30.7161H20.0007C20.0007 29.1381 18.7215 27.8589 17.1435 27.8589V29.2875ZM15.715 30.716C15.715 29.9271 16.3546 29.2875 17.1435 29.2875V27.8589C15.5656 27.8589 14.2864 29.1381 14.2864 30.716H15.715Z" fill="white"/>
</svg>
