<svg width="40" height="40" viewBox="0 0 40 40" fill="none" xmlns="http://www.w3.org/2000/svg">
<rect width="40" height="39.9998" rx="4" fill="#688F99"/>
<path d="M7.14258 32.8587V30.0015L15.2242 28.573M15.2242 28.573L15.9589 27.1444M15.2242 28.573L16.6936 32.8587L23.3058 27.1444M15.9589 27.1444V24.2873M15.9589 27.1444L22.5711 32.8587L24.0405 28.573M15.9589 24.2873L16.9299 24.9167C17.7347 25.4383 18.6733 25.7158 19.6324 25.7158V25.7158C20.5914 25.7158 21.53 25.4383 22.3348 24.9167L23.3058 24.2873M15.9589 24.2873L14.6293 21.0556C14.5447 20.85 14.3444 20.7159 14.1222 20.7159V20.7159C13.8999 20.7159 13.6996 20.5817 13.6151 20.3762L12.2854 17.1445M23.3058 24.2873V27.1444M23.3058 24.2873L24.6355 21.0556C24.72 20.85 24.9203 20.7159 25.1426 20.7159V20.7159C25.3648 20.7159 25.5651 20.5817 25.6497 20.3762L26.9793 17.1445M23.3058 27.1444L24.0405 28.573M24.0405 28.573L32.8569 30.0015V32.8587M12.2854 17.1445V14.2873M12.2854 17.1445L15.0422 16.6084L19.6324 15.7159L26.9793 17.1445M12.2854 14.2873L19.6324 12.8588M12.2854 14.2873L10.816 11.4302L12.5425 10.3112C14.3226 9.15745 16.2463 8.24187 18.2643 7.58788L19.6324 7.14453L20.2912 7.32755C23.252 8.14996 26.0232 9.5437 28.4487 11.4302V11.4302L26.9793 14.2873M26.9793 17.1445V14.2873M26.9793 14.2873L19.6324 12.8588M19.6324 12.8588L18.163 11.4302V9.28738H21.1018V11.4302L19.6324 12.8588Z" stroke="white" stroke-width="1.42857" stroke-linejoin="round"/>
</svg>
