<svg width="40" height="40" viewBox="0 0 40 40" fill="none" xmlns="http://www.w3.org/2000/svg">
<rect width="40" height="40" rx="4" fill="#688F99"/>
<path d="M24.2872 9.91819C24.6756 9.91819 24.9904 9.60338 24.9904 9.21504C24.9904 8.8267 24.6756 8.51189 24.2872 8.51189V9.91819ZM30.7936 19.8147C30.7936 19.4264 30.4788 19.1116 30.0905 19.1116C29.7022 19.1116 29.3873 19.4264 29.3873 19.8147H30.7936ZM30.7047 9.21484C30.7047 8.82651 30.3899 8.5117 30.0015 8.5117C29.6132 8.5117 29.2984 8.82651 29.2984 9.21484H30.7047ZM30.0015 15.7128L29.5043 16.2099C29.6362 16.3418 29.815 16.4159 30.0015 16.4159C30.188 16.4159 30.3669 16.3418 30.4988 16.2099L30.0015 15.7128ZM33.3559 13.3525C33.6305 13.0779 33.6305 12.6327 33.3559 12.3581C33.0812 12.0835 32.636 12.0835 32.3615 12.3582L33.3559 13.3525ZM27.6416 12.3582C27.367 12.0835 26.9218 12.0835 26.6472 12.3581C26.3726 12.6327 26.3726 13.0779 26.6472 13.3525L27.6416 12.3582ZM19.2761 12.8553C19.2761 12.467 18.9613 12.1522 18.573 12.1522C18.1846 12.1522 17.8698 12.467 17.8698 12.8553H19.2761ZM22.8587 16.4156C23.247 16.4156 23.5618 16.1008 23.5618 15.7125C23.5618 15.3241 23.247 15.0093 22.8587 15.0093V16.4156ZM14.2872 15.7125V15.0093C13.8989 15.0093 13.5841 15.3241 13.5841 15.7125H14.2872ZM14.2872 19.9982H13.5841C13.5841 20.3865 13.8989 20.7013 14.2872 20.7013V19.9982ZM22.8587 19.9982H23.5618C23.5618 19.6098 23.247 19.295 22.8587 19.295V19.9982ZM22.8587 24.2839V24.987C23.247 24.987 23.5618 24.6722 23.5618 24.2839H22.8587ZM14.2872 23.5808C13.8989 23.5808 13.5841 23.8956 13.5841 24.2839C13.5841 24.6722 13.8989 24.987 14.2872 24.987V23.5808ZM17.8698 27.8553C17.8698 28.2437 18.1846 28.5585 18.573 28.5585C18.9613 28.5585 19.2761 28.2437 19.2761 27.8553H17.8698ZM7.86886 19.9982C7.86886 20.3865 8.18367 20.7013 8.57201 20.7013C8.96035 20.7013 9.27516 20.3865 9.27516 19.9982H7.86886ZM14.2872 30.7239C13.8989 30.7239 13.5841 31.0387 13.5841 31.4271C13.5841 31.8154 13.8989 32.1302 14.2872 32.1302V30.7239ZM7.86886 31.4271C7.86886 31.8154 8.18367 32.1302 8.57201 32.1302C8.96035 32.1302 9.27516 31.8154 9.27516 31.4271H7.86886ZM8.57201 24.053L9.08805 23.5754C8.95494 23.4316 8.76785 23.3498 8.57189 23.3499C8.37593 23.3499 8.18887 23.4317 8.05581 23.5756L8.57201 24.053ZM10.9141 27.6187C11.1778 27.9037 11.6227 27.9209 11.9077 27.6571C12.1927 27.3933 12.2099 26.9484 11.9461 26.6634L10.9141 27.6187ZM5.19962 26.6636C4.93593 26.9487 4.95329 27.3936 5.23837 27.6572C5.52346 27.9209 5.96833 27.9036 6.23202 27.6185L5.19962 26.6636ZM24.2872 8.51189H11.3846V9.91819H24.2872V8.51189ZM30.7936 28.6145V19.8147H29.3873V28.6145H30.7936ZM29.2984 9.21484V15.7128H30.7047V9.21484H29.2984ZM30.4988 16.2099L33.3559 13.3525L32.3615 12.3582L29.5043 15.2156L30.4988 16.2099ZM30.4988 15.2156L27.6416 12.3582L26.6472 13.3525L29.5043 16.2099L30.4988 15.2156ZM17.8698 12.8553V15.7125H19.2761V12.8553H17.8698ZM18.573 16.4156H22.8587V15.0093H18.573V16.4156ZM13.5841 15.7125V19.9982H14.9904V15.7125H13.5841ZM14.2872 20.7013H22.8587V19.295H14.2872V20.7013ZM22.1555 19.9982V24.2839H23.5618V19.9982H22.1555ZM22.8587 23.5808H18.573V24.987H22.8587V23.5808ZM18.573 23.5808H14.2872V24.987H18.573V23.5808ZM17.8698 24.2839V27.8553H19.2761V24.2839H17.8698ZM7.86886 12.0276V19.9982H9.27516V12.0276H7.86886ZM14.2872 32.1302H27.2779V30.7239H14.2872V32.1302ZM9.27516 31.4271V24.053H7.86886V31.4271H9.27516ZM8.05597 24.5306L10.9141 27.6187L11.9461 26.6634L9.08805 23.5754L8.05597 24.5306ZM8.05581 23.5756L5.19962 26.6636L6.23202 27.6185L9.08821 24.5305L8.05581 23.5756ZM18.573 15.0093H14.2872V16.4156H18.573V15.0093ZM29.3873 28.6145C29.3873 29.7795 28.4429 30.7239 27.2779 30.7239V32.1302C29.2196 32.1302 30.7936 30.5562 30.7936 28.6145H29.3873ZM11.3846 8.51189C9.44291 8.51189 7.86886 10.0859 7.86886 12.0276H9.27516C9.27516 10.8626 10.2196 9.91819 11.3846 9.91819V8.51189Z" fill="white"/>
</svg>
