<svg width="40" height="40" viewBox="0 0 40 40" fill="none" xmlns="http://www.w3.org/2000/svg">
<rect width="40" height="40" rx="4" fill="#688F99"/>
<path d="M33.0476 16.1722H33.7508C33.7508 15.7838 33.436 15.469 33.0476 15.469V16.1722ZM33.0476 24.6099V25.3131C33.436 25.3131 33.7508 24.9983 33.7508 24.6099H33.0476ZM20.391 16.1722V15.469C20.0026 15.469 19.6878 15.7838 19.6878 16.1722H20.391ZM20.391 24.6099H19.6878C19.6878 24.9983 20.0026 25.3131 20.391 25.3131V24.6099ZM23.2036 24.6099H23.9067V23.9068H23.2036V24.6099ZM23.2036 27.4225H22.5004C22.5004 27.6928 22.6553 27.9392 22.899 28.0563C23.1426 28.1734 23.4317 28.1405 23.6428 27.9716L23.2036 27.4225ZM26.7193 24.6099V23.9068H26.4726L26.28 24.0609L26.7193 24.6099ZM23.9067 18.2816C23.5184 18.2816 23.2036 18.5964 23.2036 18.9848C23.2036 19.3731 23.5184 19.6879 23.9067 19.6879V18.2816ZM29.5319 19.6879C29.9202 19.6879 30.235 19.3731 30.235 18.9848C30.235 18.5964 29.9202 18.2816 29.5319 18.2816V19.6879ZM23.9067 21.0942C23.5184 21.0942 23.2036 21.409 23.2036 21.7974C23.2036 22.1857 23.5184 22.5005 23.9067 22.5005V21.0942ZM29.5319 22.5005C29.9202 22.5005 30.235 22.1857 30.235 21.7974C30.235 21.409 29.9202 21.0942 29.5319 21.0942V22.5005ZM13.3595 23.9068C12.9712 23.9068 12.6563 24.2216 12.6563 24.6099C12.6563 24.9983 12.9712 25.3131 13.3595 25.3131V23.9068ZM16.8752 25.3131C17.2636 25.3131 17.5784 24.9983 17.5784 24.6099C17.5784 24.2216 17.2636 23.9068 16.8752 23.9068V25.3131ZM13.3595 27.4225C12.9712 27.4225 12.6563 27.7373 12.6563 28.1257C12.6563 28.514 12.9712 28.8288 13.3595 28.8288V27.4225ZM18.9847 28.8288C19.373 28.8288 19.6878 28.514 19.6878 28.1257C19.6878 27.7373 19.373 27.4225 18.9847 27.4225V28.8288ZM13.3595 20.3911C12.9712 20.3911 12.6563 20.7059 12.6563 21.0942C12.6563 21.4825 12.9712 21.7974 13.3595 21.7974V20.3911ZM15.4689 21.7974C15.8573 21.7974 16.1721 21.4825 16.1721 21.0942C16.1721 20.7059 15.8573 20.3911 15.4689 20.3911V21.7974ZM28.1256 8.43755V16.1722H29.5319V8.43755H28.1256ZM28.8287 16.8753H33.0476V15.469H28.8287V16.8753ZM32.3445 16.1722V24.6099H33.7508V16.1722H32.3445ZM33.0476 23.9068H28.8287V25.3131H33.0476V23.9068ZM28.1256 24.6099V30.2351H29.5319V24.6099H28.1256ZM27.4224 30.9383H11.25V32.3446H27.4224V30.9383ZM10.5469 30.2351V8.43755H9.1406V30.2351H10.5469ZM11.25 7.7344H27.4224V6.3281H11.25V7.7344ZM28.8287 15.469H20.391V16.8753H28.8287V15.469ZM19.6878 16.1722V24.6099H21.0941V16.1722H19.6878ZM20.391 25.3131H23.2036V23.9068H20.391V25.3131ZM22.5004 24.6099V27.4225H23.9067V24.6099H22.5004ZM23.6428 27.9716L27.1586 25.159L26.28 24.0609L22.7643 26.8735L23.6428 27.9716ZM26.7193 25.3131H28.8287V23.9068H26.7193V25.3131ZM23.9067 19.6879H29.5319V18.2816H23.9067V19.6879ZM23.9067 22.5005H29.5319V21.0942H23.9067V22.5005ZM13.3595 28.8288H18.9847V27.4225H13.3595V28.8288ZM13.3595 25.3131H16.8752V23.9068H13.3595V25.3131ZM13.3595 21.7974H15.4689V20.3911H13.3595V21.7974ZM10.5469 8.43755C10.5469 8.04921 10.8617 7.7344 11.25 7.7344V6.3281C10.085 6.3281 9.1406 7.27253 9.1406 8.43755H10.5469ZM11.25 30.9383C10.8617 30.9383 10.5469 30.6235 10.5469 30.2351H9.1406C9.1406 31.4001 10.085 32.3446 11.25 32.3446V30.9383ZM28.1256 30.2351C28.1256 30.6235 27.8108 30.9383 27.4224 30.9383V32.3446C28.5875 32.3446 29.5319 31.4001 29.5319 30.2351H28.1256ZM29.5319 8.43755C29.5319 7.27253 28.5875 6.3281 27.4224 6.3281V7.7344C27.8108 7.7344 28.1256 8.04921 28.1256 8.43755H29.5319Z" fill="white"/>
</svg>
