<svg width="40" height="40" viewBox="0 0 40 40" fill="none" xmlns="http://www.w3.org/2000/svg">
<rect width="40" height="40" rx="4" fill="#688F99"/>
<path d="M16.8753 31.6414C16.487 31.6414 16.1722 31.9562 16.1722 32.3446C16.1722 32.7329 16.487 33.0477 16.8753 33.0477V31.6414ZM29.532 13.3596H30.2351V13.0683L30.0292 12.8624L29.532 13.3596ZM23.2037 7.03125L23.7009 6.53405L23.4949 6.3281H23.2037V7.03125ZM13.3596 26.0162H14.0627V25.3131H13.3596V26.0162ZM10.547 26.0162V25.3131H9.84384V26.0162H10.547ZM16.8753 28.1257C16.487 28.1257 16.1722 28.4405 16.1722 28.8288C16.1722 29.2172 16.487 29.532 16.8753 29.532V28.1257ZM25.3131 29.532C25.7014 29.532 26.0162 29.2172 26.0162 28.8288C26.0162 28.4405 25.7014 28.1257 25.3131 28.1257V29.532ZM18.9848 24.6099C18.5964 24.6099 18.2816 24.9248 18.2816 25.3131C18.2816 25.7014 18.5964 26.0162 18.9848 26.0162V24.6099ZM25.3131 26.0162C25.7014 26.0162 26.0162 25.7014 26.0162 25.3131C26.0162 24.9248 25.7014 24.6099 25.3131 24.6099V26.0162ZM21.0942 21.0942C20.7059 21.0942 20.3911 21.409 20.3911 21.7974C20.3911 22.1857 20.7059 22.5005 21.0942 22.5005V21.0942ZM25.3131 22.5005C25.7014 22.5005 26.0162 22.1857 26.0162 21.7974C26.0162 21.409 25.7014 21.0942 25.3131 21.0942V22.5005ZM21.0942 17.5785C20.7059 17.5785 20.3911 17.8933 20.3911 18.2816C20.3911 18.67 20.7059 18.9848 21.0942 18.9848V17.5785ZM25.3131 18.9848C25.7014 18.9848 26.0162 18.67 26.0162 18.2816C26.0162 17.8933 25.7014 17.5785 25.3131 17.5785V18.9848ZM10.341 17.0813C10.0664 16.8067 9.62124 16.8067 9.34664 17.0813C9.07204 17.3559 9.07204 17.8011 9.34664 18.0757L10.341 17.0813ZM11.2501 18.9848L10.7529 19.482C11.0275 19.7566 11.4727 19.7566 11.7473 19.482L11.2501 18.9848ZM14.5599 16.6694C14.8345 16.3948 14.8345 15.9496 14.5599 15.675C14.2853 15.4004 13.8401 15.4004 13.5655 15.675L14.5599 16.6694ZM16.8753 33.0477H28.1257V31.6414H16.8753V33.0477ZM30.2351 30.9383V13.3596H28.8288V30.9383H30.2351ZM29.532 12.6564H24.6099V14.0627H29.532V12.6564ZM23.9068 11.9533V7.03125H22.5005V11.9533H23.9068ZM22.7065 7.52845L29.0348 13.8568L30.0292 12.8624L23.7009 6.53405L22.7065 7.52845ZM23.2037 6.3281H13.3596V7.7344H23.2037V6.3281ZM11.2501 8.43755V9.84384H12.6564V8.43755H11.2501ZM14.0627 30.9383V26.0162H12.6564V30.9383H14.0627ZM9.84384 26.0162V30.9383H11.2501V26.0162H9.84384ZM13.3596 25.3131H12.0314V26.7194H13.3596V25.3131ZM12.0314 25.3131H10.547V26.7194H12.0314V25.3131ZM12.7346 26.0162V22.5005H11.3283V26.0162H12.7346ZM12.0314 21.7974H11.9533V23.2037H12.0314V21.7974ZM16.8753 29.532H25.3131V28.1257H16.8753V29.532ZM18.9848 26.0162H25.3131V24.6099H18.9848V26.0162ZM21.0942 22.5005H25.3131V21.0942H21.0942V22.5005ZM21.0942 18.9848H25.3131V17.5785H21.0942V18.9848ZM9.34664 18.0757L10.7529 19.482L11.7473 18.4876L10.341 17.0813L9.34664 18.0757ZM11.7473 19.482L14.5599 16.6694L13.5655 15.675L10.7529 18.4876L11.7473 19.482ZM11.9533 13.3596C14.276 13.3596 16.1722 15.2805 16.1722 17.6178H17.5785C17.5785 14.5184 15.0673 11.9533 11.9533 11.9533V13.3596ZM11.9533 21.7974C9.62326 21.7974 7.7344 19.9085 7.7344 17.5785H6.3281C6.3281 20.6852 8.84658 23.2037 11.9533 23.2037V21.7974ZM11.9533 31.6414C11.5649 31.6414 11.2501 31.3266 11.2501 30.9383H9.84384C9.84384 32.1033 10.7883 33.0477 11.9533 33.0477V31.6414ZM16.1722 17.6178C16.1722 19.912 14.311 21.7974 12.0314 21.7974V23.2037C15.1022 23.2037 17.5785 20.6741 17.5785 17.6178H16.1722ZM13.3596 6.3281C12.1946 6.3281 11.2501 7.27253 11.2501 8.43755H12.6564C12.6564 8.04921 12.9712 7.7344 13.3596 7.7344V6.3281ZM11.9533 33.0477C13.1183 33.0477 14.0627 32.1033 14.0627 30.9383H12.6564C12.6564 31.3266 12.3416 31.6414 11.9533 31.6414V33.0477ZM7.7344 17.5785C7.7344 15.2484 9.62326 13.3596 11.9533 13.3596V11.9533C8.84658 11.9533 6.3281 14.4718 6.3281 17.5785H7.7344ZM24.6099 12.6564C24.2216 12.6564 23.9068 12.3416 23.9068 11.9533H22.5005C22.5005 13.1183 23.4449 14.0627 24.6099 14.0627V12.6564ZM28.1257 33.0477C29.2907 33.0477 30.2351 32.1033 30.2351 30.9383H28.8288C28.8288 31.3266 28.514 31.6414 28.1257 31.6414V33.0477Z" fill="white"/>
</svg>
