<svg width="40" height="40" viewBox="0 0 40 40" fill="none" xmlns="http://www.w3.org/2000/svg">
<rect width="40" height="40.0002" rx="4" fill="#688F99"/>
<path d="M11.964 22.8588C12.4139 22.8588 12.8454 23.0375 13.1636 23.3557C13.4817 23.6738 13.6604 24.1053 13.6604 24.5553C13.6604 25.0052 13.4817 25.4367 13.1636 25.7548C12.8454 26.073 12.4139 26.2517 11.964 26.2517C11.5141 26.2517 11.0826 26.073 10.7645 25.7548C10.4463 25.4367 10.2676 25.0052 10.2676 24.5553C10.2676 24.1053 10.4463 23.6738 10.7645 23.3557C11.0826 23.0375 11.5141 22.8588 11.964 22.8588ZM11.964 28.8856C13.2092 28.8856 14.3006 29.1393 15.0542 29.5161C15.8504 29.9142 16.0711 30.3323 16.0711 30.5821V31.4303C16.0711 31.8248 15.7514 32.1446 15.3569 32.1446H11.964H8.57115C8.17666 32.1446 7.85687 31.8248 7.85687 31.4303V30.5821C7.85687 30.3323 8.0776 29.9142 8.87379 29.5161C9.62745 29.1393 10.7188 28.8856 11.964 28.8856Z" stroke="white" stroke-width="1.42858"/>
<path d="M28.0353 22.8588C28.4852 22.8588 28.9167 23.0375 29.2348 23.3557C29.553 23.6738 29.7317 24.1053 29.7317 24.5553C29.7317 25.0052 29.553 25.4367 29.2348 25.7548C28.9167 26.073 28.4852 26.2517 28.0353 26.2517C27.5854 26.2517 27.1539 26.073 26.8357 25.7548C26.5176 25.4367 26.3389 25.0052 26.3389 24.5553C26.3389 24.1053 26.5176 23.6738 26.8357 23.3557C27.1539 23.0375 27.5854 22.8588 28.0353 22.8588ZM28.0353 28.8856C29.2805 28.8856 30.3719 29.1393 31.1255 29.5161C31.9217 29.9142 32.1424 30.3323 32.1424 30.5821V31.4303C32.1424 31.8248 31.8226 32.1446 31.4281 32.1446H28.0353H24.6424C24.248 32.1446 23.9282 31.8248 23.9282 31.4303V30.5821C23.9282 30.3323 24.1489 29.9142 24.9451 29.5161C25.6987 29.1393 26.7901 28.8856 28.0353 28.8856Z" stroke="white" stroke-width="1.42858"/>
<path d="M20.5353 7.85882C20.9852 7.85882 21.4167 8.03755 21.7348 8.35569C22.053 8.67384 22.2317 9.10533 22.2317 9.55526C22.2317 10.0052 22.053 10.4367 21.7348 10.7548C21.4167 11.073 20.9852 11.2517 20.5353 11.2517C20.0854 11.2517 19.6539 11.073 19.3357 10.7548C19.0176 10.4367 18.8389 10.0052 18.8389 9.55526C18.8389 9.10533 19.0176 8.67384 19.3357 8.35569C19.6539 8.03755 20.0854 7.85882 20.5353 7.85882ZM20.5353 13.8856C21.7805 13.8856 22.8719 14.1393 23.6255 14.5161C24.4217 14.9142 24.6424 15.3323 24.6424 15.5821V16.4303C24.6424 16.8248 24.3226 17.1446 23.9281 17.1446H20.5353H17.1424C16.748 17.1446 16.4282 16.8248 16.4282 16.4303V15.5821C16.4282 15.3323 16.6489 14.9142 17.4451 14.5161C18.1987 14.1393 19.2901 13.8856 20.5353 13.8856Z" stroke="white" stroke-width="1.42858"/>
<line x1="0.714288" y1="-0.714288" x2="4.64287" y2="-0.714288" transform="matrix(0.843584 0.536998 -0.536993 0.843587 19.999 24.2891)" stroke="white" stroke-width="1.42858" stroke-linecap="round"/>
<line x1="0.714288" y1="-0.714288" x2="4.64287" y2="-0.714288" transform="matrix(-0.843584 0.536998 0.536993 0.843587 21.3057 24.2891)" stroke="white" stroke-width="1.42858" stroke-linecap="round"/>
<line x1="20.7133" y1="19.644" x2="20.7133" y2="23.5726" stroke="white" stroke-width="1.42858" stroke-linecap="round"/>
</svg>
