<svg width="24" height="25" viewBox="0 0 24 25" fill="none" xmlns="http://www.w3.org/2000/svg">
<path d="M20 12.9711V7.97059M20 7.97059H13.2338V1.5M20 7.97059L13.2338 1.5M13.2338 1.5H5C3.89543 1.5 3 2.39543 3 3.5V21.5C3 22.6046 3.89543 23.5 5 23.5H10.3525M6.35254 15.5H12.6958M6.35254 11.5H14.9794" stroke="white" stroke-width="1.5" stroke-linecap="round" stroke-linejoin="round"/>
<path d="M17.1064 16.0232L20.4292 17.5L16.8525 19.0896L13.2759 17.5L16.5987 16.0232C16.7603 15.9514 16.9448 15.9514 17.1064 16.0232ZM12.7275 18.077L16.4775 19.7437V23.923L13.0987 22.4213C12.873 22.3209 12.7275 22.0971 12.7275 21.8501V18.077ZM20.6064 22.4213L17.2275 23.923V19.7437L20.9775 18.077V21.8501C20.9775 22.0971 20.8321 22.3209 20.6064 22.4213Z" stroke="white" stroke-width="0.75"/>
</svg>
