<svg width="51" height="52" viewBox="0 0 51 50" fill="none" xmlns="http://www.w3.org/2000/svg">
<path d="M42.5 25.4385V14.8125M42.5 14.8125H28.1219V1.0625M42.5 14.8125L28.1219 1.0625M28.1219 1.0625H10.625C8.27779 1.0625 6.375 2.96529 6.375 5.3125V43.5625C6.375 45.9097 8.27779 47.8125 10.625 47.8125H21.9991M13.4991 30.8125H26.9786M13.4991 22.3125H31.8312" stroke="white" stroke-width="2" stroke-linecap="round" stroke-linejoin="round"/>
<path d="M36.4715 31.653L44.1429 35.0625L35.8115 38.7653L27.4801 35.0625L35.1515 31.653C35.5717 31.4662 36.0513 31.4662 36.4715 31.653ZM26.749 35.8319L35.3115 39.6374V49.1681L27.714 45.7915C27.1272 45.5306 26.749 44.9487 26.749 44.3065V35.8319ZM43.909 45.7915L36.3115 49.1681V39.6374L44.874 35.8319V44.3065C44.874 44.9487 44.4958 45.5306 43.909 45.7915Z" stroke="white"/>
</svg>
