<svg width="25" height="25" viewBox="0 0 25 25" fill="none" xmlns="http://www.w3.org/2000/svg">
<g clip-path="url(#clip0_13682_26915)">
<path d="M18.998 11V7M18.998 7H11.998V1M18.998 7L11.998 1M11.998 1H4.0293C2.92473 1 2.0293 1.89543 2.0293 3V21C2.0293 22.1046 2.92473 23 4.0293 23H7.85283M4.77124 7H8.99805M4.77124 10.2353H13.5275M14.498 16V18H16.498M19.498 18V18C19.498 20.7614 17.2595 23 14.498 23V23C11.7366 23 9.49805 20.7614 9.49805 18V18C9.49805 15.2386 11.7366 13 14.498 13V13C17.2595 13 19.498 15.2386 19.498 18Z" stroke="white" stroke-width="1.5" stroke-linecap="round" stroke-linejoin="round"/>
</g>
<defs>
<clipPath id="clip0_13682_26915">
<rect width="24" height="24" fill="white" transform="translate(0.323242 0.5)"/>
</clipPath>
</defs>
</svg>
