<svg width="24" height="24" viewBox="0 0 24 24" fill="none" xmlns="http://www.w3.org/2000/svg">
<path d="M12 6C11.0054 6 10.0516 6.39509 9.34835 7.09835C8.64509 7.80161 8.25 8.75544 8.25 9.75C8.25 10.7446 8.64509 11.6984 9.34835 12.4017C10.0516 13.1049 11.0054 13.5 12 13.5C12.9946 13.5 13.9484 13.1049 14.6517 12.4017C15.3549 11.6984 15.75 10.7446 15.75 9.75C15.75 8.75544 15.3549 7.80161 14.6517 7.09835C13.9484 6.39509 12.9946 6 12 6ZM12 12C11.4033 12 10.831 11.7629 10.409 11.341C9.98705 10.919 9.75 10.3467 9.75 9.75C9.75 9.15326 9.98705 8.58097 10.409 8.15901C10.831 7.73705 11.4033 7.5 12 7.5C12.5967 7.5 13.169 7.73705 13.591 8.15901C14.0129 8.58097 14.25 9.15326 14.25 9.75C14.25 10.3467 14.0129 10.919 13.591 11.341C13.169 11.7629 12.5967 12 12 12Z" fill="#688F99"/>
<path d="M12 1.5C9.9233 1.5 7.89323 2.11581 6.16652 3.26957C4.4398 4.42332 3.09399 6.0632 2.29927 7.98182C1.50455 9.90045 1.29661 12.0116 1.70176 14.0484C2.1069 16.0852 3.10693 17.9562 4.57538 19.4246C6.04384 20.8931 7.91476 21.8931 9.95156 22.2982C11.9884 22.7034 14.0996 22.4955 16.0182 21.7007C17.9368 20.906 19.5767 19.5602 20.7304 17.8335C21.8842 16.1068 22.5 14.0767 22.5 12C22.4968 9.2162 21.3896 6.54733 19.4211 4.57889C17.4527 2.61044 14.7838 1.50318 12 1.5ZM7.5 19.782V18.75C7.5008 18.1535 7.73811 17.5817 8.15989 17.1599C8.58168 16.7381 9.15351 16.5008 9.75 16.5H14.25C14.8465 16.5008 15.4183 16.7381 15.8401 17.1599C16.2619 17.5817 16.4992 18.1535 16.5 18.75V19.782C15.1344 20.5794 13.5814 20.9997 12 20.9997C10.4186 20.9997 8.86562 20.5794 7.5 19.782ZM17.994 18.694C17.9791 17.7103 17.5782 16.7718 16.8779 16.0809C16.1776 15.3899 15.2338 15.0017 14.25 15H9.75C8.76619 15.0017 7.82243 15.3899 7.1221 16.0809C6.42178 16.7718 6.02095 17.7103 6.006 18.694C4.64583 17.4796 3.6866 15.8807 3.25534 14.109C2.82409 12.3373 2.94115 10.4765 3.59102 8.77279C4.24089 7.06912 5.39292 5.60303 6.89455 4.56866C8.39619 3.53429 10.1766 2.98043 12 2.98043C13.8234 2.98043 15.6038 3.53429 17.1055 4.56866C18.6071 5.60303 19.7591 7.06912 20.409 8.77279C21.0589 10.4765 21.1759 12.3373 20.7447 14.109C20.3134 15.8807 19.3542 17.4796 17.994 18.694Z" fill="#688F99"/>
</svg>
