<svg width="31" height="30" viewBox="0 0 31 30" fill="none" xmlns="http://www.w3.org/2000/svg">
<rect x="0.595215" width="30" height="30" rx="2.81259" fill="#FF9B6B"/>
<path d="M9.1665 23.5715H15.5951M22.0236 23.5715H15.5951M15.5951 23.5715V19.2858M15.5951 19.2858V19.2858C19.1455 19.2858 22.0236 16.4076 22.0236 12.8572V11.7322M15.5951 19.2858V19.2858C12.0447 19.2858 9.1665 16.4076 9.1665 12.8572V11.7322M15.6486 16.0715V16.0715C17.0984 16.0715 18.2736 14.8962 18.2736 13.4465V7.98218C18.2736 6.53243 17.0984 5.35718 15.6486 5.35718V5.35718C14.1989 5.35718 13.0236 6.53243 13.0236 7.98218V13.4465C13.0236 14.8962 14.1989 16.0715 15.6486 16.0715Z" stroke="white" stroke-width="1.4063" stroke-linecap="round"/>
</svg>
