<svg width="70" height="70" viewBox="0 0 70 70" fill="none" xmlns="http://www.w3.org/2000/svg">
<g filter="url(#filter0_d_864_5538)">
<circle cx="34.7676" cy="34.8359" r="22" fill="white"/>
</g>
<path d="M23.5511 27.4258C23.1877 27.5621 23.0035 27.9672 23.1398 28.3306C23.2761 28.6941 23.6812 28.8782 24.0446 28.7419L23.5511 27.4258ZM44.6045 28.7298C44.9612 28.8827 45.3744 28.7175 45.5273 28.3607C45.6802 28.004 45.5149 27.5908 45.1581 27.4379L44.6045 28.7298ZM28.0145 37.9228C27.6264 37.9228 27.3118 38.2375 27.3118 38.6256C27.3118 39.0137 27.6264 39.3284 28.0145 39.3284V37.9228ZM31.5285 39.3284C31.9166 39.3284 32.2312 39.0137 32.2312 38.6256C32.2312 38.2375 31.9166 37.9228 31.5285 37.9228V39.3284ZM42.0702 39.3284C42.4583 39.3284 42.773 39.0137 42.773 38.6256C42.773 38.2375 42.4583 37.9228 42.0702 37.9228V39.3284ZM38.5563 37.9228C38.1681 37.9228 37.8535 38.2375 37.8535 38.6256C37.8535 39.0137 38.1681 39.3284 38.5563 39.3284V37.9228ZM41.3486 31.3135L42.0067 31.0668L41.3486 31.3135ZM28.6431 31.0434L28.0145 30.7291L28.6431 31.0434ZM35.5611 24.0895L35.838 23.4436L35.5611 24.0895ZM25.9062 42.1395V43.5451H27.3118V42.1395H25.9062ZM28.0145 45.6534H28.7173V44.2479H28.0145V45.6534ZM30.8257 43.5451V42.1395H29.4201V43.5451H30.8257ZM30.1229 41.4367H25.9062V42.8423H30.1229V41.4367ZM25.2034 40.734V36.5173H23.7979V40.734H25.2034ZM44.1785 36.5173V40.734H45.5841V36.5173H44.1785ZM43.4757 41.4367H42.773V42.8423H43.4757V41.4367ZM42.0702 42.1395V43.5451H43.4757V42.1395H42.0702ZM41.3674 44.2479H40.6646V45.6534H41.3674V44.2479ZM39.9618 43.5451V42.1395H38.5563V43.5451H39.9618ZM39.2591 42.8423H42.773V41.4367H39.2591V42.8423ZM30.1229 42.8423H39.2591V41.4367H30.1229V42.8423ZM25.9062 35.8145H26.609V34.4089H25.9062V35.8145ZM27.2376 35.426L29.2717 31.3577L28.0145 30.7291L25.9804 34.7974L27.2376 35.426ZM31.1575 30.1922H38.7165V28.7867H31.1575V30.1922ZM26.609 35.8145H42.773V34.4089H26.609V35.8145ZM42.773 35.8145H43.4757V34.4089H42.773V35.8145ZM40.6906 31.5603L42.1149 35.3585L43.431 34.8649L42.0067 31.0668L40.6906 31.5603ZM24.0446 28.7419L34.7607 24.7234L34.2671 23.4073L23.5511 27.4258L24.0446 28.7419ZM35.2843 24.7355L44.6045 28.7298L45.1581 27.4379L35.838 23.4436L35.2843 24.7355ZM28.0145 39.3284H31.5285V37.9228H28.0145V39.3284ZM38.5563 39.3284H42.0702V37.9228H38.5563V39.3284ZM38.7165 30.1922C39.5954 30.1922 40.382 30.7374 40.6906 31.5603L42.0067 31.0668C41.4924 29.6953 40.1813 28.7867 38.7165 28.7867V30.1922ZM40.6646 44.2479C40.2765 44.2479 39.9618 43.9332 39.9618 43.5451H38.5563C38.5563 44.7095 39.5002 45.6534 40.6646 45.6534V44.2479ZM42.0702 43.5451C42.0702 43.9332 41.7555 44.2479 41.3674 44.2479V45.6534C42.5318 45.6534 43.4757 44.7095 43.4757 43.5451H42.0702ZM44.1785 40.734C44.1785 41.1221 43.8639 41.4367 43.4757 41.4367V42.8423C44.6402 42.8423 45.5841 41.8984 45.5841 40.734H44.1785ZM25.2034 36.5173C25.2034 36.1291 25.5181 35.8145 25.9062 35.8145V34.4089C24.7418 34.4089 23.7979 35.3529 23.7979 36.5173H25.2034ZM25.9062 41.4367C25.5181 41.4367 25.2034 41.1221 25.2034 40.734H23.7979C23.7979 41.8984 24.7418 42.8423 25.9062 42.8423V41.4367ZM29.2717 31.3577C29.6289 30.6434 30.3589 30.1922 31.1575 30.1922V28.7867C29.8265 28.7867 28.6098 29.5386 28.0145 30.7291L29.2717 31.3577ZM28.7173 45.6534C29.8817 45.6534 30.8257 44.7095 30.8257 43.5451H29.4201C29.4201 43.9332 29.1055 44.2479 28.7173 44.2479V45.6534ZM34.7607 24.7234C34.9302 24.6598 35.1178 24.6641 35.2843 24.7355L35.838 23.4436C35.3386 23.2295 34.7759 23.2166 34.2671 23.4073L34.7607 24.7234ZM45.5841 36.5173C45.5841 35.3529 44.6402 34.4089 43.4757 34.4089V35.8145C43.8639 35.8145 44.1785 36.1291 44.1785 36.5173H45.5841ZM25.9062 43.5451C25.9062 44.7095 26.8501 45.6534 28.0145 45.6534V44.2479C27.6264 44.2479 27.3118 43.9332 27.3118 43.5451H25.9062Z" fill="#688F99"/>
<defs>
<filter id="filter0_d_864_5538" x="0.329825" y="0.398185" width="68.8755" height="68.8755" filterUnits="userSpaceOnUse" color-interpolation-filters="sRGB">
<feFlood flood-opacity="0" result="BackgroundImageFix"/>
<feColorMatrix in="SourceAlpha" type="matrix" values="0 0 0 0 0 0 0 0 0 0 0 0 0 0 0 0 0 0 127 0" result="hardAlpha"/>
<feOffset/>
<feGaussianBlur stdDeviation="6.21888"/>
<feComposite in2="hardAlpha" operator="out"/>
<feColorMatrix type="matrix" values="0 0 0 0 0 0 0 0 0 0 0 0 0 0 0 0 0 0 0.25 0"/>
<feBlend mode="normal" in2="BackgroundImageFix" result="effect1_dropShadow_864_5538"/>
<feBlend mode="normal" in="SourceGraphic" in2="effect1_dropShadow_864_5538" result="shape"/>
</filter>
</defs>
</svg>
