<svg width="50" height="50" viewBox="0 0 50 50" fill="none" xmlns="http://www.w3.org/2000/svg">
<g filter="url(#filter0_d_1687_8863)">
<circle cx="25" cy="25" r="16" fill="white"/>
</g>
<path d="M23.75 18.25C22.9544 18.25 22.1913 18.5661 21.6287 19.1287C21.0661 19.6913 20.75 20.4544 20.75 21.25C20.75 22.0456 21.0661 22.8087 21.6287 23.3713C22.1913 23.9339 22.9544 24.25 23.75 24.25C24.5456 24.25 25.3087 23.9339 25.8713 23.3713C26.4339 22.8087 26.75 22.0456 26.75 21.25C26.75 20.4544 26.4339 19.6913 25.8713 19.1287C25.3087 18.5661 24.5456 18.25 23.75 18.25Z" stroke="#5B84B0" stroke-linecap="round" stroke-linejoin="round"/>
<path d="M18.5 31.75V28.75C18.5 28.3522 18.658 27.9706 18.9393 27.6893C19.2206 27.408 19.6022 27.25 20 27.25H27.5C27.8978 27.25 28.2794 27.408 28.5607 27.6893C28.842 27.9706 29 28.3522 29 28.75V31.75" stroke="#5B84B0" stroke-linecap="round" stroke-linejoin="round"/>
<path d="M31.25 22V26.5M29 24.25H33.5" stroke="#5B84B0" stroke-linecap="round" stroke-linejoin="round"/>
<defs>
<filter id="filter0_d_1687_8863" x="0.151057" y="0.151057" width="49.6979" height="49.6979" filterUnits="userSpaceOnUse" color-interpolation-filters="sRGB">
<feFlood flood-opacity="0" result="BackgroundImageFix"/>
<feColorMatrix in="SourceAlpha" type="matrix" values="0 0 0 0 0 0 0 0 0 0 0 0 0 0 0 0 0 0 127 0" result="hardAlpha"/>
<feOffset/>
<feGaussianBlur stdDeviation="4.42447"/>
<feComposite in2="hardAlpha" operator="out"/>
<feColorMatrix type="matrix" values="0 0 0 0 0 0 0 0 0 0 0 0 0 0 0 0 0 0 0.25 0"/>
<feBlend mode="normal" in2="BackgroundImageFix" result="effect1_dropShadow_1687_8863"/>
<feBlend mode="normal" in="SourceGraphic" in2="effect1_dropShadow_1687_8863" result="shape"/>
</filter>
</defs>
</svg>
