<svg width="40" height="40" viewBox="0 0 40 40" fill="none" xmlns="http://www.w3.org/2000/svg">
<path d="M21.2171 7.16C21.6774 6.69168 22.2253 6.31858 22.8297 6.06202C23.4341 5.80547 24.0832 5.67047 24.7398 5.66474C25.3963 5.65901 26.0476 5.78266 26.6564 6.02863C27.2652 6.2746 27.8196 6.63807 28.2879 7.0983C28.7563 7.55852 29.1294 8.10648 29.3859 8.71089C29.6425 9.3153 29.7775 9.96433 29.7832 10.6209C29.7889 11.2775 29.6653 11.9288 29.4193 12.5376C29.1733 13.1464 28.8099 13.7008 28.3496 14.1691L15.7333 27.0076C15.1756 27.5751 14.4153 27.8978 13.6197 27.9048C12.8241 27.9117 12.0583 27.6023 11.4908 27.0446C10.9233 26.4869 10.6006 25.7267 10.5936 24.9311C10.5867 24.1354 10.8961 23.3696 11.4538 22.8021L21.2665 12.8166C21.3585 12.723 21.4681 12.6484 21.589 12.597C21.7099 12.5457 21.8397 12.5187 21.971 12.5176C22.1023 12.5164 22.2326 12.5412 22.3544 12.5904C22.4761 12.6396 22.587 12.7123 22.6807 12.8043C22.7743 12.8963 22.8489 13.0059 22.9003 13.1268C22.9516 13.2477 22.9786 13.3775 22.9797 13.5088C22.9809 13.6401 22.9561 13.7704 22.9069 13.8922C22.8577 14.0139 22.785 14.1248 22.693 14.2185L12.8803 24.204C12.6944 24.3931 12.5912 24.6484 12.5936 24.9136C12.5959 25.1788 12.7034 25.4322 12.8926 25.6181C13.0818 25.804 13.337 25.9072 13.6022 25.9048C13.8675 25.9025 14.1209 25.7949 14.3068 25.6058L26.9231 12.7673C27.4808 12.1998 27.7902 11.434 27.7833 10.6384C27.7763 9.84275 27.4536 9.08247 26.8861 8.5248C26.3186 7.96712 25.5528 7.65772 24.7572 7.66466C23.9616 7.67161 23.2013 7.99432 22.6436 8.56182L10.0273 21.4003C9.09781 22.3462 8.58214 23.6225 8.59371 24.9485C8.60528 26.2745 9.14315 27.5417 10.089 28.4711C11.0348 29.4006 12.3111 29.9163 13.6372 29.9047C14.9632 29.8931 16.2303 29.3552 17.1598 28.4094L26.9725 18.4239C27.1584 18.2348 27.4118 18.1272 27.677 18.1249C27.9422 18.1225 28.1975 18.2257 28.3867 18.4116C28.5758 18.5975 28.6834 18.8509 28.6857 19.1161C28.688 19.3813 28.5849 19.6366 28.399 19.8257L18.5863 29.8112C17.285 31.1354 15.5111 31.8884 13.6546 31.9046C11.7982 31.9208 10.0113 31.1989 8.68716 29.8976C7.363 28.5964 6.60999 26.8224 6.59379 24.966C6.57759 23.1095 7.29952 21.3227 8.60077 19.9985L21.2171 7.16Z" fill="#688F99"/>
</svg>
