<svg width="26" height="25" viewBox="0 0 26 25" fill="none" xmlns="http://www.w3.org/2000/svg">
<path d="M11.1169 5.2058C11.1169 4.65976 11.3338 4.13609 11.7199 3.74999C12.106 3.36388 12.6297 3.14697 13.1757 3.14697C13.7218 3.14697 14.2454 3.36388 14.6315 3.74999C15.0176 4.13609 15.2345 4.65976 15.2345 5.2058C16.4167 5.76479 17.4245 6.63496 18.1499 7.72302C18.8753 8.81108 19.2909 10.076 19.3522 11.3823V14.4705C19.4297 15.1105 19.6563 15.7234 20.0139 16.2597C20.3715 16.7961 20.8501 17.2411 21.411 17.5587H4.94043C5.5014 17.2411 5.97994 16.7961 6.33753 16.2597C6.69513 15.7234 6.92178 15.1105 6.99925 14.4705V11.3823C7.06057 10.076 7.47618 8.81108 8.20155 7.72302C8.92693 6.63496 9.93471 5.76479 11.1169 5.2058" stroke="white" stroke-width="1.44118" stroke-linecap="round" stroke-linejoin="round"/>
<path d="M10.0879 17.5586V18.588C10.0879 19.4071 10.4133 20.1926 10.9924 20.7717C11.5716 21.3509 12.3571 21.6762 13.1761 21.6762C13.9952 21.6762 14.7807 21.3509 15.3598 20.7717C15.939 20.1926 16.2644 19.4071 16.2644 18.588V17.5586" stroke="white" stroke-width="1.44118" stroke-linecap="round" stroke-linejoin="round"/>
</svg>
