<svg width="13" height="13" viewBox="0 0 13 13" fill="none" xmlns="http://www.w3.org/2000/svg">
<path d="M9.7513 2.70703H3.2513C2.96398 2.70703 2.68843 2.82117 2.48527 3.02433C2.28211 3.2275 2.16797 3.50305 2.16797 3.79036V10.2904C2.16797 10.5777 2.28211 10.8532 2.48527 11.0564C2.68843 11.2596 2.96398 11.3737 3.2513 11.3737H9.7513C10.0386 11.3737 10.3142 11.2596 10.5173 11.0564C10.7205 10.8532 10.8346 10.5777 10.8346 10.2904V3.79036C10.8346 3.50305 10.7205 3.2275 10.5173 3.02433C10.3142 2.82117 10.0386 2.70703 9.7513 2.70703V2.70703Z" stroke="#444444" stroke-linecap="round" stroke-linejoin="round"/>
<path d="M8.66797 1.625V3.79167" stroke="#444444" stroke-linecap="round" stroke-linejoin="round"/>
<path d="M4.33203 1.625V3.79167" stroke="#444444" stroke-linecap="round" stroke-linejoin="round"/>
<path d="M2.16797 5.95703H10.8346" stroke="#444444" stroke-linecap="round" stroke-linejoin="round"/>
<path d="M5.95703 8.125H6.4987" stroke="#444444" stroke-width="1.5" stroke-linecap="round" stroke-linejoin="round"/>
<path d="M6.5 8.125V9.75" stroke="#444444" stroke-linecap="round" stroke-linejoin="round"/>
</svg>
