<svg width="20" height="20" viewBox="0 0 20 20" fill="none" xmlns="http://www.w3.org/2000/svg">
<rect width="20" height="20" rx="2" fill="#00C8C8"/>
<path d="M10.7363 4.66699V6.77226C10.7363 6.91184 10.7918 7.04571 10.8905 7.14442C10.9892 7.24312 11.1231 7.29857 11.2626 7.29857H13.3679" stroke="white" stroke-width="1.2" stroke-linecap="round" stroke-linejoin="round"/>
<path d="M9.68421 14.1407H7.05263C6.77346 14.1407 6.50572 14.0298 6.30831 13.8324C6.1109 13.635 6 13.3672 6 13.088V5.71962C6 5.44045 6.1109 5.17271 6.30831 4.9753C6.50572 4.77789 6.77346 4.66699 7.05263 4.66699H10.7368L13.3684 7.29857V9.66699" stroke="white" stroke-width="1.2" stroke-linecap="round" stroke-linejoin="round"/>
<path d="M12.0521 13.614C12.4011 13.614 12.7358 13.4754 12.9825 13.2286C13.2293 12.9819 13.3679 12.6472 13.3679 12.2982C13.3679 11.9492 13.2293 11.6146 12.9825 11.3678C12.7358 11.121 12.4011 10.9824 12.0521 10.9824C11.7031 10.9824 11.3685 11.121 11.1217 11.3678C10.875 11.6146 10.7363 11.9492 10.7363 12.2982C10.7363 12.6472 10.875 12.9819 11.1217 13.2286C11.3685 13.4754 11.7031 13.614 12.0521 13.614V13.614Z" stroke="white" stroke-width="1.2" stroke-linecap="round" stroke-linejoin="round"/>
<path d="M13.1055 13.3516L14.4213 14.6674" stroke="white" stroke-width="1.2" stroke-linecap="round" stroke-linejoin="round"/>
</svg>
