<svg width="25" height="25" viewBox="0 0 25 25" fill="none" xmlns="http://www.w3.org/2000/svg">
<path d="M12.4131 21.7941C13.6298 21.7941 14.8345 21.5544 15.9586 21.0888C17.0826 20.6232 18.104 19.9408 18.9643 19.0805C19.8246 18.2202 20.507 17.1989 20.9726 16.0748C21.4382 14.9508 21.6778 13.746 21.6778 12.5294C21.6778 11.3127 21.4382 10.108 20.9726 8.9839C20.507 7.85986 19.8246 6.83853 18.9643 5.97822C18.104 5.11791 17.0826 4.43548 15.9586 3.96988C14.8345 3.50429 13.6298 3.26465 12.4131 3.26465C9.95599 3.26465 7.59948 4.24075 5.86201 5.97822C4.12454 7.71569 3.14844 10.0722 3.14844 12.5294C3.14844 14.9865 4.12454 17.343 5.86201 19.0805C7.59948 20.818 9.95599 21.7941 12.4131 21.7941V21.7941Z" stroke="white" stroke-width="1.44118" stroke-linecap="round" stroke-linejoin="round"/>
<path d="M9.32422 12.529L11.383 14.5879L15.5007 10.4702" stroke="white" stroke-width="1.44118" stroke-linecap="round" stroke-linejoin="round"/>
</svg>
