<svg width="74" height="52" viewBox="0 0 74 52" fill="none" xmlns="http://www.w3.org/2000/svg">
<path d="M26.9296 50.2174H19.3757C14.7011 50.2174 10.2179 48.43 6.91245 45.2485C3.60699 42.0669 1.75 37.7518 1.75 33.2525C1.75 28.7531 3.60699 24.438 6.91245 21.2565C10.2179 18.075 14.7011 16.2876 19.3757 16.2876C20.8504 16.2871 22.3196 16.46 23.7507 16.8026" stroke="#688F99" stroke-width="2.57118" stroke-linecap="round" stroke-linejoin="round"/>
<path d="M21.8899 26.0011C21.8899 22.1609 22.838 18.3756 24.6561 14.9573C26.4742 11.5389 29.1102 8.5853 32.3469 6.33987C35.5836 4.09444 39.3284 2.62147 43.2726 2.04233C47.2168 1.46319 51.2475 1.79446 55.0326 3.00885C58.8177 4.22324 62.2488 6.28598 65.0431 9.02708C67.8375 11.7682 69.915 15.1092 71.1047 18.7747C72.2943 22.4403 72.562 26.3255 71.8855 30.1101C71.2091 33.8948 69.6079 37.4705 67.214 40.5427" stroke="#688F99" stroke-width="2.57118" stroke-linecap="round" stroke-linejoin="round"/>
<path d="M33.8844 36.2691L44.5543 25.9993L55.2241 36.2691" stroke="#688F99" stroke-width="2.57118" stroke-linecap="round" stroke-linejoin="round"/>
<path d="M44.5557 50.2348V25.9993" stroke="#688F99" stroke-width="2.57118" stroke-linecap="round" stroke-linejoin="round"/>
</svg>
