<svg width="28" height="28" viewBox="0 0 28 28" fill="none" xmlns="http://www.w3.org/2000/svg">
<rect x="0.5" y="0.5" width="27" height="27" rx="3.5" fill="white" stroke="#688F99"/>
<path d="M11 13.334C11 13.5992 10.8946 13.8536 10.7071 14.0411C10.5196 14.2286 10.2652 14.334 10 14.334C9.73478 14.334 9.48043 14.2286 9.29289 14.0411C9.10536 13.8536 9 13.5992 9 13.334C9 13.0688 9.10536 12.8144 9.29289 12.6269C9.48043 12.4393 9.73478 12.334 10 12.334C10.2652 12.334 10.5196 12.4393 10.7071 12.6269C10.8946 12.8144 11 13.0688 11 13.334ZM15 13.334C15 13.5992 14.8946 13.8536 14.7071 14.0411C14.5196 14.2286 14.2652 14.334 14 14.334C13.7348 14.334 13.4804 14.2286 13.2929 14.0411C13.1054 13.8536 13 13.5992 13 13.334C13 13.0688 13.1054 12.8144 13.2929 12.6269C13.4804 12.4393 13.7348 12.334 14 12.334C14.2652 12.334 14.5196 12.4393 14.7071 12.6269C14.8946 12.8144 15 13.0688 15 13.334ZM18 14.334C18.2652 14.334 18.5196 14.2286 18.7071 14.0411C18.8946 13.8536 19 13.5992 19 13.334C19 13.0688 18.8946 12.8144 18.7071 12.6269C18.5196 12.4393 18.2652 12.334 18 12.334C17.7348 12.334 17.4804 12.4393 17.2929 12.6269C17.1054 12.8144 17 13.0688 17 13.334C17 13.5992 17.1054 13.8536 17.2929 14.0411C17.4804 14.2286 17.7348 14.334 18 14.334Z" fill="#688F99"/>
<path d="M8.165 21.1365L8.185 21.1331C10.015 20.7698 11.1333 20.2915 11.6533 20.0281C12.4192 20.2323 13.2083 20.3348 14 20.334C18.4183 20.334 22 17.1998 22 13.334C22 9.46732 18.4183 6.33398 14 6.33398C9.5825 6.33398 6 9.46732 6 13.334C6 15.094 6.74333 16.704 7.97 17.934C7.88433 18.7239 7.70875 19.5014 7.44667 20.2515L7.44333 20.2632C7.36833 20.4773 7.2875 20.6898 7.19917 20.8998C7.12 21.0857 7.27333 21.294 7.4725 21.2615C7.70417 21.224 7.935 21.1823 8.165 21.1365ZM8.965 18.0281C8.9789 17.8819 8.96042 17.7345 8.91087 17.5962C8.86133 17.4579 8.78193 17.3323 8.67833 17.2282C7.61833 16.164 7 14.8015 7 13.3332C7 10.1415 10.0042 7.33315 14 7.33315C17.9967 7.33315 21 10.1415 21 13.3332C21 16.5257 17.9967 19.3331 14 19.3331C13.2952 19.334 12.5934 19.2423 11.9125 19.0607C11.6744 18.9972 11.4213 19.0239 11.2017 19.1357C10.8142 19.3307 9.96167 19.7048 8.5675 20.0273C8.76167 19.3748 8.895 18.7065 8.965 18.0281Z" fill="#688F99"/>
</svg>
