<svg width="28" height="28" viewBox="0 0 28 28" fill="none" xmlns="http://www.w3.org/2000/svg">
<rect width="28" height="28" rx="3" fill="#B856A1" fill-opacity="0.16"/>
<path d="M22.9995 12.857V6H5V12.4284H6.28568H7.57136H9.28559M18.7139 10.8416H21.2853V7.77247H18.7438M18.7139 10.8416L18.7438 7.77247M18.7139 10.8416L18.7142 21.405L14.8569 21.4281H10.9998V19.7139M8.85704 7.76057H6.71424V10.8416H8.85704M8.85704 7.76057L18.7438 7.77247M8.85704 7.76057V10.7373V10.8416M16.9997 7.77247V19.7139H10.9998M10.9998 19.7139H8.85704V13.7141V10.8416" stroke="#B856A1" stroke-linejoin="round"/>
<path d="M22.9996 12.4287H19.1426" stroke="#B856A1"/>
<path d="M14.0964 14.2909C14.0964 14.9615 13.5528 15.5051 12.8822 15.5051C12.2116 15.5051 11.668 14.9615 11.668 14.2909C11.668 13.6203 12.2116 13.0767 12.8822 13.0767C13.5528 13.0767 14.0964 13.6203 14.0964 14.2909Z" stroke="#B856A1"/>
</svg>
