<svg width="20" height="20" viewBox="0 0 20 20" fill="none" xmlns="http://www.w3.org/2000/svg">
<g clip-path="url(#clip0_531_2510)">
<path d="M8.80624 4.6679C7.50266 4.9701 6.30368 5.61556 5.33364 6.53734C4.36361 7.45913 3.65786 8.62365 3.2896 9.91013C2.92134 11.1966 2.90398 12.5582 3.23932 13.8536C3.57466 15.1491 4.25048 16.3312 5.1967 17.2774C6.14291 18.2237 7.32505 18.8995 8.6205 19.2348C9.91595 19.5702 11.2775 19.5528 12.564 19.1845C13.8505 18.8163 15.015 18.1105 15.9368 17.1405C16.8586 16.1705 17.504 14.9715 17.8062 13.6679C17.8062 13.4469 17.7184 13.2349 17.5622 13.0786C17.4059 12.9224 17.1939 12.8346 16.9729 12.8346H11.3062C10.8642 12.8346 10.4403 12.659 10.1277 12.3464C9.81517 12.0338 9.63958 11.6099 9.63958 11.1679V5.33456C9.62944 5.23575 9.59973 5.13994 9.55218 5.05273C9.50463 4.96551 9.4402 4.88863 9.36263 4.82658C9.28506 4.76453 9.19592 4.71854 9.10039 4.69129C9.00487 4.66405 8.90487 4.6561 8.80624 4.6679V4.6679Z" stroke="#44749D" stroke-width="1.5" stroke-linecap="round" stroke-linejoin="round"/>
<path d="M12.9727 4.9165C14.0308 5.28907 14.9918 5.89425 15.785 6.68747C16.5782 7.48069 17.1834 8.44174 17.556 9.49984H13.806C13.585 9.49984 13.373 9.41204 13.2167 9.25576C13.0605 9.09948 12.9727 8.88752 12.9727 8.66651V4.9165Z" stroke="#44749D" stroke-width="1.5" stroke-linecap="round" stroke-linejoin="round"/>
</g>
<defs>
<clipPath id="clip0_531_2510">
<rect width="20" height="20" fill="white"/>
</clipPath>
</defs>
</svg>
