<svg width="28" height="28" viewBox="0 0 28 28" fill="none" xmlns="http://www.w3.org/2000/svg">
<rect width="28" height="28" rx="3" fill="#EF4924" fill-opacity="0.15"/>
<path d="M15 22H6C5.44772 22 5 21.5523 5 21V20.5C5 19.9477 5.44772 19.5 6 19.5H7.5M15 19.5H7.5M7.5 19.5V6C7.5 5.44771 7.94772 5 8.5 5H16.5M16.5 5V8.5H20M16.5 5L20 8.5M20 8.5V17M9.5 8H12M10 12.5V11H18V12.5M10 12.5V17H18V12.5M10 12.5H18M17.5 22H19C19.5523 22 20 21.5523 20 21V19.5C20 18.9477 19.5523 18.5 19 18.5H17.5C16.9477 18.5 16.5 18.9477 16.5 19.5V21C16.5 21.5523 16.9477 22 17.5 22Z" stroke="#EF4924"/>
</svg>
