<svg width="12" height="12" viewBox="0 0 12 12" fill="none" xmlns="http://www.w3.org/2000/svg">
<path fill-rule="evenodd" clip-rule="evenodd" d="M5.89882 11.6911C9.12057 11.6911 11.7322 9.0795 11.7322 5.85775C11.7322 2.636 9.12057 0.0244141 5.89882 0.0244141C2.67707 0.0244141 0.0654907 2.636 0.0654907 5.85775C0.0654907 9.0795 2.67707 11.6911 5.89882 11.6911ZM3.03699 9.54441L9.58549 2.99591C10.2835 3.89376 10.6296 5.01559 10.5588 6.15062C10.488 7.28564 10.0051 8.35576 9.20098 9.1599C8.39683 9.96405 7.32672 10.4469 6.19169 10.5177C5.05666 10.5885 3.93484 10.2424 3.03699 9.54441ZM2.21216 8.71958C1.51418 7.82173 1.16808 6.69991 1.23889 5.56488C1.30969 4.42985 1.79252 3.35974 2.59667 2.55559C3.40082 1.75144 4.47093 1.26861 5.60596 1.19781C6.74099 1.12701 7.86281 1.4731 8.76066 2.17108L2.21216 8.71958Z" fill="#888888"/>
</svg>
