<svg width="16" height="15" viewBox="0 0 16 15" fill="none" xmlns="http://www.w3.org/2000/svg">
<path d="M9.39347 2.59634C9.80768 2.59634 10.1435 2.26056 10.1435 1.84634C10.1435 1.43213 9.80768 1.09634 9.39347 1.09634V2.59634ZM13.3279 7.71434C13.3279 7.30012 12.9921 6.96434 12.5779 6.96434C12.1637 6.96434 11.8279 7.30012 11.8279 7.71434H13.3279ZM13.3279 1.4892C13.3279 1.07499 12.9921 0.739199 12.5779 0.739199C12.1637 0.739199 11.8279 1.07499 11.8279 1.4892H13.3279ZM12.5779 5.57146L12.0978 6.14763L12.5779 6.54774L13.058 6.14763L12.5779 5.57146ZM15.2009 4.36191C15.5191 4.09674 15.5621 3.62382 15.2969 3.30561C15.0317 2.9874 14.5588 2.94441 14.2406 3.20958L15.2009 4.36191ZM10.9152 3.20958C10.597 2.94441 10.124 2.9874 9.85888 3.30561C9.5937 3.62382 9.6367 4.09674 9.9549 4.36191L10.9152 3.20958ZM7.67885 3.78575C7.67885 3.37154 7.34306 3.03575 6.92885 3.03575C6.51464 3.03575 6.17885 3.37154 6.17885 3.78575H7.67885ZM6.92885 5.21432H6.17885V5.96431L6.92884 5.96432L6.92885 5.21432ZM8.71456 5.21434V5.96434C9.12878 5.96434 9.46456 5.62855 9.46457 5.21434C9.46457 4.80013 9.12878 4.46434 8.71457 4.46434L8.71456 5.21434ZM4.78599 5.21434V4.46434C4.37178 4.46434 4.03599 4.80012 4.03599 5.21434H4.78599ZM4.78599 8.07148H4.03599C4.03599 8.48569 4.37178 8.82148 4.78599 8.82148V8.07148ZM8.71456 8.07148H9.46457C9.46457 7.65727 9.12878 7.32148 8.71456 7.32148V8.07148ZM8.71456 10.6664V11.4164C9.12878 11.4164 9.46457 11.0806 9.46457 10.6664H8.71456ZM4.71957 9.91642C4.30536 9.91642 3.96957 10.2522 3.96957 10.6664C3.96957 11.0806 4.30536 11.4164 4.71957 11.4164V9.91642ZM6.1888 12.5154C6.1888 12.9296 6.52459 13.2654 6.9388 13.2654C7.35301 13.2654 7.6888 12.9296 7.6888 12.5154H6.1888ZM9.39347 1.09634H2.85742V2.59634H9.39347V1.09634ZM0.107422 3.84634V12.1429H1.60742V3.84634H0.107422ZM2.85742 14.8929H10.5779V13.3929H2.85742V14.8929ZM13.3279 12.1429V7.71434H11.8279V12.1429H13.3279ZM11.8279 1.4892V5.57146H13.3279V1.4892H11.8279ZM13.058 6.14763L15.2009 4.36191L14.2406 3.20958L12.0978 4.9953L13.058 6.14763ZM13.058 4.9953L10.9152 3.20958L9.9549 4.36191L12.0978 6.14763L13.058 4.9953ZM6.17885 3.78575V5.21432H7.67885V3.78575H6.17885ZM6.92884 5.96432L8.71456 5.96434L8.71457 4.46434L6.92886 4.46432L6.92884 5.96432ZM8.71456 4.46434H4.78599V5.96434H8.71456V4.46434ZM4.03599 5.21434V8.07148H5.53599V5.21434H4.03599ZM4.78599 8.82148H8.71456V7.32148H4.78599V8.82148ZM7.96456 8.07148V10.6664H9.46457V8.07148H7.96456ZM8.71456 9.91642H6.9388V11.4164H8.71456V9.91642ZM6.9388 9.91642H4.71957V11.4164H6.9388V9.91642ZM6.1888 10.6664V12.5154H7.6888V10.6664H6.1888ZM10.5779 14.8929C12.0967 14.8929 13.3279 13.6617 13.3279 12.1429H11.8279C11.8279 12.8333 11.2683 13.3929 10.5779 13.3929V14.8929ZM0.107422 12.1429C0.107422 13.6617 1.33864 14.8929 2.85742 14.8929V13.3929C2.16707 13.3929 1.60742 12.8333 1.60742 12.1429H0.107422ZM2.85742 1.09634C1.33864 1.09634 0.107422 2.32756 0.107422 3.84634H1.60742C1.60742 3.15599 2.16707 2.59634 2.85742 2.59634V1.09634Z" fill="#44749D"/>
</svg>
