<svg width="26" height="25" viewBox="0 0 26 25" fill="none" xmlns="http://www.w3.org/2000/svg">
<path d="M7.91257 11.3826C9.00464 11.3826 10.052 10.9488 10.8242 10.1766C11.5964 9.4044 12.0302 8.35706 12.0302 7.26499V6.23558C12.0302 5.68955 12.2471 5.16588 12.6332 4.77977C13.0193 4.39367 13.543 4.17676 14.089 4.17676C14.6351 4.17676 15.1587 4.39367 15.5448 4.77977C15.931 5.16588 16.1479 5.68955 16.1479 6.23558V11.3826H19.2361C19.7821 11.3826 20.3058 11.5996 20.6919 11.9857C21.078 12.3718 21.2949 12.8954 21.2949 13.4415L20.2655 18.5885C20.1173 19.2196 19.8362 19.762 19.4657 20.1337C19.094 20.5043 18.6524 20.6854 18.2067 20.6473H11.0008C10.1818 20.6473 9.39625 20.322 8.81709 19.7428C8.23794 19.1637 7.91257 18.3782 7.91257 17.5591M7.91257 11.3826V19.6179C7.91257 19.8909 7.80411 20.1528 7.61106 20.3458C7.41801 20.5389 7.15617 20.6473 6.88316 20.6473H4.82433C4.55132 20.6473 4.28948 20.5389 4.09643 20.3458C3.90338 20.1528 3.79492 19.8909 3.79492 19.6179V12.4121C3.79492 12.139 3.90338 11.8772 4.09643 11.6841C4.28948 11.4911 4.55132 11.3826 4.82433 11.3826H7.91257Z" stroke="white" stroke-width="1.44118" stroke-linecap="round" stroke-linejoin="round"/>
</svg>
