<svg width="13" height="12" viewBox="0 0 13 12" fill="none" xmlns="http://www.w3.org/2000/svg">
<path d="M7.77301 1.7822C8.04915 1.7822 8.27301 1.55834 8.27301 1.2822C8.27301 1.00606 8.04915 0.782201 7.77301 0.782201V1.7822ZM10.7997 5.91959C10.7997 5.64345 10.5759 5.41959 10.2997 5.41959C10.0236 5.41959 9.79973 5.64345 9.79973 5.91959H10.7997ZM10.7997 0.999954C10.7997 0.723811 10.5759 0.499954 10.2997 0.499954C10.0236 0.499954 9.79973 0.723811 9.79973 0.999954H10.7997ZM10.2997 4.22611L9.98039 4.61085L10.2997 4.8759L10.6191 4.61085L10.2997 4.22611ZM12.3193 3.19962C12.5318 3.02326 12.5611 2.70804 12.3847 2.49555C12.2084 2.28306 11.8932 2.25378 11.6807 2.43014L12.3193 3.19962ZM8.91879 2.43014C8.70631 2.25378 8.39108 2.28306 8.21472 2.49555C8.03835 2.70804 8.06764 3.02326 8.28012 3.19962L8.91879 2.43014ZM6.31744 2.81488C6.31744 2.53874 6.09358 2.31488 5.81744 2.31488C5.54129 2.31488 5.31744 2.53874 5.31744 2.81488H6.31744ZM5.81744 3.94386H5.31744V4.44386L5.81743 4.44386L5.81744 3.94386ZM7.23433 3.94388V4.44388C7.51047 4.44388 7.73433 4.22002 7.73433 3.94388C7.73433 3.66774 7.51047 3.44388 7.23433 3.44388L7.23433 3.94388ZM4.11716 3.94388V3.44388C3.84102 3.44388 3.61716 3.66773 3.61716 3.94388H4.11716ZM4.11716 6.20184H3.61716C3.61716 6.47798 3.84102 6.70184 4.11716 6.70184V6.20184ZM7.23433 6.20184H7.73433C7.73433 5.92569 7.51047 5.70184 7.23433 5.70184V6.20184ZM7.23433 8.25258V8.75258C7.51047 8.75258 7.73433 8.52872 7.73433 8.25258H7.23433ZM4.06446 7.75258C3.78832 7.75258 3.56446 7.97644 3.56446 8.25258C3.56446 8.52872 3.78832 8.75258 4.06446 8.75258V7.75258ZM5.32533 9.71382C5.32533 9.98996 5.54919 10.2138 5.82533 10.2138C6.10147 10.2138 6.32533 9.98996 6.32533 9.71382H5.32533ZM7.77301 0.782201H3V1.7822H7.77301V0.782201ZM0.5 3.2822V9H1.5V3.2822H0.5ZM3 11.5H8.29973V10.5H3V11.5ZM10.7997 9V5.91959H9.79973V9H10.7997ZM9.79973 0.999954V4.22611H10.7997V0.999954H9.79973ZM10.6191 4.61085L12.3193 3.19962L11.6807 2.43014L9.98039 3.84137L10.6191 4.61085ZM10.6191 3.84137L8.91879 2.43014L8.28012 3.19962L9.98039 4.61085L10.6191 3.84137ZM5.31744 2.81488V3.94386H6.31744V2.81488H5.31744ZM5.81743 4.44386L7.23432 4.44388L7.23433 3.44388L5.81744 3.44386L5.81743 4.44386ZM7.23433 3.44388H4.11716V4.44388H7.23433V3.44388ZM3.61716 3.94388V6.20184H4.61716V3.94388H3.61716ZM4.11716 6.70184H7.23433V5.70184H4.11716V6.70184ZM6.73433 6.20184V8.25258H7.73433V6.20184H6.73433ZM7.23433 7.75258H5.82533V8.75258H7.23433V7.75258ZM5.82533 7.75258H4.06446V8.75258H5.82533V7.75258ZM5.32533 8.25258V9.71382H6.32533V8.25258H5.32533ZM8.29973 11.5C9.68044 11.5 10.7997 10.3807 10.7997 9H9.79973C9.79973 9.82843 9.12816 10.5 8.29973 10.5V11.5ZM0.5 9C0.5 10.3807 1.61929 11.5 3 11.5V10.5C2.17157 10.5 1.5 9.82843 1.5 9H0.5ZM3 0.782201C1.61929 0.782201 0.5 1.90149 0.5 3.2822H1.5C1.5 2.45377 2.17157 1.7822 3 1.7822V0.782201Z" fill="#3DAAFA"/>
</svg>
