<svg width="25" height="25" viewBox="0 0 25 25" fill="none" xmlns="http://www.w3.org/2000/svg">
<path fill-rule="evenodd" clip-rule="evenodd" d="M21.3921 12.3893C20.8674 14.8392 19.3452 16.9192 17.2711 18.1834C17.4458 18.6741 17.5455 19.2004 17.5562 19.7484C20.4343 18.2021 22.5077 15.352 22.9864 11.9883C22.492 12.2055 21.9553 12.3444 21.3921 12.3893ZM19.6005 2.67942C17.7426 1.01336 15.2874 0 12.5955 0C9.88013 0 7.40559 1.0311 5.54206 2.72312C6.06422 2.8927 6.54841 3.14652 6.9786 3.46853C8.51786 2.23667 10.4706 1.5 12.5955 1.5C14.6785 1.5 16.5962 2.20796 18.121 3.3964C18.5655 3.08045 19.0642 2.83589 19.6005 2.67942ZM7.91962 18.1833C5.84897 16.921 4.32834 14.8457 3.80133 12.4009C3.24458 12.3781 2.7115 12.2635 2.2168 12.0719C2.71772 15.3991 4.78043 18.2147 7.63451 19.7483C7.64529 19.2002 7.74493 18.6739 7.91962 18.1833Z" fill="#44749D"/>
<circle cx="20.992" cy="7.44318" r="3.25763" stroke="#44749D" stroke-width="1.5"/>
<path d="M7.26527 7.5386C7.26527 9.40718 5.79024 10.8917 4.00763 10.8917C2.22503 10.8917 0.75 9.40718 0.75 7.5386C0.75 5.67003 2.22503 4.18555 4.00763 4.18555C5.79024 4.18555 7.26527 5.67003 7.26527 7.5386Z" stroke="#44749D" stroke-width="1.5"/>
<circle cx="12.7869" cy="20.0389" r="3.25763" stroke="#44749D" stroke-width="1.5"/>
</svg>
