<svg width="36" height="36" viewBox="0 0 36 36" fill="none" xmlns="http://www.w3.org/2000/svg">
<path fill-rule="evenodd" clip-rule="evenodd" d="M32.3786 4.95564H20.9824V2.27026L2.25 5.16151V30.5044L20.9824 33.7309V29.7506H32.3786C32.7238 29.7681 33.0618 29.6482 33.3188 29.4172C33.5758 29.1861 33.7308 28.8627 33.75 28.5176V6.18752C33.7305 5.84266 33.5754 5.51953 33.3184 5.28871C33.0615 5.05789 32.7236 4.93815 32.3786 4.95564ZM32.5586 28.7224H20.9441L20.925 26.5973H23.7229V24.1223H20.9036L20.8901 22.6598H23.7229V20.1848H20.8687L20.8552 18.7223H23.7229V16.2473H20.8463V14.7848H23.7229V12.3098H20.8463V10.8473H23.7229V8.37227H20.8463V6.12226H32.5586V28.7224Z" fill="#20744A"/>
<path d="M25.2979 8.3689H30.1612V10.8439H25.2979V8.3689ZM25.2979 12.3075H30.1612V14.7825H25.2979V12.3075ZM25.2979 16.2461H30.1612V18.7211H25.2979V16.2461ZM25.2979 20.1848H30.1612V22.6598H25.2979V20.1848ZM25.2979 24.1234H30.1612V26.5984H25.2979V24.1234Z" fill="#20744A"/>
<path fill-rule="evenodd" clip-rule="evenodd" d="M7.14059 12.0071L9.55484 11.8687L11.0725 16.0414L12.8657 11.6966L15.28 11.5582L12.3482 17.4825L15.28 23.4214L12.7273 23.2492L11.0038 18.7222L9.27922 23.0771L6.93359 22.8701L9.65834 17.6242L7.14059 12.0071Z" fill="white"/>
</svg>
