<svg width="24" height="24" viewBox="0 0 24 24" fill="none" xmlns="http://www.w3.org/2000/svg">
<path d="M9.5998 15.5998C9.5998 15.4407 9.66302 15.2881 9.77554 15.1755C9.88806 15.063 10.0407 14.9998 10.1998 14.9998H13.7998C13.9589 14.9998 14.1115 15.063 14.2241 15.1755C14.3366 15.2881 14.3998 15.4407 14.3998 15.5998C14.3998 15.7589 14.3366 15.9115 14.2241 16.0241C14.1115 16.1366 13.9589 16.1998 13.7998 16.1998H10.1998C10.0407 16.1998 9.88806 16.1366 9.77554 16.0241C9.66302 15.9115 9.5998 15.7589 9.5998 15.5998ZM7.1998 11.9998C7.1998 11.8407 7.26302 11.6881 7.37554 11.5755C7.48806 11.463 7.64067 11.3998 7.7998 11.3998H16.1998C16.2786 11.3998 16.3566 11.4153 16.4294 11.4455C16.5022 11.4756 16.5684 11.5198 16.6241 11.5755C16.6798 11.6313 16.724 11.6974 16.7541 11.7702C16.7843 11.843 16.7998 11.921 16.7998 11.9998C16.7998 12.0786 16.7843 12.1566 16.7541 12.2294C16.724 12.3022 16.6798 12.3684 16.6241 12.4241C16.5684 12.4798 16.5022 12.524 16.4294 12.5541C16.3566 12.5843 16.2786 12.5998 16.1998 12.5998H7.7998C7.64067 12.5998 7.48806 12.5366 7.37554 12.4241C7.26302 12.3115 7.1998 12.1589 7.1998 11.9998ZM4.7998 8.3998C4.7998 8.24067 4.86302 8.08806 4.97554 7.97554C5.08806 7.86302 5.24067 7.7998 5.3998 7.7998H18.5998C18.6786 7.7998 18.7566 7.81532 18.8294 7.84548C18.9022 7.87563 18.9684 7.91983 19.0241 7.97554C19.0798 8.03126 19.124 8.0974 19.1541 8.17019C19.1843 8.24299 19.1998 8.32101 19.1998 8.3998C19.1998 8.4786 19.1843 8.55662 19.1541 8.62941C19.124 8.70221 19.0798 8.76835 19.0241 8.82407C18.9684 8.87978 18.9022 8.92398 18.8294 8.95413C18.7566 8.98428 18.6786 8.9998 18.5998 8.9998H5.3998C5.24067 8.9998 5.08806 8.93659 4.97554 8.82407C4.86302 8.71155 4.7998 8.55893 4.7998 8.3998Z" fill="#888888"/>
</svg>
