<svg width="16" height="10" viewBox="0 0 16 10" fill="none" xmlns="http://www.w3.org/2000/svg">
<path d="M5.5998 8.5998C5.5998 8.44067 5.66302 8.28806 5.77554 8.17554C5.88806 8.06302 6.04067 7.9998 6.1998 7.9998H9.7998C9.95893 7.9998 10.1115 8.06302 10.2241 8.17554C10.3366 8.28806 10.3998 8.44067 10.3998 8.5998C10.3998 8.75893 10.3366 8.91155 10.2241 9.02407C10.1115 9.13659 9.95893 9.19981 9.7998 9.19981H6.1998C6.04067 9.19981 5.88806 9.13659 5.77554 9.02407C5.66302 8.91155 5.5998 8.75893 5.5998 8.5998ZM3.1998 4.9998C3.1998 4.84067 3.26302 4.68806 3.37554 4.57554C3.48806 4.46302 3.64067 4.3998 3.7998 4.3998H12.1998C12.2786 4.3998 12.3566 4.41532 12.4294 4.44548C12.5022 4.47563 12.5684 4.51983 12.6241 4.57554C12.6798 4.63126 12.724 4.6974 12.7541 4.77019C12.7843 4.84299 12.7998 4.92101 12.7998 4.9998C12.7998 5.0786 12.7843 5.15662 12.7541 5.22941C12.724 5.30221 12.6798 5.36835 12.6241 5.42407C12.5684 5.47978 12.5022 5.52398 12.4294 5.55413C12.3566 5.58429 12.2786 5.5998 12.1998 5.5998H3.7998C3.64067 5.5998 3.48806 5.53659 3.37554 5.42407C3.26302 5.31155 3.1998 5.15893 3.1998 4.9998ZM0.799805 1.3998C0.799805 1.24067 0.863019 1.08806 0.975541 0.975541C1.08806 0.863019 1.24067 0.799805 1.3998 0.799805H14.5998C14.6786 0.799805 14.7566 0.815324 14.8294 0.845477C14.9022 0.875629 14.9684 0.919825 15.0241 0.975541C15.0798 1.03126 15.124 1.0974 15.1541 1.17019C15.1843 1.24299 15.1998 1.32101 15.1998 1.3998C15.1998 1.4786 15.1843 1.55662 15.1541 1.62941C15.124 1.70221 15.0798 1.76835 15.0241 1.82407C14.9684 1.87978 14.9022 1.92398 14.8294 1.95413C14.7566 1.98428 14.6786 1.9998 14.5998 1.9998H1.3998C1.24067 1.9998 1.08806 1.93659 0.975541 1.82407C0.863019 1.71155 0.799805 1.55893 0.799805 1.3998Z" fill="white"/>
</svg>
