<svg width="57" height="57" viewBox="0 0 57 57" fill="none" xmlns="http://www.w3.org/2000/svg">
<g filter="url(#filter0_d_3413_34993)">
<circle cx="28.7498" cy="28.4304" r="22.489" fill="#688F99"/>
</g>
<path d="M28.5626 40.6398C27.5845 40.6398 26.7916 39.8469 26.7916 38.8689V30.0142L17.937 30.0142C16.9589 30.0142 16.166 29.2213 16.166 28.2432C16.166 27.2652 16.9589 26.4723 17.937 26.4723L26.7916 26.4723L26.7916 17.6176C26.7916 16.6396 27.5845 15.8467 28.5626 15.8467C29.5406 15.8467 30.3335 16.6396 30.3335 17.6176L30.3335 26.4723H39.1882C40.1663 26.4723 40.9591 27.2652 40.9591 28.2432C40.9591 29.2213 40.1663 30.0142 39.1882 30.0142H30.3335V38.8689C30.3335 39.8469 29.5406 40.6398 28.5626 40.6398Z" fill="white"/>
<defs>
<filter id="filter0_d_3413_34993" x="0.638487" y="0.319151" width="56.223" height="56.223" filterUnits="userSpaceOnUse" color-interpolation-filters="sRGB">
<feFlood flood-opacity="0" result="BackgroundImageFix"/>
<feColorMatrix in="SourceAlpha" type="matrix" values="0 0 0 0 0 0 0 0 0 0 0 0 0 0 0 0 0 0 127 0" result="hardAlpha"/>
<feOffset/>
<feGaussianBlur stdDeviation="2.81113"/>
<feComposite in2="hardAlpha" operator="out"/>
<feColorMatrix type="matrix" values="0 0 0 0 0.266667 0 0 0 0 0.454902 0 0 0 0 0.615686 0 0 0 1 0"/>
<feBlend mode="normal" in2="BackgroundImageFix" result="effect1_dropShadow_3413_34993"/>
<feBlend mode="normal" in="SourceGraphic" in2="effect1_dropShadow_3413_34993" result="shape"/>
</filter>
</defs>
</svg>
