<svg width="17" height="17" viewBox="0 0 14 14" fill="none" xmlns="http://www.w3.org/2000/svg">
<path d="M1.07886 3.3877H12.6355" stroke="#444444" stroke-linecap="round" stroke-linejoin="round"/>
<path d="M5.41357 6.27832V10.6121" stroke="#444444" stroke-linecap="round" stroke-linejoin="round"/>
<path d="M8.30096 6.27832V10.6121" stroke="#444444" stroke-linecap="round" stroke-linejoin="round"/>
<path d="M1.80072 3.3877L2.52301 12.0552C2.52301 12.4383 2.67521 12.8057 2.94612 13.0766C3.21703 13.3475 3.58446 13.4997 3.96759 13.4997H9.7459C10.129 13.4997 10.4965 13.3475 10.7674 13.0766C11.0383 12.8057 11.1905 12.4383 11.1905 12.0552L11.9128 3.3877" stroke="#444444" stroke-linecap="round" stroke-linejoin="round"/>
<path d="M4.69171 3.38916V1.22229C4.69171 1.03073 4.76781 0.847009 4.90327 0.711554C5.03872 0.576098 5.22244 0.5 5.414 0.5H8.30316C8.49472 0.5 8.67844 0.576098 8.81389 0.711554C8.94935 0.847009 9.02545 1.03073 9.02545 1.22229V3.38916" stroke="#444444" stroke-linecap="round" stroke-linejoin="round"/>
</svg>
