<svg width="28" height="28" viewBox="0 0 28 28" fill="none" xmlns="http://www.w3.org/2000/svg">
<rect width="28" height="28" rx="3" fill="#27BEB6" fill-opacity="0.15"/>
<path d="M4.82444 8.13184C4.56588 8.2288 4.43488 8.517 4.53184 8.77556C4.6288 9.03412 4.917 9.16512 5.17556 9.06816L4.82444 8.13184ZM22.803 9.05957C23.0569 9.16835 23.3508 9.05077 23.4596 8.79696C23.5683 8.54314 23.4508 8.24921 23.197 8.14043L22.803 9.05957ZM8.6 17.1C8.32386 17.1 8.1 17.3239 8.1 17.6C8.1 17.8761 8.32386 18.1 8.6 18.1V17.1ZM11.6 18.1C11.8761 18.1 12.1 17.8761 12.1 17.6C12.1 17.3239 11.8761 17.1 11.6 17.1V18.1ZM20.6 18.1C20.8761 18.1 21.1 17.8761 21.1 17.6C21.1 17.3239 20.8761 17.1 20.6 17.1V18.1ZM17.6 17.1C17.3239 17.1 17.1 17.3239 17.1 17.6C17.1 17.8761 17.3239 18.1 17.6 18.1V17.1ZM19.7029 22.9555L19.6881 22.4557L19.7029 22.9555ZM6.9 20.6V22H7.9V20.6H6.9ZM8.4 23.5H9V22.5H8.4V23.5ZM10.5 22V20.6H9.5V22H10.5ZM10 20.1H6.6V21.1H10V20.1ZM6.1 19.6V15.6H5.1V19.6H6.1ZM22.5 15.6V19.6H23.5V15.6H22.5ZM22 20.1H20.6733V21.1H22V20.1ZM20.1733 20.6V21.9559H21.1733V20.6H20.1733ZM19.6881 22.4557L19.2148 22.4697L19.2444 23.4693L19.7177 23.4553L19.6881 22.4557ZM18.7 21.9699V20.6H17.7V21.9699H18.7ZM18.2 21.1H20.6733V20.1H18.2V21.1ZM10 21.1H18.2V20.1H10V21.1ZM6.6 15.1H7.4V14.1H6.6V15.1ZM7.84721 14.8236L9.69443 11.1292L8.8 10.682L6.95279 14.3764L7.84721 14.8236ZM11.0361 10.3H18.014V9.3H11.0361V10.3ZM7.4 15.1H21.2V14.1H7.4V15.1ZM21.2 15.1H22V14.1H21.2V15.1ZM19.4185 11.2733L20.7318 14.7756L21.6682 14.4244L20.3548 10.9222L19.4185 11.2733ZM5.17556 9.06816L14.3996 5.60915L14.0485 4.67282L4.82444 8.13184L5.17556 9.06816ZM14.7721 5.61775L22.803 9.05957L23.197 8.14043L15.166 4.6986L14.7721 5.61775ZM8.6 18.1H11.6V17.1H8.6V18.1ZM17.6 18.1H20.6V17.1H17.6V18.1ZM18.014 10.3C18.6393 10.3 19.1989 10.6879 19.4185 11.2733L20.3548 10.9222C19.9889 9.94643 19.0561 9.3 18.014 9.3V10.3ZM19.2148 22.4697C18.933 22.4781 18.7 22.2519 18.7 21.9699H17.7C17.7 22.8158 18.399 23.4943 19.2444 23.4693L19.2148 22.4697ZM20.1733 21.9559C20.1733 22.2263 19.9583 22.4477 19.6881 22.4557L19.7177 23.4553C20.5285 23.4312 21.1733 22.767 21.1733 21.9559H20.1733ZM22.5 19.6C22.5 19.8761 22.2761 20.1 22 20.1V21.1C22.8284 21.1 23.5 20.4284 23.5 19.6H22.5ZM6.1 15.6C6.1 15.3239 6.32386 15.1 6.6 15.1V14.1C5.77157 14.1 5.1 14.7716 5.1 15.6H6.1ZM6.6 20.1C6.32386 20.1 6.1 19.8761 6.1 19.6H5.1C5.1 20.4284 5.77157 21.1 6.6 21.1V20.1ZM9.69443 11.1292C9.94852 10.621 10.4679 10.3 11.0361 10.3V9.3C10.0891 9.3 9.22348 9.83501 8.8 10.682L9.69443 11.1292ZM9 23.5C9.82843 23.5 10.5 22.8284 10.5 22H9.5C9.5 22.2761 9.27614 22.5 9 22.5V23.5ZM14.3996 5.60915C14.5202 5.56391 14.6537 5.56699 14.7721 5.61775L15.166 4.6986C14.8107 4.54634 14.4104 4.5371 14.0485 4.67282L14.3996 5.60915ZM23.5 15.6C23.5 14.7716 22.8284 14.1 22 14.1V15.1C22.2761 15.1 22.5 15.3239 22.5 15.6H23.5ZM6.9 22C6.9 22.8284 7.57157 23.5 8.4 23.5V22.5C8.12386 22.5 7.9 22.2761 7.9 22H6.9Z" fill="#27BEB6"/>
</svg>
