<svg width="28" height="28" viewBox="0 0 28 28" fill="none" xmlns="http://www.w3.org/2000/svg">
<rect width="28" height="28" rx="3" fill="#EC468B" fill-opacity="0.15"/>
<path d="M20.4004 14H17.2004C16.9882 14 16.7847 14.0843 16.6347 14.2343C16.4847 14.3843 16.4004 14.5878 16.4004 14.8V21.2C16.4004 21.4122 16.4847 21.6157 16.6347 21.7657C16.7847 21.9157 16.9882 22 17.2004 22H22.0004C22.2126 22 22.416 21.9157 22.5661 21.7657C22.7161 21.6157 22.8004 21.4122 22.8004 21.2V16.4M20.4004 14L22.8004 16.4M20.4004 14V16.4H22.8004M9.36295 18.3823V19.9999C9.36295 20.5522 8.91523 20.9999 8.36295 20.9999H7.43642C6.88414 20.9999 6.43642 20.5522 6.43642 19.9999V18.3823M9.36295 18.3823H6.43642M9.36295 18.3823H15M23.0238 14.5V11.5H20.9477M8.07607 11.5H6.43642V14M8.07607 11.5H20.9477M8.07607 11.5V10.2941M20.9477 11.5V10.2941M20.9477 10.2941L19.8208 8.08966C19.4789 7.42086 18.7911 7 18.04 7H10.9531C10.1939 7 9.50016 7.42982 9.16218 8.10961L8.07607 10.2941M20.9477 10.2941L21.0557 10.2329C21.5292 9.96459 22.0643 9.82353 22.6086 9.82353M8.07607 10.2941L7.60727 10.117C7.09362 9.92296 6.54908 9.82353 6 9.82353M6.43642 18.3823V16.4999M6.43642 14L6.89003 14.0188C7.22212 14.0326 7.53673 14.1112 7.82189 14.2421C9.24408 14.8948 8.00124 16.4999 6.43642 16.4999V16.4999M6.43642 14V16.4999M12.2909 14L12.7781 15.989H14.7296M21.2 18.4004H18M18.8 16.8003H18M21.2 20H18" stroke="#EC468B" stroke-linecap="round" stroke-linejoin="round"/>
</svg>
