<svg width="28" height="28" viewBox="0 0 28 28" fill="none" xmlns="http://www.w3.org/2000/svg">
<rect width="28" height="28" rx="4" fill="#EFD31A" fill-opacity="0.2"/>
<path d="M5.43642 10.5V10C5.16028 10 4.93642 10.2239 4.93642 10.5H5.43642ZM22.0238 10.5H22.5238C22.5238 10.2239 22.2999 10 22.0238 10V10.5ZM21.5238 11.6471C21.5238 11.9232 21.7477 12.1471 22.0238 12.1471C22.2999 12.1471 22.5238 11.9232 22.5238 11.6471H21.5238ZM11.7766 12.8811C11.7109 12.6128 11.4402 12.4487 11.172 12.5144C10.9038 12.58 10.7396 12.8507 10.8053 13.1189L11.7766 12.8811ZM11.7781 14.989L11.2924 15.1079C11.3472 15.3317 11.5478 15.489 11.7781 15.489V14.989ZM13.7296 15.489C14.0057 15.489 14.2296 15.2651 14.2296 14.989C14.2296 14.7129 14.0057 14.489 13.7296 14.489V15.489ZM17.6334 14.0588V13.5588C17.3572 13.5588 17.1334 13.7827 17.1334 14.0588H17.6334ZM23 15.9412H23.5C23.5 15.665 23.2761 15.4412 23 15.4412V15.9412ZM19.2631 23L19.0248 23.4396C19.1707 23.5187 19.3463 23.5202 19.4936 23.4437L19.2631 23ZM18.5227 20.1527L18.245 20.5685L18.5227 20.1527ZM20.3049 22.4588L20.0744 22.0151L20.3049 22.4588ZM20.9239 14.0588H21.4239C21.4239 13.7827 21.2001 13.5588 20.9239 13.5588V14.0588ZM8.26952 15.4999V15.9999C8.5456 15.9999 8.76944 15.7762 8.76952 15.5001L8.26952 15.4999ZM18.8208 7.08966L18.3756 7.31725L18.8208 7.08966ZM18.2992 22.4775L18.0609 22.9171L18.2992 22.4775ZM15.6818 16.0588V15.5588C15.4057 15.5588 15.1818 15.7827 15.1818 16.0588H15.6818ZM20.0557 9.23295L19.8092 8.79794L20.0557 9.23295ZM7.86295 17.3823V18.9999H8.86295V17.3823H7.86295ZM7.36295 19.4999H6.43642V20.4999H7.36295V19.4999ZM21.5238 10.5V11.6471H22.5238V10.5H21.5238ZM5.43642 11H19.9477V10H5.43642V11ZM19.9477 11H22.0238V10H19.9477V11ZM20.4477 10.5V9.29412H19.4477V10.5H20.4477ZM20.3929 9.06653L19.266 6.86208L18.3756 7.31725L19.5025 9.5217L20.3929 9.06653ZM17.04 5.5H9.95305V6.5H17.04V5.5ZM7.71447 6.88701L6.62836 9.07152L7.52379 9.51672L8.6099 7.3322L7.71447 6.88701ZM6.57607 9.29412V10.5H7.57607V9.29412H6.57607ZM7.25278 8.82638L6.78397 8.64928L6.43057 9.58474L6.89937 9.76185L7.25278 8.82638ZM5.93642 18.9999V17.3823H4.93642V18.9999H5.93642ZM5.43642 17.8823H12.8369V16.8823H5.43642V17.8823ZM5.93642 13V10.5H4.93642V13H5.93642ZM5.41568 13.4996L5.86929 13.5184L5.91077 12.5193L5.45716 12.5004L5.41568 13.4996ZM5.93642 17.3823V15.4999H4.93642V17.3823H5.93642ZM5.93642 15.4999V13H4.93642V15.4999H5.93642ZM8.26952 14.9999H5.43642V15.9999H8.26952V14.9999ZM10.8053 13.1189L11.2924 15.1079L12.2637 14.8701L11.7766 12.8811L10.8053 13.1189ZM11.7781 15.489H13.7296V14.489H11.7781V15.489ZM18.1334 14.1073V14.0588H17.1334V14.1073H18.1334ZM22.8063 16.4412H23V15.4412H22.8063V16.4412ZM22.5 15.9412V18.0218H23.5V15.9412H22.5ZM20.0744 22.0151L19.0326 22.5563L19.4936 23.4437L20.5353 22.9025L20.0744 22.0151ZM19.5013 22.5604L18.5374 22.0379L18.0609 22.9171L19.0248 23.4396L19.5013 22.5604ZM16.1818 18.0817V16.0588H15.1818V18.0817H16.1818ZM17.1334 17.5588V18.4894H18.1334V17.5588H17.1334ZM18.245 20.5685L18.9854 21.0629L19.5407 20.2313L18.8004 19.7369L18.245 20.5685ZM17.6334 14.5588H20.9239V13.5588H17.6334V14.5588ZM20.1942 9.72913L20.3022 9.66796L19.8092 8.79794L19.7012 8.85911L20.1942 9.72913ZM17.1334 18.4894C17.1334 19.3246 17.5504 20.1047 18.245 20.5685L18.8004 19.7369C18.3836 19.4586 18.1334 18.9906 18.1334 18.4894H17.1334ZM22.5 18.0218C22.5 19.7012 21.5648 21.2409 20.0744 22.0151L20.5353 22.9025C22.3569 21.9563 23.5 20.0744 23.5 18.0218H22.5ZM20.4239 14.0588C20.4239 15.3746 21.4905 16.4412 22.8063 16.4412V15.4412C22.0428 15.4412 21.4239 14.8223 21.4239 14.0588H20.4239ZM5.86929 13.5184C6.93151 13.5625 7.76985 14.4366 7.76952 15.4998L8.76952 15.5001C8.77002 13.9007 7.5088 12.5856 5.91077 12.5193L5.86929 13.5184ZM19.266 6.86208C18.8387 6.02607 17.9789 5.5 17.04 5.5V6.5C17.6034 6.5 18.1192 6.81564 18.3756 7.31725L19.266 6.86208ZM18.5374 22.0379C17.0859 21.2512 16.1818 19.7327 16.1818 18.0817H15.1818C15.1818 20.0996 16.2869 21.9555 18.0609 22.9171L18.5374 22.0379ZM9.95305 5.5C9.00409 5.5 8.13694 6.03728 7.71447 6.88701L8.6099 7.3322C8.86338 6.82237 9.38367 6.5 9.95305 6.5V5.5ZM15.6818 16.5588C17.0358 16.5588 18.1334 15.4613 18.1334 14.1073H17.1334C17.1334 14.909 16.4835 15.5588 15.6818 15.5588V16.5588ZM7.86295 18.9999C7.86295 19.2761 7.63909 19.4999 7.36295 19.4999V20.4999C8.19137 20.4999 8.86295 19.8284 8.86295 18.9999H7.86295ZM20.3022 9.66796C20.7006 9.4422 21.1507 9.32353 21.6086 9.32353V8.32353C20.9779 8.32353 20.3579 8.48698 19.8092 8.79794L20.3022 9.66796ZM6.78397 8.64928C6.21386 8.43389 5.60945 8.32353 5 8.32353V9.32353C5.48871 9.32353 5.97339 9.41203 6.43057 9.58474L6.78397 8.64928ZM6.43642 19.4999C6.16028 19.4999 5.93642 19.2761 5.93642 18.9999H4.93642C4.93642 19.8284 5.608 20.4999 6.43642 20.4999V19.4999Z" fill="#EFD31A"/>
</svg>
