<svg width="20" height="20" viewBox="0 0 20 20" fill="none" xmlns="http://www.w3.org/2000/svg">
<rect width="20" height="20" rx="2" fill="#42DD8B" fill-opacity="0.15"/>
<path d="M8 6.5V6.25C7.86193 6.25 7.75 6.36193 7.75 6.5H8ZM12.5 6.5H12.75C12.75 6.36193 12.6381 6.25 12.5 6.25V6.5ZM9.67678 8.07322C9.57915 7.97559 9.42085 7.97559 9.32322 8.07322C9.22559 8.17085 9.22559 8.32915 9.32322 8.42678L9.67678 8.07322ZM10 8.75L9.82322 8.92678L10 9.10355L10.1768 8.92678L10 8.75ZM11.6768 7.42678C11.7744 7.32915 11.7744 7.17085 11.6768 7.07322C11.5791 6.97559 11.4209 6.97559 11.3232 7.07322L11.6768 7.42678ZM9.48872 10.4925L9.35005 10.7005L9.48872 10.4925ZM8.35295 9.2059L8.12934 9.3177L8.35295 9.2059ZM10.5771 10.7819L10.7158 10.9899L10.5771 10.7819ZM9.92285 10.7819L9.78418 10.9899L9.92285 10.7819ZM11.0113 10.4925L11.15 10.7005L11.0113 10.4925ZM12.147 9.2059L12.3707 9.3177L12.147 9.2059ZM13.5 13.5V13.75H13.75V13.5H13.5ZM6.25148 9.49851L6.07471 9.32174L6.25148 9.49851ZM6.84463 9.18107L6.7956 8.93593L6.84463 9.18107ZM4.96791 10.5403L5.00327 10.7878L4.96791 10.5403ZM4.93456 10.5451L4.8992 10.2976L4.93456 10.5451ZM4.00634 12.967L3.90786 13.1968L4.00634 12.967ZM5.25 13.5H5.5V13.3352L5.34848 13.2702L5.25 13.5ZM13.771 10.5668L13.6148 10.762L13.771 10.5668ZM14.2885 10.8025L14.2438 11.0484L14.2885 10.8025ZM5.34848 13.2702L4.10482 12.7372L3.90786 13.1968L5.15152 13.7298L5.34848 13.2702ZM4.96991 10.7926L5.00327 10.7878L4.93256 10.2928L4.8992 10.2976L4.96991 10.7926ZM5.62827 10.4753L6.42826 9.67529L6.07471 9.32174L5.27471 10.1217L5.62827 10.4753ZM6.89366 9.42622L7.79903 9.24515L7.70097 8.75485L6.7956 8.93593L6.89366 9.42622ZM8 6.75H8.25V6.25H8V6.75ZM9.25 5.75H11.25V5.25H9.25V5.75ZM12.25 6.75H12.5V6.25H12.25V6.75ZM12.25 6.5V7.71078H12.75V6.5H12.25ZM10.8726 10.2845L10.4385 10.5739L10.7158 10.9899L11.15 10.7005L10.8726 10.2845ZM10.0615 10.5739L9.6274 10.2845L9.35005 10.7005L9.78418 10.9899L10.0615 10.5739ZM8.25 7.71078V6.5H7.75V7.71078H8.25ZM9.32322 8.42678L9.82322 8.92678L10.1768 8.57322L9.67678 8.07322L9.32322 8.42678ZM10.1768 8.92678L11.6768 7.42678L11.3232 7.07322L9.82322 8.57322L10.1768 8.92678ZM12.5938 9.94522L13.6148 10.762L13.9272 10.3716L12.9062 9.55478L12.5938 9.94522ZM14.2438 11.0484L15.3209 11.2443L15.4104 10.7523L14.3332 10.5565L14.2438 11.0484ZM15.907 13.25H15.5V13.75H15.907V13.25ZM7.25 13.75H13.5V13.25H7.25V13.75ZM14.5 12.75C14.9142 12.75 15.25 13.0858 15.25 13.5H15.75C15.75 12.8096 15.1904 12.25 14.5 12.25V12.75ZM8.57656 9.0941C8.3618 8.66459 8.25 8.19098 8.25 7.71078H7.75C7.75 8.2686 7.87988 8.81877 8.12934 9.3177L8.57656 9.0941ZM9.6274 10.2845C9.1795 9.98587 8.81729 9.57556 8.57656 9.0941L8.12934 9.3177C8.40899 9.877 8.82975 10.3536 9.35005 10.7005L9.6274 10.2845ZM10.4385 10.5739C10.3243 10.65 10.1757 10.65 10.0615 10.5739L9.78418 10.9899C10.0663 11.178 10.4337 11.178 10.7158 10.9899L10.4385 10.5739ZM11.9234 9.0941C11.6827 9.57556 11.3205 9.98587 10.8726 10.2845L11.15 10.7005C11.6702 10.3536 12.091 9.877 12.3707 9.3177L11.9234 9.0941ZM12.25 7.71078C12.25 8.19098 12.1382 8.66459 11.9234 9.0941L12.3707 9.3177C12.6201 8.81877 12.75 8.2686 12.75 7.71078H12.25ZM11.5 6C11.5 6.41421 11.8358 6.75 12.25 6.75V6.25C12.1119 6.25 12 6.13807 12 6H11.5ZM8.25 6.75C8.66421 6.75 9 6.41421 9 6H8.5C8.5 6.13807 8.38807 6.25 8.25 6.25V6.75ZM14.5 12.25C13.8096 12.25 13.25 12.8096 13.25 13.5H13.75C13.75 13.0858 14.0858 12.75 14.5 12.75V12.25ZM6.42826 9.67529C6.55541 9.54815 6.71734 9.46148 6.89366 9.42622L6.7956 8.93593C6.52249 8.99055 6.27165 9.12479 6.07471 9.32174L6.42826 9.67529ZM14.5 14.25C14.0858 14.25 13.75 13.9142 13.75 13.5H13.25C13.25 14.1904 13.8096 14.75 14.5 14.75V14.25ZM5.00327 10.7878C5.23992 10.754 5.45923 10.6443 5.62827 10.4753L5.27471 10.1217C5.18217 10.2143 5.06211 10.2743 4.93256 10.2928L5.00327 10.7878ZM15.25 13.5C15.25 13.9142 14.9142 14.25 14.5 14.25V14.75C15.1904 14.75 15.75 14.1904 15.75 13.5H15.25ZM3.75 12.1991C3.75 11.492 4.26993 10.8925 4.96991 10.7926L4.8992 10.2976C3.9529 10.4328 3.25 11.2432 3.25 12.1991H3.75ZM4.10482 12.7372C3.88956 12.645 3.75 12.4333 3.75 12.1991H3.25C3.25 12.6333 3.50876 13.0257 3.90786 13.1968L4.10482 12.7372ZM16.5 12.657C16.5 12.9845 16.2345 13.25 15.907 13.25V13.75C16.5107 13.75 17 13.2607 17 12.657H16.5ZM6.25 14.25C5.83579 14.25 5.5 13.9142 5.5 13.5H5C5 14.1904 5.55964 14.75 6.25 14.75V14.25ZM15.3209 11.2443C16.0037 11.3684 16.5 11.9631 16.5 12.657H17C17 11.7214 16.3309 10.9197 15.4104 10.7523L15.3209 11.2443ZM6.25 14.75C6.94036 14.75 7.5 14.1904 7.5 13.5H7C7 13.9142 6.66421 14.25 6.25 14.25V14.75ZM11.25 5.75C11.3881 5.75 11.5 5.86193 11.5 6H12C12 5.58579 11.6642 5.25 11.25 5.25V5.75ZM13.6148 10.762C13.7975 10.9082 14.0136 11.0066 14.2438 11.0484L14.3332 10.5565C14.1846 10.5295 14.0451 10.4659 13.9272 10.3716L13.6148 10.762ZM6.25 12.75C6.66421 12.75 7 13.0858 7 13.5H7.5C7.5 12.8096 6.94036 12.25 6.25 12.25V12.75ZM9 6C9 5.86193 9.11193 5.75 9.25 5.75V5.25C8.83579 5.25 8.5 5.58579 8.5 6H9ZM5.5 13.5C5.5 13.0858 5.83579 12.75 6.25 12.75V12.25C5.55964 12.25 5 12.8096 5 13.5H5.5Z" fill="#42DD8B"/>
</svg>
