<svg width="47" height="48" viewBox="0 0 47 48" fill="none" xmlns="http://www.w3.org/2000/svg">
<rect y="0.924805" width="46.4308" height="46.4308" rx="2.32154" fill="#42DD8B" fill-opacity="0.15"/>
<path d="M18.5729 16.0154V15.435C18.2524 15.435 17.9925 15.6948 17.9925 16.0154H18.5729ZM29.0198 16.0154H29.6002C29.6002 15.6948 29.3404 15.435 29.0198 15.435V16.0154ZM22.4656 19.6677C22.2389 19.441 21.8715 19.441 21.6448 19.6677C21.4182 19.8943 21.4182 20.2618 21.6448 20.4885L22.4656 19.6677ZM23.216 21.2388L22.8056 21.6492L23.216 22.0596L23.6264 21.6492L23.216 21.2388ZM27.1087 18.1669C27.3353 17.9403 27.3353 17.5728 27.1087 17.3461C26.882 17.1195 26.5145 17.1195 26.2879 17.3461L27.1087 18.1669ZM22.029 25.2841L21.7071 25.767L22.029 25.2841ZM24.4402 26.0331L24.1183 25.5501L24.4402 26.0331ZM23.1525 26.0331L23.4744 25.5501L23.1525 26.0331ZM25.5637 25.2841L25.2418 24.8012L25.5637 25.2841ZM14.8421 22.6481L15.2525 23.0585L14.8421 22.6481ZM15.4352 22.3307L15.549 22.8998L15.4352 22.3307ZM11.8056 25.3563L11.7236 24.7817L11.8056 25.3563ZM12.4623 25.0279L12.8727 25.4383L12.4623 25.0279ZM10.1192 25.5972L10.0371 25.0226L10.1192 25.5972ZM8.8295 30.8265L9.05812 30.2931L8.8295 30.8265ZM36.9801 26.6961L36.8763 27.2671L36.9801 26.6961ZM32.2732 25.6987L32.6357 25.2455L32.2732 25.6987ZM32.7906 25.9344L32.8945 25.3634L32.7906 25.9344ZM12.4173 31.7327L9.05812 30.2931L8.60087 31.36L11.96 32.7996L12.4173 31.7327ZM8.70636 29.7596V27.8954H7.54559V29.7596H8.70636ZM10.2013 26.1717L11.8877 25.9308L11.7236 24.7817L10.0371 25.0226L10.2013 26.1717ZM12.8727 25.4383L15.2525 23.0585L14.4317 22.2377L12.0519 24.6176L12.8727 25.4383ZM15.549 22.8998L18.1063 22.3883L17.8787 21.2501L15.3214 21.7616L15.549 22.8998ZM18.5729 16.5958H19.1533V15.435H18.5729V16.5958ZM21.4748 14.2742H26.1179V13.1135H21.4748V14.2742ZM28.4394 16.5958H29.0198V15.435H28.4394V16.5958ZM28.4394 16.0154V18.8263H29.6002V16.0154H28.4394ZM25.2418 24.8012L24.1183 25.5501L24.7622 26.516L25.8856 25.767L25.2418 24.8012ZM23.4744 25.5501L22.351 24.8012L21.7071 25.767L22.8305 26.516L23.4744 25.5501ZM19.1533 18.8263V16.0154H17.9925V18.8263H19.1533ZM21.6448 20.4885L22.8056 21.6492L23.6264 20.8285L22.4656 19.6677L21.6448 20.4885ZM23.6264 21.6492L27.1087 18.1669L26.2879 17.3461L22.8056 20.8285L23.6264 21.6492ZM29.2376 24.0136L31.9106 26.1519L32.6357 25.2455L29.9628 23.1072L29.2376 24.0136ZM32.6868 26.5054L36.8763 27.2671L37.0839 26.1251L32.8945 25.3634L32.6868 26.5054ZM38.306 28.9802V31.1054H39.4667V28.9802H38.306ZM37.7256 31.6858H35.9844V32.8465H37.7256V31.6858ZM16.8317 32.8465H31.3414V31.6858H16.8317V32.8465ZM33.6629 30.525C34.6245 30.525 35.4041 31.3045 35.4041 32.2662H36.5648C36.5648 30.6635 35.2656 29.3642 33.6629 29.3642V30.525ZM19.9114 22.0377C19.4128 21.0406 19.1533 19.9411 19.1533 18.8263H17.9925C17.9925 20.1213 18.294 21.3985 18.8732 22.5568L19.9114 22.0377ZM22.351 24.8012C21.3112 24.108 20.4703 23.1554 19.9114 22.0377L18.8732 22.5568C19.5224 23.8552 20.4992 24.9617 21.7071 25.767L22.351 24.8012ZM24.1183 25.5501C23.9234 25.6801 23.6694 25.6801 23.4744 25.5501L22.8305 26.516C23.4154 26.9059 24.1773 26.9059 24.7622 26.516L24.1183 25.5501ZM27.6813 22.0377C27.1225 23.1554 26.2816 24.108 25.2418 24.8012L25.8856 25.767C27.0935 24.9617 28.0703 23.8552 28.7195 22.5568L27.6813 22.0377ZM28.4394 18.8263C28.4394 19.9411 28.1799 21.0406 27.6813 22.0377L28.7195 22.5568C29.2987 21.3985 29.6002 20.1213 29.6002 18.8263H28.4394ZM26.6983 14.8546C26.6983 15.8162 27.4778 16.5958 28.4394 16.5958V15.435C28.1189 15.435 27.8591 15.1752 27.8591 14.8546H26.6983ZM19.1533 16.5958C20.1149 16.5958 20.8944 15.8162 20.8944 14.8546H19.7337C19.7337 15.1752 19.4738 15.435 19.1533 15.435V16.5958ZM33.6629 29.3642C32.0602 29.3642 30.761 30.6635 30.761 32.2662H31.9217C31.9217 31.3045 32.7013 30.525 33.6629 30.525V29.3642ZM15.2525 23.0585C15.3335 22.9775 15.4367 22.9223 15.549 22.8998L15.3214 21.7616C14.9843 21.829 14.6747 21.9947 14.4317 22.2377L15.2525 23.0585ZM33.6629 34.0073C32.7013 34.0073 31.9217 33.2278 31.9217 32.2662H30.761C30.761 33.8688 32.0602 35.1681 33.6629 35.1681V34.0073ZM11.8877 25.9308C12.2607 25.8775 12.6063 25.7047 12.8727 25.4383L12.0519 24.6176C11.9631 24.7063 11.8479 24.7639 11.7236 24.7817L11.8877 25.9308ZM35.4041 32.2662C35.4041 33.2278 34.6245 34.0073 33.6629 34.0073V35.1681C35.2656 35.1681 36.5648 33.8688 36.5648 32.2662H35.4041ZM8.70636 27.8954C8.70636 27.0289 9.3435 26.2943 10.2013 26.1717L10.0371 25.0226C8.60749 25.2269 7.54559 26.4512 7.54559 27.8954H8.70636ZM9.05812 30.2931C8.84472 30.2016 8.70636 29.9918 8.70636 29.7596H7.54559C7.54559 30.4561 7.96068 31.0856 8.60087 31.36L9.05812 30.2931ZM38.306 31.1054C38.306 31.4259 38.0461 31.6858 37.7256 31.6858V32.8465C38.6872 32.8465 39.4667 32.067 39.4667 31.1054H38.306ZM14.5102 34.0073C13.5486 34.0073 12.7691 33.2278 12.7691 32.2662H11.6083C11.6083 33.8688 12.9075 35.1681 14.5102 35.1681V34.0073ZM36.8763 27.2671C37.7042 27.4177 38.306 28.1387 38.306 28.9802H39.4667C39.4667 27.5777 38.4638 26.376 37.0839 26.1251L36.8763 27.2671ZM14.5102 35.1681C16.1129 35.1681 17.4121 33.8688 17.4121 32.2662H16.2514C16.2514 33.2278 15.4718 34.0073 14.5102 34.0073V35.1681ZM26.1179 14.2742C26.4384 14.2742 26.6983 14.5341 26.6983 14.8546H27.8591C27.8591 13.893 27.0795 13.1135 26.1179 13.1135V14.2742ZM31.9106 26.1519C32.136 26.3323 32.4028 26.4538 32.6868 26.5054L32.8945 25.3634C32.7998 25.3461 32.7109 25.3057 32.6357 25.2455L31.9106 26.1519ZM14.5102 30.525C15.4718 30.525 16.2514 31.3045 16.2514 32.2662H17.4121C17.4121 30.6635 16.1129 29.3642 14.5102 29.3642V30.525ZM20.8944 14.8546C20.8944 14.5341 21.1543 14.2742 21.4748 14.2742V13.1135C20.5132 13.1135 19.7337 13.893 19.7337 14.8546H20.8944ZM12.7691 32.2662C12.7691 31.3045 13.5486 30.525 14.5102 30.525V29.3642C12.9075 29.3642 11.6083 30.6635 11.6083 32.2662H12.7691Z" fill="#42DD8B"/>
</svg>
