<svg width="25" height="25" viewBox="0 0 25 25" fill="none" xmlns="http://www.w3.org/2000/svg">
<path d="M14.4707 3.26514V7.38278C14.4707 7.6558 14.5792 7.91764 14.7722 8.11069C14.9653 8.30374 15.2271 8.4122 15.5001 8.4122H19.6178" stroke="white" stroke-width="1.44118" stroke-linecap="round" stroke-linejoin="round"/>
<path d="M12.411 21.7945H7.2639C6.71787 21.7945 6.1942 21.5776 5.80809 21.1915C5.42199 20.8054 5.20508 20.2818 5.20508 19.7357V5.32396C5.20508 4.77793 5.42199 4.25426 5.80809 3.86815C6.1942 3.48205 6.71787 3.26514 7.2639 3.26514H14.4698L19.6168 8.4122V13.0445" stroke="white" stroke-width="1.44118" stroke-linecap="round" stroke-linejoin="round"/>
<path d="M17.0442 20.7652C17.7268 20.7652 18.3814 20.4941 18.864 20.0115C19.3466 19.5288 19.6178 18.8742 19.6178 18.1917C19.6178 17.5092 19.3466 16.8546 18.864 16.3719C18.3814 15.8893 17.7268 15.6182 17.0442 15.6182C16.3617 15.6182 15.7071 15.8893 15.2245 16.3719C14.7418 16.8546 14.4707 17.5092 14.4707 18.1917C14.4707 18.8742 14.7418 19.5288 15.2245 20.0115C15.7071 20.4941 16.3617 20.7652 17.0442 20.7652V20.7652Z" stroke="white" stroke-width="1.44118" stroke-linecap="round" stroke-linejoin="round"/>
<path d="M19.1025 20.2505L21.6761 22.824" stroke="white" stroke-width="1.44118" stroke-linecap="round" stroke-linejoin="round"/>
</svg>
