<svg width="20" height="20" viewBox="0 0 20 20" fill="none" xmlns="http://www.w3.org/2000/svg">
<rect width="20" height="20" rx="2" fill="#ADD458"/>
<path d="M7.49924 9.37368C8.16208 9.37368 8.79778 9.11037 9.26648 8.64167C9.73518 8.17297 9.99849 7.53727 9.99849 6.87443V6.24962C9.99849 5.9182 10.1301 5.60036 10.3645 5.36601C10.5988 5.13166 10.9167 5 11.2481 5C11.5795 5 11.8974 5.13166 12.1317 5.36601C12.3661 5.60036 12.4977 5.9182 12.4977 6.24962V9.37368H14.3722C14.7036 9.37368 15.0214 9.50533 15.2558 9.73968C15.4901 9.97403 15.6218 10.2919 15.6218 10.6233L14.997 13.7474C14.907 14.1304 14.7364 14.4596 14.5115 14.6852C14.2859 14.9101 14.0179 15.0201 13.7474 14.997H9.37368C8.87655 14.997 8.39978 14.7995 8.04825 14.448C7.69673 14.0964 7.49924 13.6197 7.49924 13.1225M7.49924 9.37368V14.3722C7.49924 14.5379 7.43342 14.6968 7.31624 14.814C7.19907 14.9311 7.04014 14.997 6.87443 14.997H5.62481C5.4591 14.997 5.30018 14.9311 5.183 14.814C5.06583 14.6968 5 14.5379 5 14.3722V9.99849C5 9.83278 5.06583 9.67386 5.183 9.55668C5.30018 9.43951 5.4591 9.37368 5.62481 9.37368H7.49924Z" stroke="white" stroke-width="1.2" stroke-linecap="round" stroke-linejoin="round"/>
</svg>
