<svg width="20" height="20" viewBox="0 0 20 20" fill="none" xmlns="http://www.w3.org/2000/svg">
<rect width="20" height="20" rx="2" fill="#FFF5D9"/>
<mask id="path-2-inside-1_879_10758" fill="white">
<path d="M13.6336 4.03997C13.7489 4.08523 13.8913 4.22369 13.9551 4.35149C14.0189 4.4793 14.014 4.77751 13.9452 4.91596C13.9158 4.97454 13.8667 5.04909 13.8348 5.08104C13.8029 5.11566 13.1968 5.48842 12.4877 5.90911C11.781 6.33247 10.0928 7.34159 8.73583 8.15102C7.37888 8.96045 6.23296 9.64474 6.18879 9.67403L6.10781 9.72728L6.24768 9.79118C6.50042 9.90301 6.62557 10.0974 6.62557 10.377C6.62311 10.7311 6.38264 11 6.0661 11C5.98758 11 5.70294 10.9228 5.26125 10.7843C4.88582 10.6645 4.51775 10.55 4.44659 10.5261C4.19385 10.4462 4 10.1826 4 9.91366C4 9.77254 4.45886 8.0738 4.53002 7.95931C4.56192 7.9034 4.63063 7.82885 4.68216 7.79423C5.11893 7.48005 5.68576 7.90074 5.57043 8.45456C5.55571 8.52645 5.54835 8.59035 5.55571 8.59567C5.56062 8.601 6.03911 8.32409 6.61575 7.97795C7.19485 7.63181 7.69542 7.34425 7.72978 7.33626C7.82302 7.31496 7.92608 7.41348 7.92608 7.52265C7.92608 7.57057 7.91136 7.62649 7.89418 7.65045C7.85492 7.7037 5.27352 9.24269 5.22199 9.24269C5.20236 9.24269 5.15574 9.21872 5.11893 9.18677C5.03305 9.11222 5.0355 9.035 5.14347 8.63561C5.22199 8.34273 5.22935 8.30013 5.19991 8.22557C5.15574 8.10842 5.0355 8.05783 4.92263 8.10842C4.84411 8.14303 4.83184 8.16433 4.76313 8.40929C4.58891 9.03234 4.36807 9.88171 4.36807 9.9323C4.36807 9.96159 4.39261 10.0148 4.42205 10.0548C4.46868 10.1107 4.60854 10.1639 5.23917 10.361C5.65631 10.4941 6.02684 10.6006 6.06365 10.6006C6.17161 10.6006 6.2575 10.5074 6.2575 10.3876C6.2575 10.2252 6.20842 10.1852 5.84035 10.0708C5.49682 9.95892 5.4232 9.911 5.4232 9.78852C5.4232 9.7539 5.44283 9.70331 5.46492 9.67403C5.48946 9.64207 6.60103 8.96578 7.93835 8.16966C9.27322 7.37354 11.0841 6.29253 11.9626 5.77066C12.8386 5.24613 13.5772 4.79348 13.5993 4.76419C13.668 4.67899 13.6557 4.5645 13.5698 4.47131C13.506 4.40474 13.479 4.39409 13.4152 4.40474C13.3711 4.41273 12.2619 5.06241 10.9492 5.84521C9.58239 6.66263 8.53708 7.27236 8.50027 7.27236C8.46592 7.27236 8.41193 7.24041 8.37512 7.20314C8.32605 7.14988 8.31623 7.12059 8.3285 7.05137C8.33586 7.00344 8.36776 6.94753 8.39475 6.92622C8.53953 6.81706 13.2386 4.02666 13.3048 4.01334C13.4177 3.98938 13.5232 3.99737 13.6336 4.03997Z"/>
</mask>
<path d="M13.6336 4.03997L13.999 3.10908L13.9936 3.107L13.6336 4.03997ZM13.9452 4.91596L14.8387 5.3651L14.841 5.36048L13.9452 4.91596ZM13.8348 5.08104L13.1271 4.37451L13.113 4.38866L13.0995 4.40336L13.8348 5.08104ZM12.4877 5.90911L11.9775 5.04905L11.9738 5.05126L12.4877 5.90911ZM6.18879 9.67403L6.73826 10.5096L6.74144 10.5074L6.18879 9.67403ZM6.10781 9.72728L5.55835 8.89176L4.04746 9.88537L5.69225 10.6368L6.10781 9.72728ZM6.24768 9.79118L5.83209 10.7008L5.84305 10.7057L6.24768 9.79118ZM6.62557 10.377L7.62557 10.3839V10.377H6.62557ZM5.26125 10.7843L4.95721 11.737L4.96213 11.7385L5.26125 10.7843ZM4.44659 10.5261L4.76573 9.57835L4.75687 9.57536L4.74795 9.57255L4.44659 10.5261ZM4.53002 7.95931L5.37934 8.48719L5.38928 8.4712L5.39861 8.45485L4.53002 7.95931ZM4.68216 7.79423L5.23976 8.62434L5.25308 8.61539L5.2661 8.60602L4.68216 7.79423ZM5.57043 8.45456L4.59143 8.25069L4.59076 8.25392L5.57043 8.45456ZM5.55571 8.59567L6.29106 7.91799L6.22309 7.84423L6.14182 7.78545L5.55571 8.59567ZM6.61575 7.97795L6.10269 7.11959L6.10109 7.12056L6.61575 7.97795ZM7.72978 7.33626L7.50707 6.36137L7.5033 6.36225L7.72978 7.33626ZM7.89418 7.65045L8.69915 8.24392L8.70695 8.23303L7.89418 7.65045ZM5.14347 8.63561L6.10882 8.89658L6.10936 8.89456L5.14347 8.63561ZM5.19991 8.22557L4.2642 8.57834L4.26695 8.58566L4.26982 8.59292L5.19991 8.22557ZM4.92263 8.10842L5.326 9.02347L5.33162 9.02096L4.92263 8.10842ZM4.76313 8.40929L3.80029 8.13923L3.80007 8.14L4.76313 8.40929ZM4.42205 10.0548L3.61716 10.6482L3.63488 10.6722L3.65401 10.6952L4.42205 10.0548ZM5.23917 10.361L5.54321 9.4083L5.53739 9.40648L5.23917 10.361ZM5.84035 10.0708L5.53078 11.0217L5.54333 11.0256L5.84035 10.0708ZM5.46492 9.67403L4.67179 9.06491L4.66646 9.07197L5.46492 9.67403ZM7.93835 8.16966L8.44988 9.02893L8.45057 9.02851L7.93835 8.16966ZM11.9626 5.77066L12.4733 6.6304L12.4763 6.62861L11.9626 5.77066ZM13.5993 4.76419L12.8208 4.13648L12.8106 4.14915L12.8008 4.16214L13.5993 4.76419ZM13.5698 4.47131L14.3052 3.79362L14.2985 3.78643L14.2918 3.77936L13.5698 4.47131ZM13.4152 4.40474L13.2506 3.4183L13.2373 3.42071L13.4152 4.40474ZM10.9492 5.84521L10.437 4.98632L10.4359 4.98699L10.9492 5.84521ZM8.37512 7.20314L7.63977 7.88082L7.65145 7.89349L7.66355 7.90575L8.37512 7.20314ZM8.3285 7.05137L9.31316 7.22587L9.31517 7.21455L9.31691 7.20318L8.3285 7.05137ZM8.39475 6.92622L7.79269 6.12778L7.7839 6.1344L7.77526 6.14122L8.39475 6.92622ZM13.3048 4.01334L13.5018 4.9938L13.5125 4.99154L13.3048 4.01334ZM13.2683 4.97084C13.2058 4.94633 13.1667 4.92061 13.1509 4.9096C13.1328 4.89694 13.1224 4.88738 13.1173 4.88247C13.112 4.87729 13.1059 4.87081 13.0986 4.86122C13.092 4.85255 13.0773 4.83209 13.0603 4.79813L14.8498 3.90486C14.7566 3.71812 14.6292 3.56273 14.51 3.44708C14.397 3.33738 14.223 3.19705 13.999 3.1091L13.2683 4.97084ZM13.0603 4.79813C13.0338 4.74504 13.0201 4.70235 13.0135 4.67871C13.0064 4.65361 13.0032 4.6357 13.0019 4.62698C12.9994 4.61083 13.0001 4.60685 13 4.61267C12.9999 4.61815 12.9993 4.61689 13.0014 4.60577C13.002 4.60213 13.0111 4.54882 13.0495 4.47145L14.841 5.36048C14.9713 5.09799 14.9968 4.81661 14.9997 4.6468C15.0024 4.48708 14.99 4.18582 14.8498 3.90486L13.0603 4.79813ZM13.0518 4.46683C13.0539 4.46254 13.0555 4.45963 13.0563 4.45809C13.0572 4.45651 13.0577 4.45563 13.0579 4.45538C13.058 4.45519 13.058 4.45516 13.0585 4.45441C13.0587 4.45412 13.062 4.44905 13.0691 4.43989C13.0728 4.43511 13.0788 4.42741 13.0873 4.41757C13.0952 4.40822 13.1087 4.393 13.1271 4.37451L14.5425 5.78758C14.6816 5.6483 14.7872 5.46766 14.8387 5.36509L13.0518 4.46683ZM13.0995 4.40336C13.1455 4.35342 13.186 4.32033 13.1943 4.31345C13.2094 4.30106 13.2209 4.29243 13.2254 4.28907C13.2347 4.28215 13.2388 4.27948 13.2335 4.28311C13.2241 4.28955 13.2042 4.30268 13.1711 4.32392C13.1063 4.36542 13.0114 4.42469 12.8915 4.49842C12.6528 4.64515 12.3287 4.84073 11.9775 5.04906L12.9979 6.76916C13.3559 6.55681 13.6893 6.35566 13.939 6.20218C14.0632 6.1258 14.1701 6.0591 14.2502 6.00783C14.2894 5.98268 14.3277 5.95772 14.3603 5.93551C14.3759 5.9248 14.3971 5.91017 14.4191 5.89379C14.43 5.88568 14.4468 5.87295 14.466 5.85709C14.4786 5.84675 14.5222 5.81084 14.5702 5.75873L13.0995 4.40336ZM11.9738 5.05126C11.2678 5.47421 9.58012 6.483 8.22355 7.29221L9.24812 9.00983C10.6055 8.20018 12.2942 7.19072 13.0016 6.76696L11.9738 5.05126ZM8.22355 7.29221C6.8919 8.08654 5.70679 8.79376 5.63614 8.84061L6.74144 10.5074C6.73758 10.51 6.99859 10.353 7.48306 10.0634C7.94428 9.78777 8.56969 9.41452 9.24812 9.00983L8.22355 7.29221ZM5.63933 8.83851L5.55835 8.89176L6.65728 10.5628L6.73825 10.5095L5.63933 8.83851ZM5.69225 10.6368L5.83212 10.7007L6.66324 8.88162L6.52338 8.81771L5.69225 10.6368ZM5.84305 10.7057C5.82572 10.698 5.75277 10.6589 5.69096 10.5631C5.62975 10.4681 5.62557 10.389 5.62557 10.377H7.62557C7.62557 10.0854 7.55881 9.76922 7.37184 9.47925C7.18427 9.18836 6.92239 8.9962 6.65231 8.8767L5.84305 10.7057ZM5.62559 10.37C5.62592 10.3229 5.64343 10.238 5.71914 10.1536C5.79918 10.0644 5.92612 10 6.0661 10V12C7.03762 12 7.62005 11.1759 7.62554 10.3839L5.62559 10.37ZM6.0661 10C6.12689 10 6.16866 10.0065 6.17289 10.0071C6.18328 10.0086 6.18522 10.0093 6.17548 10.0073C6.15592 10.0031 6.11868 9.99429 6.05947 9.97837C5.94241 9.9469 5.77561 9.89759 5.56037 9.83011L4.96213 11.7385C5.18857 11.8095 5.38494 11.868 5.54025 11.9098C5.61723 11.9305 5.69348 11.9496 5.76317 11.9643C5.80848 11.9738 5.93185 12 6.0661 12V10ZM5.56529 9.83167C5.3756 9.77113 5.18805 9.71203 5.04042 9.6655C4.9662 9.64211 4.90274 9.6221 4.85338 9.60645C4.82871 9.59863 4.80841 9.59216 4.79256 9.58707C4.78465 9.58453 4.77833 9.58248 4.77343 9.58088C4.77101 9.58009 4.76913 9.57948 4.76774 9.57902C4.76631 9.57854 4.76569 9.57834 4.76573 9.57835L4.12745 11.4738C4.20762 11.5008 4.60209 11.6237 4.95722 11.737L5.56529 9.83167ZM4.74795 9.57255C4.84931 9.60458 4.90639 9.66036 4.93578 9.70056C4.96545 9.74113 5 9.81106 5 9.91366H3C3 10.617 3.47493 11.2677 4.14524 11.4796L4.74795 9.57255ZM5 9.91366C5 9.96674 4.99533 10.0055 4.99439 10.0135C4.99353 10.0208 4.99277 10.0262 4.99232 10.0292C4.99187 10.0323 4.99156 10.0341 4.9915 10.0345C4.99143 10.0349 4.99187 10.0323 4.99314 10.0257C4.99436 10.0194 4.99607 10.011 4.99835 10.0001C5.00792 9.95475 5.02333 9.88787 5.04432 9.80187C5.08587 9.63154 5.14319 9.4109 5.20358 9.1878C5.264 8.9646 5.3256 8.74593 5.37537 8.57928C5.40053 8.49503 5.42065 8.43085 5.43486 8.38852C5.44218 8.36671 5.44531 8.35853 5.44481 8.35982C5.44458 8.36043 5.44098 8.36979 5.43438 8.38448C5.43056 8.39297 5.4119 8.43481 5.37934 8.48719L3.6807 7.43143C3.62098 7.52752 3.58577 7.6221 3.57987 7.63734C3.56483 7.67616 3.55081 7.71635 3.53877 7.75223C3.51427 7.82526 3.48686 7.91368 3.459 8.00699C3.40271 8.19546 3.33626 8.43177 3.27307 8.66521C3.20985 8.89873 3.14801 9.1364 3.1013 9.32785C3.07815 9.42274 3.05717 9.51262 3.04136 9.58759C3.03358 9.62452 3.02547 9.66526 3.01884 9.70494C3.01571 9.72368 3 9.81269 3 9.91366H5ZM5.39861 8.45485C5.37922 8.48883 5.36288 8.51108 5.35533 8.52098C5.34669 8.53231 5.33962 8.54045 5.33408 8.54647C5.32858 8.55244 5.32058 8.56065 5.30903 8.57102C5.2991 8.57993 5.27586 8.60009 5.23976 8.62434L4.12455 6.96412C3.94013 7.088 3.76687 7.27896 3.66143 7.46378L5.39861 8.45485ZM5.2661 8.60602C5.19876 8.65446 5.09922 8.69028 4.98677 8.68638C4.88147 8.68273 4.79631 8.64569 4.73698 8.60161C4.61617 8.51186 4.56715 8.3673 4.59143 8.25069L6.54943 8.65842C6.68904 7.98799 6.41427 7.35617 5.92969 6.99617C5.43472 6.62846 4.70556 6.54555 4.09821 6.98244L5.2661 8.60602ZM4.59076 8.25392C4.5792 8.3104 4.56765 8.37693 4.56054 8.44298C4.55746 8.47159 4.55195 8.52868 4.55294 8.59611C4.55337 8.62578 4.55527 8.69734 4.57265 8.78517C4.58132 8.82895 4.59982 8.90847 4.64114 9.00116C4.67783 9.08346 4.76959 9.26122 4.96959 9.4059L6.14182 7.78545C6.34091 7.92946 6.43186 8.1061 6.46786 8.18685C6.50848 8.27797 6.52641 8.3555 6.5346 8.39689C6.55103 8.47992 6.55241 8.54505 6.55273 8.56686C6.55348 8.61856 6.54936 8.65419 6.54904 8.65717C6.54744 8.67197 6.54694 8.67061 6.5501 8.65519L4.59076 8.25392ZM4.82036 9.27336C5.07844 9.5534 5.39318 9.5863 5.48056 9.5929C5.59863 9.60183 5.69101 9.58736 5.72915 9.58066C5.81192 9.56614 5.87419 9.54408 5.89177 9.53785C5.93834 9.52133 5.97415 9.50463 5.98367 9.50021C6.01087 9.48756 6.03434 9.47527 6.04533 9.46948C6.07189 9.45547 6.10241 9.43859 6.13174 9.42213C6.19279 9.38786 6.27611 9.34001 6.37401 9.28308C6.57094 9.16857 6.83876 9.01041 7.13041 8.83534L6.10109 7.12056C5.8161 7.29163 5.55635 7.44499 5.36865 7.55414C5.27423 7.60904 5.20097 7.65105 5.1529 7.67803C5.14114 7.68463 5.13169 7.68988 5.12439 7.69389C5.12077 7.69588 5.11795 7.69741 5.11585 7.69855C5.11482 7.69911 5.11403 7.69953 5.11348 7.69983C5.11292 7.70012 5.11267 7.70026 5.1127 7.70024C5.11273 7.70023 5.11316 7.7 5.11396 7.69958C5.11474 7.69918 5.1161 7.69848 5.11796 7.69754C5.12078 7.69611 5.12898 7.69199 5.1405 7.68663C5.14611 7.68402 5.17888 7.66862 5.22332 7.65286C5.23983 7.647 5.30126 7.62519 5.38342 7.61077C5.42125 7.60413 5.51339 7.58968 5.63126 7.59859C5.69272 7.60323 5.78766 7.61603 5.8971 7.65577C6.00853 7.69624 6.15762 7.7732 6.29106 7.91799L4.82036 9.27336ZM7.12881 8.83631C7.41467 8.66544 7.67975 8.50988 7.87586 8.39701C7.97451 8.34023 8.05223 8.29626 8.10508 8.26716C8.13233 8.25215 8.14729 8.24423 8.15282 8.24139C8.15631 8.23959 8.14972 8.24308 8.13717 8.24888C8.13111 8.25168 8.11647 8.25835 8.09659 8.2663C8.08683 8.27021 8.03136 8.29282 7.95625 8.31028L7.5033 6.36225C7.42604 6.38021 7.36752 6.40387 7.35381 6.40935C7.32998 6.41888 7.31052 6.42766 7.29876 6.43309C7.27482 6.44415 7.25338 6.45497 7.23877 6.46248C7.20809 6.47824 7.17379 6.4968 7.14022 6.51529C7.07145 6.55316 6.9814 6.60421 6.87823 6.66359C6.67069 6.78304 6.39593 6.94432 6.10269 7.1196L7.12881 8.83631ZM7.95248 8.31115C7.57883 8.39651 7.30011 8.22541 7.17351 8.10492C7.03935 7.97725 6.92608 7.77674 6.92608 7.52265H8.92608C8.92608 7.15938 8.76128 6.85504 8.55228 6.65614C8.35084 6.46443 7.97396 6.25472 7.50707 6.36138L7.95248 8.31115ZM6.92608 7.52265C6.92608 7.45278 6.93558 7.39571 6.94729 7.34956C6.95366 7.32447 6.96365 7.29092 6.9797 7.25134C6.99345 7.21742 7.02407 7.14786 7.08141 7.06787L8.70695 8.23303C8.82253 8.07179 8.8682 7.91106 8.88585 7.84151C8.90921 7.74943 8.92608 7.64044 8.92608 7.52265H6.92608ZM7.08929 7.05703C7.13618 6.99343 7.18013 6.95009 7.19668 6.93404C7.21805 6.91332 7.23597 6.89787 7.24626 6.88919C7.26673 6.87196 7.28264 6.8601 7.28784 6.85625C7.29947 6.84763 7.30535 6.84385 7.29958 6.84773C7.29013 6.8541 7.2696 6.8675 7.2349 6.88949C7.16735 6.9323 7.06854 6.99346 6.94586 7.06844C6.70176 7.21762 6.37719 7.41295 6.05071 7.60754C5.7242 7.80214 5.39897 7.9941 5.15353 8.13664C5.03011 8.20832 4.93073 8.26525 4.86268 8.30323C4.82752 8.32285 4.8076 8.33356 4.79947 8.33778C4.79388 8.34068 4.80282 8.33586 4.81958 8.32822C4.82665 8.325 4.85015 8.31435 4.88246 8.30252C4.89834 8.2967 4.92924 8.28583 4.96936 8.27528C4.9949 8.26856 5.09295 8.24269 5.22199 8.24269V10.2427C5.35184 10.2427 5.451 10.2166 5.47796 10.2095C5.5195 10.1986 5.55212 10.1872 5.57002 10.1806C5.60638 10.1673 5.63511 10.1545 5.64858 10.1483C5.67814 10.1349 5.7045 10.1214 5.72066 10.113C5.75602 10.0946 5.79688 10.0722 5.83731 10.0497C5.92045 10.0033 6.03151 9.93957 6.15795 9.86613C6.41224 9.71845 6.74448 9.52233 7.07466 9.32554C7.40488 9.12872 7.73625 8.92932 7.98881 8.77497C8.11446 8.69818 8.22416 8.63037 8.3055 8.57882C8.34524 8.55363 8.38425 8.52851 8.41695 8.50649C8.43226 8.49617 8.45486 8.48073 8.47857 8.46316C8.48981 8.45483 8.51059 8.43918 8.53473 8.41885C8.53771 8.41634 8.62146 8.34914 8.69907 8.24387L7.08929 7.05703ZM5.22199 8.24269C5.31491 8.24269 5.38825 8.25603 5.43063 8.26546C5.4764 8.27565 5.51313 8.28744 5.53841 8.29645C5.58814 8.31417 5.62519 8.33245 5.64771 8.34447C5.69197 8.36809 5.7336 8.39613 5.77447 8.43161L4.4634 9.94193C4.54107 10.0094 4.62442 10.0654 4.7061 10.1089C4.74733 10.131 4.80201 10.1572 4.86715 10.1804C4.91327 10.1969 5.04701 10.2427 5.22199 10.2427V8.24269ZM5.77447 8.43161C5.82139 8.47233 5.92259 8.57127 5.99202 8.73501C6.05854 8.89192 6.05984 9.02342 6.05759 9.07592C6.05562 9.12166 6.04933 9.13741 6.05908 9.09267C6.06768 9.0532 6.08276 8.99297 6.10882 8.89658L4.17812 8.37465C4.13215 8.54472 4.06852 8.77853 4.05943 8.99009C4.0538 9.12114 4.06384 9.31088 4.15069 9.51572C4.24043 9.72738 4.37354 9.86393 4.4634 9.94193L5.77447 8.43161ZM6.10936 8.89456C6.14214 8.77231 6.18389 8.61953 6.20239 8.48829C6.21401 8.40584 6.22298 8.29395 6.20781 8.16399C6.19205 8.0289 6.1559 7.92381 6.12999 7.85822L4.26982 8.59292C4.25864 8.56461 4.23261 8.49281 4.2213 8.39583C4.21058 8.30397 4.21832 8.23501 4.22196 8.20915C4.22491 8.18829 4.22675 8.18567 4.21788 8.22214C4.2097 8.25578 4.19732 8.30302 4.17758 8.37666L6.10936 8.89456ZM6.13562 7.8728C5.89152 7.22536 5.1609 6.90578 4.51364 7.19588L5.33162 9.02096C5.14613 9.10409 4.91535 9.11703 4.69825 9.02542C4.48175 8.93406 4.33344 8.76201 4.2642 8.57834L6.13562 7.8728ZM4.51926 7.19338C4.48512 7.20843 4.36794 7.25929 4.24671 7.35699C4.10913 7.46788 4.01793 7.59482 3.95678 7.70952C3.87215 7.86825 3.82244 8.06026 3.80029 8.13923L5.72598 8.67935C5.74332 8.61752 5.75198 8.58842 5.75689 8.57333C5.76338 8.55339 5.75245 8.59261 5.72162 8.65044C5.68194 8.72486 5.61283 8.82467 5.50177 8.91418C5.45231 8.95404 5.40761 8.98122 5.37646 8.99828C5.34771 9.01403 5.32656 9.02321 5.32599 9.02346L4.51926 7.19338ZM3.80007 8.14C3.7111 8.45819 3.61072 8.83234 3.53236 9.13418C3.49326 9.28477 3.45874 9.42086 3.43354 9.52464C3.42112 9.57576 3.40967 9.62437 3.40081 9.66504C3.39654 9.68467 3.39131 9.70954 3.38665 9.73523C3.38436 9.74782 3.38097 9.76738 3.37784 9.79041C3.37616 9.80274 3.36807 9.86018 3.36807 9.9323H5.36807C5.36807 10.0013 5.36041 10.054 5.35958 10.0601C5.35729 10.0769 5.35516 10.0887 5.35454 10.0922C5.3532 10.0996 5.35288 10.1004 5.35499 10.0907C5.35888 10.0728 5.36605 10.0419 5.37706 9.99656C5.39871 9.90739 5.43029 9.78271 5.46818 9.63675C5.54379 9.3455 5.64094 8.98345 5.72619 8.67859L3.80007 8.14ZM3.36807 9.9323C3.36807 10.1637 3.44635 10.3423 3.47102 10.3975C3.50976 10.4842 3.55934 10.5698 3.61716 10.6482L5.22695 9.46136C5.25532 9.49984 5.27791 9.53882 5.29702 9.58159C5.30701 9.60394 5.32131 9.63908 5.33443 9.68537C5.34541 9.72408 5.36807 9.81321 5.36807 9.9323H3.36807ZM3.65401 10.6952C3.87111 10.9555 4.1729 11.0584 4.25999 11.0911C4.41075 11.1477 4.63105 11.2186 4.94095 11.3155L5.53739 9.40648C5.21666 9.30627 5.05171 9.25205 4.96323 9.21882C4.91821 9.20191 4.92595 9.20245 4.95568 9.2185C4.98798 9.23593 5.09025 9.29463 5.19009 9.41438L3.65401 10.6952ZM4.93513 11.3136C5.15091 11.3825 5.35652 11.4451 5.51582 11.4912C5.59467 11.5141 5.66735 11.5344 5.72646 11.5497C5.75513 11.5572 5.78818 11.5655 5.8206 11.5726C5.83637 11.576 5.86001 11.581 5.88725 11.5856C5.89845 11.5874 5.97213 11.6006 6.06365 11.6006V9.60061C6.1159 9.60061 6.15626 9.60487 6.17312 9.60681C6.19366 9.60916 6.20962 9.6117 6.21855 9.6132C6.23612 9.61615 6.24762 9.61869 6.24892 9.61898C6.2524 9.61974 6.24721 9.61865 6.22945 9.61403C6.1957 9.60526 6.14277 9.59062 6.07225 9.5702C5.9328 9.5298 5.74458 9.47258 5.54321 9.40832L4.93513 11.3136ZM6.06365 11.6006C6.80706 11.6006 7.2575 10.9727 7.2575 10.3876H5.2575C5.2575 10.0421 5.53616 9.60061 6.06365 9.60061V11.6006ZM7.2575 10.3876C7.2575 10.3131 7.25492 10.1387 7.1835 9.94293C7.10013 9.71442 6.95621 9.54068 6.79468 9.41707C6.65741 9.31201 6.5173 9.25104 6.4299 9.21633C6.33591 9.179 6.23316 9.14568 6.13737 9.11588L5.54333 11.0256C5.63157 11.0531 5.67299 11.0677 5.69172 11.0751C5.71704 11.0852 5.65821 11.0658 5.57921 11.0053C5.47597 10.9263 5.36732 10.8002 5.30465 10.6284C5.27789 10.5551 5.26691 10.4931 5.26206 10.4534C5.25741 10.4154 5.2575 10.3899 5.2575 10.3876H7.2575ZM6.14989 9.11987C6.07006 9.09388 6.02619 9.07807 6.00234 9.06851C5.97343 9.05691 6.00662 9.06723 6.06115 9.10392C6.1244 9.14647 6.23999 9.24024 6.32624 9.4052C6.41268 9.5705 6.4232 9.71882 6.4232 9.78852H4.4232C4.4232 9.91946 4.44293 10.1197 4.5539 10.3319C4.6647 10.5438 4.82016 10.6795 4.94476 10.7633C5.14271 10.8965 5.38716 10.9749 5.53081 11.0216L6.14989 9.11987ZM6.4232 9.78852C6.4232 9.86934 6.41239 9.93297 6.40386 9.97227C6.39476 10.0142 6.38366 10.0493 6.37315 10.0776C6.35533 10.1256 6.32344 10.1964 6.26337 10.2761L4.66646 9.07197C4.58431 9.18093 4.53157 9.29171 4.49841 9.38094C4.46792 9.46298 4.4232 9.60858 4.4232 9.78852H6.4232ZM6.25802 10.2831C6.19946 10.3594 6.14289 10.4091 6.13222 10.4186C6.11149 10.4371 6.09464 10.4504 6.08666 10.4567C6.07022 10.4696 6.05845 10.4778 6.05729 10.4786C6.05328 10.4814 6.05609 10.4793 6.07045 10.47C6.09725 10.4524 6.14113 10.4245 6.20363 10.3855C6.32714 10.3083 6.50621 10.1983 6.72902 10.0628C7.17376 9.79224 7.78316 9.42583 8.44988 9.02892L7.42682 7.31039C6.75622 7.70961 6.14117 8.0794 5.68965 8.35405C5.46435 8.4911 5.27734 8.60592 5.14374 8.68941C5.07768 8.73069 5.02024 8.76707 4.97633 8.79577C4.95534 8.80949 4.93044 8.82601 4.90681 8.84263C4.89583 8.85035 4.87626 8.86429 4.85409 8.88163C4.84325 8.89012 4.82406 8.90543 4.8015 8.92553C4.78901 8.93667 4.73114 8.98769 4.67182 9.06494L6.25802 10.2831ZM8.45057 9.02851C9.7864 8.23182 11.5958 7.15167 12.4733 6.63039L11.4518 4.91092C10.5724 5.43338 8.76003 6.51526 7.42613 7.3108L8.45057 9.02851ZM12.4763 6.62861C12.9163 6.36516 13.3234 6.11879 13.6246 5.93379C13.7746 5.84165 13.9016 5.7627 13.9943 5.70371C14.0397 5.67478 14.0827 5.64703 14.1178 5.62333C14.1343 5.61216 14.1574 5.59634 14.1812 5.57879C14.1924 5.57047 14.2128 5.55518 14.2364 5.53551C14.2388 5.53349 14.3209 5.46807 14.3977 5.36625L12.8008 4.16214C12.8473 4.10049 12.8905 4.05852 12.9063 4.04345C12.9269 4.02368 12.9441 4.00897 12.9539 4.00083C12.9733 3.98463 12.9881 3.9736 12.9926 3.97033C13.0026 3.96289 13.0067 3.96031 12.9993 3.96534C12.9864 3.97405 12.9611 3.99056 12.9205 4.01638C12.8412 4.06689 12.7246 4.13938 12.5777 4.22963C12.2851 4.4094 11.8849 4.65163 11.4489 4.9127L12.4763 6.62861ZM14.3777 5.39192C14.8306 4.83023 14.6412 4.15828 14.3052 3.79362L12.8345 5.149C12.7573 5.06522 12.6682 4.92222 12.6477 4.72261C12.6261 4.51124 12.6898 4.29898 12.8208 4.13648L14.3777 5.39192ZM14.2918 3.77936C14.2559 3.74193 14.1115 3.5856 13.8839 3.48882C13.6024 3.36912 13.3543 3.40108 13.2506 3.41839L13.5799 5.3911C13.5399 5.39776 13.3373 5.42972 13.1012 5.32932C13.001 5.28671 12.9318 5.2357 12.8957 5.20631C12.8622 5.17896 12.8435 5.15869 12.8479 5.16326L14.2918 3.77936ZM13.2373 3.42071C13.1535 3.43585 13.0904 3.45866 13.0725 3.46513C13.0452 3.47499 13.0233 3.48419 13.0105 3.48974C12.9847 3.50095 12.963 3.51151 12.9506 3.51767C12.9241 3.53079 12.8973 3.54502 12.875 3.55706C12.8285 3.5822 12.7691 3.61543 12.7019 3.65364C12.5658 3.73095 12.3778 3.83981 12.1532 3.97113C11.703 4.23434 11.0949 4.59403 10.437 4.98632L11.4613 6.7041C12.1162 6.31359 12.719 5.95704 13.1626 5.69771C13.3849 5.56777 13.5645 5.46378 13.6899 5.39257C13.7533 5.35652 13.7981 5.33156 13.8258 5.31659C13.8407 5.30858 13.8435 5.30726 13.8388 5.3096C13.8372 5.31038 13.8245 5.31674 13.8055 5.32498C13.7961 5.32904 13.7772 5.33706 13.7523 5.34604C13.7368 5.35164 13.6755 5.37389 13.5932 5.38878L13.2373 3.42071ZM10.4359 4.98699C9.75438 5.39457 9.1548 5.74931 8.72237 6.00139C8.50551 6.1278 8.3341 6.2264 8.21658 6.2924C8.15675 6.326 8.11719 6.3476 8.09493 6.3593C8.08232 6.36592 8.08494 6.36426 8.09644 6.3589C8.10079 6.35687 8.12158 6.34716 8.15117 6.33591C8.16552 6.33045 8.19545 6.31942 8.23477 6.30849C8.25585 6.30262 8.36123 6.27236 8.50027 6.27236V8.27236C8.64046 8.27236 8.74748 8.2418 8.77069 8.23535C8.81214 8.22382 8.84468 8.21191 8.86213 8.20527C8.89793 8.19166 8.92684 8.17842 8.94121 8.17173C8.97272 8.15704 9.00292 8.14148 9.02508 8.12984C9.07237 8.10499 9.13119 8.07257 9.19589 8.03623C9.32743 7.96236 9.50968 7.85744 9.72959 7.72925C10.1707 7.47211 10.7772 7.11327 11.4624 6.70343L10.4359 4.98699ZM8.50027 6.27236C8.63704 6.27236 8.7409 6.3021 8.79485 6.32054C8.85452 6.34094 8.90003 6.36386 8.93043 6.38102C8.98851 6.41383 9.03982 6.45305 9.0867 6.50052L7.66355 7.90575C7.74724 7.9905 7.84394 8.06433 7.94681 8.12243C8.02063 8.16413 8.22487 8.27236 8.50027 8.27236V6.27236ZM9.11048 6.52545C9.11162 6.52669 9.22252 6.64 9.2835 6.83565C9.34741 7.04066 9.31692 7.20464 9.31316 7.22587L7.34385 6.87686C7.32781 6.96732 7.2961 7.18056 7.37411 7.43083C7.44921 7.67175 7.58955 7.82632 7.63977 7.88082L9.11048 6.52545ZM9.31691 7.20318C9.29889 7.32052 9.26088 7.40469 9.2334 7.45539C9.21734 7.48502 9.19593 7.51965 9.16715 7.55711C9.14157 7.59042 9.09202 7.64986 9.01425 7.71123L7.77526 6.14122C7.61252 6.26966 7.51988 6.41969 7.47514 6.50223C7.42311 6.5982 7.36548 6.73429 7.34009 6.89955L9.31691 7.20318ZM8.99682 7.72467C8.96338 7.74989 8.98878 7.7315 9.16475 7.62433C9.30442 7.53926 9.49791 7.42257 9.72821 7.28439C10.1883 7.00831 10.7899 6.64972 11.3896 6.29378C11.9894 5.9378 12.5859 5.5853 13.0359 5.32132C13.2613 5.18913 13.4481 5.08023 13.5797 5.00449C13.646 4.96628 13.695 4.93847 13.7266 4.92088C13.7432 4.91162 13.7496 4.90826 13.7491 4.90852C13.7485 4.90883 13.7464 4.90991 13.7432 4.91153C13.7403 4.91301 13.7342 4.91604 13.726 4.91994C13.7192 4.92314 13.7026 4.93092 13.6804 4.93998C13.6761 4.94171 13.6015 4.97371 13.5018 4.99374L13.1078 3.03294C13.0071 3.05318 12.9308 3.08573 12.9244 3.08834C12.9001 3.09829 12.8808 3.10727 12.8707 3.11202C12.8497 3.12197 12.8317 3.13127 12.8215 3.1366C12.7994 3.14821 12.7756 3.16129 12.7541 3.17322C12.7095 3.19802 12.6506 3.23163 12.5818 3.27121C12.4431 3.35104 12.2508 3.46318 12.0241 3.59617C11.5699 3.86255 10.9702 4.21697 10.3688 4.5739C9.7674 4.93086 9.16293 5.29118 8.69921 5.56941C8.46758 5.70839 8.26969 5.82772 8.12441 5.9162C8.01544 5.98257 7.86233 6.07527 7.79269 6.12778L8.99682 7.72467ZM13.5125 4.99154C13.4829 4.99782 13.4406 5.00251 13.3907 4.99853C13.3408 4.99456 13.3005 4.98329 13.2737 4.97294L13.9936 3.107C13.7023 2.99464 13.3996 2.97092 13.0971 3.03514L13.5125 4.99154Z" fill="#FCBC05" mask="url(#path-2-inside-1_879_10758)"/>
<mask id="path-4-inside-2_879_10758" fill="white">
<path d="M15.3367 7.00842C15.3672 7.01341 15.4117 7.04835 15.4375 7.08329C15.4844 7.14818 15.4844 7.17313 15.4844 10.9864V14.8271H15.693C15.8922 14.8271 15.9062 14.8296 15.9508 14.892C15.9977 14.9544 16 14.9918 16 15.4185C16 15.8727 16 15.8777 15.9414 15.9376L15.8852 16H10H4.11484L4.05859 15.9376C4 15.8777 4 15.8727 4 15.4185C4 14.9918 4.00234 14.9544 4.04922 14.892C4.09375 14.8296 4.10781 14.8271 4.30703 14.8271H4.51562V13.5069C4.51562 12.2117 4.51562 12.1868 4.56484 12.1219L4.61172 12.057H5.45312H6.29453L6.34141 12.1219C6.39062 12.1868 6.39062 12.2117 6.39062 13.5069V14.8271H6.58984H6.78906L6.79375 12.8531L6.80078 10.8791L6.85703 10.8317C6.90859 10.7867 6.96016 10.7842 7.73125 10.7842H8.54922L8.60547 10.8466L8.66406 10.9065V12.868V14.8271H8.86328H9.0625V13.5693C9.0625 12.3365 9.0625 12.3115 9.11172 12.2466C9.17266 12.1643 9.29687 12.1568 9.36719 12.2317C9.41172 12.2791 9.41406 12.314 9.41406 13.5543V14.8271H10H10.5859V12.3689V9.91078H10H9.41406V10.7343C9.41406 11.5254 9.41172 11.5604 9.36719 11.6078C9.28984 11.6901 9.19141 11.6826 9.11406 11.5928C9.0625 11.5304 9.0625 11.5304 9.0625 10.5996C9.0625 9.69367 9.06484 9.66622 9.11172 9.60133L9.15859 9.53645H10H10.8414L10.8883 9.60133C10.9375 9.66871 10.9375 9.6762 10.9375 12.2466V14.8271H11.1367H11.3359V11.6078V8.38598L11.3945 8.32609L11.4508 8.2637H12.2734H13.0961L13.1523 8.32609L13.2109 8.38598V11.6078V14.8271H13.4102H13.6094V12.1942V9.55891L13.668 9.49901C13.7406 9.41915 13.8414 9.41666 13.9094 9.49402L13.9609 9.55142V12.1892V14.8271H14.5469H15.1328L15.1281 11.1012L15.1211 7.37777H14.5469H13.9727L13.9609 8.10897L13.9492 8.84267L13.8906 8.89259C13.8203 8.95248 13.7102 8.93751 13.6492 8.86014C13.6141 8.81273 13.6094 8.73037 13.6094 7.97421V7.14318L13.6656 7.07331L13.7219 7.00343L14.5047 7.00094C14.9336 6.99844 15.3086 7.00094 15.3367 7.00842ZM11.6875 11.7326V14.8271H12.2734H12.8594V11.7326V8.63804H12.2734H11.6875V11.7326ZM7.14062 12.9928V14.8271H7.72656H8.3125V12.9928V11.1586H7.72656H7.14062V12.9928ZM4.86719 13.6292V14.8271H5.45312H6.03906V13.6292V12.4313H5.45312H4.86719V13.6292ZM4.35156 15.4135V15.6257H10H15.6484V15.4135V15.2014H10H4.35156V15.4135Z"/>
</mask>
<path d="M15.3367 7.00842C15.3672 7.01341 15.4117 7.04835 15.4375 7.08329C15.4844 7.14818 15.4844 7.17313 15.4844 10.9864V14.8271H15.693C15.8922 14.8271 15.9062 14.8296 15.9508 14.892C15.9977 14.9544 16 14.9918 16 15.4185C16 15.8727 16 15.8777 15.9414 15.9376L15.8852 16H10H4.11484L4.05859 15.9376C4 15.8777 4 15.8727 4 15.4185C4 14.9918 4.00234 14.9544 4.04922 14.892C4.09375 14.8296 4.10781 14.8271 4.30703 14.8271H4.51562V13.5069C4.51562 12.2117 4.51562 12.1868 4.56484 12.1219L4.61172 12.057H5.45312H6.29453L6.34141 12.1219C6.39062 12.1868 6.39062 12.2117 6.39062 13.5069V14.8271H6.58984H6.78906L6.79375 12.8531L6.80078 10.8791L6.85703 10.8317C6.90859 10.7867 6.96016 10.7842 7.73125 10.7842H8.54922L8.60547 10.8466L8.66406 10.9065V12.868V14.8271H8.86328H9.0625V13.5693C9.0625 12.3365 9.0625 12.3115 9.11172 12.2466C9.17266 12.1643 9.29687 12.1568 9.36719 12.2317C9.41172 12.2791 9.41406 12.314 9.41406 13.5543V14.8271H10H10.5859V12.3689V9.91078H10H9.41406V10.7343C9.41406 11.5254 9.41172 11.5604 9.36719 11.6078C9.28984 11.6901 9.19141 11.6826 9.11406 11.5928C9.0625 11.5304 9.0625 11.5304 9.0625 10.5996C9.0625 9.69367 9.06484 9.66622 9.11172 9.60133L9.15859 9.53645H10H10.8414L10.8883 9.60133C10.9375 9.66871 10.9375 9.6762 10.9375 12.2466V14.8271H11.1367H11.3359V11.6078V8.38598L11.3945 8.32609L11.4508 8.2637H12.2734H13.0961L13.1523 8.32609L13.2109 8.38598V11.6078V14.8271H13.4102H13.6094V12.1942V9.55891L13.668 9.49901C13.7406 9.41915 13.8414 9.41666 13.9094 9.49402L13.9609 9.55142V12.1892V14.8271H14.5469H15.1328L15.1281 11.1012L15.1211 7.37777H14.5469H13.9727L13.9609 8.10897L13.9492 8.84267L13.8906 8.89259C13.8203 8.95248 13.7102 8.93751 13.6492 8.86014C13.6141 8.81273 13.6094 8.73037 13.6094 7.97421V7.14318L13.6656 7.07331L13.7219 7.00343L14.5047 7.00094C14.9336 6.99844 15.3086 7.00094 15.3367 7.00842ZM11.6875 11.7326V14.8271H12.2734H12.8594V11.7326V8.63804H12.2734H11.6875V11.7326ZM7.14062 12.9928V14.8271H7.72656H8.3125V12.9928V11.1586H7.72656H7.14062V12.9928ZM4.86719 13.6292V14.8271H5.45312H6.03906V13.6292V12.4313H5.45312H4.86719V13.6292ZM4.35156 15.4135V15.6257H10H15.6484V15.4135V15.2014H10H4.35156V15.4135Z" stroke="#FCBC05" stroke-width="2" mask="url(#path-4-inside-2_879_10758)"/>
</svg>
