<svg width="28" height="28" viewBox="0 0 28 28" fill="none" xmlns="http://www.w3.org/2000/svg">
<rect width="28" height="28" rx="3" fill="#F36B28" fill-opacity="0.15"/>
<path d="M17.5 21.4999L17.5 21.9999L18 21.9999V21.4999H17.5ZM10.3735 12.9007L10.804 12.6464L10.7991 12.638L10.7938 12.6299L10.3735 12.9007ZM8.9375 14.2727L8.58943 14.6316L8.93492 14.9667L9.28289 14.6342L8.9375 14.2727ZM7.8125 13.1818L8.16057 12.8228L7.8125 12.4853L7.46443 12.8228L7.8125 13.1818ZM13.7059 7.86835C13.4826 8.03077 13.4332 8.34347 13.5956 8.5668C13.758 8.79013 14.0708 8.8395 14.2941 8.67708L13.7059 7.86835ZM18.7941 5.40437C19.0174 5.24195 19.0668 4.92924 18.9044 4.70591C18.742 4.48259 18.4292 4.43321 18.2059 4.59563L18.7941 5.40437ZM14.8185 11.1504C14.6003 11.3196 14.5607 11.6337 14.7299 11.8519C14.8992 12.0701 15.2133 12.1098 15.4315 11.9405L14.8185 11.1504ZM21.0565 7.57687C21.2747 7.40761 21.3143 7.09353 21.1451 6.87534C20.9758 6.65715 20.6617 6.61749 20.4435 6.78675L21.0565 7.57687ZM18.2059 12.232C17.9826 12.3944 17.9332 12.7071 18.0956 12.9304C18.258 13.1537 18.5708 13.2031 18.7941 13.0407L18.2059 12.232ZM23.2941 9.76799C23.5174 9.60557 23.5668 9.29286 23.4044 9.06954C23.2419 8.84621 22.9292 8.79683 22.7059 8.95925L23.2941 9.76799ZM13.5 21.5L13.5 21L13 21V21.5H13.5ZM5 21.9999H10.5V20.9999H5V21.9999ZM16.931 17.3073L12.6437 16.021L12.3563 16.9789L16.6437 18.2651L16.931 17.3073ZM12.503 16L5.00303 15.9545L4.99697 16.9545L12.497 16.9999L12.503 16ZM5 12.0454H8.95482V11.0454H5V12.0454ZM9.37496 12.2744C9.55293 12.5505 9.77827 12.9001 9.95327 13.1716L10.7938 12.6299C10.6188 12.3583 10.3935 12.0087 10.2155 11.7326L9.37496 12.2744ZM9.94306 13.1551L12.0695 16.7543L12.9305 16.2456L10.804 12.6464L9.94306 13.1551ZM10.0281 12.5392L8.59211 13.9112L9.28289 14.6342L10.7189 13.2623L10.0281 12.5392ZM9.28557 13.9137L8.16057 12.8228L7.46443 13.5407L8.58943 14.6316L9.28557 13.9137ZM7.8125 13.1818C7.46443 12.8228 7.46442 12.8228 7.46442 12.8228C7.46441 12.8228 7.46441 12.8229 7.4644 12.8229C7.46439 12.8229 7.46433 12.8229 7.4643 12.823C7.4642 12.8231 7.46411 12.8231 7.46393 12.8233C7.46361 12.8236 7.46309 12.8241 7.46245 12.8248C7.46114 12.826 7.45918 12.8279 7.45662 12.8304C7.45149 12.8354 7.44391 12.8427 7.43411 12.8522C7.4145 12.8713 7.386 12.8989 7.35043 12.9334C7.27928 13.0024 7.17985 13.0988 7.06668 13.2085C6.84035 13.428 6.5591 13.7007 6.33943 13.9137L7.03557 14.6316C7.25524 14.4186 7.53649 14.1459 7.76282 13.9264C7.87599 13.8167 7.97543 13.7203 8.04657 13.6513C8.08215 13.6168 8.11064 13.5892 8.13025 13.5701C8.14005 13.5606 8.14764 13.5533 8.15276 13.5483C8.15533 13.5458 8.15729 13.5439 8.15859 13.5427C8.15923 13.542 8.15976 13.5415 8.16007 13.5412C8.16026 13.541 8.16034 13.541 8.16045 13.5409C8.16047 13.5408 8.16049 13.5408 8.1605 13.5408C8.16052 13.5408 8.16053 13.5408 8.16054 13.5408C8.16055 13.5408 8.16056 13.5408 8.16056 13.5407C8.16057 13.5407 8.16057 13.5407 7.8125 13.1818ZM14.2941 8.67708L18.7941 5.40437L18.2059 4.59563L13.7059 7.86835L14.2941 8.67708ZM15.4315 11.9405C16.5298 11.0884 17.9361 9.99754 19.0677 9.11965C19.6336 8.6807 20.1308 8.29501 20.4865 8.01905C20.6643 7.88107 20.8068 7.77053 20.9049 7.69448C20.9539 7.65645 20.9918 7.62705 21.0174 7.60716C21.0303 7.59721 21.04 7.58964 21.0466 7.58455C21.0498 7.58201 21.0523 7.58009 21.054 7.57881C21.0548 7.57815 21.0554 7.5777 21.0558 7.57736C21.0561 7.57715 21.0562 7.57712 21.0563 7.57699C21.0564 7.57695 21.0564 7.57692 21.0564 7.5769C21.0565 7.57688 21.0565 7.57687 20.75 7.18181C20.4435 6.78675 20.4435 6.78676 20.4435 6.78678C20.4435 6.7868 20.4434 6.78683 20.4434 6.78687C20.4432 6.78696 20.4431 6.78706 20.4429 6.78723C20.4425 6.78756 20.4419 6.78804 20.441 6.78868C20.4394 6.78996 20.4369 6.79189 20.4336 6.79443C20.4271 6.79951 20.4173 6.80708 20.4045 6.81703C20.3788 6.83693 20.3409 6.86633 20.2919 6.90435C20.1939 6.9804 20.0514 7.09095 19.8735 7.22892C19.5178 7.50488 19.0206 7.89057 18.4548 8.32952C17.3231 9.20741 15.9169 10.2983 14.8185 11.1504L15.4315 11.9405ZM18.7941 13.0407C19.6728 12.4017 20.7978 11.5835 21.7031 10.9251C22.1558 10.5959 22.5535 10.3066 22.8381 10.0996C22.9804 9.99613 23.0944 9.91324 23.1728 9.85619C23.2121 9.82763 23.2423 9.80567 23.2629 9.7907C23.2732 9.7832 23.2809 9.7776 23.2862 9.77375C23.2891 9.7716 23.2904 9.77065 23.2921 9.76944C23.2931 9.7687 23.2929 9.76886 23.2936 9.76835C23.2937 9.76829 23.2937 9.76824 23.2938 9.76819C23.2939 9.76815 23.2939 9.76811 23.294 9.76808C23.294 9.76805 23.294 9.76803 23.2941 9.76801C23.2941 9.768 23.2941 9.76799 23 9.36362C22.7059 8.95925 22.7059 8.95926 22.7059 8.95927C22.7059 8.95929 22.7058 8.95931 22.7058 8.95934C22.7057 8.95937 22.7057 8.95941 22.7056 8.95946C22.7056 8.9595 22.7055 8.95956 22.7054 8.95962C22.7053 8.95968 22.7052 8.95974 22.7051 8.95982C22.705 8.9599 22.7049 8.95998 22.7048 8.96007C22.7047 8.96016 22.7045 8.96026 22.7044 8.96036C22.7042 8.96047 22.7041 8.96058 22.7039 8.9607C22.7029 8.96142 22.7003 8.96335 22.698 8.96501C22.6928 8.96877 22.6849 8.97456 22.6747 8.98196C22.6542 8.99684 22.6238 9.01898 22.5846 9.04746C22.5062 9.10449 22.3922 9.18741 22.2499 9.29088C21.9653 9.49785 21.5676 9.78712 21.1149 10.1163C20.2096 10.7748 19.0846 11.5929 18.2059 12.232L18.7941 13.0407ZM18 21.4999V18.744H17V21.4999H18ZM13.5 22L17.5 21.9999L17.5 20.9999L13.5 21L13.5 22ZM12 23.5C13.1046 23.5 14 22.6046 14 21.5H13C13 22.0523 12.5523 22.5 12 22.5V23.5ZM8.95482 12.0454C9.12487 12.0454 9.28297 12.1316 9.37496 12.2744L10.2155 11.7326C9.93926 11.304 9.46445 11.0454 8.95482 11.0454V12.0454ZM10 21.4999C10 22.6045 10.8954 23.5 12 23.5V22.5C11.4477 22.5 11 22.0522 11 21.4999H10ZM16.6437 18.2651C16.8552 18.3286 17 18.5232 17 18.744H18C18 18.0816 17.5655 17.4976 16.931 17.3073L16.6437 18.2651ZM12 20.5C12.5523 20.5 13 20.9477 13 21.5H14C14 20.3954 13.1045 19.5 12 19.5V20.5ZM11 21.4999C11 20.9477 11.4477 20.5 12 20.5V19.5C10.8954 19.5 10 20.3954 10 21.4999H11Z" fill="#F36B28"/>
</svg>
