<svg width="48" height="48" viewBox="0 0 35 35" fill="none" xmlns="http://www.w3.org/2000/svg">
<rect x="0.249023" y="0.498535" width="34.1643" height="34.1643" rx="1.70821" fill="#FCBC05" fill-opacity="0.15"/>
<path d="M13.9145 11.6018V11.1747C13.6786 11.1747 13.4874 11.3659 13.4874 11.6018H13.9145ZM21.6015 11.6018H22.0285C22.0285 11.3659 21.8373 11.1747 21.6015 11.1747V11.6018ZM16.7788 14.2892C16.612 14.1224 16.3416 14.1224 16.1748 14.2892C16.0081 14.4559 16.0081 14.7263 16.1748 14.8931L16.7788 14.2892ZM17.3309 15.4452L17.029 15.7472L17.3309 16.0492L17.6329 15.7472L17.3309 15.4452ZM20.1952 13.1849C20.362 13.0181 20.362 12.7477 20.1952 12.581C20.0284 12.4142 19.758 12.4142 19.5913 12.581L20.1952 13.1849ZM18.2317 18.9729L17.9949 18.6175L18.2317 18.9729ZM17.2842 18.9729L17.5211 18.6175L17.2842 18.9729ZM19.0584 18.4218L18.8215 18.0664L19.0584 18.4218ZM11.1693 16.4822L10.8673 16.1802L11.1693 16.4822ZM8.93507 18.4749L8.87468 18.0521L8.93507 18.4749ZM9.41823 18.2333L9.7202 18.5353L9.41823 18.2333ZM6.7452 22.5L6.57697 22.8925L6.7452 22.5ZM23.9953 18.7269L24.2621 18.3934L23.9953 18.7269ZM24.3761 18.9003L24.4525 18.4801L24.3761 18.9003ZM9.38514 23.1667L6.91342 22.1074L6.57697 22.8925L9.04869 23.9518L9.38514 23.1667ZM6.65459 21.7149V20.3432H5.80049V21.7149H6.65459ZM7.75457 19.0749L8.99547 18.8976L8.87468 18.0521L7.63378 18.2294L7.75457 19.0749ZM9.7202 18.5353L11.4713 16.7842L10.8673 16.1802L9.11625 17.9313L9.7202 18.5353ZM11.6895 16.6674L13.5712 16.2911L13.4037 15.4535L11.522 15.8299L11.6895 16.6674ZM13.9145 12.0288H14.3415V11.1747H13.9145V12.0288ZM16.0498 10.3206H19.4662V9.4665H16.0498V10.3206ZM21.1744 12.0288H21.6015V11.1747H21.1744V12.0288ZM21.1744 11.6018V13.67H22.0285V11.6018H21.1744ZM18.8215 18.0664L17.9949 18.6175L18.4686 19.3282L19.2953 18.7771L18.8215 18.0664ZM17.5211 18.6175L16.6944 18.0664L16.2207 18.7771L17.0473 19.3282L17.5211 18.6175ZM14.3415 13.67V11.6018H13.4874V13.67H14.3415ZM16.1748 14.8931L17.029 15.7472L17.6329 15.1433L16.7788 14.2892L16.1748 14.8931ZM17.6329 15.7472L20.1952 13.1849L19.5913 12.581L17.029 15.1433L17.6329 15.7472ZM21.7617 17.4869L23.7285 19.0604L24.2621 18.3934L22.2953 16.82L21.7617 17.4869ZM24.2997 19.3204L27.3823 19.8809L27.5351 19.0406L24.4525 18.4801L24.2997 19.3204ZM28.4343 21.1414V22.7051H29.2884V21.1414H28.4343ZM28.0073 23.1322H26.7261V23.9863H28.0073V23.1322ZM12.6333 23.9863H23.3097V23.1322H12.6333V23.9863ZM25.0179 22.2781C25.7254 22.2781 26.299 22.8517 26.299 23.5593H27.1531C27.1531 22.38 26.1972 21.424 25.0179 21.424V22.2781ZM14.8994 16.033C14.5325 15.2993 14.3415 14.4903 14.3415 13.67H13.4874C13.4874 14.6229 13.7093 15.5627 14.1354 16.415L14.8994 16.033ZM16.6944 18.0664C15.9293 17.5564 15.3106 16.8555 14.8994 16.033L14.1354 16.415C14.6131 17.3704 15.3319 18.1846 16.2207 18.7771L16.6944 18.0664ZM17.9949 18.6175C17.8514 18.7132 17.6645 18.7132 17.5211 18.6175L17.0473 19.3282C17.4777 19.6151 18.0383 19.6151 18.4686 19.3282L17.9949 18.6175ZM20.6166 16.033C20.2053 16.8555 19.5866 17.5564 18.8215 18.0664L19.2953 18.7771C20.1841 18.1846 20.9028 17.3704 21.3805 16.415L20.6166 16.033ZM21.1744 13.67C21.1744 14.4903 20.9834 15.2993 20.6166 16.033L21.3805 16.415C21.8067 15.5627 22.0285 14.6229 22.0285 13.67H21.1744ZM19.8932 10.7477C19.8932 11.4552 20.4668 12.0288 21.1744 12.0288V11.1747C20.9385 11.1747 20.7473 10.9835 20.7473 10.7477H19.8932ZM14.3415 12.0288C15.0491 12.0288 15.6227 11.4552 15.6227 10.7477H14.7686C14.7686 10.9835 14.5774 11.1747 14.3415 11.1747V12.0288ZM25.0179 21.424C23.8386 21.424 22.8826 22.38 22.8826 23.5593H23.7367C23.7367 22.8517 24.3103 22.2781 25.0179 22.2781V21.424ZM11.4713 16.7842C11.5309 16.7246 11.6068 16.6839 11.6895 16.6674L11.522 15.8299C11.274 15.8795 11.0462 16.0014 10.8673 16.1802L11.4713 16.7842ZM25.0179 24.8404C24.3103 24.8404 23.7367 24.2668 23.7367 23.5593H22.8826C22.8826 24.7385 23.8386 25.6945 25.0179 25.6945V24.8404ZM8.99547 18.8976C9.26988 18.8584 9.52419 18.7313 9.7202 18.5353L9.11625 17.9313C9.05092 17.9967 8.96615 18.0391 8.87468 18.0521L8.99547 18.8976ZM26.299 23.5593C26.299 24.2668 25.7254 24.8404 25.0179 24.8404V25.6945C26.1972 25.6945 27.1531 24.7385 27.1531 23.5593H26.299ZM6.65459 20.3432C6.65459 19.7056 7.12341 19.1651 7.75457 19.0749L7.63378 18.2294C6.58184 18.3797 5.80049 19.2806 5.80049 20.3432H6.65459ZM6.91342 22.1074C6.7564 22.0401 6.65459 21.8857 6.65459 21.7149H5.80049C5.80049 22.2274 6.10591 22.6906 6.57697 22.8925L6.91342 22.1074ZM28.4343 22.7051C28.4343 22.941 28.2431 23.1322 28.0073 23.1322V23.9863C28.7148 23.9863 29.2884 23.4127 29.2884 22.7051H28.4343ZM10.9251 24.8404C10.2176 24.8404 9.64396 24.2668 9.64396 23.5593H8.78986C8.78986 24.7385 9.74585 25.6945 10.9251 25.6945V24.8404ZM27.3823 19.8809C27.9915 19.9917 28.4343 20.5222 28.4343 21.1414H29.2884C29.2884 20.1095 28.5504 19.2252 27.5351 19.0406L27.3823 19.8809ZM10.9251 25.6945C12.1044 25.6945 13.0604 24.7385 13.0604 23.5593H12.2063C12.2063 24.2668 11.6327 24.8404 10.9251 24.8404V25.6945ZM19.4662 10.3206C19.702 10.3206 19.8932 10.5118 19.8932 10.7477H20.7473C20.7473 10.0401 20.1738 9.4665 19.4662 9.4665V10.3206ZM23.7285 19.0604C23.8944 19.1931 24.0907 19.2824 24.2997 19.3204L24.4525 18.4801C24.3828 18.4674 24.3174 18.4376 24.2621 18.3934L23.7285 19.0604ZM10.9251 22.2781C11.6327 22.2781 12.2063 22.8517 12.2063 23.5593H13.0604C13.0604 22.38 12.1044 21.424 10.9251 21.424V22.2781ZM15.6227 10.7477C15.6227 10.5118 15.8139 10.3206 16.0498 10.3206V9.4665C15.3422 9.4665 14.7686 10.0401 14.7686 10.7477H15.6227ZM9.64396 23.5593C9.64396 22.8517 10.2176 22.2781 10.9251 22.2781V21.424C9.74585 21.424 8.78986 22.38 8.78986 23.5593H9.64396Z" fill="#FCBC05"/>
</svg>
