<svg width="50" height="50" viewBox="0 0 50 50" fill="none" xmlns="http://www.w3.org/2000/svg">
<g filter="url(#filter0_d_1687_8848)">
<circle cx="25" cy="25" r="16" fill="white"/>
</g>
<path d="M22.2439 19.2578H20.7128C20.3067 19.2578 19.9172 19.4191 19.6301 19.7063C19.343 19.9934 19.1816 20.3828 19.1816 20.7889V29.9756C19.1816 30.3817 19.343 30.7711 19.6301 31.0583C19.9172 31.3454 20.3067 31.5067 20.7128 31.5067H25.0741" stroke="#5B84B0" stroke-linecap="round" stroke-linejoin="round"/>
<path d="M29.8982 23.8511V20.7889C29.8982 20.3828 29.7368 19.9934 29.4497 19.7063C29.1626 19.4191 28.7731 19.2578 28.367 19.2578H26.8359" stroke="#5B84B0" stroke-linecap="round" stroke-linejoin="round"/>
<path d="M25.3025 17.7275H23.7713C23.3653 17.7275 22.9758 17.8889 22.6887 18.176C22.4015 18.4631 22.2402 18.8526 22.2402 19.2587C22.2402 19.6647 22.4015 20.0542 22.6887 20.3413C22.9758 20.6284 23.3653 20.7898 23.7713 20.7898H25.3025C25.7085 20.7898 26.098 20.6284 26.3851 20.3413C26.6723 20.0542 26.8336 19.6647 26.8336 19.2587C26.8336 18.8526 26.6723 18.4631 26.3851 18.176C26.098 17.8889 25.7085 17.7275 25.3025 17.7275Z" stroke="#5B84B0" stroke-linecap="round" stroke-linejoin="round"/>
<path d="M22.2422 23.8506H25.3044" stroke="#5B84B0" stroke-linecap="round" stroke-linejoin="round"/>
<path d="M22.2422 26.9131H24.5389" stroke="#5B84B0" stroke-linecap="round" stroke-linejoin="round"/>
<path d="M30.5 27.5C30.5 27.2239 30.2761 27 30 27C29.7239 27 29.5 27.2239 29.5 27.5H30.5ZM29.5 31.5C29.5 31.7761 29.7239 32 30 32C30.2761 32 30.5 31.7761 30.5 31.5H29.5ZM32 30C32.2761 30 32.5 29.7761 32.5 29.5C32.5 29.2239 32.2761 29 32 29V30ZM28 29C27.7239 29 27.5 29.2239 27.5 29.5C27.5 29.7761 27.7239 30 28 30V29ZM29.5 27.5V29.5H30.5V27.5H29.5ZM29.5 29.5V31.5H30.5V29.5H29.5ZM30 30H32V29H30V30ZM32 29H28V30H32V29Z" fill="#5B84B0"/>
<defs>
<filter id="filter0_d_1687_8848" x="0.151057" y="0.151057" width="49.6979" height="49.6979" filterUnits="userSpaceOnUse" color-interpolation-filters="sRGB">
<feFlood flood-opacity="0" result="BackgroundImageFix"/>
<feColorMatrix in="SourceAlpha" type="matrix" values="0 0 0 0 0 0 0 0 0 0 0 0 0 0 0 0 0 0 127 0" result="hardAlpha"/>
<feOffset/>
<feGaussianBlur stdDeviation="4.42447"/>
<feComposite in2="hardAlpha" operator="out"/>
<feColorMatrix type="matrix" values="0 0 0 0 0 0 0 0 0 0 0 0 0 0 0 0 0 0 0.25 0"/>
<feBlend mode="normal" in2="BackgroundImageFix" result="effect1_dropShadow_1687_8848"/>
<feBlend mode="normal" in="SourceGraphic" in2="effect1_dropShadow_1687_8848" result="shape"/>
</filter>
</defs>
</svg>
