<svg width="145" height="129" viewBox="0 0 145 129" fill="none" xmlns="http://www.w3.org/2000/svg">
<circle cx="72.9953" cy="64.0856" r="64.0856" fill="#688F99" fill-opacity="0.15"/>
<path d="M1 66.4573L8.44797 62.9816C11.3818 61.6125 14.1233 59.8644 16.6023 57.782L20.102 54.8422C21.8519 53.3723 23.2659 51.5439 24.2485 49.4805L25.411 47.0393C26.2529 45.2712 26.4536 43.2652 25.9786 41.3654L25.8015 40.6569C25.3722 38.9396 24.2783 37.4632 22.7603 36.5524V36.5524C21.723 35.93 20.5361 35.6013 19.3264 35.6013H17.3382C15.9753 35.6013 14.6476 36.033 13.5454 36.8346L12.9298 37.2823C11.6481 38.2145 10.8898 39.7037 10.8898 41.2885V41.2885C10.8898 42.7035 11.4948 44.0509 12.5524 44.991L12.8177 45.2268C13.8692 46.1615 15.2272 46.6778 16.634 46.6778H18.5457C19.5032 46.6778 20.4564 46.5501 21.3801 46.2982L21.756 46.1957C23.4624 45.7303 25.0623 44.9385 26.4672 43.8642L31.0649 40.3483L43.7237 27.6895" stroke="#A6A6A4" stroke-width="1.09341"/>
<rect x="45.312" y="26.916" width="55.3826" height="74.3709" rx="5.46703" fill="white"/>
<rect x="52.4297" y="37.1895" width="18.9883" height="4.74708" rx="2.37354" fill="#EF8F6C"/>
<rect x="140.253" y="91.7637" width="4.74708" height="4.74708" rx="2.37354" fill="#EF8F6C"/>
<rect x="105.754" y="25.3203" width="4.74708" height="4.74708" rx="2.37354" fill="#FBDB5A"/>
<rect x="116.421" y="25.3203" width="14.2412" height="4.74708" rx="2.37354" fill="#D6D6D6"/>
<rect x="52.4297" y="48.2754" width="40.3502" height="4.74708" rx="2.37354" fill="#D9D8D6"/>
<rect x="52.4297" y="60.1172" width="40.3502" height="4.74708" rx="2.37354" fill="#D9D8D6"/>
<rect x="52.4297" y="72" width="40.3502" height="4.74708" rx="2.37354" fill="#D9D8D6"/>
<rect x="52.4297" y="83.8691" width="40.3502" height="4.74708" rx="2.37354" fill="#D9D8D6"/>
<path d="M116.349 112.551L105.744 101.79C104.257 100.282 104.322 97.8397 105.886 96.4114C107.344 95.0798 109.588 95.114 111.005 96.4895L121.846 107.012C123.385 108.506 123.43 110.963 121.945 112.512C120.424 114.099 117.892 114.117 116.349 112.551Z" fill="#688F99"/>
<path d="M116.358 112.614L114.892 111.148L120.59 105.924L121.771 107.035C123.344 108.515 123.408 110.995 121.913 112.555C120.405 114.128 117.899 114.155 116.358 112.614Z" fill="#FEDB4B"/>
<circle cx="89.0251" cy="78.6003" r="24.5518" stroke="#688F99" stroke-width="5.37811"/>
<path d="M80.5874 69.5293L98.0994 87.0413M98.0994 69.5293L80.5874 87.0413" stroke="#888888" stroke-width="5.37811" stroke-linecap="round"/>
<path d="M30.5286 102.85L29.5047 102.48L30.5286 102.111C31.9056 101.614 32.9898 100.53 33.4867 99.153L33.8563 98.1289L34.2257 99.1527C34.7226 100.53 35.8068 101.614 37.1839 102.111L38.2079 102.48L37.1839 102.85C35.8068 103.347 34.7226 104.431 34.2257 105.808L33.8563 106.832L33.4867 105.808C32.9898 104.431 31.9056 103.347 30.5286 102.85Z" stroke="#ED8864" stroke-width="1.09341"/>
</svg>
