<?xml version="1.0" standalone="no"?>
<!DOCTYPE svg PUBLIC "-//W3C//DTD SVG 20010904//EN"
 "http://www.w3.org/TR/2001/REC-SVG-20010904/DTD/svg10.dtd">
<svg version="1.0" xmlns="http://www.w3.org/2000/svg"
 width="342.000000pt" height="360.000000pt" viewBox="0 0 342.000000 360.000000"
 preserveAspectRatio="xMidYMid meet">

<g transform="translate(0.000000,360.000000) scale(0.100000,-0.100000)"
fill="#000000" stroke="none">
<path d="M1510 3589 c-19 -4 -87 -17 -150 -29 -590 -108 -1105 -540 -1326
-1112 l-34 -87 0 -563 0 -563 31 -80 c46 -121 142 -299 217 -405 83 -116 268
-306 382 -389 226 -167 474 -278 733 -326 45 -8 104 -20 130 -25 27 -6 121
-10 209 -10 409 0 821 145 1133 400 198 162 381 393 489 620 102 215 96 163
96 779 l0 540 -26 73 c-60 166 -146 324 -257 473 -83 110 -273 296 -387 378
-200 142 -496 266 -720 302 -58 9 -119 20 -136 26 -37 11 -334 10 -384 -2z
m-75 -1017 l130 -227 3 228 2 227 85 0 85 0 0 -360 0 -361 -87 3 -87 3 -123
214 c-67 118 -126 218 -130 222 -4 4 -7 -93 -5 -216 l3 -225 -85 0 -86 0 0
360 0 360 83 0 82 0 130 -228z m761 24 c89 -42 134 -125 134 -251 0 -165 -82
-262 -228 -273 -174 -12 -273 77 -280 255 -5 108 15 172 74 228 51 50 87 63
179 64 54 1 82 -5 121 -23z m-1374 -1158 l3 -293 153 -3 153 -3 -3 -62 -3 -62
-235 0 -235 0 -3 358 -2 357 85 0 85 0 2 -292z m695 107 c39 -12 62 -27 95
-64 53 -59 69 -107 69 -206 0 -91 -27 -160 -81 -209 -48 -43 -99 -60 -180 -60
-116 0 -201 61 -236 167 -21 64 -15 197 10 247 60 117 186 166 323 125z m493
-5 c21 -11 43 -28 49 -37 9 -16 11 -13 17 15 l7 32 73 0 74 0 0 -277 c-1 -298
-4 -322 -53 -387 -14 -18 -48 -44 -74 -57 -41 -20 -63 -24 -143 -23 -67 0
-107 5 -134 17 l-38 17 7 46 c10 68 15 77 39 69 60 -17 127 -23 160 -14 38 10
66 49 66 89 l0 22 -32 -20 c-102 -62 -217 -18 -268 100 -33 74 -33 220 -1 294
50 114 156 163 251 114z m634 6 c67 -20 110 -58 143 -123 24 -49 28 -70 28
-138 -1 -97 -16 -145 -63 -197 -50 -55 -103 -80 -176 -81 -84 -2 -126 8 -175
43 -114 83 -135 308 -40 423 64 77 174 106 283 73z"/>
<path d="M2032 2483 c-63 -25 -60 -252 3 -277 48 -18 91 -4 112 38 35 67 14
222 -32 240 -19 7 -64 7 -83 -1z"/>
<path d="M1373 1406 c-27 -24 -28 -27 -28 -125 0 -113 10 -133 72 -146 84 -17
130 123 82 246 -20 51 -82 63 -126 25z"/>
<path d="M1944 1416 c-44 -32 -57 -194 -20 -250 20 -31 69 -40 107 -21 l29 16
0 118 c0 131 -3 138 -62 147 -21 3 -41 0 -54 -10z"/>
<path d="M2517 1419 c-46 -27 -64 -171 -29 -238 34 -69 117 -63 146 10 19 46
20 129 3 179 -18 51 -76 75 -120 49z"/>
</g>
</svg>
