<svg width="20" height="20" viewBox="0 0 20 20" fill="none" xmlns="http://www.w3.org/2000/svg">
<rect width="20" height="20" rx="2" fill="#82B2E7"/>
<path d="M8.75 5.41699C8.75 5.08547 8.8817 4.76753 9.11612 4.53311C9.35054 4.29869 9.66848 4.16699 10 4.16699C10.3315 4.16699 10.6495 4.29869 10.8839 4.53311C11.1183 4.76753 11.25 5.08547 11.25 5.41699C11.9678 5.75638 12.5796 6.2847 13.02 6.9453C13.4604 7.60591 13.7128 8.37391 13.75 9.16699V11.042C13.797 11.4306 13.9346 11.8027 14.1518 12.1283C14.3689 12.454 14.6594 12.7241 15 12.917H5C5.34059 12.7241 5.63113 12.454 5.84824 12.1283C6.06535 11.8027 6.20297 11.4306 6.25 11.042V9.16699C6.28723 8.37391 6.53956 7.60591 6.97997 6.9453C7.42037 6.2847 8.03224 5.75638 8.75 5.41699" stroke="white" stroke-width="1.2" stroke-linecap="round" stroke-linejoin="round"/>
<path d="M8.125 12.917V13.542C8.125 14.0393 8.32254 14.5162 8.67417 14.8678C9.02581 15.2194 9.50272 15.417 10 15.417C10.4973 15.417 10.9742 15.2194 11.3258 14.8678C11.6775 14.5162 11.875 14.0393 11.875 13.542V12.917" stroke="white" stroke-width="1.2" stroke-linecap="round" stroke-linejoin="round"/>
</svg>
