<svg width="30" height="30" viewBox="0 0 30 30" fill="none" xmlns="http://www.w3.org/2000/svg">
<rect x="0.5" y="0.5" width="29" height="29" rx="14.5" fill="white"/>
<path d="M15 22.5C15.9849 22.5 16.9602 22.306 17.8701 21.9291C18.7801 21.5522 19.6069 20.9997 20.3033 20.3033C20.9997 19.6069 21.5522 18.7801 21.9291 17.8701C22.306 16.9602 22.5 15.9849 22.5 15C22.5 14.0151 22.306 13.0398 21.9291 12.1299C21.5522 11.2199 20.9997 10.3931 20.3033 9.6967C19.6069 9.00026 18.7801 8.44781 17.8701 8.0709C16.9602 7.69399 15.9849 7.5 15 7.5C13.0109 7.5 11.1032 8.29018 9.6967 9.6967C8.29018 11.1032 7.5 13.0109 7.5 15C7.5 16.9891 8.29018 18.8968 9.6967 20.3033C11.1032 21.7098 13.0109 22.5 15 22.5V22.5Z" stroke="#44749D" stroke-width="0.9375" stroke-linecap="round" stroke-linejoin="round"/>
<path d="M15 10.8335V15.0002L17.5 17.5002" stroke="#44749D" stroke-width="0.9375" stroke-linecap="round" stroke-linejoin="round"/>
<rect x="0.5" y="0.5" width="29" height="29" rx="14.5" stroke="#44749D"/>
</svg>
