<svg width="30" height="30" viewBox="0 0 30 30" fill="none" xmlns="http://www.w3.org/2000/svg">
<rect width="30" height="30" rx="15" fill="#3DB812"/>
<path d="M6.75284 19V18.3608L9.15341 15.733C9.43513 15.4252 9.66714 15.1577 9.84943 14.9304C10.0317 14.7008 10.1667 14.4853 10.2543 14.2841C10.3442 14.0805 10.3892 13.8674 10.3892 13.6449C10.3892 13.3892 10.3277 13.1679 10.2045 12.9808C10.0838 12.7938 9.91809 12.6494 9.70739 12.5476C9.49669 12.4458 9.25994 12.3949 8.99716 12.3949C8.7178 12.3949 8.47396 12.4529 8.26562 12.5689C8.05966 12.6825 7.89986 12.8423 7.78622 13.0483C7.67495 13.2543 7.61932 13.4957 7.61932 13.7727H6.78125C6.78125 13.3466 6.8795 12.9725 7.07599 12.6506C7.27249 12.3286 7.54001 12.0777 7.87855 11.8977C8.21946 11.7178 8.6018 11.6278 9.02557 11.6278C9.4517 11.6278 9.82931 11.7178 10.1584 11.8977C10.4875 12.0777 10.7455 12.3203 10.9325 12.6257C11.1196 12.9311 11.2131 13.2708 11.2131 13.6449C11.2131 13.9124 11.1645 14.174 11.0675 14.4297C10.9728 14.683 10.8071 14.9659 10.5703 15.2784C10.3359 15.5885 10.0104 15.9673 9.59375 16.4148L7.96023 18.1619V18.2188H11.3409V19H6.75284ZM15.0803 19.0994C14.6636 19.0994 14.2884 19.0166 13.9545 18.8509C13.6207 18.6851 13.3532 18.4579 13.152 18.169C12.9508 17.8802 12.8407 17.5511 12.8217 17.1818H13.674C13.7071 17.5109 13.8563 17.7831 14.1214 17.9986C14.389 18.2116 14.7086 18.3182 15.0803 18.3182C15.3786 18.3182 15.6437 18.2483 15.8757 18.1087C16.1101 17.969 16.2936 17.7772 16.4261 17.5334C16.5611 17.2872 16.6286 17.009 16.6286 16.6989C16.6286 16.3816 16.5587 16.0987 16.419 15.8501C16.2817 15.5992 16.0923 15.4015 15.8509 15.2571C15.6094 15.1127 15.3336 15.0393 15.0234 15.0369C14.8009 15.0346 14.5724 15.0689 14.3381 15.1399C14.1037 15.2086 13.9107 15.2973 13.7592 15.4062L12.9354 15.3068L13.3757 11.7273H17.1541V12.5085H14.1143L13.8587 14.6534H13.9013C14.0504 14.535 14.2375 14.4368 14.4624 14.3587C14.6873 14.2805 14.9216 14.2415 15.1655 14.2415C15.6106 14.2415 16.0071 14.348 16.3551 14.5611C16.7055 14.7718 16.9801 15.0606 17.179 15.4276C17.3802 15.7945 17.4808 16.2135 17.4808 16.6847C17.4808 17.1487 17.3767 17.563 17.1683 17.9276C16.9624 18.2898 16.6783 18.5762 16.3161 18.7869C15.9538 18.9953 15.5419 19.0994 15.0803 19.0994ZM22.5989 17.6364V17.2528C22.5989 16.9877 22.6534 16.745 22.7623 16.5249C22.8735 16.3023 23.0345 16.1248 23.2452 15.9922C23.4583 15.8572 23.7163 15.7898 24.0194 15.7898C24.3271 15.7898 24.5852 15.8572 24.7935 15.9922C25.0018 16.1248 25.1593 16.3023 25.2658 16.5249C25.3723 16.745 25.4256 16.9877 25.4256 17.2528V17.6364C25.4256 17.9015 25.3712 18.1454 25.2623 18.3679C25.1557 18.5881 24.9971 18.7656 24.7864 18.9006C24.5781 19.0331 24.3224 19.0994 24.0194 19.0994C23.7116 19.0994 23.4524 19.0331 23.2417 18.9006C23.031 18.7656 22.8712 18.5881 22.7623 18.3679C22.6534 18.1454 22.5989 17.9015 22.5989 17.6364ZM23.3233 17.2528V17.6364C23.3233 17.8565 23.3754 18.0542 23.4796 18.2294C23.5837 18.4022 23.7637 18.4886 24.0194 18.4886C24.2679 18.4886 24.4431 18.4022 24.5449 18.2294C24.6491 18.0542 24.7012 17.8565 24.7012 17.6364V17.2528C24.7012 17.0327 24.6515 16.8362 24.552 16.6634C24.4526 16.4882 24.275 16.4006 24.0194 16.4006C23.7708 16.4006 23.592 16.4882 23.4831 16.6634C23.3766 16.8362 23.3233 17.0327 23.3233 17.2528ZM18.9767 13.4744V13.0909C18.9767 12.8258 19.0312 12.5831 19.1401 12.3629C19.2514 12.1404 19.4123 11.9628 19.623 11.8303C19.8361 11.6953 20.0942 11.6278 20.3972 11.6278C20.705 11.6278 20.963 11.6953 21.1713 11.8303C21.3797 11.9628 21.5371 12.1404 21.6436 12.3629C21.7502 12.5831 21.8034 12.8258 21.8034 13.0909V13.4744C21.8034 13.7396 21.749 13.9834 21.6401 14.206C21.5336 14.4261 21.3749 14.6037 21.1642 14.7386C20.9559 14.8712 20.7002 14.9375 20.3972 14.9375C20.0894 14.9375 19.8302 14.8712 19.6195 14.7386C19.4088 14.6037 19.249 14.4261 19.1401 14.206C19.0312 13.9834 18.9767 13.7396 18.9767 13.4744ZM19.7012 13.0909V13.4744C19.7012 13.6946 19.7533 13.8923 19.8574 14.0675C19.9616 14.2403 20.1415 14.3267 20.3972 14.3267C20.6458 14.3267 20.821 14.2403 20.9228 14.0675C21.0269 13.8923 21.079 13.6946 21.079 13.4744V13.0909C21.079 12.8707 21.0293 12.6742 20.9299 12.5014C20.8304 12.3262 20.6529 12.2386 20.3972 12.2386C20.1486 12.2386 19.9699 12.3262 19.861 12.5014C19.7544 12.6742 19.7012 12.8707 19.7012 13.0909ZM19.2466 19L24.2466 11.7273H25.0563L20.0563 19H19.2466Z" fill="#F9FAFB"/>
</svg>
