<svg width="28" height="28" viewBox="0 0 28 28" fill="none" xmlns="http://www.w3.org/2000/svg">
<rect width="28" height="28" rx="14" fill="#FF9B6B"/>
<path d="M8 22H14M20 22H14M14 22V17.75M14 17.75V17.75C17.3137 17.75 20 15.0637 20 11.75V10.95M14 17.75V17.75C10.6863 17.75 8 15.0637 8 11.75V10.95M14 15.2V15.2C15.3255 15.2 16.4 14.1255 16.4 12.8V7.4C16.4 6.07452 15.3255 5 14 5V5C12.6745 5 11.6 6.07451 11.6 7.4V12.8C11.6 14.1255 12.6745 15.2 14 15.2Z" stroke="white" stroke-linecap="round"/>
</svg>
