<svg width="50" height="50" viewBox="0 0 50 50" fill="none" xmlns="http://www.w3.org/2000/svg">
<g filter="url(#filter0_d_1687_8844)">
<circle cx="25" cy="25" r="16" fill="white"/>
</g>
<path d="M26.6824 19.8214C26.9586 19.8214 27.1824 19.5975 27.1824 19.3214C27.1824 19.0452 26.9586 18.8214 26.6824 18.8214V19.8214ZM30.0484 24.6026C30.0484 24.3264 29.8246 24.1026 29.5484 24.1026C29.2723 24.1026 29.0484 24.3264 29.0484 24.6026H30.0484ZM29.0484 22.674C29.0484 22.9501 29.2723 23.174 29.5484 23.174C29.8246 23.174 30.0484 22.9501 30.0484 22.674H29.0484ZM29.5484 18.9999L29.8685 18.6158L29.5484 18.3491L29.2283 18.6158L29.5484 18.9999ZM31.1569 20.9912C31.369 21.168 31.6843 21.1393 31.8611 20.9272C32.0379 20.715 32.0092 20.3998 31.7971 20.223L31.1569 20.9912ZM27.2998 20.223C27.0876 20.3998 27.059 20.715 27.2357 20.9272C27.4125 21.1393 27.7278 21.168 27.9399 20.9912L27.2998 20.223ZM24.9643 21.0668C24.9643 20.7907 24.7404 20.5668 24.4643 20.5668C24.1881 20.5668 23.9643 20.7907 23.9643 21.0668H24.9643ZM24.4643 22.3526H23.9643V22.8526L24.4643 22.8526L24.4643 22.3526ZM26.0714 22.3526V22.8526C26.3476 22.8526 26.5714 22.6287 26.5714 22.3526C26.5714 22.0764 26.3476 21.8526 26.0714 21.8526L26.0714 22.3526ZM22.5357 22.3526V21.8526C22.2596 21.8526 22.0357 22.0764 22.0357 22.3526H22.5357ZM22.5357 24.924H22.0357C22.0357 25.2001 22.2596 25.424 22.5357 25.424V24.924ZM26.0714 24.924H26.5714C26.5714 24.6479 26.3476 24.424 26.0714 24.424V24.924ZM26.0714 27.2594V27.7594C26.3476 27.7594 26.5714 27.5356 26.5714 27.2594H26.0714ZM22.4759 26.7594C22.1998 26.7594 21.9759 26.9833 21.9759 27.2594C21.9759 27.5356 22.1998 27.7594 22.4759 27.7594V26.7594ZM23.9732 28.9235C23.9732 29.1997 24.1971 29.4235 24.4732 29.4235C24.7494 29.4235 24.9732 29.1997 24.9732 28.9235H23.9732ZM26.6824 18.8214H20.2857V19.8214H26.6824V18.8214ZM18.5 20.6071V29.1026H19.5V20.6071H18.5ZM20.2857 30.8883H28.2627V29.8883H20.2857V30.8883ZM30.0484 29.1026V24.6026H29.0484V29.1026H30.0484ZM30.0484 22.674V18.9999H29.0484V22.674H30.0484ZM29.2283 19.3841L31.1569 20.9912L31.7971 20.223L29.8685 18.6158L29.2283 19.3841ZM29.2283 18.6158L27.2998 20.223L27.9399 20.9912L29.8685 19.3841L29.2283 18.6158ZM23.9643 21.0668V22.3526H24.9643V21.0668H23.9643ZM24.4643 22.8526L26.0714 22.8526L26.0714 21.8526L24.4643 21.8526L24.4643 22.8526ZM26.0714 21.8526H22.5357V22.8526H26.0714V21.8526ZM22.0357 22.3526V24.924H23.0357V22.3526H22.0357ZM22.5357 25.424H26.0714V24.424H22.5357V25.424ZM25.5714 24.924V27.2594H26.5714V24.924H25.5714ZM26.0714 26.7594H24.4732V27.7594H26.0714V26.7594ZM24.4732 26.7594H22.4759V27.7594H24.4732V26.7594ZM23.9732 27.2594V28.9235H24.9732V27.2594H23.9732ZM28.2627 30.8883C29.2489 30.8883 30.0484 30.0888 30.0484 29.1026H29.0484C29.0484 29.5365 28.6967 29.8883 28.2627 29.8883V30.8883ZM18.5 29.1026C18.5 30.0888 19.2995 30.8883 20.2857 30.8883V29.8883C19.8518 29.8883 19.5 29.5365 19.5 29.1026H18.5ZM20.2857 18.8214C19.2995 18.8214 18.5 19.6209 18.5 20.6071H19.5C19.5 20.1732 19.8518 19.8214 20.2857 19.8214V18.8214Z" fill="#44749D"/>
<defs>
<filter id="filter0_d_1687_8844" x="0.151057" y="0.151057" width="49.6979" height="49.6979" filterUnits="userSpaceOnUse" color-interpolation-filters="sRGB">
<feFlood flood-opacity="0" result="BackgroundImageFix"/>
<feColorMatrix in="SourceAlpha" type="matrix" values="0 0 0 0 0 0 0 0 0 0 0 0 0 0 0 0 0 0 127 0" result="hardAlpha"/>
<feOffset/>
<feGaussianBlur stdDeviation="4.42447"/>
<feComposite in2="hardAlpha" operator="out"/>
<feColorMatrix type="matrix" values="0 0 0 0 0 0 0 0 0 0 0 0 0 0 0 0 0 0 0.25 0"/>
<feBlend mode="normal" in2="BackgroundImageFix" result="effect1_dropShadow_1687_8844"/>
<feBlend mode="normal" in="SourceGraphic" in2="effect1_dropShadow_1687_8844" result="shape"/>
</filter>
</defs>
</svg>
