<svg width="20" height="20" viewBox="0 0 20 20" fill="none" xmlns="http://www.w3.org/2000/svg">
<path d="M11.3935 5.59634C11.8077 5.59634 12.1435 5.26056 12.1435 4.84634C12.1435 4.43213 11.8077 4.09634 11.3935 4.09634V5.59634ZM15.3279 10.7143C15.3279 10.3001 14.9921 9.96434 14.5779 9.96434C14.1637 9.96434 13.8279 10.3001 13.8279 10.7143H15.3279ZM13.8279 8.57146C13.8279 8.98568 14.1637 9.32146 14.5779 9.32146C14.9921 9.32146 15.3279 8.98568 15.3279 8.57146H13.8279ZM14.5779 4.4892L15.058 3.91303L14.5779 3.51292L14.0978 3.91303L14.5779 4.4892ZM16.2406 6.85108C16.5588 7.11625 17.0317 7.07326 17.2969 6.75505C17.5621 6.43684 17.5191 5.96392 17.2009 5.69875L16.2406 6.85108ZM11.9549 5.69875C11.6367 5.96392 11.5937 6.43684 11.8589 6.75505C12.124 7.07326 12.597 7.11625 12.9152 6.85108L11.9549 5.69875ZM9.67885 6.78575C9.67885 6.37154 9.34306 6.03575 8.92885 6.03575C8.51464 6.03575 8.17885 6.37154 8.17885 6.78575H9.67885ZM8.92885 8.21432H8.17885V8.96431L8.92884 8.96432L8.92885 8.21432ZM10.7146 8.21434V8.96434C11.1288 8.96434 11.4646 8.62855 11.4646 8.21434C11.4646 7.80013 11.1288 7.46434 10.7146 7.46434L10.7146 8.21434ZM6.78599 8.21434V7.46434C6.37178 7.46434 6.03599 7.80012 6.03599 8.21434H6.78599ZM6.78599 11.0715H6.03599C6.03599 11.4857 6.37178 11.8215 6.78599 11.8215V11.0715ZM10.7146 11.0715H11.4646C11.4646 10.6573 11.1288 10.3215 10.7146 10.3215V11.0715ZM10.7146 13.6664V14.4164C11.1288 14.4164 11.4646 14.0806 11.4646 13.6664H10.7146ZM6.71957 12.9164C6.30536 12.9164 5.96957 13.2522 5.96957 13.6664C5.96957 14.0806 6.30536 14.4164 6.71957 14.4164V12.9164ZM8.1888 15.5154C8.1888 15.9296 8.52459 16.2654 8.9388 16.2654C9.35301 16.2654 9.6888 15.9296 9.6888 15.5154H8.1888ZM11.3935 4.09634H4.85742V5.59634H11.3935V4.09634ZM2.10742 6.84634V15.1429H3.60742V6.84634H2.10742ZM4.85742 17.8929H12.5779V16.3929H4.85742V17.8929ZM15.3279 15.1429V10.7143H13.8279V15.1429H15.3279ZM15.3279 8.57146V4.4892H13.8279V8.57146H15.3279ZM14.0978 5.06537L16.2406 6.85108L17.2009 5.69875L15.058 3.91303L14.0978 5.06537ZM14.0978 3.91303L11.9549 5.69875L12.9152 6.85108L15.058 5.06537L14.0978 3.91303ZM8.17885 6.78575V8.21432H9.67885V6.78575H8.17885ZM8.92884 8.96432L10.7146 8.96434L10.7146 7.46434L8.92886 7.46432L8.92884 8.96432ZM10.7146 7.46434H6.78599V8.96434H10.7146V7.46434ZM6.03599 8.21434V11.0715H7.53599V8.21434H6.03599ZM6.78599 11.8215H10.7146V10.3215H6.78599V11.8215ZM9.96456 11.0715V13.6664H11.4646V11.0715H9.96456ZM10.7146 12.9164H8.9388V14.4164H10.7146V12.9164ZM8.9388 12.9164H6.71957V14.4164H8.9388V12.9164ZM8.1888 13.6664V15.5154H9.6888V13.6664H8.1888ZM12.5779 17.8929C14.0967 17.8929 15.3279 16.6617 15.3279 15.1429H13.8279C13.8279 15.8333 13.2683 16.3929 12.5779 16.3929V17.8929ZM2.10742 15.1429C2.10742 16.6617 3.33864 17.8929 4.85742 17.8929V16.3929C4.16707 16.3929 3.60742 15.8333 3.60742 15.1429H2.10742ZM4.85742 4.09634C3.33864 4.09634 2.10742 5.32756 2.10742 6.84634H3.60742C3.60742 6.15599 4.16707 5.59634 4.85742 5.59634V4.09634Z" fill="#44749D"/>
</svg>
