<svg width="18" height="18" viewBox="0 0 18 18" fill="none" xmlns="http://www.w3.org/2000/svg">
<path d="M11.0045 3.83485C11.2806 3.83485 11.5045 3.61099 11.5045 3.33485C11.5045 3.05871 11.2806 2.83485 11.0045 2.83485V3.83485ZM14.4906 8.83741C14.4906 8.56127 14.2667 8.33741 13.9906 8.33741C13.7144 8.33741 13.4906 8.56127 13.4906 8.83741H14.4906ZM14.4906 2.99995C14.4906 2.7238 14.2667 2.49995 13.9906 2.49995C13.7144 2.49995 13.4906 2.7238 13.4906 2.99995H14.4906ZM13.9906 6.82799L13.6705 7.2121L13.9906 7.47884L14.3107 7.2121L13.9906 6.82799ZM16.3201 5.53759C16.5322 5.36081 16.5609 5.04552 16.3841 4.83339C16.2073 4.62125 15.892 4.59259 15.6799 4.76937L16.3201 5.53759ZM12.3013 4.76937C12.0891 4.59259 11.7738 4.62125 11.5971 4.83339C11.4203 5.04552 11.4489 5.36081 11.6611 5.53759L12.3013 4.76937ZM9.19333 5.15348C9.19333 4.87734 8.96947 4.65348 8.69333 4.65348C8.41719 4.65348 8.19333 4.87734 8.19333 5.15348H9.19333ZM8.69333 6.49309H8.19333V6.99308L8.69333 6.99309L8.69333 6.49309ZM10.3678 6.4931V6.9931C10.644 6.9931 10.8678 6.76925 10.8678 6.4931C10.8678 6.21696 10.644 5.99311 10.3678 5.9931L10.3678 6.4931ZM6.68392 6.4931V5.9931C6.40778 5.9931 6.18392 6.21696 6.18392 6.4931H6.68392ZM6.68392 9.17232H6.18392C6.18392 9.44846 6.40778 9.67232 6.68392 9.67232V9.17232ZM10.3678 9.17232H10.8678C10.8678 8.89617 10.644 8.67232 10.3678 8.67232V9.17232ZM10.3678 11.6057V12.1057C10.644 12.1057 10.8678 11.8818 10.8678 11.6057H10.3678ZM6.62163 11.1057C6.34549 11.1057 6.12163 11.3295 6.12163 11.6057C6.12163 11.8818 6.34549 12.1057 6.62163 12.1057V11.1057ZM8.20266 13.3395C8.20266 13.6157 8.42652 13.8395 8.70266 13.8395C8.97881 13.8395 9.20266 13.6157 9.20266 13.3395H8.20266ZM11.0045 2.83485H5V3.83485H11.0045V2.83485ZM2.5 5.33485V12.8656H3.5V5.33485H2.5ZM5 15.3656H11.9906V14.3656H5V15.3656ZM14.4906 12.8656V8.83741H13.4906V12.8656H14.4906ZM13.4906 2.99995V6.82799H14.4906V2.99995H13.4906ZM14.3107 7.2121L16.3201 5.53759L15.6799 4.76937L13.6705 6.44388L14.3107 7.2121ZM14.3107 6.44388L12.3013 4.76937L11.6611 5.53759L13.6705 7.2121L14.3107 6.44388ZM8.19333 5.15348V6.49309H9.19333V5.15348H8.19333ZM8.69333 6.99309L10.3678 6.9931L10.3678 5.9931L8.69334 5.99309L8.69333 6.99309ZM10.3678 5.9931H6.68392V6.9931H10.3678V5.9931ZM6.18392 6.4931V9.17232H7.18392V6.4931H6.18392ZM6.68392 9.67232H10.3678V8.67232H6.68392V9.67232ZM9.86784 9.17232V11.6057H10.8678V9.17232H9.86784ZM10.3678 11.1057H8.70266V12.1057H10.3678V11.1057ZM8.70266 11.1057H6.62163V12.1057H8.70266V11.1057ZM8.20266 11.6057V13.3395H9.20266V11.6057H8.20266ZM11.9906 15.3656C13.3713 15.3656 14.4906 14.2464 14.4906 12.8656H13.4906C13.4906 13.6941 12.819 14.3656 11.9906 14.3656V15.3656ZM2.5 12.8656C2.5 14.2464 3.61929 15.3656 5 15.3656V14.3656C4.17157 14.3656 3.5 13.6941 3.5 12.8656H2.5ZM5 2.83485C3.61929 2.83485 2.5 3.95414 2.5 5.33485H3.5C3.5 4.50642 4.17157 3.83485 5 3.83485V2.83485Z" fill="#44749D"/>
</svg>
