<svg width="36" height="36" viewBox="0 0 36 36" fill="none" xmlns="http://www.w3.org/2000/svg">
<path d="M28.7992 28.7996V11.6996L20.6992 3.59961H10.7992C9.84444 3.59961 8.92876 3.97889 8.25363 4.65402C7.5785 5.32916 7.19922 6.24483 7.19922 7.19961V28.7996C7.19922 29.7544 7.5785 30.6701 8.25363 31.3452C8.92876 32.0203 9.84444 32.3996 10.7992 32.3996H25.1992C26.154 32.3996 27.0697 32.0203 27.7448 31.3452C28.4199 30.6701 28.7992 29.7544 28.7992 28.7996ZM20.6992 8.99961C20.6992 9.71569 20.9837 10.4024 21.49 10.9088C21.9964 11.4151 22.6831 11.6996 23.3992 11.6996H26.9992V28.7996C26.9992 29.277 26.8096 29.7348 26.472 30.0724C26.1344 30.41 25.6766 30.5996 25.1992 30.5996H10.7992C10.3218 30.5996 9.86399 30.41 9.52643 30.0724C9.18886 29.7348 8.99922 29.277 8.99922 28.7996V7.19961C8.99922 6.72222 9.18886 6.26438 9.52643 5.92682C9.86399 5.58925 10.3218 5.39961 10.7992 5.39961H20.6992V8.99961Z" fill="#FF9B6B"/>
<path d="M11.8842 28.9574C11.5337 28.8169 11.2514 28.5459 11.0967 28.2014C10.7457 27.5039 10.8627 26.8049 11.2407 26.2184C11.5962 25.6649 12.1872 25.1954 12.8547 24.8009C13.7009 24.3211 14.5953 23.9319 15.5232 23.6399C16.2433 22.3452 16.8816 21.0065 17.4342 19.6319C17.1037 18.8809 16.8446 18.1005 16.6602 17.3009C16.5057 16.5809 16.4457 15.8684 16.5777 15.2564C16.7127 14.6189 17.0712 14.0459 17.7477 13.7744C18.0927 13.6364 18.4677 13.5584 18.8307 13.6364C19.0138 13.6752 19.1859 13.7543 19.3346 13.868C19.4832 13.9816 19.6047 14.127 19.6902 14.2934C19.8477 14.5889 19.9062 14.9339 19.9182 15.2609C19.9256 15.6313 19.8975 16.0015 19.8342 16.3664C19.6827 17.2844 19.3482 18.4079 18.8982 19.5959C19.3932 20.6579 19.9842 21.6734 20.6622 22.6304C21.463 22.5672 22.2684 22.5974 23.0622 22.7204C23.7177 22.8404 24.3837 23.0714 24.7902 23.5574C25.0062 23.8169 25.1382 24.1334 25.1502 24.4904C25.1637 24.8354 25.0662 25.1774 24.9027 25.5029C24.7608 25.8052 24.5407 26.0642 24.2652 26.2529C23.9929 26.4301 23.6716 26.5167 23.3472 26.5004C22.7517 26.4749 22.1697 26.1479 21.6672 25.7504C21.0567 25.2454 20.5066 24.6716 20.0277 24.0404C18.8107 24.1786 17.6081 24.4231 16.4337 24.7709C15.8959 25.7249 15.2819 26.6338 14.5977 27.4889C14.0727 28.1189 13.5012 28.6694 12.9282 28.9049C12.5994 29.0537 12.2263 29.0725 11.8842 28.9574ZM14.3667 25.5359C14.0845 25.6647 13.8092 25.8079 13.5417 25.9649C12.9507 26.3129 12.5667 26.6549 12.3762 26.9489C12.2067 27.2099 12.2037 27.3989 12.3042 27.5984C12.3167 27.6266 12.3323 27.6533 12.3507 27.6779C12.3721 27.6723 12.3932 27.6653 12.4137 27.6569C12.6612 27.5549 13.0527 27.2339 13.5567 26.6264C13.8433 26.2755 14.1136 25.9117 14.3667 25.5359ZM17.3187 23.1419C17.9187 23.0009 18.5262 22.8869 19.1367 22.7939C18.809 22.2922 18.5027 21.7767 18.2187 21.2489C17.9367 21.8879 17.6367 22.5179 17.3187 23.1389V23.1419ZM21.7212 23.9519C21.9912 24.2444 22.2552 24.4919 22.5057 24.6899C22.9362 25.0319 23.2377 25.1459 23.4012 25.1504C23.4451 25.1562 23.4896 25.1467 23.5272 25.1234C23.6022 25.0643 23.6606 24.9868 23.6967 24.8984C23.7604 24.7887 23.7964 24.6652 23.8017 24.5384C23.8009 24.4967 23.7849 24.4567 23.7567 24.4259C23.6622 24.3134 23.3967 24.1514 22.8237 24.0494C22.4593 23.9882 22.0907 23.9546 21.7212 23.9519ZM18.1392 17.6414C18.2908 17.1526 18.411 16.6546 18.4992 16.1504C18.5504 15.8745 18.5735 15.594 18.5682 15.3134C18.5687 15.1926 18.5495 15.0725 18.5112 14.9579C18.4212 14.9691 18.3332 14.9933 18.2502 15.0299C18.0927 15.0929 17.9652 15.2204 17.8962 15.5399C17.8242 15.8849 17.8422 16.3829 17.9802 17.0189C18.0222 17.2184 18.0777 17.4269 18.1422 17.6414H18.1392Z" fill="#FF9B6B"/>
</svg>
