<svg width="28" height="28" viewBox="0 0 28 28" fill="none" xmlns="http://www.w3.org/2000/svg">
<rect width="28" height="28" rx="3" fill="#518BC9" fill-opacity="0.2"/>
<path d="M5 23V21L10.6571 20M10.6571 20L11.1714 19M10.6571 20L11.6857 23L16.3143 19M11.1714 19V17M11.1714 19L15.8 23L16.8286 20M11.1714 17L11.8512 17.4406C12.4145 17.8057 13.0715 18 13.7429 18V18C14.4142 18 15.0712 17.8057 15.6346 17.4406L16.3143 17M11.1714 17L10.2407 14.7378C10.1815 14.5939 10.0413 14.5 9.88571 14.5V14.5C9.73013 14.5 9.58993 14.4061 9.53073 14.2622L8.6 12M16.3143 17V19M16.3143 17L17.245 14.7378C17.3042 14.5939 17.4444 14.5 17.6 14.5V14.5C17.7556 14.5 17.8958 14.4061 17.955 14.2622L18.8857 12M16.3143 19L16.8286 20M16.8286 20L23 21V23M8.6 12V10M8.6 12L10.5297 11.6248L13.7429 11L18.8857 12M8.6 10L13.7429 9M8.6 10L7.57143 8L8.77992 7.21672C10.026 6.40905 11.3726 5.76814 12.7852 5.31034L13.7429 5L14.2041 5.12811C16.2766 5.70381 18.2164 6.67943 19.9143 8V8L18.8857 10M18.8857 12V10M18.8857 10L13.7429 9M13.7429 9L12.7143 8V6.5H14.7714V8L13.7429 9Z" stroke="#518BC9" stroke-linejoin="round"/>
</svg>
