<svg width="20" height="20" viewBox="0 0 20 20" fill="none" xmlns="http://www.w3.org/2000/svg">
<rect width="20" height="20" rx="2" fill="#F30000" fill-opacity="0.04"/>
<mask id="path-2-inside-1_879_10762" fill="white">
<path d="M8.95484 4.2517C7.87339 4.52514 7.54919 4.63887 7.09919 4.89295C6.95887 4.97523 6.74839 5.11074 6.63226 5.19785C6.22339 5.50275 5.74194 5.99882 5.74194 6.11739C5.74194 6.24322 6.01532 6.70783 6.24274 6.96917C6.31774 7.05145 6.45081 7.18212 6.54274 7.25713L6.70968 7.39507V8.03632L6.7121 8.68L6.9129 9.58502C7.14274 10.6183 7.12581 10.5796 7.3629 10.5796H7.50565L7.53226 10.7175C7.61935 11.1603 7.83468 11.5862 8.13468 11.9153L8.25806 12.0508V12.634C8.25806 13.1059 8.25081 13.2365 8.21935 13.3309C8.16129 13.5027 8.05242 13.6431 7.90968 13.7399C7.78871 13.8197 7.67742 13.8463 5.93306 14.2456C4.35323 14.6038 4.07984 14.6739 4.04355 14.7175C4.00484 14.7659 4 14.8336 4 15.3854V16H4.19355H4.3871V15.7967V15.5935L4.46694 15.5789C4.50806 15.5717 5.04516 15.5015 5.65726 15.4192C6.26935 15.3394 6.81855 15.262 6.87903 15.245C7.01935 15.2087 7.22016 15.0127 7.26129 14.8724C7.27823 14.8167 7.29032 14.6739 7.29032 14.5554V14.3352L7.45 14.2964C7.53952 14.2747 7.61452 14.2577 7.61694 14.2626C7.61935 14.2674 7.81532 14.5529 8.05242 14.899C8.2871 15.245 8.50242 15.5475 8.52903 15.5693C8.55565 15.5935 8.60887 15.6128 8.64758 15.6128C8.7129 15.6128 8.74435 15.591 9.1121 15.2789C9.15081 15.245 9.17742 15.2644 9.44113 15.5233L9.72661 15.8064H10H10.2734L10.5589 15.5233C10.8226 15.2644 10.8492 15.245 10.8879 15.2789C11.2556 15.591 11.2871 15.6128 11.3524 15.6128C11.3911 15.6128 11.4444 15.5935 11.471 15.5693C11.4976 15.5475 11.7129 15.245 11.9476 14.899C12.1847 14.5529 12.3806 14.2674 12.3831 14.2626C12.3855 14.2577 12.4605 14.2747 12.55 14.2964L12.7097 14.3352V14.5554C12.7097 14.6739 12.7218 14.8167 12.7387 14.8724C12.7798 15.0127 12.9806 15.2087 13.121 15.245C13.1815 15.262 13.7306 15.3394 14.3427 15.4192C14.9548 15.5015 15.4919 15.5717 15.5355 15.5789L15.6129 15.5935V15.7967V16H15.8065H16V15.3854C16 14.8264 15.9952 14.7659 15.9565 14.7175C15.9177 14.6691 15.6685 14.6062 14.0645 14.2432C12.325 13.8463 12.2089 13.8173 12.0903 13.7375C11.9452 13.6431 11.8242 13.4785 11.7758 13.3188C11.7516 13.239 11.7419 13.0502 11.7419 12.6292V12.0508L11.8653 11.9153C12.1653 11.5862 12.3806 11.1603 12.4677 10.7175L12.4944 10.5796H12.6371C12.8742 10.5796 12.8573 10.6183 13.0871 9.58502L13.2879 8.68L13.2903 8.03632V7.39022L13.4258 7.28617C13.4984 7.23052 13.6266 7.11194 13.7065 7.02483C13.9484 6.76107 14.2581 6.2529 14.2581 6.11739C14.2581 5.99156 13.7234 5.44952 13.3194 5.16156C12.9202 4.88086 12.6323 4.72841 12.1847 4.56386C11.9621 4.484 10.0653 3.9952 9.98306 4.00004C9.95887 4.00004 9.49677 4.11377 8.95484 4.2517ZM10.9315 4.62435C11.4105 4.74534 11.9016 4.87602 12.0202 4.91715C12.6589 5.1422 13.2903 5.55599 13.7258 6.03754L13.8323 6.15611L13.7645 6.28678C13.7258 6.35937 13.6435 6.48763 13.5806 6.5699C13.4427 6.75381 13.1355 7.04177 13.0605 7.06113C13.029 7.06839 12.6032 7.01031 12.1145 6.92804C11.1685 6.77559 10.9097 6.74171 10.3895 6.71751L10.0653 6.70057L10.2081 6.64976C10.5806 6.51424 10.871 6.17547 10.9435 5.79071C10.9556 5.71812 10.9677 5.48823 10.9677 5.27529C10.9677 4.90021 10.9653 4.89054 10.9073 4.83246L10.8492 4.77196H10H9.15081L9.09274 4.83246C9.03468 4.89054 9.03226 4.90021 9.03226 5.27529C9.03226 5.48823 9.04435 5.71812 9.05645 5.79071C9.12903 6.17547 9.41935 6.51424 9.79194 6.64976L9.93468 6.70057L9.58629 6.71751C9.09274 6.74171 8.74677 6.78527 7.81532 6.94014C7.36532 7.01515 6.97097 7.06839 6.94194 7.06113C6.86452 7.04177 6.55726 6.75381 6.41935 6.5699C6.35645 6.48763 6.27419 6.35937 6.23548 6.28678L6.16774 6.15611L6.25968 6.04964C6.65645 5.59955 7.33145 5.14946 7.94355 4.92925C8.17339 4.84698 9.97581 4.38721 10.0242 4.39931C10.0435 4.40415 10.4524 4.50578 10.9315 4.62435ZM10.5758 5.45436C10.5685 5.69634 10.5565 5.77378 10.5129 5.87541C10.4427 6.02786 10.2661 6.20451 10.1137 6.27226L9.99758 6.32308L9.87177 6.265C9.70968 6.18999 9.57419 6.05206 9.49435 5.88509C9.44113 5.76894 9.43145 5.71328 9.42419 5.45436L9.41452 5.15914H10H10.5855L10.5758 5.45436ZM11.0234 7.15308C11.2919 7.18696 12.7 7.412 12.85 7.44588C12.9032 7.45798 12.9032 7.4604 12.9032 7.92985C12.9032 8.32186 12.8984 8.40172 12.8694 8.40172C12.85 8.40172 12.4726 8.34364 12.0274 8.27105C10.9339 8.09198 10.7766 8.07504 9.9879 8.07746C9.21129 8.07746 9.00081 8.09682 7.8879 8.28314C7.49355 8.34848 7.15242 8.40172 7.13306 8.40172C7.10161 8.40172 7.09677 8.32912 7.09677 7.92985C7.09677 7.4604 7.09677 7.45798 7.15242 7.44588C7.33871 7.40232 8.85081 7.1676 9.08064 7.14582C9.23306 7.1313 9.40242 7.11436 9.45564 7.10952C9.66855 7.08775 10.7331 7.1192 11.0234 7.15308ZM11.0161 8.50819C11.4589 8.56143 11.8387 8.62676 11.8387 8.64854C11.8387 8.67758 11.6573 8.76227 11.5073 8.80099C11.3016 8.85423 8.69839 8.85423 8.49274 8.80099C8.34032 8.76227 8.16129 8.67758 8.16129 8.64854C8.16129 8.61466 8.84839 8.51787 9.44355 8.46463C9.66613 8.44527 10.7476 8.47431 11.0161 8.50819ZM7.77903 8.84697C7.85887 8.91956 8.00403 9.01877 8.10081 9.06717C8.42016 9.22446 8.45645 9.22688 10.0823 9.21962C11.5315 9.21236 11.5363 9.20994 11.6935 9.15429C11.9089 9.07927 12.0806 8.97764 12.2331 8.83729L12.3637 8.71872L12.6032 8.75743C12.7339 8.77921 12.8476 8.79857 12.8524 8.80341C12.8573 8.80825 12.7919 9.12041 12.7073 9.50032L12.5548 10.1924H12.4048C12.1823 10.1924 12.1581 10.219 12.1024 10.5505C12.0177 11.049 11.829 11.412 11.4831 11.7411C11.2024 12.0073 10.9556 12.1404 10.5371 12.2541C10.271 12.3243 9.72903 12.3243 9.4629 12.2541C9.04919 12.1428 8.80484 12.0097 8.51935 11.7435C8.17339 11.4193 7.98226 11.0514 7.89758 10.5505C7.84194 10.219 7.81774 10.1924 7.59516 10.1924H7.44516L7.29274 9.50032C7.20806 9.12041 7.14274 8.80583 7.14758 8.80341C7.15484 8.79857 7.49597 8.73565 7.6121 8.71872C7.62419 8.71872 7.69919 8.77437 7.77903 8.84697ZM8.86532 12.4501C9.0879 12.5566 9.39516 12.6485 9.64677 12.6824C10.2129 12.7623 10.7379 12.6582 11.3379 12.3509C11.3476 12.346 11.3548 12.4888 11.3548 12.6703V12.9994L10.6774 13.5076L10 14.0157L9.32258 13.5076L8.64516 12.9994V12.6703C8.64516 12.4888 8.65242 12.346 8.66452 12.3509C8.67419 12.3557 8.76371 12.4017 8.86532 12.4501ZM9.16532 13.873C9.58871 14.19 9.68306 14.2722 9.65645 14.2964C9.47016 14.4731 8.68145 15.124 8.66935 15.1119C8.61855 15.0514 8.01613 14.1609 8.01613 14.144C8.01613 14.1319 8.05484 14.1028 8.10323 14.0762C8.23387 14.0061 8.45887 13.752 8.52419 13.5971C8.56048 13.5172 8.59677 13.464 8.61371 13.4713C8.62823 13.4761 8.87742 13.6576 9.16532 13.873ZM11.4734 13.5971C11.5411 13.7496 11.7371 13.9746 11.8847 14.0641C11.9379 14.098 11.9839 14.1343 11.9839 14.144C11.9839 14.1609 11.3839 15.0514 11.3306 15.1119C11.3185 15.124 10.5298 14.4731 10.3435 14.2964C10.3169 14.2722 10.4137 14.1875 10.8492 13.8633C11.1444 13.6407 11.3935 13.4592 11.4008 13.4592C11.4081 13.4592 11.4419 13.5221 11.4734 13.5971ZM6.90323 14.5965C6.90323 14.7465 6.89597 14.7756 6.84274 14.8264C6.81129 14.8603 6.76532 14.8869 6.74113 14.8869C6.71694 14.8869 6.65645 14.8941 6.60806 14.9014L6.51613 14.9183V14.7126V14.507L6.68065 14.4707C6.77016 14.4489 6.85726 14.4319 6.87419 14.4295C6.89355 14.4271 6.90323 14.4755 6.90323 14.5965ZM13.346 14.4779L13.4839 14.507V14.7126V14.9183L13.3944 14.9014C13.3435 14.8941 13.2831 14.8869 13.2589 14.8869C13.2347 14.8869 13.1887 14.8603 13.1573 14.8264C13.104 14.7756 13.0968 14.7465 13.0968 14.5941C13.0968 14.4271 13.0992 14.4223 13.1524 14.4344C13.1815 14.4416 13.2685 14.461 13.346 14.4779ZM10.2419 14.7199C10.3677 14.8264 10.4887 14.9304 10.5081 14.9498C10.5395 14.9788 10.5153 15.0127 10.3266 15.2015C10.1161 15.412 10.1065 15.4192 10 15.4192C9.89355 15.4192 9.88387 15.412 9.67339 15.2015C9.48468 15.0127 9.46048 14.9788 9.49194 14.9498C9.57177 14.8748 9.9879 14.5239 10 14.5239C10.0073 14.5239 10.1161 14.6134 10.2419 14.7199ZM6.13387 14.7756C6.12903 14.8917 6.11452 14.9595 6.09516 14.9667C6.07823 14.974 5.99113 14.9861 5.90161 14.9958L5.73952 15.0127L5.74677 14.8482L5.75403 14.6812L5.92339 14.6425C6.01774 14.6207 6.10484 14.6013 6.11694 14.5989C6.13145 14.5965 6.13871 14.6667 6.13387 14.7756ZM14.1371 14.657L14.246 14.6836L14.2532 14.8482L14.2605 15.0127L14.0984 14.9958C13.8637 14.9716 13.871 14.9788 13.871 14.7756V14.5965L13.9508 14.6134C13.9919 14.6231 14.0766 14.6425 14.1371 14.657ZM5.35484 14.9183V15.0708L4.92661 15.1264C4.68952 15.1555 4.47177 15.1869 4.44032 15.1942C4.39194 15.2063 4.3871 15.199 4.3871 15.0998V14.9909L4.86613 14.882C5.12742 14.8215 5.34516 14.7707 5.35 14.7683C5.35242 14.7659 5.35484 14.8336 5.35484 14.9183ZM15.5911 14.9837C15.6032 14.9837 15.6129 15.0345 15.6129 15.095C15.6129 15.199 15.6081 15.2063 15.5597 15.1942C15.5282 15.1869 15.3105 15.1555 15.0758 15.1264L14.6452 15.0684V14.9208V14.7731L15.1073 14.8772C15.3637 14.9353 15.5815 14.9837 15.5911 14.9837Z"/>
</mask>
<path d="M8.95484 4.2517C7.87339 4.52514 7.54919 4.63887 7.09919 4.89295C6.95887 4.97523 6.74839 5.11074 6.63226 5.19785C6.22339 5.50275 5.74194 5.99882 5.74194 6.11739C5.74194 6.24322 6.01532 6.70783 6.24274 6.96917C6.31774 7.05145 6.45081 7.18212 6.54274 7.25713L6.70968 7.39507V8.03632L6.7121 8.68L6.9129 9.58502C7.14274 10.6183 7.12581 10.5796 7.3629 10.5796H7.50565L7.53226 10.7175C7.61935 11.1603 7.83468 11.5862 8.13468 11.9153L8.25806 12.0508V12.634C8.25806 13.1059 8.25081 13.2365 8.21935 13.3309C8.16129 13.5027 8.05242 13.6431 7.90968 13.7399C7.78871 13.8197 7.67742 13.8463 5.93306 14.2456C4.35323 14.6038 4.07984 14.6739 4.04355 14.7175C4.00484 14.7659 4 14.8336 4 15.3854V16H4.19355H4.3871V15.7967V15.5935L4.46694 15.5789C4.50806 15.5717 5.04516 15.5015 5.65726 15.4192C6.26935 15.3394 6.81855 15.262 6.87903 15.245C7.01935 15.2087 7.22016 15.0127 7.26129 14.8724C7.27823 14.8167 7.29032 14.6739 7.29032 14.5554V14.3352L7.45 14.2964C7.53952 14.2747 7.61452 14.2577 7.61694 14.2626C7.61935 14.2674 7.81532 14.5529 8.05242 14.899C8.2871 15.245 8.50242 15.5475 8.52903 15.5693C8.55565 15.5935 8.60887 15.6128 8.64758 15.6128C8.7129 15.6128 8.74435 15.591 9.1121 15.2789C9.15081 15.245 9.17742 15.2644 9.44113 15.5233L9.72661 15.8064H10H10.2734L10.5589 15.5233C10.8226 15.2644 10.8492 15.245 10.8879 15.2789C11.2556 15.591 11.2871 15.6128 11.3524 15.6128C11.3911 15.6128 11.4444 15.5935 11.471 15.5693C11.4976 15.5475 11.7129 15.245 11.9476 14.899C12.1847 14.5529 12.3806 14.2674 12.3831 14.2626C12.3855 14.2577 12.4605 14.2747 12.55 14.2964L12.7097 14.3352V14.5554C12.7097 14.6739 12.7218 14.8167 12.7387 14.8724C12.7798 15.0127 12.9806 15.2087 13.121 15.245C13.1815 15.262 13.7306 15.3394 14.3427 15.4192C14.9548 15.5015 15.4919 15.5717 15.5355 15.5789L15.6129 15.5935V15.7967V16H15.8065H16V15.3854C16 14.8264 15.9952 14.7659 15.9565 14.7175C15.9177 14.6691 15.6685 14.6062 14.0645 14.2432C12.325 13.8463 12.2089 13.8173 12.0903 13.7375C11.9452 13.6431 11.8242 13.4785 11.7758 13.3188C11.7516 13.239 11.7419 13.0502 11.7419 12.6292V12.0508L11.8653 11.9153C12.1653 11.5862 12.3806 11.1603 12.4677 10.7175L12.4944 10.5796H12.6371C12.8742 10.5796 12.8573 10.6183 13.0871 9.58502L13.2879 8.68L13.2903 8.03632V7.39022L13.4258 7.28617C13.4984 7.23052 13.6266 7.11194 13.7065 7.02483C13.9484 6.76107 14.2581 6.2529 14.2581 6.11739C14.2581 5.99156 13.7234 5.44952 13.3194 5.16156C12.9202 4.88086 12.6323 4.72841 12.1847 4.56386C11.9621 4.484 10.0653 3.9952 9.98306 4.00004C9.95887 4.00004 9.49677 4.11377 8.95484 4.2517ZM10.9315 4.62435C11.4105 4.74534 11.9016 4.87602 12.0202 4.91715C12.6589 5.1422 13.2903 5.55599 13.7258 6.03754L13.8323 6.15611L13.7645 6.28678C13.7258 6.35937 13.6435 6.48763 13.5806 6.5699C13.4427 6.75381 13.1355 7.04177 13.0605 7.06113C13.029 7.06839 12.6032 7.01031 12.1145 6.92804C11.1685 6.77559 10.9097 6.74171 10.3895 6.71751L10.0653 6.70057L10.2081 6.64976C10.5806 6.51424 10.871 6.17547 10.9435 5.79071C10.9556 5.71812 10.9677 5.48823 10.9677 5.27529C10.9677 4.90021 10.9653 4.89054 10.9073 4.83246L10.8492 4.77196H10H9.15081L9.09274 4.83246C9.03468 4.89054 9.03226 4.90021 9.03226 5.27529C9.03226 5.48823 9.04435 5.71812 9.05645 5.79071C9.12903 6.17547 9.41935 6.51424 9.79194 6.64976L9.93468 6.70057L9.58629 6.71751C9.09274 6.74171 8.74677 6.78527 7.81532 6.94014C7.36532 7.01515 6.97097 7.06839 6.94194 7.06113C6.86452 7.04177 6.55726 6.75381 6.41935 6.5699C6.35645 6.48763 6.27419 6.35937 6.23548 6.28678L6.16774 6.15611L6.25968 6.04964C6.65645 5.59955 7.33145 5.14946 7.94355 4.92925C8.17339 4.84698 9.97581 4.38721 10.0242 4.39931C10.0435 4.40415 10.4524 4.50578 10.9315 4.62435ZM10.5758 5.45436C10.5685 5.69634 10.5565 5.77378 10.5129 5.87541C10.4427 6.02786 10.2661 6.20451 10.1137 6.27226L9.99758 6.32308L9.87177 6.265C9.70968 6.18999 9.57419 6.05206 9.49435 5.88509C9.44113 5.76894 9.43145 5.71328 9.42419 5.45436L9.41452 5.15914H10H10.5855L10.5758 5.45436ZM11.0234 7.15308C11.2919 7.18696 12.7 7.412 12.85 7.44588C12.9032 7.45798 12.9032 7.4604 12.9032 7.92985C12.9032 8.32186 12.8984 8.40172 12.8694 8.40172C12.85 8.40172 12.4726 8.34364 12.0274 8.27105C10.9339 8.09198 10.7766 8.07504 9.9879 8.07746C9.21129 8.07746 9.00081 8.09682 7.8879 8.28314C7.49355 8.34848 7.15242 8.40172 7.13306 8.40172C7.10161 8.40172 7.09677 8.32912 7.09677 7.92985C7.09677 7.4604 7.09677 7.45798 7.15242 7.44588C7.33871 7.40232 8.85081 7.1676 9.08064 7.14582C9.23306 7.1313 9.40242 7.11436 9.45564 7.10952C9.66855 7.08775 10.7331 7.1192 11.0234 7.15308ZM11.0161 8.50819C11.4589 8.56143 11.8387 8.62676 11.8387 8.64854C11.8387 8.67758 11.6573 8.76227 11.5073 8.80099C11.3016 8.85423 8.69839 8.85423 8.49274 8.80099C8.34032 8.76227 8.16129 8.67758 8.16129 8.64854C8.16129 8.61466 8.84839 8.51787 9.44355 8.46463C9.66613 8.44527 10.7476 8.47431 11.0161 8.50819ZM7.77903 8.84697C7.85887 8.91956 8.00403 9.01877 8.10081 9.06717C8.42016 9.22446 8.45645 9.22688 10.0823 9.21962C11.5315 9.21236 11.5363 9.20994 11.6935 9.15429C11.9089 9.07927 12.0806 8.97764 12.2331 8.83729L12.3637 8.71872L12.6032 8.75743C12.7339 8.77921 12.8476 8.79857 12.8524 8.80341C12.8573 8.80825 12.7919 9.12041 12.7073 9.50032L12.5548 10.1924H12.4048C12.1823 10.1924 12.1581 10.219 12.1024 10.5505C12.0177 11.049 11.829 11.412 11.4831 11.7411C11.2024 12.0073 10.9556 12.1404 10.5371 12.2541C10.271 12.3243 9.72903 12.3243 9.4629 12.2541C9.04919 12.1428 8.80484 12.0097 8.51935 11.7435C8.17339 11.4193 7.98226 11.0514 7.89758 10.5505C7.84194 10.219 7.81774 10.1924 7.59516 10.1924H7.44516L7.29274 9.50032C7.20806 9.12041 7.14274 8.80583 7.14758 8.80341C7.15484 8.79857 7.49597 8.73565 7.6121 8.71872C7.62419 8.71872 7.69919 8.77437 7.77903 8.84697ZM8.86532 12.4501C9.0879 12.5566 9.39516 12.6485 9.64677 12.6824C10.2129 12.7623 10.7379 12.6582 11.3379 12.3509C11.3476 12.346 11.3548 12.4888 11.3548 12.6703V12.9994L10.6774 13.5076L10 14.0157L9.32258 13.5076L8.64516 12.9994V12.6703C8.64516 12.4888 8.65242 12.346 8.66452 12.3509C8.67419 12.3557 8.76371 12.4017 8.86532 12.4501ZM9.16532 13.873C9.58871 14.19 9.68306 14.2722 9.65645 14.2964C9.47016 14.4731 8.68145 15.124 8.66935 15.1119C8.61855 15.0514 8.01613 14.1609 8.01613 14.144C8.01613 14.1319 8.05484 14.1028 8.10323 14.0762C8.23387 14.0061 8.45887 13.752 8.52419 13.5971C8.56048 13.5172 8.59677 13.464 8.61371 13.4713C8.62823 13.4761 8.87742 13.6576 9.16532 13.873ZM11.4734 13.5971C11.5411 13.7496 11.7371 13.9746 11.8847 14.0641C11.9379 14.098 11.9839 14.1343 11.9839 14.144C11.9839 14.1609 11.3839 15.0514 11.3306 15.1119C11.3185 15.124 10.5298 14.4731 10.3435 14.2964C10.3169 14.2722 10.4137 14.1875 10.8492 13.8633C11.1444 13.6407 11.3935 13.4592 11.4008 13.4592C11.4081 13.4592 11.4419 13.5221 11.4734 13.5971ZM6.90323 14.5965C6.90323 14.7465 6.89597 14.7756 6.84274 14.8264C6.81129 14.8603 6.76532 14.8869 6.74113 14.8869C6.71694 14.8869 6.65645 14.8941 6.60806 14.9014L6.51613 14.9183V14.7126V14.507L6.68065 14.4707C6.77016 14.4489 6.85726 14.4319 6.87419 14.4295C6.89355 14.4271 6.90323 14.4755 6.90323 14.5965ZM13.346 14.4779L13.4839 14.507V14.7126V14.9183L13.3944 14.9014C13.3435 14.8941 13.2831 14.8869 13.2589 14.8869C13.2347 14.8869 13.1887 14.8603 13.1573 14.8264C13.104 14.7756 13.0968 14.7465 13.0968 14.5941C13.0968 14.4271 13.0992 14.4223 13.1524 14.4344C13.1815 14.4416 13.2685 14.461 13.346 14.4779ZM10.2419 14.7199C10.3677 14.8264 10.4887 14.9304 10.5081 14.9498C10.5395 14.9788 10.5153 15.0127 10.3266 15.2015C10.1161 15.412 10.1065 15.4192 10 15.4192C9.89355 15.4192 9.88387 15.412 9.67339 15.2015C9.48468 15.0127 9.46048 14.9788 9.49194 14.9498C9.57177 14.8748 9.9879 14.5239 10 14.5239C10.0073 14.5239 10.1161 14.6134 10.2419 14.7199ZM6.13387 14.7756C6.12903 14.8917 6.11452 14.9595 6.09516 14.9667C6.07823 14.974 5.99113 14.9861 5.90161 14.9958L5.73952 15.0127L5.74677 14.8482L5.75403 14.6812L5.92339 14.6425C6.01774 14.6207 6.10484 14.6013 6.11694 14.5989C6.13145 14.5965 6.13871 14.6667 6.13387 14.7756ZM14.1371 14.657L14.246 14.6836L14.2532 14.8482L14.2605 15.0127L14.0984 14.9958C13.8637 14.9716 13.871 14.9788 13.871 14.7756V14.5965L13.9508 14.6134C13.9919 14.6231 14.0766 14.6425 14.1371 14.657ZM5.35484 14.9183V15.0708L4.92661 15.1264C4.68952 15.1555 4.47177 15.1869 4.44032 15.1942C4.39194 15.2063 4.3871 15.199 4.3871 15.0998V14.9909L4.86613 14.882C5.12742 14.8215 5.34516 14.7707 5.35 14.7683C5.35242 14.7659 5.35484 14.8336 5.35484 14.9183ZM15.5911 14.9837C15.6032 14.9837 15.6129 15.0345 15.6129 15.095C15.6129 15.199 15.6081 15.2063 15.5597 15.1942C15.5282 15.1869 15.3105 15.1555 15.0758 15.1264L14.6452 15.0684V14.9208V14.7731L15.1073 14.8772C15.3637 14.9353 15.5815 14.9837 15.5911 14.9837Z" fill="white" stroke="#FF0000" stroke-width="2" mask="url(#path-2-inside-1_879_10762)"/>
</svg>
