<svg width="35" height="35" viewBox="0 0 45 45" fill="none" xmlns="http://www.w3.org/2000/svg">
<circle cx="22.489" cy="22.489" r="22.489" fill="#688F99"/>
<path d="M22.3018 34.6984C21.3238 34.6984 20.5309 33.9055 20.5309 32.9275V24.0728L11.6762 24.0728C10.6982 24.0728 9.90527 23.2799 9.90527 22.3018C9.90527 21.3238 10.6981 20.5309 11.6762 20.5309L20.5309 20.5309L20.5309 11.6762C20.5309 10.6982 21.3238 9.90527 22.3018 9.90527C23.2799 9.90527 24.0728 10.6981 24.0728 11.6762L24.0728 20.5309H32.9275C33.9055 20.5309 34.6984 21.3238 34.6984 22.3018C34.6984 23.2799 33.9055 24.0728 32.9275 24.0728H24.0728V32.9275C24.0728 33.9055 23.2799 34.6984 22.3018 34.6984Z" fill="white"/>
</svg>
