<svg width="50" height="50" viewBox="0 0 50 50" fill="none" xmlns="http://www.w3.org/2000/svg">
<g filter="url(#filter0_d_1687_8840)">
<circle cx="25" cy="25" r="16" fill="white"/>
</g>
<path d="M27.0045 19.8348C27.2806 19.8348 27.5045 19.611 27.5045 19.3348C27.5045 19.0587 27.2806 18.8348 27.0045 18.8348V19.8348ZM30.4906 24.8374C30.4906 24.5613 30.2667 24.3374 29.9906 24.3374C29.7144 24.3374 29.4906 24.5613 29.4906 24.8374H30.4906ZM30.4906 18.9999C30.4906 18.7238 30.2667 18.4999 29.9906 18.4999C29.7144 18.4999 29.4906 18.7238 29.4906 18.9999H30.4906ZM29.9906 22.828L29.6705 23.2121L29.9906 23.4788L30.3107 23.2121L29.9906 22.828ZM32.3201 21.5376C32.5322 21.3608 32.5609 21.0455 32.3841 20.8334C32.2073 20.6212 31.892 20.5926 31.6799 20.7694L32.3201 21.5376ZM28.3013 20.7694C28.0891 20.5926 27.7738 20.6212 27.5971 20.8334C27.4203 21.0455 27.4489 21.3608 27.6611 21.5376L28.3013 20.7694ZM25.1933 21.1535C25.1933 20.8773 24.9695 20.6535 24.6933 20.6535C24.4172 20.6535 24.1933 20.8773 24.1933 21.1535H25.1933ZM24.6933 22.4931H24.1933V22.9931L24.6933 22.9931L24.6933 22.4931ZM26.3678 22.4931V22.9931C26.644 22.9931 26.8678 22.7692 26.8678 22.4931C26.8678 22.217 26.644 21.9931 26.3678 21.9931L26.3678 22.4931ZM22.6839 22.4931V21.9931C22.4078 21.9931 22.1839 22.217 22.1839 22.4931H22.6839ZM22.6839 25.1723H22.1839C22.1839 25.4485 22.4078 25.6723 22.6839 25.6723V25.1723ZM26.3678 25.1723H26.8678C26.8678 24.8962 26.644 24.6723 26.3678 24.6723V25.1723ZM26.3678 27.6057V28.1057C26.644 28.1057 26.8678 27.8818 26.8678 27.6057H26.3678ZM22.6216 27.1057C22.3455 27.1057 22.1216 27.3295 22.1216 27.6057C22.1216 27.8818 22.3455 28.1057 22.6216 28.1057V27.1057ZM24.2027 29.3395C24.2027 29.6157 24.4265 29.8395 24.7027 29.8395C24.9788 29.8395 25.2027 29.6157 25.2027 29.3395H24.2027ZM27.0045 18.8348H21V19.8348H27.0045V18.8348ZM18.5 21.3348V28.8656H19.5V21.3348H18.5ZM21 31.3656H27.9906V30.3656H21V31.3656ZM30.4906 28.8656V24.8374H29.4906V28.8656H30.4906ZM29.4906 18.9999V22.828H30.4906V18.9999H29.4906ZM30.3107 23.2121L32.3201 21.5376L31.6799 20.7694L29.6705 22.4439L30.3107 23.2121ZM30.3107 22.4439L28.3013 20.7694L27.6611 21.5376L29.6705 23.2121L30.3107 22.4439ZM24.1933 21.1535V22.4931H25.1933V21.1535H24.1933ZM24.6933 22.9931L26.3678 22.9931L26.3678 21.9931L24.6933 21.9931L24.6933 22.9931ZM26.3678 21.9931H22.6839V22.9931H26.3678V21.9931ZM22.1839 22.4931V25.1723H23.1839V22.4931H22.1839ZM22.6839 25.6723H26.3678V24.6723H22.6839V25.6723ZM25.8678 25.1723V27.6057H26.8678V25.1723H25.8678ZM26.3678 27.1057H24.7027V28.1057H26.3678V27.1057ZM24.7027 27.1057H22.6216V28.1057H24.7027V27.1057ZM24.2027 27.6057V29.3395H25.2027V27.6057H24.2027ZM27.9906 31.3656C29.3713 31.3656 30.4906 30.2464 30.4906 28.8656H29.4906C29.4906 29.6941 28.819 30.3656 27.9906 30.3656V31.3656ZM18.5 28.8656C18.5 30.2464 19.6193 31.3656 21 31.3656V30.3656C20.1716 30.3656 19.5 29.6941 19.5 28.8656H18.5ZM21 18.8348C19.6193 18.8348 18.5 19.9541 18.5 21.3348H19.5C19.5 20.5064 20.1716 19.8348 21 19.8348V18.8348Z" fill="#44749D"/>
<defs>
<filter id="filter0_d_1687_8840" x="0.151057" y="0.151057" width="49.6979" height="49.6979" filterUnits="userSpaceOnUse" color-interpolation-filters="sRGB">
<feFlood flood-opacity="0" result="BackgroundImageFix"/>
<feColorMatrix in="SourceAlpha" type="matrix" values="0 0 0 0 0 0 0 0 0 0 0 0 0 0 0 0 0 0 127 0" result="hardAlpha"/>
<feOffset/>
<feGaussianBlur stdDeviation="4.42447"/>
<feComposite in2="hardAlpha" operator="out"/>
<feColorMatrix type="matrix" values="0 0 0 0 0 0 0 0 0 0 0 0 0 0 0 0 0 0 0.25 0"/>
<feBlend mode="normal" in2="BackgroundImageFix" result="effect1_dropShadow_1687_8840"/>
<feBlend mode="normal" in="SourceGraphic" in2="effect1_dropShadow_1687_8840" result="shape"/>
</filter>
</defs>
</svg>
