<svg width="28" height="28" viewBox="0 0 28 28" fill="none" xmlns="http://www.w3.org/2000/svg">
<rect width="28" height="28" rx="3" fill="#EE2F44" fill-opacity="0.15"/>
<path d="M17 6.9518C17.2761 6.9518 17.5 6.72794 17.5 6.4518C17.5 6.17566 17.2761 5.9518 17 5.9518V6.9518ZM21.5623 13.8716C21.5623 13.5954 21.3384 13.3716 21.0623 13.3716C20.7861 13.3716 20.5623 13.5954 20.5623 13.8716H21.5623ZM21.5 6.45166C21.5 6.17552 21.2761 5.95166 21 5.95166C20.7239 5.95166 20.5 6.17552 20.5 6.45166H21.5ZM21 11.0002L20.6464 11.3537C20.7402 11.4475 20.8674 11.5002 21 11.5002C21.1326 11.5002 21.2598 11.4475 21.3536 11.3537L21 11.0002ZM23.3536 9.35354C23.5488 9.15826 23.5488 8.84168 23.3535 8.64643C23.1583 8.45118 22.8417 8.45119 22.6464 8.64646L23.3536 9.35354ZM19.3536 8.64646C19.1583 8.45119 18.8417 8.45118 18.6465 8.64643C18.4512 8.84168 18.4512 9.15826 18.6464 9.35354L19.3536 8.64646ZM13.5 9C13.5 8.72386 13.2761 8.5 13 8.5C12.7239 8.5 12.5 8.72386 12.5 9H13.5ZM16 11.5C16.2761 11.5 16.5 11.2761 16.5 11C16.5 10.7239 16.2761 10.5 16 10.5V11.5ZM10 11V10.5C9.72386 10.5 9.5 10.7239 9.5 11H10ZM10 14H9.5C9.5 14.2761 9.72386 14.5 10 14.5V14ZM16 14H16.5C16.5 13.7239 16.2761 13.5 16 13.5V14ZM16 17V17.5C16.2761 17.5 16.5 17.2761 16.5 17H16ZM10 16.5C9.72386 16.5 9.5 16.7239 9.5 17C9.5 17.2761 9.72386 17.5 10 17.5V16.5ZM12.5 19.5C12.5 19.7761 12.7239 20 13 20C13.2761 20 13.5 19.7761 13.5 19.5H12.5ZM5.49933 14C5.49933 14.2761 5.72319 14.5 5.99933 14.5C6.27547 14.5 6.49933 14.2761 6.49933 14H5.49933ZM10 21.5002C9.72386 21.5002 9.5 21.7241 9.5 22.0002C9.5 22.2763 9.72386 22.5002 10 22.5002V21.5002ZM5.49933 22.0002C5.49933 22.2763 5.72319 22.5002 5.99933 22.5002C6.27547 22.5002 6.49933 22.2763 6.49933 22.0002H5.49933ZM5.99933 16.8384L6.36628 16.4988C6.27163 16.3965 6.1386 16.3384 5.99925 16.3384C5.8599 16.3384 5.72689 16.3966 5.63227 16.4989L5.99933 16.8384ZM7.63305 19.3396C7.82062 19.5423 8.13697 19.5545 8.33963 19.367C8.54229 19.1794 8.55452 18.863 8.36695 18.6604L7.63305 19.3396ZM3.63294 18.6605C3.44543 18.8632 3.45777 19.1796 3.66049 19.3671C3.86322 19.5546 4.17956 19.5422 4.36706 19.3395L3.63294 18.6605ZM17 5.9518H7.99933V6.9518H17V5.9518ZM21.5623 20.0002V13.8716H20.5623V20.0002H21.5623ZM20.5 6.45166V11.0002H21.5V6.45166H20.5ZM21.3536 11.3537L23.3536 9.35354L22.6464 8.64646L20.6464 10.6467L21.3536 11.3537ZM21.3536 10.6467L19.3536 8.64646L18.6464 9.35354L20.6464 11.3537L21.3536 10.6467ZM12.5 9V11H13.5V9H12.5ZM13 11.5H16V10.5H13V11.5ZM9.5 11V14H10.5V11H9.5ZM10 14.5H16V13.5H10V14.5ZM15.5 14V17H16.5V14H15.5ZM16 16.5H13V17.5H16V16.5ZM13 16.5H10V17.5H13V16.5ZM12.5 17V19.5H13.5V17H12.5ZM5.49933 8.4518V14H6.49933V8.4518H5.49933ZM10 22.5002H19.0623V21.5002H10V22.5002ZM6.49933 22.0002V16.8384H5.49933V22.0002H6.49933ZM5.63238 17.178L7.63305 19.3396L8.36695 18.6604L6.36628 16.4988L5.63238 17.178ZM5.63227 16.4989L3.63294 18.6605L4.36706 19.3395L6.3664 17.1779L5.63227 16.4989ZM13 10.5H10V11.5H13V10.5ZM20.5623 20.0002C20.5623 20.8286 19.8907 21.5002 19.0623 21.5002V22.5002C20.443 22.5002 21.5623 21.3809 21.5623 20.0002H20.5623ZM7.99933 5.9518C6.61862 5.9518 5.49933 7.07109 5.49933 8.4518H6.49933C6.49933 7.62337 7.17091 6.9518 7.99933 6.9518V5.9518Z" fill="#EE2F44"/>
</svg>
