<svg width="20" height="20" viewBox="0 0 20 20" fill="none" xmlns="http://www.w3.org/2000/svg">
<path d="M7.55046 5H5.91781C5.4848 5 5.06953 5.16932 4.76335 5.47072C4.45717 5.77212 4.28516 6.1809 4.28516 6.60714V16.25C4.28516 16.6762 4.45717 17.085 4.76335 17.3864C5.06953 17.6878 5.4848 17.8571 5.91781 17.8571H14.0811C14.5141 17.8571 14.9294 17.6878 15.2355 17.3864C15.5417 17.085 15.7137 16.6762 15.7137 16.25V6.60714C15.7137 6.1809 15.5417 5.77212 15.2355 5.47072C14.9294 5.16932 14.5141 5 14.0811 5H12.4484" stroke="#44749D" stroke-width="1.5" stroke-linecap="round" stroke-linejoin="round"/>
<path d="M11.1908 2.85742H9.52409C9.08206 2.85742 8.65814 3.04556 8.34558 3.38045C8.03302 3.71533 7.85742 4.16954 7.85742 4.64314C7.85742 5.11674 8.03302 5.57094 8.34558 5.90583C8.65814 6.24071 9.08206 6.42885 9.52409 6.42885H11.1908C11.6328 6.42885 12.0567 6.24071 12.3693 5.90583C12.6818 5.57094 12.8574 5.11674 12.8574 4.64314C12.8574 4.16954 12.6818 3.71533 12.3693 3.38045C12.0567 3.04556 11.6328 2.85742 11.1908 2.85742Z" stroke="#44749D" stroke-width="1.5" stroke-linecap="round" stroke-linejoin="round"/>
<path d="M7.5 14.1667V10" stroke="#44749D" stroke-width="1.5" stroke-linecap="round" stroke-linejoin="round"/>
<path d="M10 14.1668V13.3335" stroke="#44749D" stroke-width="1.5" stroke-linecap="round" stroke-linejoin="round"/>
<path d="M12.5 14.1665V11.6665" stroke="#44749D" stroke-width="1.5" stroke-linecap="round" stroke-linejoin="round"/>
</svg>
