<svg width="50" height="50" viewBox="0 0 50 50" fill="none" xmlns="http://www.w3.org/2000/svg">
<g filter="url(#filter0_d_1687_8836)">
<circle cx="25" cy="25" r="16" fill="white"/>
</g>
<path d="M26.0045 19.8211C26.2806 19.8211 26.5045 19.5972 26.5045 19.3211C26.5045 19.0449 26.2806 18.8211 26.0045 18.8211V19.8211ZM29.5 30C29.5 30.2761 29.7239 30.5 30 30.5C30.2761 30.5 30.5 30.2761 30.5 30H29.5ZM30.5 26C30.5 25.7239 30.2761 25.5 30 25.5C29.7239 25.5 29.5 25.7239 29.5 26H30.5ZM29.4906 19C29.4906 18.7239 29.2667 18.5 28.9906 18.5C28.7144 18.5 28.4906 18.7239 28.4906 19H29.4906ZM28.9906 22.6697L28.6785 23.0604L28.9906 23.3097L29.3027 23.0604L28.9906 22.6697ZM31.3121 21.4551C31.5278 21.2828 31.563 20.9681 31.3906 20.7524C31.2183 20.5366 30.9037 20.5015 30.6879 20.6738L31.3121 21.4551ZM27.2933 20.6738C27.0775 20.5015 26.7629 20.5366 26.5905 20.7524C26.4182 20.9681 26.4533 21.2828 26.6691 21.4551L27.2933 20.6738ZM23.9907 21.0645C23.9907 20.7883 23.7668 20.5645 23.4907 20.5645C23.2145 20.5645 22.9907 20.7883 22.9907 21.0645H23.9907ZM23.4907 22.3487H22.9907V22.8487L23.4907 22.8487L23.4907 22.3487ZM25.3678 22.3487V22.8487C25.644 22.8487 25.8678 22.6248 25.8678 22.3487C25.8678 22.0726 25.644 21.8487 25.3678 21.8487L25.3678 22.3487ZM21.6839 22.3487V21.8487C21.4078 21.8487 21.1839 22.0726 21.1839 22.3487H21.6839ZM21.6839 24.9171H21.1839C21.1839 25.1933 21.4078 25.4171 21.6839 25.4171V24.9171ZM25.3678 24.9171H25.8678C25.8678 24.641 25.644 24.4171 25.3678 24.4171V24.9171ZM25.3678 27.2498L25.3678 27.7498C25.644 27.7498 25.8678 27.526 25.8678 27.2498H25.3678ZM21.6216 26.7498C21.3455 26.7498 21.1216 26.9737 21.1216 27.2498C21.1216 27.526 21.3455 27.7498 21.6216 27.7498L21.6216 26.7498ZM23 28.912C23 29.1881 23.2239 29.412 23.5 29.412C23.7761 29.412 24 29.1881 24 28.912H23ZM28 27.5C27.7239 27.5 27.5 27.7239 27.5 28C27.5 28.2761 27.7239 28.5 28 28.5V27.5ZM32 28.5C32.2761 28.5 32.5 28.2761 32.5 28C32.5 27.7239 32.2761 27.5 32 27.5V28.5ZM26.0045 30.875C26.2806 30.875 26.5045 30.6511 26.5045 30.375C26.5045 30.0989 26.2806 29.875 26.0045 29.875V30.875ZM26.0045 18.8211H20V19.8211H26.0045V18.8211ZM17.5 21.3211V28.375H18.5V21.3211H17.5ZM30.5 30V26H29.5V30H30.5ZM28.4906 19V22.6697H29.4906V19H28.4906ZM29.3027 23.0604L31.3121 21.4551L30.6879 20.6738L28.6785 22.2791L29.3027 23.0604ZM29.3027 22.2791L27.2933 20.6738L26.6691 21.4551L28.6785 23.0604L29.3027 22.2791ZM22.9907 21.0645V22.3487H23.9907V21.0645H22.9907ZM23.4907 22.8487L25.3678 22.8487L25.3678 21.8487L23.4907 21.8487L23.4907 22.8487ZM25.3678 21.8487H21.6839V22.8487H25.3678V21.8487ZM21.1839 22.3487V24.9171H22.1839V22.3487H21.1839ZM21.6839 25.4171H25.3678V24.4171H21.6839V25.4171ZM24.8678 24.9171V27.2498H25.8678V24.9171H24.8678ZM25.3678 26.7498L23.5 26.7498L23.5 27.7498L25.3678 27.7498L25.3678 26.7498ZM23.5 26.7498L21.6216 26.7498L21.6216 27.7498L23.5 27.7498L23.5 26.7498ZM23 27.2498V28.912H24V27.2498H23ZM28 28.5H32V27.5H28V28.5ZM20 30.875H26.0045V29.875H20V30.875ZM17.5 28.375C17.5 29.7557 18.6193 30.875 20 30.875V29.875C19.1716 29.875 18.5 29.2034 18.5 28.375H17.5ZM20 18.8211C18.6193 18.8211 17.5 19.9403 17.5 21.3211H18.5C18.5 20.4926 19.1716 19.8211 20 19.8211V18.8211Z" fill="#44749D"/>
<defs>
<filter id="filter0_d_1687_8836" x="0.151057" y="0.151057" width="49.6979" height="49.6979" filterUnits="userSpaceOnUse" color-interpolation-filters="sRGB">
<feFlood flood-opacity="0" result="BackgroundImageFix"/>
<feColorMatrix in="SourceAlpha" type="matrix" values="0 0 0 0 0 0 0 0 0 0 0 0 0 0 0 0 0 0 127 0" result="hardAlpha"/>
<feOffset/>
<feGaussianBlur stdDeviation="4.42447"/>
<feComposite in2="hardAlpha" operator="out"/>
<feColorMatrix type="matrix" values="0 0 0 0 0 0 0 0 0 0 0 0 0 0 0 0 0 0 0.25 0"/>
<feBlend mode="normal" in2="BackgroundImageFix" result="effect1_dropShadow_1687_8836"/>
<feBlend mode="normal" in="SourceGraphic" in2="effect1_dropShadow_1687_8836" result="shape"/>
</filter>
</defs>
</svg>
