<svg width="28" height="28" viewBox="0 0 28 28" fill="none" xmlns="http://www.w3.org/2000/svg">
<rect width="28" height="28" rx="3" fill="#F4AE1A" fill-opacity="0.15"/>
<path d="M23.5 11.5H24C24 11.2239 23.7761 11 23.5 11V11.5ZM23.5 17.5V18C23.7761 18 24 17.7761 24 17.5H23.5ZM14.5 11.5V11C14.2239 11 14 11.2239 14 11.5H14.5ZM14.5 17.5H14C14 17.7761 14.2239 18 14.5 18V17.5ZM16.5 17.5H17V17H16.5V17.5ZM16.5 19.5H16C16 19.6922 16.1102 19.8674 16.2834 19.9507C16.4566 20.0339 16.6623 20.0105 16.8123 19.8904L16.5 19.5ZM19 17.5V17H18.8246L18.6877 17.1096L19 17.5ZM17 13C16.7239 13 16.5 13.2239 16.5 13.5C16.5 13.7761 16.7239 14 17 14V13ZM21 14C21.2761 14 21.5 13.7761 21.5 13.5C21.5 13.2239 21.2761 13 21 13V14ZM17 15C16.7239 15 16.5 15.2239 16.5 15.5C16.5 15.7761 16.7239 16 17 16V15ZM21 16C21.2761 16 21.5 15.7761 21.5 15.5C21.5 15.2239 21.2761 15 21 15V16ZM9.5 17C9.22386 17 9 17.2239 9 17.5C9 17.7761 9.22386 18 9.5 18V17ZM12 18C12.2761 18 12.5 17.7761 12.5 17.5C12.5 17.2239 12.2761 17 12 17V18ZM9.5 19.5C9.22386 19.5 9 19.7239 9 20C9 20.2761 9.22386 20.5 9.5 20.5V19.5ZM13.5 20.5C13.7761 20.5 14 20.2761 14 20C14 19.7239 13.7761 19.5 13.5 19.5V20.5ZM9.5 14.5C9.22386 14.5 9 14.7239 9 15C9 15.2761 9.22386 15.5 9.5 15.5V14.5ZM11 15.5C11.2761 15.5 11.5 15.2761 11.5 15C11.5 14.7239 11.2761 14.5 11 14.5V15.5ZM20 6V11.5H21V6H20ZM20.5 12H23.5V11H20.5V12ZM23 11.5V17.5H24V11.5H23ZM23.5 17H20.5V18H23.5V17ZM20 17.5V21.5H21V17.5H20ZM19.5 22H8V23H19.5V22ZM7.5 21.5V6H6.5V21.5H7.5ZM8 5.5H19.5V4.5H8V5.5ZM20.5 11H14.5V12H20.5V11ZM14 11.5V17.5H15V11.5H14ZM14.5 18H16.5V17H14.5V18ZM16 17.5V19.5H17V17.5H16ZM16.8123 19.8904L19.3123 17.8904L18.6877 17.1096L16.1877 19.1096L16.8123 19.8904ZM19 18H20.5V17H19V18ZM17 14H21V13H17V14ZM17 16H21V15H17V16ZM9.5 20.5H13.5V19.5H9.5V20.5ZM9.5 18H12V17H9.5V18ZM9.5 15.5H11V14.5H9.5V15.5ZM7.5 6C7.5 5.72386 7.72386 5.5 8 5.5V4.5C7.17157 4.5 6.5 5.17157 6.5 6H7.5ZM8 22C7.72386 22 7.5 21.7761 7.5 21.5H6.5C6.5 22.3284 7.17157 23 8 23V22ZM20 21.5C20 21.7761 19.7761 22 19.5 22V23C20.3284 23 21 22.3284 21 21.5H20ZM21 6C21 5.17157 20.3284 4.5 19.5 4.5V5.5C19.7761 5.5 20 5.72386 20 6H21Z" fill="#F4AE1A"/>
</svg>
