<svg width="19" height="19" viewBox="0 0 19 19" fill="none" xmlns="http://www.w3.org/2000/svg">
<path d="M9.5 18C10.6162 18 11.7215 17.7801 12.7528 17.353C13.7841 16.9258 14.7211 16.2997 15.5104 15.5104C16.2997 14.7211 16.9258 13.7841 17.353 12.7528C17.7801 11.7215 18 10.6162 18 9.5C18 8.38376 17.7801 7.27846 17.353 6.24719C16.9258 5.21592 16.2997 4.27889 15.5104 3.48959C14.7211 2.70029 13.7841 2.07419 12.7528 1.64702C11.7215 1.21986 10.6162 1 9.5 1C7.24566 1 5.08365 1.89553 3.48959 3.48959C1.89553 5.08365 1 7.24566 1 9.5C1 11.7543 1.89553 13.9163 3.48959 15.5104C5.08365 17.1045 7.24566 18 9.5 18V18Z" stroke="#44749D" stroke-width="1.2" stroke-linecap="round" stroke-linejoin="round"/>
<path d="M6.66638 9.50022L8.55527 11.3891L12.333 7.61133" stroke="#44749D" stroke-width="1.2" stroke-linecap="round" stroke-linejoin="round"/>
</svg>
