<svg width="28" height="28" viewBox="0 0 28 28" fill="none" xmlns="http://www.w3.org/2000/svg">
<rect width="28" height="28" rx="3" fill="#915BA6" fill-opacity="0.15"/>
<path d="M12 22.5C11.7239 22.5 11.5 22.7239 11.5 23C11.5 23.2761 11.7239 23.5 12 23.5V22.5ZM21 9.5H21.5V9.29289L21.3536 9.14645L21 9.5ZM16.5 5L16.8536 4.64645L16.7071 4.5H16.5V5ZM9.5 18.5H10V18H9.5V18.5ZM7.5 18.5V18H7V18.5H7.5ZM12 20C11.7239 20 11.5 20.2239 11.5 20.5C11.5 20.7761 11.7239 21 12 21V20ZM18 21C18.2761 21 18.5 20.7761 18.5 20.5C18.5 20.2239 18.2761 20 18 20V21ZM13.5 17.5C13.2239 17.5 13 17.7239 13 18C13 18.2761 13.2239 18.5 13.5 18.5V17.5ZM18 18.5C18.2761 18.5 18.5 18.2761 18.5 18C18.5 17.7239 18.2761 17.5 18 17.5V18.5ZM15 15C14.7239 15 14.5 15.2239 14.5 15.5C14.5 15.7761 14.7239 16 15 16V15ZM18 16C18.2761 16 18.5 15.7761 18.5 15.5C18.5 15.2239 18.2761 15 18 15V16ZM15 12.5C14.7239 12.5 14.5 12.7239 14.5 13C14.5 13.2761 14.7239 13.5 15 13.5V12.5ZM18 13.5C18.2761 13.5 18.5 13.2761 18.5 13C18.5 12.7239 18.2761 12.5 18 12.5V13.5ZM7.35355 12.1464C7.15829 11.9512 6.84171 11.9512 6.64645 12.1464C6.45118 12.3417 6.45118 12.6583 6.64645 12.8536L7.35355 12.1464ZM8 13.5L7.64645 13.8536C7.84171 14.0488 8.15829 14.0488 8.35355 13.8536L8 13.5ZM10.3536 11.8536C10.5488 11.6583 10.5488 11.3417 10.3536 11.1464C10.1583 10.9512 9.84171 10.9512 9.64645 11.1464L10.3536 11.8536ZM12 23.5H20V22.5H12V23.5ZM21.5 22V9.5H20.5V22H21.5ZM21 9H17.5V10H21V9ZM17 8.5V5H16V8.5H17ZM16.1464 5.35355L20.6464 9.85355L21.3536 9.14645L16.8536 4.64645L16.1464 5.35355ZM16.5 4.5H9.5V5.5H16.5V4.5ZM8 6V7H9V6H8ZM10 22V18.5H9V22H10ZM7 18.5V22H8V18.5H7ZM9.5 18H8.55556V19H9.5V18ZM8.55556 18H7.5V19H8.55556V18ZM9.05556 18.5V16H8.05556V18.5H9.05556ZM8.55556 15.5H8.5V16.5H8.55556V15.5ZM12 21H18V20H12V21ZM13.5 18.5H18V17.5H13.5V18.5ZM15 16H18V15H15V16ZM15 13.5H18V12.5H15V13.5ZM6.64645 12.8536L7.64645 13.8536L8.35355 13.1464L7.35355 12.1464L6.64645 12.8536ZM8.35355 13.8536L10.3536 11.8536L9.64645 11.1464L7.64645 13.1464L8.35355 13.8536ZM8.5 9.5C10.1517 9.5 11.5 10.866 11.5 12.528H12.5C12.5 10.3241 10.7143 8.5 8.5 8.5V9.5ZM8.5 15.5C6.84315 15.5 5.5 14.1569 5.5 12.5H4.5C4.5 14.7091 6.29086 16.5 8.5 16.5V15.5ZM8.5 22.5C8.22386 22.5 8 22.2761 8 22H7C7 22.8284 7.67157 23.5 8.5 23.5V22.5ZM11.5 12.528C11.5 14.1594 10.1766 15.5 8.55556 15.5V16.5C10.7392 16.5 12.5 14.7013 12.5 12.528H11.5ZM9.5 4.5C8.67157 4.5 8 5.17157 8 6H9C9 5.72386 9.22386 5.5 9.5 5.5V4.5ZM8.5 23.5C9.32843 23.5 10 22.8284 10 22H9C9 22.2761 8.77614 22.5 8.5 22.5V23.5ZM5.5 12.5C5.5 10.8431 6.84315 9.5 8.5 9.5V8.5C6.29086 8.5 4.5 10.2909 4.5 12.5H5.5ZM17.5 9C17.2239 9 17 8.77614 17 8.5H16C16 9.32843 16.6716 10 17.5 10V9ZM20 23.5C20.8284 23.5 21.5 22.8284 21.5 22H20.5C20.5 22.2761 20.2761 22.5 20 22.5V23.5Z" fill="#915BA6"/>
</svg>
