<svg width="19" height="19" viewBox="0 0 19 19" fill="none" xmlns="http://www.w3.org/2000/svg">
<path d="M12.6689 17.5966C11.6679 18.0112 10.5951 18.2246 9.51172 18.2246C7.32368 18.2246 5.22526 17.3554 3.67809 15.8082C2.13091 14.2611 1.26172 12.1626 1.26172 9.97461C1.26172 7.78657 2.13091 5.68815 3.67809 4.14098C5.22526 2.5938 7.32368 1.72461 9.51172 1.72461C10.5951 1.72461 11.6679 1.938 12.6689 2.3526C13.6698 2.7672 14.5793 3.37489 15.3453 4.14098C16.1114 4.90706 16.7191 5.81654 17.1337 6.81747C17.5483 7.81841 17.7617 8.8912 17.7617 9.97461C17.7617 11.058 17.5483 12.1308 17.1337 13.1317C16.7191 14.1327 16.1114 15.0422 15.3453 15.8082C14.5793 16.5743 13.6698 17.182 12.6689 17.5966Z" stroke="#FF9B6B" stroke-width="1.5" stroke-linecap="round" stroke-linejoin="round"/>
<path d="M9.51172 4.97656V9.97656L12.5117 12.9766" stroke="#FF9B6B" stroke-width="1.5" stroke-linecap="round" stroke-linejoin="round"/>
</svg>
