<svg width="13" height="13" viewBox="0 0 13 13" fill="none" xmlns="http://www.w3.org/2000/svg">
<g clip-path="url(#clip0_2413_32483)">
<path d="M6.5 11.375C7.14019 11.375 7.77412 11.2489 8.36558 11.0039C8.95704 10.7589 9.49446 10.3998 9.94715 9.94715C10.3998 9.49446 10.7589 8.95704 11.0039 8.36558C11.2489 7.77412 11.375 7.14019 11.375 6.5C11.375 5.85981 11.2489 5.22588 11.0039 4.63442C10.7589 4.04296 10.3998 3.50554 9.94715 3.05285C9.49446 2.60017 8.95704 2.24108 8.36558 1.99609C7.77412 1.7511 7.14019 1.625 6.5 1.625C5.20707 1.625 3.96709 2.13861 3.05285 3.05285C2.13861 3.96709 1.625 5.20707 1.625 6.5C1.625 7.79293 2.13861 9.03291 3.05285 9.94715C3.96709 10.8614 5.20707 11.375 6.5 11.375V11.375Z" stroke="#444444" stroke-linecap="round" stroke-linejoin="round"/>
<path d="M6.5 3.79297V6.5013L8.125 8.1263" stroke="#444444" stroke-linecap="round" stroke-linejoin="round"/>
</g>
<defs>
<clipPath id="clip0_2413_32483">
<rect width="13" height="13" fill="white"/>
</clipPath>
</defs>
</svg>
