<svg width="20" height="20" viewBox="0 0 20 20" fill="none" xmlns="http://www.w3.org/2000/svg">
<rect width="20" height="20" rx="2" fill="#FF9B6B" fill-opacity="0.21"/>
<mask id="path-2-inside-1_879_10755" fill="white">
<path d="M9.40149 2.05557C9.08186 2.11636 8.68703 2.27507 8.38308 2.46081C8.08539 2.64316 8.06345 2.66343 8.03839 2.80188C8.02272 2.88968 8.03525 2.92683 8.09792 2.99437C8.21073 3.11594 8.29221 3.10581 8.57736 2.93021C8.84371 2.76473 9.0568 2.67018 9.35762 2.58238C9.63337 2.50133 10.3823 2.50471 10.6706 2.58913C11.689 2.88293 12.4066 3.63599 12.7168 4.72675C12.792 4.99353 12.7983 5.07795 12.7983 5.53047C12.7983 6.09104 12.7513 6.35107 12.5727 6.77319C12.4787 7.00282 12.228 7.43845 12.1935 7.43845C12.181 7.43845 12.1026 7.32026 12.0212 7.17505C11.8519 6.89138 11.4226 6.38822 11.1845 6.19911L11.0341 6.08091L11.0967 5.98636C11.3631 5.5845 11.4038 5.00366 11.2002 4.53764C11.0936 4.29788 10.8179 4.0007 10.5922 3.87913C9.92479 3.5313 9.11633 3.83523 8.80298 4.5579C8.6181 4.98002 8.64943 5.53047 8.87505 5.91206L8.96592 6.07078L8.84998 6.17209C8.58363 6.39497 8.12613 6.92853 7.97885 7.1818L7.8253 7.44858L7.75637 7.3574C7.61535 7.1818 7.43361 6.81034 7.3396 6.50979C7.05445 5.5845 7.17665 4.62544 7.67803 3.82848C7.82217 3.60222 7.84097 3.45701 7.74383 3.35233C7.64669 3.24764 7.50568 3.26452 7.39287 3.39285C7.16099 3.66301 6.88523 4.30801 6.78496 4.81793C6.60635 5.73646 6.78809 6.72929 7.2738 7.50937C7.56208 7.96863 8.09166 8.4718 8.55856 8.72169C8.78418 8.84327 9.19467 8.9851 9.45789 9.029C9.59264 9.04926 9.72111 9.0729 9.74305 9.07965C9.77125 9.08978 9.78065 9.31266 9.78065 10.0623V11.0349L8.84058 11.6867L7.90051 12.3418L7.67489 12.0818C7.01684 11.322 6.23032 10.9505 5.26831 10.9505C4.2029 10.9505 3.2785 11.4469 2.62985 12.3688C2.41676 12.6694 2.18175 13.1962 2.08147 13.6014C2.0094 13.902 2 13.9999 2 14.4794C2 14.9556 2.0094 15.0603 2.08147 15.3473C2.37916 16.5461 3.19076 17.4714 4.2781 17.853C4.41285 17.9003 4.56326 17.9408 4.61026 17.9408C4.78888 17.9408 4.90168 17.6504 4.77321 17.5254C4.74187 17.495 4.58519 17.4241 4.42225 17.3667C4.01802 17.2249 3.45711 16.8804 3.45084 16.7757C3.45084 16.7116 3.7266 16.2354 3.88327 16.0396C4.06502 15.8066 4.30944 15.5803 4.54759 15.4115C4.92675 15.1481 4.94869 15.0636 4.70427 14.7867C4.49745 14.5503 4.42225 14.368 4.42225 14.0877C4.41912 13.2502 5.38425 12.8585 5.90443 13.4832C6.07051 13.6791 6.12378 13.831 6.12378 14.0911C6.12691 14.3747 6.04857 14.5638 5.83549 14.7935C5.59107 15.0569 5.60987 15.1345 5.9859 15.4013C6.4246 15.712 6.80376 16.1578 7.01998 16.617C7.08892 16.7589 7.08892 16.769 7.03564 16.8332C6.94164 16.9412 6.53427 17.2012 6.29299 17.2992C6.17078 17.3532 5.9483 17.4207 5.80102 17.4511C5.65374 17.4815 5.50333 17.5119 5.46573 17.5221C5.42499 17.5288 5.37172 17.5828 5.34352 17.6403C5.30278 17.7281 5.30278 17.7618 5.33412 17.8429C5.38739 17.9847 5.46573 18.0185 5.67254 17.9915C6.74736 17.853 7.72503 17.1033 8.22013 16.0328C8.41128 15.6208 8.55856 14.9488 8.55856 14.4794C8.55856 14.0134 8.41128 13.3346 8.2264 12.9361L8.1512 12.774L8.54916 12.4938C9.73991 11.6597 10 11.4874 10.0376 11.5111C10.0658 11.528 11.5825 12.5782 11.8425 12.7572C11.8457 12.7605 11.7987 12.8821 11.736 13.0273C11.5354 13.4933 11.4665 13.8648 11.4634 14.4456C11.4634 14.8002 11.4759 15.0265 11.5135 15.192C11.8018 16.5394 12.6761 17.5288 13.9076 17.9003C14.1896 17.9847 14.2585 17.9915 14.7474 17.9881C15.1861 17.9847 15.3208 17.9746 15.5213 17.9138C16.7152 17.5592 17.6083 16.6103 17.9185 15.354C17.9906 15.0603 18 14.9556 18 14.4794C18 14.0033 17.9906 13.8986 17.9185 13.6014C17.8214 13.2097 17.6083 12.7166 17.4046 12.4093C17.2197 12.1324 16.8437 11.7238 16.6651 11.6124C16.5492 11.5381 16.5147 11.528 16.4332 11.5583C16.3423 11.5955 16.2671 11.7103 16.2671 11.8116C16.2671 11.8386 16.4395 12.048 16.6526 12.2743C16.9377 12.5849 17.0693 12.7572 17.1727 12.953C17.5362 13.6521 17.6396 14.4592 17.4579 15.2223C17.389 15.5195 17.1727 16.0159 17.0161 16.2456L16.9158 16.3908L16.7622 16.1274C16.5147 15.712 16.17 15.3169 15.8253 15.0603C15.7595 15.0096 15.7564 14.9995 15.8065 14.9454C15.8974 14.8374 16.0196 14.5031 16.0478 14.2903C16.1261 13.6858 15.819 13.0678 15.2989 12.8011C15.1234 12.7099 15.045 12.6896 14.8069 12.6795C14.3619 12.6559 14.0642 12.7842 13.7634 13.1286C13.5378 13.3853 13.4407 13.6284 13.4219 13.9864C13.4031 14.3376 13.4501 14.5672 13.5911 14.8205L13.7007 15.0164L13.613 15.0873C13.1868 15.4216 12.8892 15.7829 12.5821 16.3401C12.5539 16.3942 12.5319 16.3773 12.4128 16.1882C11.6295 14.9387 11.7955 13.2907 12.8139 12.2641C13.1962 11.8758 13.6506 11.6191 14.1488 11.5009C14.4904 11.4199 15.0607 11.43 15.3991 11.5212C15.7094 11.6056 15.8034 11.5955 15.8786 11.4739C15.9569 11.3456 15.9068 11.1869 15.7658 11.1126C15.443 10.9437 14.5499 10.883 14.0862 10.9944C13.331 11.1767 12.6855 11.5921 12.2186 12.1932L12.1058 12.3384L11.1845 11.7002L10.2664 11.0619L10.257 10.0657L10.2507 9.06952L10.4293 9.04926C11.0842 8.97497 11.7924 8.60012 12.3 8.06319C13.7321 6.55031 13.5785 4.01083 11.9773 2.7107C11.2597 2.12649 10.2914 1.87997 9.40149 2.05557ZM10.3729 4.32827C10.5672 4.43633 10.68 4.5579 10.7709 4.76052C10.9401 5.13198 10.868 5.52371 10.564 5.87154C10.329 6.13832 10.3541 6.22274 10.7427 6.4929C10.9087 6.60772 11.1061 6.79007 11.266 6.96905C11.5292 7.26622 11.8363 7.77277 11.8081 7.85382C11.7861 7.9146 11.4759 8.1341 11.2221 8.26918C10.4512 8.67779 9.52997 8.67104 8.76224 8.25905C8.56169 8.14761 8.18253 7.88421 8.18253 7.85382C8.18253 7.84706 8.22013 7.76264 8.264 7.66471C8.46142 7.24259 8.86252 6.76981 9.24481 6.50979C9.52683 6.3173 9.59264 6.243 9.59264 6.12143C9.59264 6.04039 9.5613 5.98636 9.45163 5.87829C9.1132 5.54735 9.05366 5.04081 9.30121 4.62882C9.51743 4.27761 10.0219 4.13578 10.3729 4.32827ZM6.08304 11.5719C6.69722 11.788 7.23933 12.2135 7.59029 12.7605C7.73756 12.9902 7.92558 13.4393 7.99765 13.7365C8.09479 14.1248 8.09479 14.8408 8.00078 15.2223C7.92244 15.5297 7.70623 16.0294 7.55582 16.2489L7.45554 16.3975L7.37407 16.2489C7.15472 15.8437 6.76302 15.3709 6.43713 15.121L6.31492 15.0265L6.434 14.7698C6.4998 14.628 6.56874 14.4186 6.58754 14.3004C6.68155 13.7128 6.36193 13.0712 5.83549 12.8011C5.66001 12.7099 5.5848 12.6896 5.34352 12.6795C4.93615 12.6592 4.67293 12.7572 4.38151 13.0408C3.90521 13.5035 3.80807 14.3072 4.15903 14.8813L4.24363 15.013L4.15276 15.0839C3.77673 15.3777 3.3913 15.8302 3.19076 16.2118L3.09362 16.3975L3.02468 16.3064C2.88367 16.1307 2.70192 15.7593 2.60791 15.4587C2.47944 15.04 2.43557 14.7158 2.46063 14.3106C2.5045 13.5136 2.81159 12.8078 3.35057 12.2641C3.62632 11.9872 3.83 11.842 4.1935 11.6765C4.57893 11.4976 4.80768 11.457 5.34665 11.4705C5.75401 11.4807 5.85116 11.4942 6.08304 11.5719ZM15.092 13.2603C15.4054 13.419 15.5903 13.7432 15.584 14.1181C15.5809 14.3849 15.4994 14.5773 15.2926 14.8002C15.0544 15.0569 15.0795 15.1481 15.4681 15.4216C15.8942 15.7221 16.2703 16.1645 16.4865 16.6238L16.5586 16.7724L16.452 16.8703C16.311 16.9986 15.9788 17.2046 15.7658 17.2924C15.161 17.5491 14.4497 17.5693 13.8543 17.3498C13.5754 17.2485 13.1837 17.0256 13.027 16.8838L12.9048 16.7724L13.0051 16.5664C13.2276 16.1206 13.6224 15.6749 14.0799 15.3608C14.3839 15.1514 14.3964 15.0535 14.1426 14.7529C13.9389 14.5132 13.8856 14.368 13.8856 14.0708C13.8856 13.7162 14.0799 13.3988 14.387 13.2502C14.5907 13.1523 14.8884 13.1556 15.092 13.2603Z"/>
</mask>
<path d="M9.40149 2.05557C9.08186 2.11636 8.68703 2.27507 8.38308 2.46081C8.08539 2.64316 8.06345 2.66343 8.03839 2.80188C8.02272 2.88968 8.03525 2.92683 8.09792 2.99437C8.21073 3.11594 8.29221 3.10581 8.57736 2.93021C8.84371 2.76473 9.0568 2.67018 9.35762 2.58238C9.63337 2.50133 10.3823 2.50471 10.6706 2.58913C11.689 2.88293 12.4066 3.63599 12.7168 4.72675C12.792 4.99353 12.7983 5.07795 12.7983 5.53047C12.7983 6.09104 12.7513 6.35107 12.5727 6.77319C12.4787 7.00282 12.228 7.43845 12.1935 7.43845C12.181 7.43845 12.1026 7.32026 12.0212 7.17505C11.8519 6.89138 11.4226 6.38822 11.1845 6.19911L11.0341 6.08091L11.0967 5.98636C11.3631 5.5845 11.4038 5.00366 11.2002 4.53764C11.0936 4.29788 10.8179 4.0007 10.5922 3.87913C9.92479 3.5313 9.11633 3.83523 8.80298 4.5579C8.6181 4.98002 8.64943 5.53047 8.87505 5.91206L8.96592 6.07078L8.84998 6.17209C8.58363 6.39497 8.12613 6.92853 7.97885 7.1818L7.8253 7.44858L7.75637 7.3574C7.61535 7.1818 7.43361 6.81034 7.3396 6.50979C7.05445 5.5845 7.17665 4.62544 7.67803 3.82848C7.82217 3.60222 7.84097 3.45701 7.74383 3.35233C7.64669 3.24764 7.50568 3.26452 7.39287 3.39285C7.16099 3.66301 6.88523 4.30801 6.78496 4.81793C6.60635 5.73646 6.78809 6.72929 7.2738 7.50937C7.56208 7.96863 8.09166 8.4718 8.55856 8.72169C8.78418 8.84327 9.19467 8.9851 9.45789 9.029C9.59264 9.04926 9.72111 9.0729 9.74305 9.07965C9.77125 9.08978 9.78065 9.31266 9.78065 10.0623V11.0349L8.84058 11.6867L7.90051 12.3418L7.67489 12.0818C7.01684 11.322 6.23032 10.9505 5.26831 10.9505C4.2029 10.9505 3.2785 11.4469 2.62985 12.3688C2.41676 12.6694 2.18175 13.1962 2.08147 13.6014C2.0094 13.902 2 13.9999 2 14.4794C2 14.9556 2.0094 15.0603 2.08147 15.3473C2.37916 16.5461 3.19076 17.4714 4.2781 17.853C4.41285 17.9003 4.56326 17.9408 4.61026 17.9408C4.78888 17.9408 4.90168 17.6504 4.77321 17.5254C4.74187 17.495 4.58519 17.4241 4.42225 17.3667C4.01802 17.2249 3.45711 16.8804 3.45084 16.7757C3.45084 16.7116 3.7266 16.2354 3.88327 16.0396C4.06502 15.8066 4.30944 15.5803 4.54759 15.4115C4.92675 15.1481 4.94869 15.0636 4.70427 14.7867C4.49745 14.5503 4.42225 14.368 4.42225 14.0877C4.41912 13.2502 5.38425 12.8585 5.90443 13.4832C6.07051 13.6791 6.12378 13.831 6.12378 14.0911C6.12691 14.3747 6.04857 14.5638 5.83549 14.7935C5.59107 15.0569 5.60987 15.1345 5.9859 15.4013C6.4246 15.712 6.80376 16.1578 7.01998 16.617C7.08892 16.7589 7.08892 16.769 7.03564 16.8332C6.94164 16.9412 6.53427 17.2012 6.29299 17.2992C6.17078 17.3532 5.9483 17.4207 5.80102 17.4511C5.65374 17.4815 5.50333 17.5119 5.46573 17.5221C5.42499 17.5288 5.37172 17.5828 5.34352 17.6403C5.30278 17.7281 5.30278 17.7618 5.33412 17.8429C5.38739 17.9847 5.46573 18.0185 5.67254 17.9915C6.74736 17.853 7.72503 17.1033 8.22013 16.0328C8.41128 15.6208 8.55856 14.9488 8.55856 14.4794C8.55856 14.0134 8.41128 13.3346 8.2264 12.9361L8.1512 12.774L8.54916 12.4938C9.73991 11.6597 10 11.4874 10.0376 11.5111C10.0658 11.528 11.5825 12.5782 11.8425 12.7572C11.8457 12.7605 11.7987 12.8821 11.736 13.0273C11.5354 13.4933 11.4665 13.8648 11.4634 14.4456C11.4634 14.8002 11.4759 15.0265 11.5135 15.192C11.8018 16.5394 12.6761 17.5288 13.9076 17.9003C14.1896 17.9847 14.2585 17.9915 14.7474 17.9881C15.1861 17.9847 15.3208 17.9746 15.5213 17.9138C16.7152 17.5592 17.6083 16.6103 17.9185 15.354C17.9906 15.0603 18 14.9556 18 14.4794C18 14.0033 17.9906 13.8986 17.9185 13.6014C17.8214 13.2097 17.6083 12.7166 17.4046 12.4093C17.2197 12.1324 16.8437 11.7238 16.6651 11.6124C16.5492 11.5381 16.5147 11.528 16.4332 11.5583C16.3423 11.5955 16.2671 11.7103 16.2671 11.8116C16.2671 11.8386 16.4395 12.048 16.6526 12.2743C16.9377 12.5849 17.0693 12.7572 17.1727 12.953C17.5362 13.6521 17.6396 14.4592 17.4579 15.2223C17.389 15.5195 17.1727 16.0159 17.0161 16.2456L16.9158 16.3908L16.7622 16.1274C16.5147 15.712 16.17 15.3169 15.8253 15.0603C15.7595 15.0096 15.7564 14.9995 15.8065 14.9454C15.8974 14.8374 16.0196 14.5031 16.0478 14.2903C16.1261 13.6858 15.819 13.0678 15.2989 12.8011C15.1234 12.7099 15.045 12.6896 14.8069 12.6795C14.3619 12.6559 14.0642 12.7842 13.7634 13.1286C13.5378 13.3853 13.4407 13.6284 13.4219 13.9864C13.4031 14.3376 13.4501 14.5672 13.5911 14.8205L13.7007 15.0164L13.613 15.0873C13.1868 15.4216 12.8892 15.7829 12.5821 16.3401C12.5539 16.3942 12.5319 16.3773 12.4128 16.1882C11.6295 14.9387 11.7955 13.2907 12.8139 12.2641C13.1962 11.8758 13.6506 11.6191 14.1488 11.5009C14.4904 11.4199 15.0607 11.43 15.3991 11.5212C15.7094 11.6056 15.8034 11.5955 15.8786 11.4739C15.9569 11.3456 15.9068 11.1869 15.7658 11.1126C15.443 10.9437 14.5499 10.883 14.0862 10.9944C13.331 11.1767 12.6855 11.5921 12.2186 12.1932L12.1058 12.3384L11.1845 11.7002L10.2664 11.0619L10.257 10.0657L10.2507 9.06952L10.4293 9.04926C11.0842 8.97497 11.7924 8.60012 12.3 8.06319C13.7321 6.55031 13.5785 4.01083 11.9773 2.7107C11.2597 2.12649 10.2914 1.87997 9.40149 2.05557ZM10.3729 4.32827C10.5672 4.43633 10.68 4.5579 10.7709 4.76052C10.9401 5.13198 10.868 5.52371 10.564 5.87154C10.329 6.13832 10.3541 6.22274 10.7427 6.4929C10.9087 6.60772 11.1061 6.79007 11.266 6.96905C11.5292 7.26622 11.8363 7.77277 11.8081 7.85382C11.7861 7.9146 11.4759 8.1341 11.2221 8.26918C10.4512 8.67779 9.52997 8.67104 8.76224 8.25905C8.56169 8.14761 8.18253 7.88421 8.18253 7.85382C8.18253 7.84706 8.22013 7.76264 8.264 7.66471C8.46142 7.24259 8.86252 6.76981 9.24481 6.50979C9.52683 6.3173 9.59264 6.243 9.59264 6.12143C9.59264 6.04039 9.5613 5.98636 9.45163 5.87829C9.1132 5.54735 9.05366 5.04081 9.30121 4.62882C9.51743 4.27761 10.0219 4.13578 10.3729 4.32827ZM6.08304 11.5719C6.69722 11.788 7.23933 12.2135 7.59029 12.7605C7.73756 12.9902 7.92558 13.4393 7.99765 13.7365C8.09479 14.1248 8.09479 14.8408 8.00078 15.2223C7.92244 15.5297 7.70623 16.0294 7.55582 16.2489L7.45554 16.3975L7.37407 16.2489C7.15472 15.8437 6.76302 15.3709 6.43713 15.121L6.31492 15.0265L6.434 14.7698C6.4998 14.628 6.56874 14.4186 6.58754 14.3004C6.68155 13.7128 6.36193 13.0712 5.83549 12.8011C5.66001 12.7099 5.5848 12.6896 5.34352 12.6795C4.93615 12.6592 4.67293 12.7572 4.38151 13.0408C3.90521 13.5035 3.80807 14.3072 4.15903 14.8813L4.24363 15.013L4.15276 15.0839C3.77673 15.3777 3.3913 15.8302 3.19076 16.2118L3.09362 16.3975L3.02468 16.3064C2.88367 16.1307 2.70192 15.7593 2.60791 15.4587C2.47944 15.04 2.43557 14.7158 2.46063 14.3106C2.5045 13.5136 2.81159 12.8078 3.35057 12.2641C3.62632 11.9872 3.83 11.842 4.1935 11.6765C4.57893 11.4976 4.80768 11.457 5.34665 11.4705C5.75401 11.4807 5.85116 11.4942 6.08304 11.5719ZM15.092 13.2603C15.4054 13.419 15.5903 13.7432 15.584 14.1181C15.5809 14.3849 15.4994 14.5773 15.2926 14.8002C15.0544 15.0569 15.0795 15.1481 15.4681 15.4216C15.8942 15.7221 16.2703 16.1645 16.4865 16.6238L16.5586 16.7724L16.452 16.8703C16.311 16.9986 15.9788 17.2046 15.7658 17.2924C15.161 17.5491 14.4497 17.5693 13.8543 17.3498C13.5754 17.2485 13.1837 17.0256 13.027 16.8838L12.9048 16.7724L13.0051 16.5664C13.2276 16.1206 13.6224 15.6749 14.0799 15.3608C14.3839 15.1514 14.3964 15.0535 14.1426 14.7529C13.9389 14.5132 13.8856 14.368 13.8856 14.0708C13.8856 13.7162 14.0799 13.3988 14.387 13.2502C14.5907 13.1523 14.8884 13.1556 15.092 13.2603Z" fill="white" stroke="#FF9B6B" stroke-width="2" mask="url(#path-2-inside-1_879_10755)"/>
</svg>
