<svg width="48" height="48" viewBox="0 0 55 56" fill="none" xmlns="http://www.w3.org/2000/svg">
<g filter="url(#filter0_d_699_1678)">
<rect x="4.25098" y="0.698242" width="46.4308" height="46.4308" rx="2.32154" fill="#FF9B6B" fill-opacity="0.16"/>
<path d="M22.8229 15.7878V15.2075C22.5024 15.2075 22.2425 15.4673 22.2425 15.7878H22.8229ZM33.2698 15.7878H33.8502C33.8502 15.4673 33.5904 15.2075 33.2698 15.2075V15.7878ZM26.7156 19.4401C26.4889 19.2135 26.1215 19.2135 25.8948 19.4401C25.6682 19.6668 25.6682 20.0343 25.8948 20.2609L26.7156 19.4401ZM27.466 21.0113L27.0556 21.4217L27.466 21.8321L27.8764 21.4217L27.466 21.0113ZM31.3587 17.9394C31.5853 17.7127 31.5853 17.3453 31.3587 17.1186C31.132 16.892 30.7645 16.892 30.5379 17.1186L31.3587 17.9394ZM28.6902 25.8055L29.0122 26.2884L28.6902 25.8055ZM27.4025 25.8055L27.0805 26.2884L27.4025 25.8055ZM19.0921 22.4206L19.5025 22.831L19.0921 22.4206ZM16.0556 25.1287L15.9736 24.5542L16.0556 25.1287ZM16.7123 24.8004L17.1227 25.2108L16.7123 24.8004ZM13.0795 30.599L12.8509 31.1324L13.0795 30.599ZM36.5232 25.4712L36.8857 25.018L36.5232 25.4712ZM37.0406 25.7068L36.9368 26.2779L37.0406 25.7068ZM16.6673 31.5052L13.3081 30.0655L12.8509 31.1324L16.21 32.5721L16.6673 31.5052ZM12.9564 29.5321V27.6678H11.7956V29.5321H12.9564ZM14.4513 25.9442L16.1377 25.7033L15.9736 24.5542L14.2871 24.7951L14.4513 25.9442ZM17.1227 25.2108L19.5025 22.831L18.6817 22.0102L16.3019 24.39L17.1227 25.2108ZM19.799 22.6723L22.3563 22.1608L22.1287 21.0226L19.5714 21.534L19.799 22.6723ZM22.8229 16.3682H23.4033V15.2075H22.8229V16.3682ZM25.7248 14.0467H30.3679V12.8859H25.7248V14.0467ZM32.6894 16.3682H33.2698V15.2075H32.6894V16.3682ZM32.6894 15.7878V18.5987H33.8502V15.7878H32.6894ZM29.4918 24.5736L28.3683 25.3226L29.0122 26.2884L30.1356 25.5395L29.4918 24.5736ZM27.7244 25.3226L26.601 24.5736L25.9571 25.5395L27.0805 26.2884L27.7244 25.3226ZM23.4033 18.5987V15.7878H22.2425V18.5987H23.4033ZM25.8948 20.2609L27.0556 21.4217L27.8764 20.6009L26.7156 19.4401L25.8948 20.2609ZM27.8764 21.4217L31.3587 17.9394L30.5379 17.1186L27.0556 20.6009L27.8764 21.4217ZM33.4876 23.7861L36.1606 25.9244L36.8857 25.018L34.2128 22.8796L33.4876 23.7861ZM36.9368 26.2779L41.1263 27.0396L41.3339 25.8975L37.1445 25.1358L36.9368 26.2779ZM42.556 28.7527V30.8778H43.7168V28.7527H42.556ZM41.9756 31.4582H40.2344V32.619H41.9756V31.4582ZM21.0817 32.619H35.5914V31.4582H21.0817V32.619ZM37.9129 30.2975C38.8745 30.2975 39.6541 31.077 39.6541 32.0386H40.8148C40.8148 30.4359 39.5156 29.1367 37.9129 29.1367V30.2975ZM24.1614 21.8101C23.6628 20.813 23.4033 19.7135 23.4033 18.5987H22.2425C22.2425 19.8937 22.544 21.171 23.1232 22.3293L24.1614 21.8101ZM26.601 24.5736C25.5612 23.8804 24.7203 22.9279 24.1614 21.8101L23.1232 22.3293C23.7724 23.6277 24.7492 24.7342 25.9571 25.5395L26.601 24.5736ZM28.3683 25.3226C28.1734 25.4526 27.9194 25.4526 27.7244 25.3226L27.0805 26.2884C27.6654 26.6783 28.4273 26.6783 29.0122 26.2884L28.3683 25.3226ZM31.9313 21.8101C31.3725 22.9279 30.5316 23.8804 29.4918 24.5736L30.1356 25.5395C31.3435 24.7342 32.3203 23.6277 32.9696 22.3293L31.9313 21.8101ZM32.6894 18.5987C32.6894 19.7135 32.4299 20.813 31.9313 21.8101L32.9696 22.3293C33.5487 21.171 33.8502 19.8937 33.8502 18.5987H32.6894ZM30.9483 14.6271C30.9483 15.5887 31.7278 16.3682 32.6894 16.3682V15.2075C32.3689 15.2075 32.1091 14.9476 32.1091 14.6271H30.9483ZM23.4033 16.3682C24.3649 16.3682 25.1444 15.5887 25.1444 14.6271H23.9837C23.9837 14.9476 23.7238 15.2075 23.4033 15.2075V16.3682ZM37.9129 29.1367C36.3102 29.1367 35.011 30.4359 35.011 32.0386H36.1718C36.1718 31.077 36.9513 30.2975 37.9129 30.2975V29.1367ZM19.5025 22.831C19.5835 22.75 19.6867 22.6947 19.799 22.6723L19.5714 21.534C19.2343 21.6015 18.9248 21.7671 18.6817 22.0102L19.5025 22.831ZM37.9129 33.7798C36.9513 33.7798 36.1718 33.0002 36.1718 32.0386H35.011C35.011 33.6413 36.3102 34.9405 37.9129 34.9405V33.7798ZM16.1377 25.7033C16.5107 25.65 16.8563 25.4772 17.1227 25.2108L16.3019 24.39C16.2131 24.4788 16.0979 24.5364 15.9736 24.5542L16.1377 25.7033ZM39.6541 32.0386C39.6541 33.0002 38.8745 33.7798 37.9129 33.7798V34.9405C39.5156 34.9405 40.8148 33.6413 40.8148 32.0386H39.6541ZM12.9564 27.6678C12.9564 26.8014 13.5935 26.0667 14.4513 25.9442L14.2871 24.7951C12.8575 24.9993 11.7956 26.2237 11.7956 27.6678H12.9564ZM13.3081 30.0655C13.0947 29.9741 12.9564 29.7642 12.9564 29.5321H11.7956C11.7956 30.2286 12.2107 30.8581 12.8509 31.1324L13.3081 30.0655ZM42.556 30.8778C42.556 31.1984 42.2961 31.4582 41.9756 31.4582V32.619C42.9372 32.619 43.7168 31.8395 43.7168 30.8778H42.556ZM18.7602 33.7798C17.7986 33.7798 17.0191 33.0002 17.0191 32.0386H15.8583C15.8583 33.6413 17.1575 34.9405 18.7602 34.9405V33.7798ZM41.1263 27.0396C41.9542 27.1901 42.556 27.9112 42.556 28.7527H43.7168C43.7168 27.3502 42.7138 26.1484 41.3339 25.8975L41.1263 27.0396ZM18.7602 34.9405C20.3629 34.9405 21.6621 33.6413 21.6621 32.0386H20.5014C20.5014 33.0002 19.7218 33.7798 18.7602 33.7798V34.9405ZM30.3679 14.0467C30.6884 14.0467 30.9483 14.3065 30.9483 14.6271H32.1091C32.1091 13.6655 31.3295 12.8859 30.3679 12.8859V14.0467ZM36.1606 25.9244C36.386 26.1048 36.6528 26.2262 36.9368 26.2779L37.1445 25.1358C37.0498 25.1186 36.9609 25.0781 36.8857 25.018L36.1606 25.9244ZM18.7602 30.2975C19.7218 30.2975 20.5014 31.077 20.5014 32.0386H21.6621C21.6621 30.4359 20.3629 29.1367 18.7602 29.1367V30.2975ZM25.1444 14.6271C25.1444 14.3065 25.4043 14.0467 25.7248 14.0467V12.8859C24.7632 12.8859 23.9837 13.6655 23.9837 14.6271H25.1444ZM17.0191 32.0386C17.0191 31.077 17.7986 30.2975 18.7602 30.2975V29.1367C17.1575 29.1367 15.8583 30.4359 15.8583 32.0386H17.0191Z" fill="#FF9B6B"/>
</g>
<defs>
<filter id="filter0_d_699_1678" x="0.250977" y="0.698242" width="54.4307" height="54.4307" filterUnits="userSpaceOnUse" color-interpolation-filters="sRGB">
<feFlood flood-opacity="0" result="BackgroundImageFix"/>
<feColorMatrix in="SourceAlpha" type="matrix" values="0 0 0 0 0 0 0 0 0 0 0 0 0 0 0 0 0 0 127 0" result="hardAlpha"/>
<feOffset dy="4"/>
<feGaussianBlur stdDeviation="2"/>
<feComposite in2="hardAlpha" operator="out"/>
<feColorMatrix type="matrix" values="0 0 0 0 0 0 0 0 0 0 0 0 0 0 0 0 0 0 0.25 0"/>
<feBlend mode="normal" in2="BackgroundImageFix" result="effect1_dropShadow_699_1678"/>
<feBlend mode="normal" in="SourceGraphic" in2="effect1_dropShadow_699_1678" result="shape"/>
</filter>
</defs>
</svg>
