<svg width="28" height="28" viewBox="0 0 28 28" fill="none" xmlns="http://www.w3.org/2000/svg">
<rect width="28" height="28" rx="3" fill="#67BF6B" fill-opacity="0.25"/>
<path d="M8.375 16C8.68994 16 8.99199 16.1251 9.21469 16.3478C9.43739 16.5705 9.5625 16.8726 9.5625 17.1875C9.5625 17.5024 9.43739 17.8045 9.21469 18.0272C8.99199 18.2499 8.68994 18.375 8.375 18.375C8.06006 18.375 7.75801 18.2499 7.53531 18.0272C7.31261 17.8045 7.1875 17.5024 7.1875 17.1875C7.1875 16.8726 7.31261 16.5705 7.53531 16.3478C7.75801 16.1251 8.06006 16 8.375 16ZM10.5382 20.6601C11.0955 20.9388 11.25 21.2314 11.25 21.4062V22C11.25 22.2761 11.0261 22.5 10.75 22.5H8.375H6C5.72386 22.5 5.5 22.2761 5.5 22V21.4062C5.5 21.2314 5.65451 20.9388 6.21185 20.6601C6.73941 20.3963 7.50338 20.2188 8.375 20.2188C9.24662 20.2188 10.0106 20.3963 10.5382 20.6601Z" stroke="#67BF6B"/>
<path d="M19.625 16C19.9399 16 20.242 16.1251 20.4647 16.3478C20.6874 16.5705 20.8125 16.8726 20.8125 17.1875C20.8125 17.5024 20.6874 17.8045 20.4647 18.0272C20.242 18.2499 19.9399 18.375 19.625 18.375C19.3101 18.375 19.008 18.2499 18.7853 18.0272C18.5626 17.8045 18.4375 17.5024 18.4375 17.1875C18.4375 16.8726 18.5626 16.5705 18.7853 16.3478C19.008 16.1251 19.3101 16 19.625 16ZM21.7882 20.6601C22.3455 20.9388 22.5 21.2314 22.5 21.4062V22C22.5 22.2761 22.2761 22.5 22 22.5H19.625H17.25C16.9739 22.5 16.75 22.2761 16.75 22V21.4062C16.75 21.2314 16.9045 20.9388 17.4618 20.6601C17.9894 20.3963 18.7534 20.2188 19.625 20.2188C20.4966 20.2188 21.2606 20.3963 21.7882 20.6601Z" stroke="#67BF6B"/>
<path d="M14.375 5.5C14.6899 5.5 14.992 5.62511 15.2147 5.84781C15.4374 6.07051 15.5625 6.37256 15.5625 6.6875C15.5625 7.00244 15.4374 7.30449 15.2147 7.52719C14.992 7.74989 14.6899 7.875 14.375 7.875C14.0601 7.875 13.758 7.74989 13.5353 7.52719C13.3126 7.30449 13.1875 7.00244 13.1875 6.6875C13.1875 6.37256 13.3126 6.07051 13.5353 5.84781C13.758 5.62511 14.0601 5.5 14.375 5.5ZM16.5382 10.1601C17.0955 10.4388 17.25 10.7314 17.25 10.9062V11.5C17.25 11.7761 17.0261 12 16.75 12H14.375H12C11.7239 12 11.5 11.7761 11.5 11.5V10.9062C11.5 10.7314 11.6545 10.4388 12.2118 10.1601C12.7394 9.89631 13.5034 9.71875 14.375 9.71875C15.2466 9.71875 16.0106 9.89631 16.5382 10.1601Z" stroke="#67BF6B"/>
<line x1="14.6903" y1="16.8467" x2="17.0101" y2="18.3234" stroke="#67BF6B" stroke-linecap="round"/>
<line x1="0.5" y1="-0.5" x2="3.25" y2="-0.5" transform="matrix(-0.843585 0.536996 0.536996 0.843585 14.9141 17)" stroke="#67BF6B" stroke-linecap="round"/>
<line x1="14.5" y1="13.75" x2="14.5" y2="16.5" stroke="#67BF6B" stroke-linecap="round"/>
</svg>
