<svg width="28" height="28" viewBox="0 0 28 28" fill="none" xmlns="http://www.w3.org/2000/svg">
<path d="M13.2 24H8C6.89543 24 6 23.1046 6 22V7C6 5.89543 6.89543 5 8 5H20C21.1046 5 22 5.89543 22 7V12.4348M9 8.5625H19M9 12.125H12.3333" stroke="white" stroke-width="1.4" stroke-linecap="round"/>
<path d="M15.4509 22.055C15.1856 21.7739 14.7425 21.7611 14.4614 22.0265C14.1803 22.2919 14.1675 22.7349 14.4329 23.0161L15.4509 22.055ZM17.9446 23.9874L17.892 24.6854L17.892 24.6854L17.9446 23.9874ZM21.1111 23.0006L20.6758 22.4524L20.6758 22.4524L21.1111 23.0006ZM22.8932 20.0577L23.579 20.1978L23.579 20.1978L22.8932 20.0577ZM22.4194 16.5976L21.7977 16.9192L21.7977 16.9192L22.4194 16.5976ZM19.9215 14.3122L19.6655 14.9637L19.6655 14.9637L19.9215 14.3122ZM16.6208 14.3189L16.3622 13.6685L16.3622 13.6685L16.6208 14.3189ZM14.1312 16.6145L13.5083 16.2953L13.5083 16.2953L14.1312 16.6145ZM13.6701 20.0765L13.1432 20.5373C13.2813 20.6953 13.4831 20.783 13.6928 20.7761C13.9026 20.7693 14.0982 20.6688 14.2258 20.5021L13.6701 20.0765ZM15.6886 18.5923C15.9236 18.2854 15.8654 17.846 15.5584 17.6109C15.2515 17.3759 14.8122 17.4341 14.5771 17.741L15.6886 18.5923ZM12.5269 17.7059C12.2725 17.4149 11.8302 17.3852 11.5392 17.6397C11.2482 17.8942 11.2186 18.3364 11.4731 18.6275L12.5269 17.7059ZM14.4329 23.0161C15.3521 23.9897 16.5792 24.5864 17.892 24.6854L17.9972 23.2894C17.0435 23.2175 16.1385 22.7833 15.4509 22.055L14.4329 23.0161ZM17.892 24.6854C19.205 24.7844 20.5027 24.3776 21.5464 23.5488L20.6758 22.4524C19.9015 23.0673 18.9506 23.3612 17.9972 23.2894L17.892 24.6854ZM21.5464 23.5488C22.589 22.7208 23.307 21.5292 23.579 20.1978L22.2073 19.9175C21.9987 20.9385 21.4512 21.8367 20.6758 22.4524L21.5464 23.5488ZM23.579 20.1978C23.851 18.8667 23.6613 17.4751 23.0412 16.276L21.7977 16.9192C22.2692 17.8309 22.416 18.8963 22.2073 19.9175L23.579 20.1978ZM23.0412 16.276C22.4207 15.0763 21.407 14.1438 20.1775 13.6607L19.6655 14.9637C20.5663 15.3177 21.3265 16.0081 21.7977 16.9192L23.0412 16.276ZM20.1775 13.6607C18.9469 13.1771 17.591 13.1799 16.3622 13.6685L16.8795 14.9694C17.7779 14.6122 18.7658 14.6102 19.6655 14.9637L20.1775 13.6607ZM16.3622 13.6685C15.1346 14.1566 14.1244 15.0931 13.5083 16.2953L14.7542 16.9338C15.2221 16.0207 15.9799 15.3271 16.8795 14.9694L16.3622 13.6685ZM13.5083 16.2953C12.8925 17.4968 12.708 18.8891 12.9848 20.2192L14.3554 19.9339C14.143 18.9136 14.2859 17.8475 14.7542 16.9338L13.5083 16.2953ZM14.2258 20.5021L15.6886 18.5923L14.5771 17.741L13.1144 19.6509L14.2258 20.5021ZM14.197 19.6157L12.5269 17.7059L11.4731 18.6275L13.1432 20.5373L14.197 19.6157Z" fill="white"/>
</svg>
