<svg width="16" height="15" viewBox="0 0 16 15" fill="none" xmlns="http://www.w3.org/2000/svg">
<path d="M9.39347 2.59537C9.80768 2.59537 10.1435 2.25958 10.1435 1.84537C10.1435 1.43115 9.80768 1.09537 9.39347 1.09537V2.59537ZM13.3279 7.71336C13.3279 7.29915 12.9921 6.96336 12.5779 6.96336C12.1637 6.96336 11.8279 7.29915 11.8279 7.71336H13.3279ZM13.3279 1.48822C13.3279 1.07401 12.9921 0.738223 12.5779 0.738223C12.1637 0.738223 11.8279 1.07401 11.8279 1.48822H13.3279ZM12.5779 5.57049L12.0978 6.14665L12.5779 6.54677L13.058 6.14665L12.5779 5.57049ZM15.2009 4.36094C15.5191 4.09577 15.5621 3.62284 15.2969 3.30463C15.0317 2.98643 14.5588 2.94343 14.2406 3.20861L15.2009 4.36094ZM10.9152 3.20861C10.597 2.94343 10.124 2.98643 9.85888 3.30463C9.5937 3.62284 9.6367 4.09577 9.9549 4.36094L10.9152 3.20861ZM7.67885 3.78477C7.67885 3.37056 7.34306 3.03477 6.92885 3.03477C6.51464 3.03477 6.17885 3.37056 6.17885 3.78477H7.67885ZM6.92885 5.21334H6.17885V5.96334L6.92884 5.96334L6.92885 5.21334ZM8.71456 5.21336V5.96336C9.12878 5.96336 9.46456 5.62758 9.46457 5.21336C9.46457 4.79915 9.12878 4.46336 8.71457 4.46336L8.71456 5.21336ZM4.78599 5.21336V4.46336C4.37178 4.46336 4.03599 4.79915 4.03599 5.21336H4.78599ZM4.78599 8.0705H4.03599C4.03599 8.48472 4.37178 8.8205 4.78599 8.8205V8.0705ZM8.71456 8.0705H9.46457C9.46457 7.65629 9.12878 7.3205 8.71456 7.3205V8.0705ZM8.71456 10.6654V11.4154C9.12878 11.4154 9.46457 11.0797 9.46457 10.6654H8.71456ZM4.71957 9.91544C4.30536 9.91544 3.96957 10.2512 3.96957 10.6654C3.96957 11.0797 4.30536 11.4154 4.71957 11.4154V9.91544ZM6.1888 12.5144C6.1888 12.9287 6.52459 13.2644 6.9388 13.2644C7.35301 13.2644 7.6888 12.9287 7.6888 12.5144H6.1888ZM9.39347 1.09537H2.85742V2.59537H9.39347V1.09537ZM0.107422 3.84537V12.1419H1.60742V3.84537H0.107422ZM2.85742 14.8919H10.5779V13.3919H2.85742V14.8919ZM13.3279 12.1419V7.71336H11.8279V12.1419H13.3279ZM11.8279 1.48822V5.57049H13.3279V1.48822H11.8279ZM13.058 6.14665L15.2009 4.36094L14.2406 3.20861L12.0978 4.99432L13.058 6.14665ZM13.058 4.99432L10.9152 3.20861L9.9549 4.36094L12.0978 6.14665L13.058 4.99432ZM6.17885 3.78477V5.21334H7.67885V3.78477H6.17885ZM6.92884 5.96334L8.71456 5.96336L8.71457 4.46336L6.92886 4.46334L6.92884 5.96334ZM8.71456 4.46336H4.78599V5.96336H8.71456V4.46336ZM4.03599 5.21336V8.0705H5.53599V5.21336H4.03599ZM4.78599 8.8205H8.71456V7.3205H4.78599V8.8205ZM7.96456 8.0705V10.6654H9.46457V8.0705H7.96456ZM8.71456 9.91544H6.9388V11.4154H8.71456V9.91544ZM6.9388 9.91544H4.71957V11.4154H6.9388V9.91544ZM6.1888 10.6654V12.5144H7.6888V10.6654H6.1888ZM10.5779 14.8919C12.0967 14.8919 13.3279 13.6607 13.3279 12.1419H11.8279C11.8279 12.8323 11.2683 13.3919 10.5779 13.3919V14.8919ZM0.107422 12.1419C0.107422 13.6607 1.33864 14.8919 2.85742 14.8919V13.3919C2.16707 13.3919 1.60742 12.8323 1.60742 12.1419H0.107422ZM2.85742 1.09537C1.33864 1.09537 0.107422 2.32658 0.107422 3.84537H1.60742C1.60742 3.15501 2.16707 2.59537 2.85742 2.59537V1.09537Z" fill="#688F99"/>
</svg>
