<svg width="24" height="23" viewBox="0 0 24 23" fill="#688F99" xmlns="http://www.w3.org/2000/svg">
<path d="M12 1.89844H3.25C2.78587 1.89844 2.34075 2.08281 2.01256 2.411C1.68437 2.73919 1.5 3.18431 1.5 3.64844V15.0818C1.5 15.5459 1.68437 15.991 2.01256 16.3192C2.34075 16.6474 2.78587 16.8318 3.25 16.8318H20.75C21.2141 16.8318 21.6592 16.6474 21.9874 16.3192C22.3156 15.991 22.5 15.5459 22.5 15.0818V12.1651M12 16.8318V21.4984M6.16667 21.4984H17.8333" stroke="white" stroke-opacity="0.8" stroke-width="1.5" stroke-linecap="round" stroke-linejoin="round"/>
<path d="M18.336 9.36589V7.03255M18.336 3.53255V1.19922M14.7998 7.32422L16.8205 6.15755M19.8515 4.40755L21.8721 3.24089M14.7998 3.24089L16.8205 4.40755M19.8515 6.15755L21.8721 7.32422" stroke="white" stroke-opacity="0.8" stroke-width="1.5" stroke-linecap="round" stroke-linejoin="round"/>
</svg>
