<svg width="16" height="15" viewBox="0 0 16 15" fill="none" xmlns="http://www.w3.org/2000/svg">
<path d="M9.53605 2.10714C9.95026 2.10714 10.286 1.77136 10.286 1.35714C10.286 0.94293 9.95026 0.607144 9.53605 0.607144V2.10714ZM13.4705 7.22511C13.4705 6.8109 13.1347 6.47511 12.7205 6.47511C12.3063 6.47511 11.9705 6.8109 11.9705 7.22511H13.4705ZM13.4705 1C13.4705 0.585786 13.1347 0.25 12.7205 0.25C12.3063 0.25 11.9705 0.585786 11.9705 1H13.4705ZM12.7205 5.08224L12.2403 5.65841L12.7205 6.05852L13.2006 5.65841L12.7205 5.08224ZM15.3435 3.87271C15.6617 3.60753 15.7047 3.13461 15.4395 2.8164C15.1743 2.49819 14.7014 2.4552 14.3832 2.72037L15.3435 3.87271ZM11.0578 2.72037C10.7395 2.4552 10.2666 2.49819 10.0015 2.8164C9.73628 3.13461 9.77927 3.60753 10.0975 3.87271L11.0578 2.72037ZM7.82143 3.29654C7.82143 2.88233 7.48564 2.54654 7.07143 2.54654C6.65722 2.54654 6.32143 2.88233 6.32143 3.29654H7.82143ZM7.07143 4.7251H6.32143V5.4751L7.07142 5.4751L7.07143 4.7251ZM8.85714 4.72512V5.47512C9.27135 5.47512 9.60714 5.13934 9.60714 4.72512C9.60715 4.31091 9.27136 3.97512 8.85715 3.97512L8.85714 4.72512ZM4.92857 4.72512V3.97512C4.51436 3.97512 4.17857 4.31091 4.17857 4.72512H4.92857ZM4.92857 7.58225H4.17857C4.17857 7.99646 4.51436 8.33225 4.92857 8.33225V7.58225ZM8.85714 7.58225H9.60714C9.60714 7.16804 9.27136 6.83225 8.85714 6.83225V7.58225ZM8.85714 10.1772V10.9272C9.27136 10.9272 9.60714 10.5914 9.60714 10.1772H8.85714ZM4.86215 9.42717C4.44793 9.42717 4.11215 9.76296 4.11215 10.1772C4.11215 10.5914 4.44793 10.9272 4.86215 10.9272V9.42717ZM6.33138 12.0262C6.33138 12.4404 6.66717 12.7762 7.08138 12.7762C7.49559 12.7762 7.83138 12.4404 7.83138 12.0262H6.33138ZM9.53605 0.607144H3V2.10714H9.53605V0.607144ZM0.25 3.35714V11.6537H1.75V3.35714H0.25ZM3 14.4037H10.7205V12.9037H3V14.4037ZM13.4705 11.6537V7.22511H11.9705V11.6537H13.4705ZM11.9705 1V5.08224H13.4705V1H11.9705ZM13.2006 5.65841L15.3435 3.87271L14.3832 2.72037L12.2403 4.50608L13.2006 5.65841ZM13.2006 4.50608L11.0578 2.72037L10.0975 3.87271L12.2403 5.65841L13.2006 4.50608ZM6.32143 3.29654V4.7251H7.82143V3.29654H6.32143ZM7.07142 5.4751L8.85714 5.47512L8.85715 3.97512L7.07144 3.9751L7.07142 5.4751ZM8.85714 3.97512H4.92857V5.47512H8.85714V3.97512ZM4.17857 4.72512V7.58225H5.67857V4.72512H4.17857ZM4.92857 8.33225H8.85714V6.83225H4.92857V8.33225ZM8.10714 7.58225V10.1772H9.60714V7.58225H8.10714ZM8.85714 9.42717H7.08138V10.9272H8.85714V9.42717ZM7.08138 9.42717H4.86215V10.9272H7.08138V9.42717ZM6.33138 10.1772V12.0262H7.83138V10.1772H6.33138ZM10.7205 14.4037C12.2393 14.4037 13.4705 13.1724 13.4705 11.6537H11.9705C11.9705 12.344 11.4108 12.9037 10.7205 12.9037V14.4037ZM0.25 11.6537C0.25 13.1724 1.48122 14.4037 3 14.4037V12.9037C2.30964 12.9037 1.75 12.344 1.75 11.6537H0.25ZM3 0.607144C1.48122 0.607144 0.25 1.83836 0.25 3.35714H1.75C1.75 2.66679 2.30964 2.10714 3 2.10714V0.607144Z" fill="#688F99"/>
</svg>
