<svg width="20" height="20" viewBox="0 0 20 20" fill="none" xmlns="http://www.w3.org/2000/svg">
<path d="M8.33359 2.66936C7.03001 2.97156 5.83102 3.61703 4.86099 4.53881C3.89095 5.46059 3.18521 6.62511 2.81694 7.91159C2.44868 9.19807 2.43132 10.5596 2.76666 11.8551C3.102 13.1505 3.77783 14.3327 4.72404 15.2789C5.67026 16.2251 6.8524 16.9009 8.14785 17.2363C9.4433 17.5716 10.8049 17.5543 12.0914 17.186C13.3778 16.8177 14.5424 16.112 15.4641 15.142C16.3859 14.1719 17.0314 12.9729 17.3336 11.6694C17.3336 11.4483 17.2458 11.2364 17.0895 11.0801C16.9332 10.9238 16.7213 10.836 16.5003 10.836H10.8336C10.3916 10.836 9.96764 10.6604 9.65508 10.3479C9.34251 10.0353 9.16692 9.61139 9.16692 9.16936V3.33603C9.15678 3.23721 9.12707 3.1414 9.07952 3.05419C9.03198 2.96697 8.96754 2.8901 8.88997 2.82805C8.81241 2.76599 8.72326 2.72 8.62774 2.69276C8.53221 2.66551 8.43222 2.65756 8.33359 2.66936V2.66936Z" stroke="#688F99" stroke-width="1.5" stroke-linecap="round" stroke-linejoin="round"/>
<path d="M12.5 2.91797C13.5581 3.29054 14.5192 3.89572 15.3124 4.68894C16.1056 5.48215 16.7108 6.4432 17.0833 7.5013H13.3333C13.1123 7.5013 12.9004 7.41351 12.7441 7.25723C12.5878 7.10095 12.5 6.88898 12.5 6.66797V2.91797Z" stroke="#688F99" stroke-width="1.5" stroke-linecap="round" stroke-linejoin="round"/>
</svg>
