<svg width="20" height="20" viewBox="0 0 20 20" fill="none" xmlns="http://www.w3.org/2000/svg">
<path d="M11.3935 5.59537C11.8077 5.59537 12.1435 5.25958 12.1435 4.84537C12.1435 4.43115 11.8077 4.09537 11.3935 4.09537V5.59537ZM15.3279 10.7134C15.3279 10.2991 14.9921 9.96336 14.5779 9.96336C14.1637 9.96336 13.8279 10.2991 13.8279 10.7134H15.3279ZM13.8279 8.57049C13.8279 8.9847 14.1637 9.32049 14.5779 9.32049C14.9921 9.32049 15.3279 8.9847 15.3279 8.57049H13.8279ZM14.5779 4.48822L15.058 3.91206L14.5779 3.51194L14.0978 3.91206L14.5779 4.48822ZM16.2406 6.8501C16.5588 7.11528 17.0317 7.07228 17.2969 6.75408C17.5621 6.43587 17.5191 5.96294 17.2009 5.69777L16.2406 6.8501ZM11.9549 5.69777C11.6367 5.96294 11.5937 6.43587 11.8589 6.75408C12.124 7.07228 12.597 7.11528 12.9152 6.8501L11.9549 5.69777ZM9.67885 6.78477C9.67885 6.37056 9.34306 6.03477 8.92885 6.03477C8.51464 6.03477 8.17885 6.37056 8.17885 6.78477H9.67885ZM8.92885 8.21334H8.17885V8.96334L8.92884 8.96334L8.92885 8.21334ZM10.7146 8.21336V8.96336C11.1288 8.96336 11.4646 8.62758 11.4646 8.21336C11.4646 7.79915 11.1288 7.46336 10.7146 7.46336L10.7146 8.21336ZM6.78599 8.21336V7.46336C6.37178 7.46336 6.03599 7.79915 6.03599 8.21336H6.78599ZM6.78599 11.0705H6.03599C6.03599 11.4847 6.37178 11.8205 6.78599 11.8205V11.0705ZM10.7146 11.0705H11.4646C11.4646 10.6563 11.1288 10.3205 10.7146 10.3205V11.0705ZM10.7146 13.6654V14.4154C11.1288 14.4154 11.4646 14.0797 11.4646 13.6654H10.7146ZM6.71957 12.9154C6.30536 12.9154 5.96957 13.2512 5.96957 13.6654C5.96957 14.0797 6.30536 14.4154 6.71957 14.4154V12.9154ZM8.1888 15.5144C8.1888 15.9287 8.52459 16.2644 8.9388 16.2644C9.35301 16.2644 9.6888 15.9287 9.6888 15.5144H8.1888ZM11.3935 4.09537H4.85742V5.59537H11.3935V4.09537ZM2.10742 6.84537V15.1419H3.60742V6.84537H2.10742ZM4.85742 17.8919H12.5779V16.3919H4.85742V17.8919ZM15.3279 15.1419V10.7134H13.8279V15.1419H15.3279ZM15.3279 8.57049V4.48822H13.8279V8.57049H15.3279ZM14.0978 5.06439L16.2406 6.8501L17.2009 5.69777L15.058 3.91206L14.0978 5.06439ZM14.0978 3.91206L11.9549 5.69777L12.9152 6.8501L15.058 5.06439L14.0978 3.91206ZM8.17885 6.78477V8.21334H9.67885V6.78477H8.17885ZM8.92884 8.96334L10.7146 8.96336L10.7146 7.46336L8.92886 7.46334L8.92884 8.96334ZM10.7146 7.46336H6.78599V8.96336H10.7146V7.46336ZM6.03599 8.21336V11.0705H7.53599V8.21336H6.03599ZM6.78599 11.8205H10.7146V10.3205H6.78599V11.8205ZM9.96456 11.0705V13.6654H11.4646V11.0705H9.96456ZM10.7146 12.9154H8.9388V14.4154H10.7146V12.9154ZM8.9388 12.9154H6.71957V14.4154H8.9388V12.9154ZM8.1888 13.6654V15.5144H9.6888V13.6654H8.1888ZM12.5779 17.8919C14.0967 17.8919 15.3279 16.6607 15.3279 15.1419H13.8279C13.8279 15.8323 13.2683 16.3919 12.5779 16.3919V17.8919ZM2.10742 15.1419C2.10742 16.6607 3.33864 17.8919 4.85742 17.8919V16.3919C4.16707 16.3919 3.60742 15.8323 3.60742 15.1419H2.10742ZM4.85742 4.09537C3.33864 4.09537 2.10742 5.32658 2.10742 6.84537H3.60742C3.60742 6.15501 4.16707 5.59537 4.85742 5.59537V4.09537Z" fill="#688F99"/>
</svg>
