<svg width="20" height="20" viewBox="0 0 20 20" fill="none" xmlns="http://www.w3.org/2000/svg">
<path fill-rule="evenodd" clip-rule="evenodd" d="M16.2674 10.2871C15.9033 11.8571 14.9228 13.1908 13.5946 14.0192C13.8242 14.4769 13.9577 14.9913 13.9684 15.5357C16.0242 14.4312 17.5052 12.3954 17.8471 9.99273C17.4113 10.1842 16.9295 10.2905 16.423 10.2905C16.3708 10.2905 16.319 10.2894 16.2674 10.2871ZM15.4286 3.34355C14.1015 2.15351 12.3478 1.42969 10.425 1.42969C8.48534 1.42969 6.71771 2.16628 5.38659 3.375C5.90134 3.5423 6.3644 3.82421 6.74566 4.19061C7.7615 3.40034 9.03829 2.92969 10.425 2.92969C11.7776 2.92969 13.0257 3.37748 14.029 4.1329C14.4237 3.7711 14.9007 3.49757 15.4286 3.34355ZM7.25533 14.0191C5.92483 13.1892 4.94319 11.8523 4.5807 10.2787C4.48488 10.2865 4.38798 10.2905 4.29015 10.2905C3.83941 10.2905 3.40831 10.2063 3.01172 10.0529C3.36962 12.4293 4.84294 14.4403 6.88146 15.5356C6.89216 14.9912 7.02563 14.4768 7.25533 14.0191Z" fill="#688F99"/>
<circle cx="16.4231" cy="6.74541" r="2.1126" stroke="#688F99" stroke-width="1.5"/>
<path d="M6.40292 6.81357C6.40292 8.0347 5.44054 8.99432 4.29033 8.99432C3.14011 8.99432 2.17773 8.0347 2.17773 6.81357C2.17773 5.59243 3.14011 4.63281 4.29033 4.63281C5.44054 4.63281 6.40292 5.59243 6.40292 6.81357Z" stroke="#688F99" stroke-width="1.5"/>
<circle cx="10.5599" cy="15.7454" r="2.1126" stroke="#688F99" stroke-width="1.5"/>
</svg>
