<svg width="20" height="20" viewBox="0 0 20 20" fill="none" xmlns="http://www.w3.org/2000/svg">
<path d="M7.42206 8.94764C8.20378 8.94764 8.95347 8.63711 9.50623 8.08435C10.059 7.5316 10.3695 6.7819 10.3695 6.00019C10.3695 5.21848 10.059 4.46878 9.50623 3.91602C8.95347 3.36327 8.20378 3.05273 7.42206 3.05273C6.64035 3.05273 5.89065 3.36327 5.3379 3.91602C4.78514 4.46878 4.47461 5.21848 4.47461 6.00019C4.47461 6.7819 4.78514 7.5316 5.3379 8.08435C5.89065 8.63711 6.64035 8.94764 7.42206 8.94764V8.94764Z" stroke="#44749D" stroke-width="1.5" stroke-linecap="round" stroke-linejoin="round"/>
<path d="M3 16.3157V14.842C3 14.0603 3.31053 13.3106 3.86329 12.7578C4.41604 12.2051 5.16574 11.8945 5.94745 11.8945H8.89491C9.67662 11.8945 10.4263 12.2051 10.9791 12.7578C11.5318 13.3106 11.8424 14.0603 11.8424 14.842V16.3157" stroke="#44749D" stroke-width="1.5" stroke-linecap="round" stroke-linejoin="round"/>
<path d="M14.7907 6.7373V11.1585M12.5801 8.9479H17.0013H12.5801Z" stroke="#44749D" stroke-width="1.5" stroke-linecap="round" stroke-linejoin="round"/>
</svg>
