<svg width="20" height="20" viewBox="0 0 20 20" fill="none" xmlns="http://www.w3.org/2000/svg">
<path d="M7.55046 5H5.91781C5.4848 5 5.06953 5.16932 4.76335 5.47072C4.45717 5.77212 4.28516 6.1809 4.28516 6.60714V16.25C4.28516 16.6762 4.45717 17.085 4.76335 17.3864C5.06953 17.6878 5.4848 17.8571 5.91781 17.8571H14.0811C14.5141 17.8571 14.9294 17.6878 15.2355 17.3864C15.5417 17.085 15.7137 16.6762 15.7137 16.25V6.60714C15.7137 6.1809 15.5417 5.77212 15.2355 5.47072C14.9294 5.16932 14.5141 5 14.0811 5H12.4484" stroke="#688F99" stroke-width="1.5" stroke-linecap="round" stroke-linejoin="round"/>
<path d="M11.1908 2.85547H9.52409C9.08206 2.85547 8.65814 3.04361 8.34558 3.37849C8.03302 3.71338 7.85742 4.16758 7.85742 4.64118C7.85742 5.11478 8.03302 5.56899 8.34558 5.90387C8.65814 6.23876 9.08206 6.4269 9.52409 6.4269H11.1908C11.6328 6.4269 12.0567 6.23876 12.3693 5.90387C12.6818 5.56899 12.8574 5.11478 12.8574 4.64118C12.8574 4.16758 12.6818 3.71338 12.3693 3.37849C12.0567 3.04361 11.6328 2.85547 11.1908 2.85547Z" stroke="#688F99" stroke-width="1.5" stroke-linecap="round" stroke-linejoin="round"/>
<path d="M7.5 14.1667V10" stroke="#688F99" stroke-width="1.5" stroke-linecap="round" stroke-linejoin="round"/>
<path d="M10 14.1654V13.332" stroke="#688F99" stroke-width="1.5" stroke-linecap="round" stroke-linejoin="round"/>
<path d="M12.5 14.168V11.668" stroke="#688F99" stroke-width="1.5" stroke-linecap="round" stroke-linejoin="round"/>
</svg>
