<svg width="16" height="16" viewBox="0 0 16 16" fill="none" xmlns="http://www.w3.org/2000/svg">
<path d="M5 1H2C1.44772 1 1 1.44772 1 2V5C1 5.55228 1.44772 6 2 6H5C5.55228 6 6 5.55228 6 5V2C6 1.44772 5.55228 1 5 1Z" stroke="#44749D" stroke-width="1.5"/>
<path d="M14 1H11C10.4477 1 10 1.44772 10 2V5C10 5.55228 10.4477 6 11 6H14C14.5523 6 15 5.55228 15 5V2C15 1.44772 14.5523 1 14 1Z" stroke="#44749D" stroke-width="1.5"/>
<path d="M5 9.5H2C1.44772 9.5 1 9.94771 1 10.5V13.5C1 14.0523 1.44772 14.5 2 14.5H5C5.55228 14.5 6 14.0523 6 13.5V10.5C6 9.94771 5.55228 9.5 5 9.5Z" stroke="#44749D" stroke-width="1.5"/>
<path d="M14 9.5H11C10.4477 9.5 10 9.94771 10 10.5V13.5C10 14.0523 10.4477 14.5 11 14.5H14C14.5523 14.5 15 14.0523 15 13.5V10.5C15 9.94771 14.5523 9.5 14 9.5Z" stroke="#44749D" stroke-width="1.5"/>
</svg>
