<svg width="28" height="28" viewBox="0 0 28 28" fill="none" xmlns="http://www.w3.org/2000/svg">
<path d="M17.5 5.83301C17.5 4.90475 17.1313 4.01451 16.4749 3.35813C15.8185 2.70176 14.9283 2.33301 14 2.33301C13.0717 2.33301 12.1815 2.70176 11.5251 3.35813C10.8687 4.01451 10.5 4.90475 10.5 5.83301V11.6663C10.5 12.5946 10.8687 13.4848 11.5251 14.1412C12.1815 14.7976 13.0717 15.1663 14 15.1663C14.9283 15.1663 15.8185 14.7976 16.4749 14.1412C17.1313 13.4848 17.5 12.5946 17.5 11.6663V5.83301Z" stroke="#5B84B0" stroke-width="1.63333" stroke-linecap="round" stroke-linejoin="round"/>
<path d="M5.83203 11.666C5.83203 12.7385 6.04327 13.8004 6.45368 14.7913C6.86409 15.7821 7.46565 16.6824 8.22399 17.4407C8.98234 18.1991 9.88262 18.8006 10.8734 19.211C11.8643 19.6214 12.9262 19.8327 13.9987 19.8327C15.0712 19.8327 16.1331 19.6214 17.1239 19.211C18.1148 18.8006 19.0151 18.1991 19.7734 17.4407C20.5317 16.6824 21.1333 15.7821 21.5437 14.7913C21.9541 13.8004 22.1654 12.7385 22.1654 11.666" stroke="#5B84B0" stroke-width="1.63333" stroke-linecap="round" stroke-linejoin="round"/>
<path d="M9.33203 24.5H18.6654" stroke="#5B84B0" stroke-width="1.63333" stroke-linecap="round" stroke-linejoin="round"/>
<path d="M14 19.833V24.4997" stroke="#5B84B0" stroke-width="1.63333" stroke-linecap="round" stroke-linejoin="round"/>
</svg>
