<svg width="17" height="17" viewBox="0 0 17 17" fill="none" xmlns="http://www.w3.org/2000/svg">
<path d="M10.2359 2.7139C10.5673 2.7139 10.8359 2.44527 10.8359 2.1139C10.8359 1.78253 10.5673 1.5139 10.2359 1.5139V2.7139ZM14.2814 8.463C14.2814 8.13163 14.0128 7.863 13.6814 7.863C13.3501 7.863 13.0814 8.13163 13.0814 8.463H14.2814ZM13.0814 6.14444C13.0814 6.47581 13.3501 6.74444 13.6814 6.74444C14.0128 6.74444 14.2814 6.47581 14.2814 6.14444H13.0814ZM13.6814 1.72748L14.0656 1.26654L13.6814 0.946452L13.2973 1.26654L13.6814 1.72748ZM15.6159 4.12053C15.8705 4.33267 16.2488 4.29827 16.4609 4.04371C16.6731 3.78914 16.6387 3.4108 16.3841 3.19866L15.6159 4.12053ZM10.9788 3.19866C10.7242 3.4108 10.6898 3.78914 10.902 4.04371C11.1141 4.29827 11.4924 4.33267 11.747 4.12053L10.9788 3.19866ZM8.16923 4.21231C8.16923 3.88094 7.9006 3.61231 7.56923 3.61231C7.23786 3.61231 6.96923 3.88094 6.96923 4.21231H8.16923ZM7.56923 5.75801H6.96923V6.35801L7.56922 6.35801L7.56923 5.75801ZM9.50136 5.75803V6.35803C9.83273 6.35803 10.1014 6.0894 10.1014 5.75803C10.1014 5.42666 9.83273 5.15803 9.50136 5.15803L9.50136 5.75803ZM5.25068 5.75803V5.15803C4.91931 5.15803 4.65068 5.42666 4.65068 5.75803H5.25068ZM5.25068 8.84942H4.65068C4.65068 9.18079 4.91931 9.44942 5.25068 9.44942V8.84942ZM9.50136 8.84942H10.1014C10.1014 8.51805 9.83273 8.24942 9.50136 8.24942V8.84942ZM9.50136 11.6571V12.2571C9.83273 12.2571 10.1014 11.9885 10.1014 11.6571H9.50136ZM5.17881 11.0571C4.84744 11.0571 4.57881 11.3257 4.57881 11.6571C4.57881 11.9885 4.84744 12.2571 5.17881 12.2571V11.0571ZM6.98 13.6577C6.98 13.9891 7.24863 14.2577 7.58 14.2577C7.91137 14.2577 8.18 13.9891 8.18 13.6577H6.98ZM10.2359 1.5139H3.72727V2.7139H10.2359V1.5139ZM0.4 4.84117V12.6914H1.6V4.84117H0.4ZM3.72727 16.0186H10.9542V14.8186H3.72727V16.0186ZM14.2814 12.6914V8.463H13.0814V12.6914H14.2814ZM14.2814 6.14444V1.72748H13.0814V6.14444H14.2814ZM13.2973 2.18841L15.6159 4.12053L16.3841 3.19866L14.0656 1.26654L13.2973 2.18841ZM13.2973 1.26654L10.9788 3.19866L11.747 4.12053L14.0656 2.18841L13.2973 1.26654ZM6.96923 4.21231V5.75801H8.16923V4.21231H6.96923ZM7.56922 6.35801L9.50135 6.35803L9.50136 5.15803L7.56924 5.15801L7.56922 6.35801ZM9.50136 5.15803H5.25068V6.35803H9.50136V5.15803ZM4.65068 5.75803V8.84942H5.85068V5.75803H4.65068ZM5.25068 9.44942H9.50136V8.24942H5.25068V9.44942ZM8.90136 8.84942V11.6571H10.1014V8.84942H8.90136ZM9.50136 11.0571H7.58V12.2571H9.50136V11.0571ZM7.58 11.0571H5.17881V12.2571H7.58V11.0571ZM6.98 11.6571V13.6577H8.18V11.6571H6.98ZM10.9542 16.0186C12.7918 16.0186 14.2814 14.529 14.2814 12.6914H13.0814C13.0814 13.8662 12.129 14.8186 10.9542 14.8186V16.0186ZM0.4 12.6914C0.4 14.529 1.88967 16.0186 3.72727 16.0186V14.8186C2.55241 14.8186 1.6 13.8662 1.6 12.6914H0.4ZM3.72727 1.5139C1.88967 1.5139 0.4 3.00357 0.4 4.84117H1.6C1.6 3.66631 2.55241 2.7139 3.72727 2.7139V1.5139Z" fill="#3DAAFA"/>
</svg>
