<svg width="30" height="31" viewBox="0 0 30 31" fill="none" xmlns="http://www.w3.org/2000/svg">
<rect y="0.363281" width="30" height="30" rx="15" fill="white"/>
<path d="M17.4176 9.53129C17.7489 9.53129 18.0176 9.26266 18.0176 8.93129C18.0176 8.59992 17.7489 8.33129 17.4176 8.33129V9.53129ZM21.4631 15.2804C21.4631 14.949 21.1945 14.6804 20.8631 14.6804C20.5317 14.6804 20.2631 14.949 20.2631 15.2804H21.4631ZM20.2631 12.9618C20.2631 13.2932 20.5317 13.5618 20.8631 13.5618C21.1945 13.5618 21.4631 13.2932 21.4631 12.9618H20.2631ZM20.8631 8.54486L21.2472 8.08393L20.8631 7.76383L20.479 8.08393L20.8631 8.54486ZM22.7975 10.9379C23.0521 11.1501 23.4304 11.1157 23.6426 10.8611C23.8547 10.6065 23.8203 10.2282 23.5658 10.0161L22.7975 10.9379ZM18.1604 10.0161C17.9059 10.2282 17.8715 10.6065 18.0836 10.8611C18.2957 11.1157 18.6741 11.1501 18.9286 10.9379L18.1604 10.0161ZM15.3509 11.0297C15.3509 10.6983 15.0822 10.4297 14.7509 10.4297C14.4195 10.4297 14.1509 10.6983 14.1509 11.0297H15.3509ZM14.7509 12.5754H14.1509V13.1754L14.7509 13.1754L14.7509 12.5754ZM16.683 12.5754V13.1754C17.0144 13.1754 17.283 12.9068 17.283 12.5754C17.283 12.2441 17.0144 11.9754 16.683 11.9754L16.683 12.5754ZM12.4323 12.5754V11.9754C12.1009 11.9754 11.8323 12.2441 11.8323 12.5754H12.4323ZM12.4323 15.6668H11.8323C11.8323 15.9982 12.1009 16.2668 12.4323 16.2668V15.6668ZM16.683 15.6668H17.283C17.283 15.3355 17.0144 15.0668 16.683 15.0668V15.6668ZM16.683 18.4745V19.0745C17.0144 19.0745 17.283 18.8059 17.283 18.4745H16.683ZM12.3604 17.8745C12.0291 17.8745 11.7604 18.1432 11.7604 18.4745C11.7604 18.8059 12.0291 19.0745 12.3604 19.0745V17.8745ZM14.1616 20.4751C14.1616 20.8065 14.4303 21.0751 14.7616 21.0751C15.093 21.0751 15.3616 20.8065 15.3616 20.4751H14.1616ZM17.4176 8.33129H10.9089V9.53129H17.4176V8.33129ZM7.58164 11.6586V19.5088H8.78164V11.6586H7.58164ZM10.9089 22.8361H18.1358V21.6361H10.9089V22.8361ZM21.4631 19.5088V15.2804H20.2631V19.5088H21.4631ZM21.4631 12.9618V8.54486H20.2631V12.9618H21.4631ZM20.479 9.00579L22.7975 10.9379L23.5658 10.0161L21.2472 8.08393L20.479 9.00579ZM20.479 8.08393L18.1604 10.0161L18.9286 10.9379L21.2472 9.00579L20.479 8.08393ZM14.1509 11.0297V12.5754H15.3509V11.0297H14.1509ZM14.7509 13.1754L16.683 13.1754L16.683 11.9754L14.7509 11.9754L14.7509 13.1754ZM16.683 11.9754H12.4323V13.1754H16.683V11.9754ZM11.8323 12.5754V15.6668H13.0323V12.5754H11.8323ZM12.4323 16.2668H16.683V15.0668H12.4323V16.2668ZM16.083 15.6668V18.4745H17.283V15.6668H16.083ZM16.683 17.8745H14.7616V19.0745H16.683V17.8745ZM14.7616 17.8745H12.3604V19.0745H14.7616V17.8745ZM14.1616 18.4745V20.4751H15.3616V18.4745H14.1616ZM18.1358 22.8361C19.9734 22.8361 21.4631 21.3464 21.4631 19.5088H20.2631C20.2631 20.6836 19.3107 21.6361 18.1358 21.6361V22.8361ZM7.58164 19.5088C7.58164 21.3464 9.07131 22.8361 10.9089 22.8361V21.6361C9.73405 21.6361 8.78164 20.6836 8.78164 19.5088H7.58164ZM10.9089 8.33129C9.07131 8.33129 7.58164 9.82096 7.58164 11.6586H8.78164C8.78164 10.4837 9.73405 9.53129 10.9089 9.53129V8.33129Z" fill="#3DAAFA"/>
</svg>
