<svg width="17" height="16" viewBox="0 0 17 16" fill="none" xmlns="http://www.w3.org/2000/svg">
<path d="M10.2359 1.98482C10.5673 1.98482 10.8359 1.71619 10.8359 1.38482C10.8359 1.05345 10.5673 0.784818 10.2359 0.784818V1.98482ZM14.2814 7.70852C14.2814 7.37714 14.0128 7.10852 13.6814 7.10852C13.3501 7.10852 13.0814 7.37714 13.0814 7.70852H14.2814ZM14.2814 0.999937C14.2814 0.668566 14.0128 0.399937 13.6814 0.399937C13.3501 0.399937 13.0814 0.668566 13.0814 0.999937H14.2814ZM13.6814 5.39923L13.2982 5.86092L13.6814 6.17897L14.0646 5.86092L13.6814 5.39923ZM16.3832 3.93652C16.6382 3.72489 16.6733 3.34662 16.4617 3.09163C16.2501 2.83665 15.8718 2.80151 15.6168 3.01315L16.3832 3.93652ZM11.7461 3.01315C11.4911 2.80151 11.1128 2.83665 10.9012 3.09163C10.6896 3.34662 10.7247 3.72489 10.9797 3.93652L11.7461 3.01315ZM8.16923 3.47484C8.16923 3.14346 7.9006 2.87484 7.56923 2.87484C7.23786 2.87484 6.96923 3.14346 6.96923 3.47484H8.16923ZM7.56923 5.01435H6.96923V5.61434L7.56922 5.61435L7.56923 5.01435ZM9.50136 5.01437V5.61437C9.83272 5.61437 10.1014 5.34574 10.1014 5.01437C10.1014 4.683 9.83273 4.41437 9.50136 4.41437L9.50136 5.01437ZM5.25068 5.01437V4.41437C4.91931 4.41437 4.65068 4.683 4.65068 5.01437H5.25068ZM5.25068 8.09339H4.65068C4.65068 8.42476 4.91931 8.69339 5.25068 8.69339V8.09339ZM9.50136 8.09339H10.1014C10.1014 7.76202 9.83273 7.49339 9.50136 7.49339V8.09339ZM9.50136 10.8899V11.4899C9.83273 11.4899 10.1014 11.2212 10.1014 10.8899H9.50136ZM5.17881 10.2899C4.84744 10.2899 4.57881 10.5585 4.57881 10.8899C4.57881 11.2212 4.84744 11.4899 5.17881 11.4899V10.2899ZM6.98 12.8824C6.98 13.2138 7.24863 13.4824 7.58 13.4824C7.91137 13.4824 8.18 13.2138 8.18 12.8824H6.98ZM10.2359 0.784818H3.72727V1.98482H10.2359V0.784818ZM0.4 4.11209V11.9091H1.6V4.11209H0.4ZM3.72727 15.2363H10.9542V14.0363H3.72727V15.2363ZM14.2814 11.9091V7.70852H13.0814V11.9091H14.2814ZM13.0814 0.999937V5.39923H14.2814V0.999937H13.0814ZM14.0646 5.86092L16.3832 3.93652L15.6168 3.01315L13.2982 4.93754L14.0646 5.86092ZM14.0646 4.93754L11.7461 3.01315L10.9797 3.93652L13.2982 5.86092L14.0646 4.93754ZM6.96923 3.47484V5.01435H8.16923V3.47484H6.96923ZM7.56922 5.61435L9.50135 5.61437L9.50136 4.41437L7.56924 4.41435L7.56922 5.61435ZM9.50136 4.41437H5.25068V5.61437H9.50136V4.41437ZM4.65068 5.01437V8.09339H5.85068V5.01437H4.65068ZM5.25068 8.69339H9.50136V7.49339H5.25068V8.69339ZM8.90136 8.09339V10.8899H10.1014V8.09339H8.90136ZM9.50136 10.2899H7.58V11.4899H9.50136V10.2899ZM7.58 10.2899H5.17881V11.4899H7.58V10.2899ZM6.98 10.8899V12.8824H8.18V10.8899H6.98ZM10.9542 15.2363C12.7918 15.2363 14.2814 13.7467 14.2814 11.9091H13.0814C13.0814 13.0839 12.129 14.0363 10.9542 14.0363V15.2363ZM0.4 11.9091C0.4 13.7467 1.88967 15.2363 3.72727 15.2363V14.0363C2.55241 14.0363 1.6 13.0839 1.6 11.9091H0.4ZM3.72727 0.784818C1.88967 0.784818 0.4 2.27449 0.4 4.11209H1.6C1.6 2.93723 2.55241 1.98482 3.72727 1.98482V0.784818Z" fill="#3DAAFA"/>
</svg>
