<svg width="30" height="31" viewBox="0 0 30 31" fill="none" xmlns="http://www.w3.org/2000/svg">
<rect y="0.636719" width="30" height="30" rx="15" fill="white"/>
<path d="M17.4176 9.80318C17.7489 9.80318 18.0176 9.53455 18.0176 9.20318C18.0176 8.87181 17.7489 8.60318 17.4176 8.60318V9.80318ZM21.4631 15.5269C21.4631 15.1955 21.1945 14.9269 20.8631 14.9269C20.5317 14.9269 20.2631 15.1955 20.2631 15.5269H21.4631ZM21.4631 8.8183C21.4631 8.48693 21.1945 8.2183 20.8631 8.2183C20.5317 8.2183 20.2631 8.48693 20.2631 8.8183H21.4631ZM20.8631 13.2176L20.4799 13.6793L20.8631 13.9973L21.2463 13.6793L20.8631 13.2176ZM23.5648 11.7549C23.8198 11.5433 23.855 11.165 23.6433 10.91C23.4317 10.655 23.0534 10.6199 22.7984 10.8315L23.5648 11.7549ZM18.9277 10.8315C18.6728 10.6199 18.2945 10.655 18.0828 10.91C17.8712 11.165 17.9064 11.5433 18.1613 11.7549L18.9277 10.8315ZM15.3509 11.2932C15.3509 10.9618 15.0822 10.6932 14.7509 10.6932C14.4195 10.6932 14.1509 10.9618 14.1509 11.2932H15.3509ZM14.7509 12.8327H14.1509V13.4327L14.7509 13.4327L14.7509 12.8327ZM16.683 12.8327V13.4327C17.0144 13.4327 17.283 13.1641 17.283 12.8327C17.283 12.5014 17.0144 12.2327 16.683 12.2327L16.683 12.8327ZM12.4323 12.8327V12.2327C12.1009 12.2327 11.8323 12.5014 11.8323 12.8327H12.4323ZM12.4323 15.9118H11.8323C11.8323 16.2431 12.1009 16.5118 12.4323 16.5118V15.9118ZM16.683 15.9118H17.283C17.283 15.5804 17.0144 15.3118 16.683 15.3118V15.9118ZM16.683 18.7082V19.3082C17.0144 19.3082 17.283 19.0396 17.283 18.7082H16.683ZM12.3604 18.1082C12.0291 18.1082 11.7604 18.3769 11.7604 18.7082C11.7604 19.0396 12.0291 19.3082 12.3604 19.3082V18.1082ZM14.1616 20.7008C14.1616 21.0322 14.4303 21.3008 14.7616 21.3008C15.093 21.3008 15.3616 21.0322 15.3616 20.7008H14.1616ZM17.4176 8.60318H10.9089V9.80318H17.4176V8.60318ZM7.58164 11.9305V19.7275H8.78164V11.9305H7.58164ZM10.9089 23.0547H18.1358V21.8547H10.9089V23.0547ZM21.4631 19.7275V15.5269H20.2631V19.7275H21.4631ZM20.2631 8.8183V13.2176H21.4631V8.8183H20.2631ZM21.2463 13.6793L23.5648 11.7549L22.7984 10.8315L20.4799 12.7559L21.2463 13.6793ZM21.2463 12.7559L18.9277 10.8315L18.1613 11.7549L20.4799 13.6793L21.2463 12.7559ZM14.1509 11.2932V12.8327H15.3509V11.2932H14.1509ZM14.7509 13.4327L16.683 13.4327L16.683 12.2327L14.7509 12.2327L14.7509 13.4327ZM16.683 12.2327H12.4323V13.4327H16.683V12.2327ZM11.8323 12.8327V15.9118H13.0323V12.8327H11.8323ZM12.4323 16.5118H16.683V15.3118H12.4323V16.5118ZM16.083 15.9118V18.7082H17.283V15.9118H16.083ZM16.683 18.1082H14.7616V19.3082H16.683V18.1082ZM14.7616 18.1082H12.3604V19.3082H14.7616V18.1082ZM14.1616 18.7082V20.7008H15.3616V18.7082H14.1616ZM18.1358 23.0547C19.9734 23.0547 21.4631 21.5651 21.4631 19.7275H20.2631C20.2631 20.9023 19.3107 21.8547 18.1358 21.8547V23.0547ZM7.58164 19.7275C7.58164 21.5651 9.07131 23.0547 10.9089 23.0547V21.8547C9.73405 21.8547 8.78164 20.9023 8.78164 19.7275H7.58164ZM10.9089 8.60318C9.07131 8.60318 7.58164 10.0928 7.58164 11.9305H8.78164C8.78164 10.7556 9.73405 9.80318 10.9089 9.80318V8.60318Z" fill="#3DAAFA"/>
</svg>
