<svg width="40" height="40" viewBox="0 0 40 40" fill="none" xmlns="http://www.w3.org/2000/svg">
<rect width="40" height="40" rx="4" fill="#FF9B6B"/>
<path d="M32.3444 18.0806V8.43774H7.03174V17.478H8.83978H10.6478H13.0586M26.3175 15.2464H29.9336V10.9304H26.3596M26.3175 15.2464L26.3596 10.9304M26.3175 15.2464L26.318 30.1017L20.8934 30.1343H15.4693V27.7235M12.4559 10.9136H9.44246V15.2464H12.4559M12.4559 10.9136L26.3596 10.9304M12.4559 10.9136V15.0998V15.2464M23.9068 10.9304V27.7235H15.4693M15.4693 27.7235H12.4559V19.286V15.2464" stroke="white" stroke-width="1.4063" stroke-linejoin="round"/>
<path d="M32.3455 17.4783H26.9214" stroke="white" stroke-width="1.4063"/>
<path d="M19.8253 20.0975C19.8253 21.0406 19.0608 21.8051 18.1178 21.8051C17.1747 21.8051 16.4102 21.0406 16.4102 20.0975C16.4102 19.1544 17.1747 18.3899 18.1178 18.3899C19.0608 18.3899 19.8253 19.1544 19.8253 20.0975Z" stroke="white" stroke-width="1.4063"/>
</svg>
