<svg width="40" height="40" viewBox="0 0 40 40" fill="none" xmlns="http://www.w3.org/2000/svg">
<rect width="40" height="39.9998" rx="4" fill="#FF9B6B"/>
<path d="M7.76604 14.9998V14.2855C7.37155 14.2855 7.05175 14.6053 7.05175 14.9998H7.76604ZM31.4623 14.9998H32.1766C32.1766 14.6053 31.8568 14.2855 31.4623 14.2855V14.9998ZM30.748 16.6385C30.748 17.033 31.0678 17.3527 31.4623 17.3527C31.8568 17.3527 32.1766 17.033 32.1766 16.6385H30.748ZM16.8234 18.4013C16.7296 18.0181 16.3429 17.7836 15.9597 17.8774C15.5766 17.9713 15.342 18.358 15.4359 18.7411L16.8234 18.4013ZM16.8256 21.4126L16.1318 21.5826C16.2101 21.9022 16.4965 22.1269 16.8256 22.1269V21.4126ZM19.6134 22.1269C20.0079 22.1269 20.3277 21.8071 20.3277 21.4126C20.3277 21.0182 20.0079 20.6984 19.6134 20.6984V22.1269ZM25.1902 20.0838V19.3696C24.7957 19.3696 24.4759 19.6894 24.4759 20.0838H25.1902ZM32.8569 22.7729H33.5711C33.5711 22.3784 33.2514 22.0586 32.8569 22.0586V22.7729ZM27.5184 32.8569L27.178 33.4848C27.3864 33.5978 27.6373 33.6 27.8477 33.4907L27.5184 32.8569ZM26.4607 28.7893L26.8574 28.1953L26.4607 28.7893ZM29.891 20.0838H30.6053C30.6053 19.6894 30.2855 19.3696 29.891 19.3696V20.0838ZM8.41407 18.5981L8.38444 19.3118L8.41407 18.5981ZM11.8133 22.1425V22.8568C12.2077 22.8568 12.5275 22.5372 12.5276 22.1428L11.8133 22.1425ZM26.8866 10.1279L26.2506 10.4531L26.8866 10.1279ZM26.1414 32.1105L26.4818 31.4825L26.1414 32.1105ZM11.66 10.1564L11.0204 9.83843L11.66 10.1564ZM22.4024 22.941V22.2267C22.0079 22.2267 21.6881 22.5465 21.6881 22.941H22.4024ZM28.6507 13.1898L29.0028 13.8112L28.6507 13.1898ZM9.43868 13.0241L9.18625 13.6923L9.43868 13.0241ZM11.2325 24.8316V27.1425H12.6611V24.8316H11.2325ZM10.5182 27.8568H9.1946V29.2854H10.5182V27.8568ZM30.748 14.9998V16.6385H32.1766V14.9998H30.748ZM7.76604 15.7141H28.4965V14.2855H7.76604V15.7141ZM28.4965 15.7141H31.4623V14.2855H28.4965V15.7141ZM29.2108 14.9998V13.2771H27.7822V14.9998H29.2108ZM29.1325 12.952L27.5226 9.80282L26.2506 10.4531L27.8605 13.6023L29.1325 12.952ZM24.3426 7.85701H14.2184V9.28557H24.3426V7.85701ZM11.0204 9.83843L9.4688 12.9591L10.748 13.5951L12.2996 10.4744L11.0204 9.83843ZM9.39411 13.2771V14.9998H10.8227V13.2771H9.39411ZM10.3608 12.609L9.69111 12.3559L9.18625 13.6923L9.85596 13.9453L10.3608 12.609ZM8.48032 27.1425V24.8316H7.05175V27.1425H8.48032ZM7.76604 25.5459H18.3381V24.1173H7.76604V25.5459ZM8.48032 18.5712V14.9998H7.05175V18.5712H8.48032ZM7.73641 19.2849L8.38444 19.3118L8.44369 17.8845L7.79567 17.8576L7.73641 19.2849ZM8.48032 24.8316V22.1425H7.05175V24.8316H8.48032ZM8.48032 22.1425V18.5712H7.05175V22.1425H8.48032ZM11.8133 21.4283H7.76604V22.8568H11.8133V21.4283ZM15.4359 18.7411L16.1318 21.5826L17.5193 21.2427L16.8234 18.4013L15.4359 18.7411ZM16.8256 22.1269H19.6134V20.6984H16.8256V22.1269ZM25.9045 20.1531V20.0838H24.4759V20.1531H25.9045ZM32.5801 23.4872H32.8569V22.0586H32.5801V23.4872ZM32.1426 22.7729V25.7451H33.5711V22.7729H32.1426ZM28.6774 31.4499L27.1891 32.223L27.8477 33.4907L29.3359 32.7176L28.6774 31.4499ZM27.8588 32.2289L26.4818 31.4825L25.801 32.7384L27.178 33.4848L27.8588 32.2289ZM23.1166 25.8308V22.941H21.6881V25.8308H23.1166ZM24.4759 25.0838V26.4132H25.9045V25.0838H24.4759ZM26.0641 29.3833L27.1217 30.0896L27.915 28.9015L26.8574 28.1953L26.0641 29.3833ZM25.1902 20.7981H29.891V19.3696H25.1902V20.7981ZM28.8486 13.8986L29.0028 13.8112L28.2985 12.5683L28.1443 12.6557L28.8486 13.8986ZM24.4759 26.4132C24.4759 27.6064 25.0718 28.7207 26.0641 29.3833L26.8574 28.1953C26.262 27.7977 25.9045 27.1291 25.9045 26.4132H24.4759ZM32.1426 25.7451C32.1426 28.1443 30.8065 30.3439 28.6774 31.4499L29.3359 32.7176C31.9382 31.3659 33.5711 28.6775 33.5711 25.7451H32.1426ZM29.1768 20.0838C29.1768 21.9635 30.7005 23.4872 32.5801 23.4872V22.0586C31.4895 22.0586 30.6053 21.1745 30.6053 20.0838H29.1768ZM8.38444 19.3118C9.90189 19.3748 11.0995 20.6236 11.099 22.1423L12.5276 22.1428C12.5283 19.8579 10.7266 17.9792 8.44369 17.8845L8.38444 19.3118ZM27.5226 9.80282C26.9121 8.60853 25.6839 7.85701 24.3426 7.85701V9.28557C25.1474 9.28557 25.8843 9.73649 26.2506 10.4531L27.5226 9.80282ZM26.4818 31.4825C24.4082 30.3586 23.1166 28.1894 23.1166 25.8308H21.6881C21.6881 28.7135 23.2667 31.3647 25.801 32.7384L26.4818 31.4825ZM14.2184 7.85701C12.8627 7.85701 11.6239 8.62454 11.0204 9.83843L12.2996 10.4744C12.6617 9.74609 13.405 9.28557 14.2184 9.28557V7.85701ZM22.4024 23.6552C24.3365 23.6552 25.9045 22.0873 25.9045 20.1531H24.4759C24.4759 21.2983 23.5476 22.2267 22.4024 22.2267V23.6552ZM11.2325 27.1425C11.2325 27.537 10.9127 27.8568 10.5182 27.8568V29.2854C11.7017 29.2854 12.6611 28.326 12.6611 27.1425H11.2325ZM29.0028 13.8112C29.572 13.4887 30.215 13.3192 30.8691 13.3192V11.8906C29.9681 11.8906 29.0824 12.1241 28.2985 12.5683L29.0028 13.8112ZM9.69111 12.3559C8.87666 12.0483 8.01322 11.8906 7.14258 11.8906V13.3192C7.84074 13.3192 8.53313 13.4456 9.18625 13.6923L9.69111 12.3559ZM9.1946 27.8568C8.80012 27.8568 8.48032 27.537 8.48032 27.1425H7.05175C7.05175 28.326 8.01114 29.2854 9.1946 29.2854V27.8568Z" fill="white"/>
</svg>
