<svg width="40" height="40" viewBox="0 0 40 40" fill="none" xmlns="http://www.w3.org/2000/svg">
<rect width="40" height="40.0002" rx="4" fill="#FF9B6B"/>
<path d="M25.0002 30.7143L25.0002 31.4286L25.7145 31.4286V30.7143H25.0002ZM14.8196 18.4297L15.4345 18.0663L15.4275 18.0544L15.4199 18.0427L14.8196 18.4297ZM12.7681 20.3896L12.2708 20.9024L12.7644 21.381L13.2615 20.9061L12.7681 20.3896ZM11.1609 18.8312L11.6582 18.3184L11.1609 17.8362L10.6637 18.3184L11.1609 18.8312ZM19.5801 11.2405C19.261 11.4725 19.1905 11.9192 19.4225 12.2383C19.6546 12.5573 20.1013 12.6279 20.4203 12.3958L19.5801 11.2405ZM26.8489 7.72049C27.1679 7.48846 27.2385 7.04174 27.0064 6.7227C26.7744 6.40366 26.3277 6.33312 26.0087 6.56515L26.8489 7.72049ZM21.1695 15.9291C20.8578 16.1709 20.8012 16.6196 21.043 16.9313C21.2848 17.243 21.7335 17.2997 22.0452 17.0579L21.1695 15.9291ZM30.0809 10.8241C30.3926 10.5823 30.4492 10.1336 30.2074 9.82189C29.9656 9.5102 29.5169 9.45354 29.2052 9.69534L30.0809 10.8241ZM26.0087 17.4743C25.6896 17.7063 25.6191 18.153 25.8511 18.4721C26.0831 18.7911 26.5299 18.8616 26.8489 18.6296L26.0087 17.4743ZM33.2775 13.9543C33.5965 13.7222 33.667 13.2755 33.435 12.9565C33.203 12.6374 32.7563 12.5669 32.4372 12.7989L33.2775 13.9543ZM19.2859 30.7144L19.2859 30.0001L18.5716 30.0001V30.7144H19.2859ZM13.9934 17.1479L13.393 17.5348L13.9934 17.1479ZM23.9821 25.4089L23.7769 26.0931L23.9821 25.4089ZM7.14307 31.4286H15.0002V30H7.14307V31.4286ZM24.1874 24.7248L18.0626 22.8873L17.6521 24.2556L23.7769 26.0931L24.1874 24.7248ZM17.8617 22.8572L7.1474 22.7922L7.13874 24.2208L17.853 24.2857L17.8617 22.8572ZM7.14307 17.2078H12.7928V15.7792H7.14307V17.2078ZM13.393 17.5348C13.6473 17.9293 13.9692 18.4287 14.2192 18.8166L15.4199 18.0427C15.1699 17.6548 14.848 17.1554 14.5938 16.7609L13.393 17.5348ZM14.2046 18.793L17.2424 23.9348L18.4723 23.2081L15.4345 18.0663L14.2046 18.793ZM14.3261 17.9132L12.2746 19.8731L13.2615 20.9061L15.313 18.9461L14.3261 17.9132ZM13.2653 19.8768L11.6582 18.3184L10.6637 19.3439L12.2708 20.9024L13.2653 19.8768ZM11.1609 18.8312C10.6637 18.3184 10.6637 18.3184 10.6637 18.3184C10.6637 18.3184 10.6636 18.3184 10.6636 18.3184C10.6636 18.3184 10.6636 18.3185 10.6636 18.3185C10.6636 18.3185 10.6635 18.3185 10.6635 18.3185C10.6634 18.3186 10.6632 18.3189 10.663 18.3191C10.6624 18.3196 10.6618 18.3202 10.6608 18.3211C10.659 18.3229 10.6562 18.3256 10.6525 18.3292C10.6452 18.3363 10.6344 18.3468 10.6204 18.3604C10.5924 18.3875 10.5516 18.427 10.5008 18.4763C10.3992 18.5749 10.2571 18.7126 10.0955 18.8694C9.77213 19.1829 9.37035 19.5725 9.05653 19.8768L10.051 20.9024C10.3648 20.5981 10.7666 20.2085 11.09 19.8949C11.2516 19.7382 11.3937 19.6004 11.4953 19.5019C11.5461 19.4526 11.5868 19.4131 11.6149 19.386C11.6289 19.3724 11.6397 19.3619 11.647 19.3548C11.6507 19.3512 11.6535 19.3485 11.6553 19.3467C11.6563 19.3458 11.657 19.3451 11.6575 19.3446C11.6577 19.3444 11.6579 19.3442 11.658 19.3441C11.658 19.3441 11.658 19.3441 11.6581 19.344C11.6581 19.344 11.6581 19.344 11.6581 19.344C11.6581 19.344 11.6582 19.344 11.6582 19.344C11.6582 19.344 11.6582 19.3439 11.1609 18.8312ZM20.4203 12.3958L26.8489 7.72049L26.0087 6.56515L19.5801 11.2405L20.4203 12.3958ZM22.0452 17.0579C23.6142 15.8407 25.6232 14.2822 27.2398 13.0281C28.0482 12.401 28.7584 11.85 29.2666 11.4558C29.5207 11.2587 29.7243 11.1007 29.8643 10.9921C29.9343 10.9378 29.9885 10.8958 30.0251 10.8674C30.0434 10.8531 30.0574 10.8423 30.0667 10.8351C30.0714 10.8314 30.0749 10.8287 30.0773 10.8269C30.0785 10.8259 30.0794 10.8253 30.08 10.8248C30.0803 10.8246 30.0805 10.8244 30.0807 10.8243C30.0807 10.8242 30.0808 10.8242 30.0808 10.8241C30.0809 10.8241 30.0809 10.8241 29.6431 10.2597C29.2052 9.69534 29.2052 9.69535 29.2052 9.69538C29.2052 9.69541 29.2051 9.69545 29.205 9.69551C29.205 9.69557 29.2046 9.69586 29.2044 9.69603C29.2038 9.69649 29.2029 9.69718 29.2017 9.6981C29.1993 9.69994 29.1958 9.70267 29.1911 9.70631C29.1817 9.71358 29.1678 9.72438 29.1495 9.7386C29.1128 9.76702 29.0587 9.80902 28.9887 9.86334C28.8486 9.97199 28.6451 10.1299 28.391 10.327C27.8828 10.7212 27.1725 11.2722 26.3642 11.8993C24.7475 13.1535 22.7386 14.7119 21.1695 15.9291L22.0452 17.0579ZM26.8489 18.6296C28.1042 17.7167 29.7113 16.5479 31.0046 15.6073C31.6513 15.137 32.2195 14.7237 32.6261 14.428C32.8294 14.2802 32.9921 14.1618 33.1042 14.0803C33.1601 14.0396 33.2037 14.0079 33.2329 13.9867C33.2476 13.976 33.2586 13.968 33.2662 13.9625C33.2698 13.9598 33.2728 13.9577 33.2746 13.9563C33.2751 13.956 33.2768 13.9548 33.2768 13.9548C33.2769 13.9547 33.277 13.9546 33.2771 13.9546C33.2772 13.9545 33.2772 13.9544 33.2773 13.9544C33.2774 13.9544 33.2774 13.9543 33.2774 13.9543C33.2775 13.9543 33.2775 13.9543 32.8574 13.3766C32.4372 12.7989 32.4372 12.7989 32.4372 12.799C32.4372 12.799 32.4371 12.799 32.437 12.7991C32.4363 12.7996 32.4374 12.7988 32.4365 12.7995C32.436 12.7998 32.4353 12.8003 32.4344 12.801C32.4325 12.8024 32.4296 12.8045 32.4259 12.8072C32.4182 12.8128 32.4075 12.8205 32.3926 12.8314C32.3632 12.8528 32.3201 12.8841 32.264 12.9249C32.1519 13.0064 31.9891 13.1249 31.7858 13.2727C31.3793 13.5684 30.8111 13.9816 30.1644 14.4519C28.8711 15.3925 27.2639 16.5614 26.0087 17.4743L26.8489 18.6296ZM25.7145 30.7143V26.7773H24.2859V30.7143H25.7145ZM19.2859 31.4287L25.0002 31.4286L25.0002 30L19.2859 30.0001L19.2859 31.4287ZM17.1431 33.5716C18.721 33.5716 20.0002 32.2923 20.0002 30.7144H18.5716C18.5716 31.5034 17.932 32.143 17.1431 32.143V33.5716ZM12.7928 17.2078C13.0357 17.2078 13.2616 17.3309 13.393 17.5348L14.5938 16.7609C14.1991 16.1486 13.5209 15.7792 12.7928 15.7792V17.2078ZM14.2859 30.7143C14.2859 32.2922 15.5651 33.5716 17.1431 33.5716V32.143C16.3541 32.143 15.7145 31.5033 15.7145 30.7143H14.2859ZM23.7769 26.0931C24.079 26.1837 24.2859 26.4618 24.2859 26.7773H25.7145C25.7145 25.831 25.0938 24.9967 24.1874 24.7248L23.7769 26.0931ZM17.143 29.2858C17.932 29.2858 18.5716 29.9254 18.5716 30.7144H20.0002C20.0002 29.1364 18.721 27.8572 17.143 27.8572V29.2858ZM15.7145 30.7143C15.7145 29.9254 16.3541 29.2858 17.143 29.2858V27.8572C15.5651 27.8572 14.2859 29.1364 14.2859 30.7143H15.7145Z" fill="white"/>
</svg>
