<svg width="40" height="40" viewBox="0 0 40 40" fill="none" xmlns="http://www.w3.org/2000/svg">
<rect width="40" height="39.9998" rx="4" fill="#FF9B6B"/>
<path d="M7.14307 32.8569V29.9998L15.2247 28.5713M15.2247 28.5713L15.9594 27.1427M15.2247 28.5713L16.6941 32.8569L23.3063 27.1427M15.9594 27.1427V24.2856M15.9594 27.1427L22.5716 32.8569L24.041 28.5713M15.9594 24.2856L16.9304 24.9149C17.7352 25.4366 18.6738 25.7141 19.6329 25.7141V25.7141C20.5919 25.7141 21.5305 25.4366 22.3353 24.9149L23.3063 24.2856M15.9594 24.2856L14.6298 21.0539C14.5452 20.8483 14.3449 20.7142 14.1227 20.7142V20.7142C13.9004 20.7142 13.7001 20.58 13.6155 20.3744L12.2859 17.1428M23.3063 24.2856V27.1427M23.3063 24.2856L24.6359 21.0539C24.7205 20.8483 24.9208 20.7142 25.1431 20.7142V20.7142C25.3653 20.7142 25.5656 20.58 25.6502 20.3744L26.9798 17.1428M23.3063 27.1427L24.041 28.5713M24.041 28.5713L32.8574 29.9998V32.8569M12.2859 17.1428V14.2856M12.2859 17.1428L15.0427 16.6067L19.6329 15.7142L26.9798 17.1428M12.2859 14.2856L19.6329 12.8571M12.2859 14.2856L10.8165 11.4285L12.543 10.3095C14.3231 9.15574 16.2468 8.24016 18.2648 7.58617L19.6329 7.14282L20.2917 7.32584C23.2524 8.14826 26.0236 9.54199 28.4492 11.4285V11.4285L26.9798 14.2856M26.9798 17.1428V14.2856M26.9798 14.2856L19.6329 12.8571M19.6329 12.8571L18.1635 11.4285V9.28567H21.1022V11.4285L19.6329 12.8571Z" stroke="white" stroke-width="1.42857" stroke-linejoin="round"/>
</svg>
