<svg width="40" height="40" viewBox="0 0 40 40" fill="none" xmlns="http://www.w3.org/2000/svg">
<rect width="40" height="40" rx="4" fill="#FF9B6B"/>
<path d="M24.2872 9.91965C24.6756 9.91965 24.9904 9.60484 24.9904 9.21651C24.9904 8.82817 24.6756 8.51336 24.2872 8.51336V9.91965ZM30.7936 19.8162C30.7936 19.4279 30.4788 19.1131 30.0905 19.1131C29.7022 19.1131 29.3873 19.4279 29.3873 19.8162H30.7936ZM30.7047 9.21631C30.7047 8.82797 30.3899 8.51316 30.0015 8.51316C29.6132 8.51316 29.2984 8.82797 29.2984 9.21631H30.7047ZM30.0015 15.7142L29.5043 16.2114C29.6362 16.3433 29.815 16.4174 30.0015 16.4174C30.188 16.4174 30.3669 16.3433 30.4988 16.2114L30.0015 15.7142ZM33.3559 13.354C33.6305 13.0794 33.6305 12.6342 33.3559 12.3596C33.0812 12.085 32.636 12.085 32.3614 12.3596L33.3559 13.354ZM27.6416 12.3596C27.367 12.085 26.9218 12.085 26.6472 12.3596C26.3726 12.6342 26.3726 13.0794 26.6472 13.354L27.6416 12.3596ZM19.2761 12.8568C19.2761 12.4685 18.9613 12.1536 18.573 12.1536C18.1846 12.1536 17.8698 12.4685 17.8698 12.8568H19.2761ZM22.8587 16.4171C23.247 16.4171 23.5618 16.1023 23.5618 15.7139C23.5618 15.3256 23.247 15.0108 22.8587 15.0108V16.4171ZM14.2872 15.7139V15.0108C13.8989 15.0108 13.5841 15.3256 13.5841 15.7139H14.2872ZM14.2872 19.9997H13.5841C13.5841 20.388 13.8989 20.7028 14.2872 20.7028V19.9997ZM22.8587 19.9997H23.5618C23.5618 19.6113 23.247 19.2965 22.8587 19.2965V19.9997ZM22.8587 24.2854V24.9885C23.247 24.9885 23.5618 24.6737 23.5618 24.2854H22.8587ZM14.2872 23.5822C13.8989 23.5822 13.5841 23.897 13.5841 24.2854C13.5841 24.6737 13.8989 24.9885 14.2872 24.9885V23.5822ZM17.8698 27.8568C17.8698 28.2451 18.1846 28.5599 18.573 28.5599C18.9613 28.5599 19.2761 28.2451 19.2761 27.8568H17.8698ZM7.86886 19.9997C7.86886 20.388 8.18367 20.7028 8.57201 20.7028C8.96035 20.7028 9.27516 20.388 9.27516 19.9997H7.86886ZM14.2872 30.7254C13.8989 30.7254 13.5841 31.0402 13.5841 31.4285C13.5841 31.8169 13.8989 32.1317 14.2872 32.1317V30.7254ZM7.86886 31.4285C7.86886 31.8169 8.18367 32.1317 8.57201 32.1317C8.96035 32.1317 9.27516 31.8169 9.27516 31.4285H7.86886ZM8.57201 24.0545L9.08805 23.5769C8.95494 23.4331 8.76785 23.3513 8.57189 23.3513C8.37593 23.3514 8.18887 23.4332 8.05581 23.577L8.57201 24.0545ZM10.9141 27.6201C11.1778 27.9051 11.6227 27.9223 11.9077 27.6585C12.1927 27.3948 12.2099 26.9499 11.9461 26.6649L10.9141 27.6201ZM5.19962 26.6651C4.93593 26.9502 4.95329 27.395 5.23837 27.6587C5.52346 27.9224 5.96833 27.905 6.23202 27.62L5.19962 26.6651ZM24.2872 8.51336H11.3846V9.91965H24.2872V8.51336ZM30.7936 28.6159V19.8162H29.3873V28.6159H30.7936ZM29.2984 9.21631V15.7142H30.7047V9.21631H29.2984ZM30.4988 16.2114L33.3559 13.354L32.3614 12.3596L29.5043 15.2171L30.4988 16.2114ZM30.4988 15.2171L27.6416 12.3596L26.6472 13.354L29.5043 16.2114L30.4988 15.2171ZM17.8698 12.8568V15.7139H19.2761V12.8568H17.8698ZM18.573 16.4171H22.8587V15.0108H18.573V16.4171ZM13.5841 15.7139V19.9997H14.9904V15.7139H13.5841ZM14.2872 20.7028H22.8587V19.2965H14.2872V20.7028ZM22.1555 19.9997V24.2854H23.5618V19.9997H22.1555ZM22.8587 23.5822H18.573V24.9885H22.8587V23.5822ZM18.573 23.5822H14.2872V24.9885H18.573V23.5822ZM17.8698 24.2854V27.8568H19.2761V24.2854H17.8698ZM7.86886 12.0291V19.9997H9.27516V12.0291H7.86886ZM14.2872 32.1317H27.2779V30.7254H14.2872V32.1317ZM9.27516 31.4285V24.0545H7.86886V31.4285H9.27516ZM8.05597 24.5321L10.9141 27.6201L11.9461 26.6649L9.08805 23.5769L8.05597 24.5321ZM8.05581 23.577L5.19962 26.6651L6.23202 27.62L9.08821 24.5319L8.05581 23.577ZM18.573 15.0108H14.2872V16.4171H18.573V15.0108ZM29.3873 28.6159C29.3873 29.7809 28.4429 30.7254 27.2779 30.7254V32.1317C29.2196 32.1317 30.7936 30.5576 30.7936 28.6159H29.3873ZM11.3846 8.51336C9.44291 8.51336 7.86886 10.0874 7.86886 12.0291H9.27516C9.27516 10.8641 10.2196 9.91965 11.3846 9.91965V8.51336Z" fill="white"/>
</svg>
