<svg width="24" height="24" viewBox="0 0 24 24" fill="none" xmlns="http://www.w3.org/2000/svg">
<path d="M18.4313 15.4616C20.4723 13.6406 21.6013 11.5766 21.6013 11.5766C21.6013 11.5766 18.0013 4.97656 12.0013 4.97656C10.8486 4.98022 9.70876 5.22016 8.65234 5.68156L9.57634 6.60656C10.3533 6.32382 11.1735 6.17832 12.0003 6.17656C14.5443 6.17656 16.6553 7.57756 18.2023 9.12456C18.9463 9.87256 19.6143 10.6946 20.1943 11.5766C20.1243 11.6806 20.0483 11.7966 19.9603 11.9216C19.4364 12.6731 18.8482 13.3778 18.2023 14.0276C18.002 14.2286 17.7953 14.423 17.5823 14.6106L18.4313 15.4616Z" fill="#688F99"/>
<path d="M15.9571 12.9873C16.225 12.2383 16.2746 11.4286 16.1003 10.6525C15.9259 9.87635 15.5347 9.16569 14.9723 8.6032C14.4098 8.04071 13.6991 7.64953 12.923 7.47518C12.1468 7.30082 11.3372 7.35046 10.5881 7.61833L11.5761 8.60633C12.0372 8.54049 12.5072 8.58288 12.949 8.73017C13.3908 8.87745 13.7923 9.12557 14.1216 9.45487C14.4509 9.78418 14.699 10.1856 14.8463 10.6274C14.9936 11.0693 15.036 11.5393 14.9701 12.0003L15.9561 12.9863L15.9571 12.9873ZM12.4251 14.5463L13.4121 15.5323C12.6631 15.8002 11.8534 15.8498 11.0773 15.6755C10.3012 15.5011 9.59049 15.1099 9.028 14.5475C8.46552 13.985 8.07433 13.2743 7.89998 12.4982C7.72563 11.722 7.77527 10.9123 8.04313 10.1633L9.03113 11.1513C8.96512 11.6124 9.00739 12.0826 9.15459 12.5245C9.3018 12.9665 9.54989 13.3681 9.87922 13.6975C10.2086 14.0269 10.6101 14.2751 11.052 14.4225C11.4939 14.5698 11.964 14.6122 12.4251 14.5463Z" fill="#688F99"/>
<path d="M6.42039 8.53917C6.20772 8.72772 6.00063 8.92247 5.79939 9.12317C5.05494 9.87172 4.38758 10.6932 3.80739 11.5752L4.04139 11.9212C4.44339 12.4972 5.03739 13.2652 5.79939 14.0272C7.34639 15.5732 9.45839 16.9752 12.0004 16.9752C12.8604 16.9752 13.6684 16.8152 14.4244 16.5432L15.3484 17.4692C14.2923 17.9307 13.1529 18.171 12.0004 18.1752C6.00039 18.1752 2.40039 11.5752 2.40039 11.5752C2.40039 11.5752 3.52739 9.51017 5.57039 7.68917L6.42039 8.54017V8.53917ZM18.7764 19.1992L4.37639 4.80017L5.22639 3.95117L19.6264 18.3512L18.7764 19.2012V19.1992Z" fill="#688F99"/>
</svg>
