<svg width="61" height="60" viewBox="0 0 61 60" fill="none" xmlns="http://www.w3.org/2000/svg">
<rect x="0.5" width="60" height="60" rx="30" fill="#0FC263" fill-opacity="0.15"/>
<rect x="9.5" y="9" width="42" height="42" rx="21" fill="#0FC263" fill-opacity="0.25"/>
<path d="M41.2743 27.783C41.7556 30.1224 41.4625 32.5549 40.4392 34.713C39.4159 36.8711 37.7179 38.6375 35.602 39.7452C33.486 40.853 31.067 41.242 28.7104 40.8534C26.3538 40.4649 24.1877 39.3198 22.5394 37.5913C20.8911 35.8629 19.8502 33.6449 19.5739 31.2725C19.2976 28.9001 19.8009 26.5023 21.0079 24.4413C22.2148 22.3803 24.0598 20.7681 26.264 19.8483C28.4682 18.9286 30.9119 18.7512 33.2258 19.3431" stroke="#179542" stroke-width="2" stroke-linecap="round"/>
<path d="M26.5 28.5L30.5 32.5L41.5 20.5" stroke="#179542" stroke-width="2" stroke-linecap="round" stroke-linejoin="round"/>
</svg>
