<svg width="18" height="22" viewBox="0 0 18 22" fill="none" xmlns="http://www.w3.org/2000/svg">
<path d="M9.55 8.33333C9.55 8.05719 9.32614 7.83333 9.05 7.83333C8.77386 7.83333 8.55 8.05719 8.55 8.33333V13.6498L6.22883 11.6233C6.02081 11.4417 5.70495 11.4631 5.52334 11.6712C5.34173 11.8792 5.36315 12.1951 5.57117 12.3767L8.72117 15.1267L9.05 15.4137L9.37883 15.1267L12.5288 12.3767C12.7369 12.1951 12.7583 11.8792 12.5767 11.6712C12.3951 11.4631 12.0792 11.4417 11.8712 11.6233L9.55 13.6498V8.33333ZM5 17C4.72386 17 4.5 17.2239 4.5 17.5C4.5 17.7761 4.72386 18 5 18H13.1C13.3761 18 13.6 17.7761 13.6 17.5C13.6 17.2239 13.3761 17 13.1 17H5ZM3 0.5H11.2V5.41667C11.2 6.24509 11.8716 6.91667 12.7 6.91667H17.5V19C17.5 20.3807 16.3807 21.5 15 21.5H3C1.61929 21.5 0.5 20.3807 0.5 19V3C0.5 1.61929 1.61929 0.5 3 0.5ZM16.8084 5.91667H12.7C12.4239 5.91667 12.2 5.69281 12.2 5.41667V1.22294L16.8084 5.91667Z" stroke="#3293D9" stroke-linecap="round"/>
</svg>
