<svg width="19" height="19" viewBox="0 0 19 19" fill="none" xmlns="http://www.w3.org/2000/svg">
<path d="M9.5 6V9.5L11.25 11.25" stroke="#3293D9" stroke-width="1.5" stroke-linecap="round" stroke-linejoin="round"/>
<path d="M1.66992 10.2228C1.866 12.1478 2.7639 13.9332 4.19231 15.2384C5.62072 16.5436 7.47966 17.2772 9.41444 17.2993C11.3492 17.3214 13.2244 16.6304 14.6823 15.3582C16.1401 14.086 17.0786 12.3215 17.3186 10.4016C17.5586 8.48161 17.0833 6.54048 15.9835 4.94855C14.8837 3.35661 13.2362 2.22531 11.3555 1.77047C9.47485 1.31563 7.49253 1.56911 5.78679 2.48253C4.08106 3.39595 2.7713 4.90538 2.10742 6.72284" stroke="#3293D9" stroke-width="1.5" stroke-linecap="round" stroke-linejoin="round"/>
<path d="M1.625 2.5V6.875H6" stroke="#3293D9" stroke-width="1.5" stroke-linecap="round" stroke-linejoin="round"/>
</svg>
