<svg width="24" height="24" viewBox="0 0 24 24" fill="none" xmlns="http://www.w3.org/2000/svg">
<g clip-path="url(#clip0_5605_20923)">
<path d="M12.6 8.20833C12.6 7.87696 12.3314 7.60833 12 7.60833C11.6686 7.60833 11.4 7.87696 11.4 8.20833V12.7917C11.4 13.123 11.6686 13.3917 12 13.3917C12.3314 13.3917 12.6 13.123 12.6 12.7917V8.20833ZM12.6 15.0833C12.6 14.752 12.3314 14.4833 12 14.4833C11.6686 14.4833 11.4 14.752 11.4 15.0833V16C11.4 16.3314 11.6686 16.6 12 16.6C12.3314 16.6 12.6 16.3314 12.6 16V15.0833ZM19.9976 18.15H4.00245C3.69273 18.15 3.50051 17.8132 3.65808 17.5465L11.6556 4.01219C11.8105 3.75018 12.1895 3.75018 12.3444 4.01219L20.3419 17.5465C20.4995 17.8132 20.3073 18.15 19.9976 18.15Z" stroke="#FF0C0C" stroke-width="1.2" stroke-linecap="round"/>
</g>
<defs>
<clipPath id="clip0_5605_20923">
<rect width="24" height="24" fill="white"/>
</clipPath>
</defs>
</svg>
