<svg width="28" height="28" viewBox="0 0 28 28" fill="none" xmlns="http://www.w3.org/2000/svg">
<rect width="28" height="28" rx="14" fill="#ADD458"/>
<path d="M10.5153 12.2978C11.389 12.2978 12.2268 11.9507 12.8446 11.333C13.4624 10.7152 13.8094 9.87732 13.8094 9.00367V8.18014C13.8094 7.74331 13.983 7.32438 14.2918 7.01549C14.6007 6.70661 15.0197 6.53308 15.4565 6.53308C15.8933 6.53308 16.3122 6.70661 16.6211 7.01549C16.93 7.32438 17.1035 7.74331 17.1035 8.18014V12.2978H19.5741C20.011 12.2978 20.4299 12.4713 20.7388 12.7802C21.0477 13.0891 21.2212 13.508 21.2212 13.9448L20.3977 18.0625C20.2791 18.5673 20.0543 19.0013 19.7578 19.2986C19.4605 19.5951 19.1072 19.74 18.7506 19.7096H12.9859C12.3307 19.7096 11.7023 19.4493 11.2389 18.9859C10.7756 18.5226 10.5153 17.8942 10.5153 17.239M10.5153 12.2978V18.886C10.5153 19.1044 10.4285 19.3139 10.2741 19.4683C10.1197 19.6228 9.91019 19.7096 9.69178 19.7096H8.04472C7.82631 19.7096 7.61684 19.6228 7.4624 19.4683C7.30796 19.3139 7.22119 19.1044 7.22119 18.886V13.1213C7.22119 12.9029 7.30796 12.6934 7.4624 12.539C7.61684 12.3846 7.82631 12.2978 8.04472 12.2978H10.5153Z" stroke="white" stroke-width="1.4" stroke-linecap="round" stroke-linejoin="round"/>
</svg>
