<svg width="40" height="40" viewBox="0 0 40 40" fill="none" xmlns="http://www.w3.org/2000/svg">
<rect width="40" height="39.9998" rx="4" fill="#688F99" fill-opacity="0.15"/>
<path d="M6.89227 11.6168C6.5229 11.7554 6.33575 12.1671 6.47426 12.5364C6.61277 12.9058 7.0245 13.093 7.39387 12.9545L6.89227 11.6168ZM32.576 12.9422C32.9386 13.0976 33.3585 12.9296 33.5139 12.567C33.6693 12.2044 33.5013 11.7845 33.1387 11.6291L32.576 12.9422ZM12.2859 24.4284C11.8914 24.4284 11.5716 24.7482 11.5716 25.1427C11.5716 25.5372 11.8914 25.857 12.2859 25.857V24.4284ZM16.5716 25.857C16.9661 25.857 17.2859 25.5372 17.2859 25.1427C17.2859 24.7482 16.9661 24.4284 16.5716 24.4284V25.857ZM29.4288 25.857C29.8233 25.857 30.1431 25.5372 30.1431 25.1427C30.1431 24.7482 29.8233 24.4284 29.4288 24.4284V25.857ZM25.1431 24.4284C24.7486 24.4284 24.4288 24.7482 24.4288 25.1427C24.4288 25.5372 24.7486 25.857 25.1431 25.857V24.4284ZM27.4711 32.8134L27.4922 33.5273L27.4711 32.8134ZM28.1472 32.7933L28.1684 33.5073L28.1472 32.7933ZM21.3846 7.36878L21.1032 8.02531L21.3846 7.36878ZM9.85735 29.4284V31.4284H11.2859V29.4284H9.85735ZM12.0002 33.5712H12.8574V32.1427H12.0002V33.5712ZM15.0002 31.4284V29.4284H13.5716V31.4284H15.0002ZM14.2859 28.7141H9.42877V30.1427H14.2859V28.7141ZM8.71449 27.9998V22.2856H7.28593V27.9998H8.71449ZM32.1431 22.2856V27.9998H33.5716V22.2856H32.1431ZM31.4288 28.7141H29.5335V30.1427H31.4288V28.7141ZM28.8192 29.4284V31.3654H30.2477V29.4284H28.8192ZM28.126 32.0794L27.4499 32.0994L27.4922 33.5273L28.1684 33.5073L28.126 32.0794ZM26.7145 31.3854V29.4284H25.2859V31.3854H26.7145ZM26.0002 30.1427H29.5335V28.7141H26.0002V30.1427ZM14.2859 30.1427H26.0002V28.7141H14.2859V30.1427ZM9.42878 21.5713H10.5716V20.1427H9.42878V21.5713ZM11.2105 21.1765L13.8494 15.8987L12.5716 15.2599L9.93276 20.5376L11.2105 21.1765ZM15.766 14.7142H25.7345V13.2856H15.766V14.7142ZM10.5716 21.5713H30.2859V20.1427H10.5716V21.5713ZM30.2859 21.5713H31.4288V20.1427H30.2859V21.5713ZM27.7409 16.1046L29.6171 21.1078L30.9547 20.6062L29.0785 15.603L27.7409 16.1046ZM7.39387 12.9545L20.5711 8.01304L20.0695 6.67543L6.89227 11.6168L7.39387 12.9545ZM21.1032 8.02531L32.576 12.9422L33.1387 11.6291L21.666 6.71225L21.1032 8.02531ZM12.2859 25.857H16.5716V24.4284H12.2859V25.857ZM25.1431 25.857H29.4288V24.4284H25.1431V25.857ZM25.7345 14.7142C26.6277 14.7142 27.4273 15.2683 27.7409 16.1046L29.0785 15.603C28.5558 14.2091 27.2232 13.2856 25.7345 13.2856V14.7142ZM27.4499 32.0994C27.0473 32.1113 26.7145 31.7882 26.7145 31.3854H25.2859C25.2859 32.5938 26.2844 33.5631 27.4922 33.5273L27.4499 32.0994ZM28.8192 31.3654C28.8192 31.7517 28.5121 32.0679 28.126 32.0794L28.1684 33.5073C29.3266 33.473 30.2477 32.5242 30.2477 31.3654H28.8192ZM32.1431 27.9998C32.1431 28.3943 31.8233 28.7141 31.4288 28.7141V30.1427C32.6122 30.1427 33.5716 29.1833 33.5716 27.9998H32.1431ZM8.71449 22.2856C8.71449 21.8911 9.03429 21.5713 9.42878 21.5713V20.1427C8.24531 20.1427 7.28593 21.1021 7.28593 22.2856H8.71449ZM9.42877 28.7141C9.03429 28.7141 8.71449 28.3943 8.71449 27.9998H7.28593C7.28593 29.1833 8.24531 30.1427 9.42877 30.1427V28.7141ZM13.8494 15.8987C14.2124 15.1728 14.9544 14.7142 15.766 14.7142V13.2856C14.4133 13.2856 13.1766 14.0499 12.5716 15.2599L13.8494 15.8987ZM12.8574 33.5712C14.0408 33.5712 15.0002 32.6118 15.0002 31.4284H13.5716C13.5716 31.8229 13.2518 32.1427 12.8574 32.1427V33.5712ZM20.5711 8.01304C20.7434 7.94841 20.934 7.95281 21.1032 8.02531L21.666 6.71225C21.1584 6.49473 20.5865 6.48154 20.0695 6.67543L20.5711 8.01304ZM33.5716 22.2856C33.5716 21.1021 32.6122 20.1427 31.4288 20.1427V21.5713C31.8233 21.5713 32.1431 21.8911 32.1431 22.2856H33.5716ZM9.85735 31.4284C9.85735 32.6118 10.8167 33.5712 12.0002 33.5712V32.1427C11.6057 32.1427 11.2859 31.8229 11.2859 31.4284H9.85735Z" fill="#1C272C"/>
</svg>
