<svg width="28" height="28" viewBox="0 0 28 28" fill="none" xmlns="http://www.w3.org/2000/svg">
<rect width="28" height="28" rx="14" fill="#82B2E7"/>
<path d="M12.25 7.58337C12.25 7.11925 12.4344 6.67413 12.7626 6.34594C13.0908 6.01775 13.5359 5.83337 14 5.83337C14.4641 5.83337 14.9092 6.01775 15.2374 6.34594C15.5656 6.67413 15.75 7.11925 15.75 7.58337C16.7549 8.05852 17.6115 8.79816 18.228 9.72301C18.8446 10.6479 19.1979 11.7231 19.25 12.8334V15.4584C19.3158 16.0024 19.5085 16.5233 19.8125 16.9792C20.1164 17.4352 20.5232 17.8134 21 18.0834H7C7.47682 17.8134 7.88358 17.4352 8.18754 16.9792C8.49149 16.5233 8.68415 16.0024 8.75 15.4584V12.8334C8.80212 11.7231 9.15539 10.6479 9.77196 9.72301C10.3885 8.79816 11.2451 8.05852 12.25 7.58337" stroke="white" stroke-width="1.4" stroke-linecap="round" stroke-linejoin="round"/>
<path d="M11.3755 18.0834V18.9584C11.3755 19.6546 11.652 20.3222 12.1443 20.8145C12.6366 21.3068 13.3043 21.5834 14.0005 21.5834C14.6967 21.5834 15.3644 21.3068 15.8566 20.8145C16.3489 20.3222 16.6255 19.6546 16.6255 18.9584V18.0834" stroke="white" stroke-width="1.4" stroke-linecap="round" stroke-linejoin="round"/>
</svg>
