<svg width="28" height="28" viewBox="0 0 28 28" fill="none" xmlns="http://www.w3.org/2000/svg">
<rect width="28" height="28" rx="14" fill="#FF9B6B"/>
<path d="M14 21C14.9193 21 15.8295 20.8189 16.6788 20.4672C17.5281 20.1154 18.2997 19.5998 18.9497 18.9497C19.5998 18.2997 20.1154 17.5281 20.4672 16.6788C20.8189 15.8295 21 14.9193 21 14C21 13.0807 20.8189 12.1705 20.4672 11.3212C20.1154 10.4719 19.5998 9.70026 18.9497 9.05025C18.2997 8.40024 17.5281 7.88463 16.6788 7.53284C15.8295 7.18106 14.9193 7 14 7C12.1435 7 10.363 7.7375 9.05025 9.05025C7.7375 10.363 7 12.1435 7 14C7 15.8565 7.7375 17.637 9.05025 18.9497C10.363 20.2625 12.1435 21 14 21V21Z" stroke="white" stroke-width="1.4" stroke-linecap="round" stroke-linejoin="round"/>
<path d="M11.6665 14.0001L13.2221 15.5557L16.3332 12.4446" stroke="white" stroke-width="1.4" stroke-linecap="round" stroke-linejoin="round"/>
</svg>
