<svg width="40" height="40" viewBox="0 0 40 40" fill="none" xmlns="http://www.w3.org/2000/svg">
<rect width="40" height="40" rx="4" fill="#688F99" fill-opacity="0.15"/>
<path d="M16.8758 31.6417C16.4875 31.6417 16.1727 31.9565 16.1727 32.3448C16.1727 32.7332 16.4875 33.048 16.8758 33.048V31.6417ZM29.5325 13.3598H30.2356V13.0686L30.0297 12.8626L29.5325 13.3598ZM23.2041 7.03149L23.7013 6.53429L23.4954 6.32835H23.2041V7.03149ZM13.3601 26.0165H14.0632V25.3133H13.3601V26.0165ZM10.5475 26.0165V25.3133H9.84433V26.0165H10.5475ZM16.8758 28.1259C16.4875 28.1259 16.1727 28.4407 16.1727 28.8291C16.1727 29.2174 16.4875 29.5322 16.8758 29.5322V28.1259ZM25.3136 29.5322C25.7019 29.5322 26.0167 29.2174 26.0167 28.8291C26.0167 28.4407 25.7019 28.1259 25.3136 28.1259V29.5322ZM18.9853 24.6102C18.5969 24.6102 18.2821 24.925 18.2821 25.3133C18.2821 25.7017 18.5969 26.0165 18.9853 26.0165V24.6102ZM25.3136 26.0165C25.7019 26.0165 26.0167 25.7017 26.0167 25.3133C26.0167 24.925 25.7019 24.6102 25.3136 24.6102V26.0165ZM21.0947 21.0945C20.7064 21.0945 20.3915 21.4093 20.3915 21.7976C20.3915 22.1859 20.7064 22.5007 21.0947 22.5007V21.0945ZM25.3136 22.5007C25.7019 22.5007 26.0167 22.1859 26.0167 21.7976C26.0167 21.4093 25.7019 21.0945 25.3136 21.0945V22.5007ZM21.0947 17.5787C20.7064 17.5787 20.3915 17.8935 20.3915 18.2819C20.3915 18.6702 20.7064 18.985 21.0947 18.985V17.5787ZM25.3136 18.985C25.7019 18.985 26.0167 18.6702 26.0167 18.2819C26.0167 17.8935 25.7019 17.5787 25.3136 17.5787V18.985ZM10.3415 17.0815C10.0669 16.8069 9.62173 16.8069 9.34713 17.0815C9.07253 17.3561 9.07253 17.8013 9.34713 18.0759L10.3415 17.0815ZM11.2506 18.985L10.7534 19.4822C11.028 19.7568 11.4732 19.7568 11.7478 19.4822L11.2506 18.985ZM14.5604 16.6696C14.835 16.395 14.835 15.9498 14.5604 15.6752C14.2858 15.4006 13.8406 15.4006 13.566 15.6752L14.5604 16.6696ZM16.8758 33.048H28.1262V31.6417H16.8758V33.048ZM30.2356 30.9385V13.3598H28.8293V30.9385H30.2356ZM29.5325 12.6567H24.6104V14.063H29.5325V12.6567ZM23.9073 11.9535V7.03149H22.501V11.9535H23.9073ZM22.7069 7.52869L29.0353 13.857L30.0297 12.8626L23.7013 6.53429L22.7069 7.52869ZM23.2041 6.32835H13.3601V7.73464H23.2041V6.32835ZM11.2506 8.43779V9.84409H12.6569V8.43779H11.2506ZM14.0632 30.9385V26.0165H12.6569V30.9385H14.0632ZM9.84433 26.0165V30.9385H11.2506V26.0165H9.84433ZM13.3601 25.3133H12.0319V26.7196H13.3601V25.3133ZM12.0319 25.3133H10.5475V26.7196H12.0319V25.3133ZM12.735 26.0165V22.5007H11.3288V26.0165H12.735ZM12.0319 21.7976H11.9538V23.2039H12.0319V21.7976ZM16.8758 29.5322H25.3136V28.1259H16.8758V29.5322ZM18.9853 26.0165H25.3136V24.6102H18.9853V26.0165ZM21.0947 22.5007H25.3136V21.0945H21.0947V22.5007ZM21.0947 18.985H25.3136V17.5787H21.0947V18.985ZM9.34713 18.0759L10.7534 19.4822L11.7478 18.4878L10.3415 17.0815L9.34713 18.0759ZM11.7478 19.4822L14.5604 16.6696L13.566 15.6752L10.7534 18.4878L11.7478 19.4822ZM11.9538 13.3598C14.2765 13.3598 16.1727 15.2808 16.1727 17.6181H17.579C17.579 14.5187 15.0677 11.9535 11.9538 11.9535V13.3598ZM11.9538 21.7976C9.62375 21.7976 7.73489 19.9087 7.73489 17.5787H6.32859C6.32859 20.6854 8.84707 23.2039 11.9538 23.2039V21.7976ZM11.9538 31.6417C11.5654 31.6417 11.2506 31.3269 11.2506 30.9385H9.84433C9.84433 32.1035 10.7888 33.048 11.9538 33.048V31.6417ZM16.1727 17.6181C16.1727 19.9123 14.3115 21.7976 12.0319 21.7976V23.2039C15.1027 23.2039 17.579 20.6743 17.579 17.6181H16.1727ZM13.3601 6.32835C12.1951 6.32835 11.2506 7.27278 11.2506 8.43779H12.6569C12.6569 8.04945 12.9717 7.73464 13.3601 7.73464V6.32835ZM11.9538 33.048C13.1188 33.048 14.0632 32.1035 14.0632 30.9385H12.6569C12.6569 31.3269 12.3421 31.6417 11.9538 31.6417V33.048ZM7.73489 17.5787C7.73489 15.2487 9.62375 13.3598 11.9538 13.3598V11.9535C8.84707 11.9535 6.32859 14.472 6.32859 17.5787H7.73489ZM24.6104 12.6567C24.2221 12.6567 23.9073 12.3419 23.9073 11.9535H22.501C22.501 13.1185 23.4454 14.063 24.6104 14.063V12.6567ZM28.1262 33.048C29.2912 33.048 30.2356 32.1035 30.2356 30.9385H28.8293C28.8293 31.3269 28.5145 31.6417 28.1262 31.6417V33.048Z" fill="#1C272C"/>
</svg>
