<svg width="40" height="40" viewBox="0 0 40 40" fill="none" xmlns="http://www.w3.org/2000/svg">
<rect width="40" height="40.0002" rx="4" fill="#688F99" fill-opacity="0.15"/>
<path d="M11.964 22.8571C12.4139 22.8571 12.8454 23.0358 13.1636 23.354C13.4817 23.6721 13.6604 24.1036 13.6604 24.5536C13.6604 25.0035 13.4817 25.435 13.1636 25.7531C12.8454 26.0713 12.4139 26.25 11.964 26.25C11.5141 26.25 11.0826 26.0713 10.7645 25.7531C10.4463 25.435 10.2676 25.0035 10.2676 24.5536C10.2676 24.1036 10.4463 23.6721 10.7645 23.354C11.0826 23.0358 11.5141 22.8571 11.964 22.8571ZM11.964 28.8839C13.2092 28.8839 14.3006 29.1376 15.0542 29.5144C15.8504 29.9125 16.0711 30.3305 16.0711 30.5804V31.4286C16.0711 31.8231 15.7514 32.1429 15.3569 32.1429H11.964H8.57115C8.17666 32.1429 7.85687 31.8231 7.85687 31.4286V30.5804C7.85687 30.3305 8.0776 29.9125 8.87379 29.5144C9.62745 29.1376 10.7188 28.8839 11.964 28.8839Z" stroke="#1C272C" stroke-width="1.42858"/>
<path d="M28.0358 22.8571C28.4857 22.8571 28.9172 23.0358 29.2353 23.354C29.5535 23.6721 29.7322 24.1036 29.7322 24.5536C29.7322 25.0035 29.5535 25.435 29.2353 25.7531C28.9172 26.0713 28.4857 26.25 28.0358 26.25C27.5859 26.25 27.1544 26.0713 26.8362 25.7531C26.5181 25.435 26.3394 25.0035 26.3394 24.5536C26.3394 24.1036 26.5181 23.6721 26.8362 23.354C27.1544 23.0358 27.5859 22.8571 28.0358 22.8571ZM28.0358 28.8839C29.2809 28.8839 30.3723 29.1376 31.126 29.5144C31.9222 29.9125 32.1429 30.3305 32.1429 30.5804V31.4286C32.1429 31.8231 31.8231 32.1429 31.4286 32.1429H28.0358H24.6429C24.2484 32.1429 23.9286 31.8231 23.9286 31.4286V30.5804C23.9286 30.3305 24.1494 29.9125 24.9456 29.5144C25.6992 29.1376 26.7906 28.8839 28.0358 28.8839Z" stroke="#1C272C" stroke-width="1.42858"/>
<path d="M20.5348 7.85711C20.9847 7.85711 21.4162 8.03584 21.7344 8.35398C22.0525 8.67213 22.2312 9.10363 22.2312 9.55355C22.2312 10.0035 22.0525 10.435 21.7344 10.7531C21.4162 11.0713 20.9847 11.25 20.5348 11.25C20.0849 11.25 19.6534 11.0713 19.3353 10.7531C19.0171 10.435 18.8384 10.0035 18.8384 9.55355C18.8384 9.10363 19.0171 8.67213 19.3353 8.35398C19.6534 8.03584 20.0849 7.85711 20.5348 7.85711ZM20.5348 13.8839C21.78 13.8839 22.8714 14.1376 23.625 14.5144C24.4212 14.9125 24.6419 15.3305 24.6419 15.5804V16.4286C24.6419 16.8231 24.3222 17.1429 23.9277 17.1429H20.5348H17.142C16.7475 17.1429 16.4277 16.8231 16.4277 16.4286V15.5804C16.4277 15.3305 16.6484 14.9125 17.4446 14.5144C18.1982 14.1376 19.2896 13.8839 20.5348 13.8839Z" stroke="#1C272C" stroke-width="1.42858"/>
<line x1="0.714288" y1="-0.714288" x2="4.64287" y2="-0.714288" transform="matrix(0.843584 0.536998 -0.536993 0.843587 19.999 24.2856)" stroke="#1C272C" stroke-width="1.42858" stroke-linecap="round"/>
<line x1="0.714288" y1="-0.714288" x2="4.64287" y2="-0.714288" transform="matrix(-0.843584 0.536998 0.536993 0.843587 21.3057 24.2856)" stroke="#1C272C" stroke-width="1.42858" stroke-linecap="round"/>
<line x1="20.7133" y1="19.6428" x2="20.7133" y2="23.5714" stroke="#1C272C" stroke-width="1.42858" stroke-linecap="round"/>
</svg>
